<svg viewBox="0 0 1115.4000244140625 400" xmlns="http://www.w3.org/2000/svg"><g><g><g><g><g><line x1="51.5625" y1="378" x2="46.5625" y2="378" style="visibility: inherit;" fill="rgb(0, 0, 0)" stroke="rgb(204, 204, 204)" stroke-width="1px"></line><line x1="51.5625" y1="330.75" x2="46.5625" y2="330.75" style="visibility: inherit;" fill="rgb(0, 0, 0)" stroke="rgb(204, 204, 204)" stroke-width="1px"></line><line x1="51.5625" y1="283.5" x2="46.5625" y2="283.5" style="visibility: inherit;" fill="rgb(0, 0, 0)" stroke="rgb(204, 204, 204)" stroke-width="1px"></line><line x1="51.5625" y1="236.24999999999997" x2="46.5625" y2="236.24999999999997" style="visibility: inherit;" fill="rgb(0, 0, 0)" stroke="rgb(204, 204, 204)" stroke-width="1px"></line><line x1="51.5625" y1="188.99999999999997" x2="46.5625" y2="188.99999999999997" style="visibility: inherit;" fill="rgb(0, 0, 0)" stroke="rgb(204, 204, 204)" stroke-width="1px"></line><line x1="51.5625" y1="141.75" x2="46.5625" y2="141.75" style="visibility: inherit;" fill="rgb(0, 0, 0)" stroke="rgb(204, 204, 204)" stroke-width="1px"></line><line x1="51.5625" y1="94.5" x2="46.5625" y2="94.5" style="visibility: inherit;" fill="rgb(0, 0, 0)" stroke="rgb(204, 204, 204)" stroke-width="1px"></line><line x1="51.5625" y1="47.25" x2="46.5625" y2="47.25" style="visibility: inherit;" fill="rgb(0, 0, 0)" stroke="rgb(204, 204, 204)" stroke-width="1px"></line><line x1="51.5625" y1="0" x2="46.5625" y2="0" style="visibility: inherit;" fill="rgb(0, 0, 0)" stroke="rgb(204, 204, 204)" stroke-width="1px"></line></g><g transform="translate(41.5625, 0)"><text x="0" y="378" dx="0em" dy="0.3em" style="text-anchor: end; visibility: hidden; font-family: Roboto, sans-serif; font-size: 12px; font-weight: 200;" fill="rgb(50, 49, 63)" stroke="none" stroke-width="1px">-0.1</text><text x="0" y="330.75" dx="0em" dy="0.3em" style="text-anchor: end; visibility: inherit; font-family: Roboto, sans-serif; font-size: 12px; font-weight: 200;" fill="rgb(50, 49, 63)" stroke="none" stroke-width="1px">0</text><text x="0" y="283.5" dx="0em" dy="0.3em" style="text-anchor: end; visibility: inherit; font-family: Roboto, sans-serif; font-size: 12px; font-weight: 200;" fill="rgb(50, 49, 63)" stroke="none" stroke-width="1px">0.1</text><text x="0" y="236.24999999999997" dx="0em" dy="0.3em" style="text-anchor: end; visibility: inherit; font-family: Roboto, sans-serif; font-size: 12px; font-weight: 200;" fill="rgb(50, 49, 63)" stroke="none" stroke-width="1px">0.2</text><text x="0" y="188.99999999999997" dx="0em" dy="0.3em" style="text-anchor: end; visibility: inherit; font-family: Roboto, sans-serif; font-size: 12px; font-weight: 200;" fill="rgb(50, 49, 63)" stroke="none" stroke-width="1px">0.3</text><text x="0" y="141.75" dx="0em" dy="0.3em" style="text-anchor: end; visibility: inherit; font-family: Roboto, sans-serif; font-size: 12px; font-weight: 200;" fill="rgb(50, 49, 63)" stroke="none" stroke-width="1px">0.4</text><text x="0" y="94.5" dx="0em" dy="0.3em" style="text-anchor: end; visibility: inherit; font-family: Roboto, sans-serif; font-size: 12px; font-weight: 200;" fill="rgb(50, 49, 63)" stroke="none" stroke-width="1px">0.5</text><text x="0" y="47.25" dx="0em" dy="0.3em" style="text-anchor: end; visibility: inherit; font-family: Roboto, sans-serif; font-size: 12px; font-weight: 200;" fill="rgb(50, 49, 63)" stroke="none" stroke-width="1px">0.6</text><text x="0" y="0" dx="0em" dy="0.3em" style="text-anchor: end; visibility: hidden; font-family: Roboto, sans-serif; font-size: 12px; font-weight: 200;" fill="rgb(50, 49, 63)" stroke="none" stroke-width="1px">0.7</text></g><line x1="51.5625" y1="0" x2="51.5625" y2="378" fill="rgb(0, 0, 0)" stroke="rgb(204, 204, 204)" stroke-width="1px"></line></g></g><g transform="translate(51, 0)" clip-path="url(#clip_0)"><clipPath id="clip_0"><rect width="1063" height="378"></rect></clipPath><g><g><g><line x1="0" y1="0" x2="0" y2="378" fill="rgb(0, 0, 0)" stroke="rgb(60, 60, 60)" stroke-width="1px" opacity="0.25"></line><line x1="81.83365384615385" y1="0" x2="81.83365384615385" y2="378" fill="rgb(0, 0, 0)" stroke="rgb(60, 60, 60)" stroke-width="1px" opacity="0.25"></line><line x1="163.6673076923077" y1="0" x2="163.6673076923077" y2="378" fill="rgb(0, 0, 0)" stroke="rgb(60, 60, 60)" stroke-width="1px" opacity="0.25"></line><line x1="245.50096153846158" y1="0" x2="245.50096153846158" y2="378" fill="rgb(0, 0, 0)" stroke="rgb(60, 60, 60)" stroke-width="1px" opacity="0.25"></line><line x1="327.3346153846154" y1="0" x2="327.3346153846154" y2="378" fill="rgb(0, 0, 0)" stroke="rgb(60, 60, 60)" stroke-width="1px" opacity="0.25"></line><line x1="409.1682692307692" y1="0" x2="409.1682692307692" y2="378" fill="rgb(0, 0, 0)" stroke="rgb(60, 60, 60)" stroke-width="1px" opacity="0.25"></line><line x1="491.0019230769231" y1="0" x2="491.0019230769231" y2="378" fill="rgb(0, 0, 0)" stroke="rgb(60, 60, 60)" stroke-width="1px" opacity="0.25"></line><line x1="572.8355769230769" y1="0" x2="572.8355769230769" y2="378" fill="rgb(0, 0, 0)" stroke="rgb(60, 60, 60)" stroke-width="1px" opacity="0.25"></line><line x1="654.6692307692307" y1="0" x2="654.6692307692307" y2="378" fill="rgb(0, 0, 0)" stroke="rgb(60, 60, 60)" stroke-width="1px" opacity="0.25"></line><line x1="736.5028846153847" y1="0" x2="736.5028846153847" y2="378" fill="rgb(0, 0, 0)" stroke="rgb(60, 60, 60)" stroke-width="1px" opacity="0.25"></line><line x1="818.3365384615385" y1="0" x2="818.3365384615385" y2="378" fill="rgb(0, 0, 0)" stroke="rgb(60, 60, 60)" stroke-width="1px" opacity="0.25"></line><line x1="900.1701923076923" y1="0" x2="900.1701923076923" y2="378" fill="rgb(0, 0, 0)" stroke="rgb(60, 60, 60)" stroke-width="1px" opacity="0.25"></line><line x1="982.0038461538463" y1="0" x2="982.0038461538463" y2="378" fill="rgb(0, 0, 0)" stroke="rgb(60, 60, 60)" stroke-width="1px" opacity="0.25"></line><line x1="1063.8375" y1="0" x2="1063.8375" y2="378" fill="rgb(0, 0, 0)" stroke="rgb(60, 60, 60)" stroke-width="1px" opacity="0.25"></line></g><g><line x1="0" y1="378" x2="1063.8375" y2="378" fill="rgb(0, 0, 0)" stroke="rgb(60, 60, 60)" stroke-width="1px" opacity="0.25"></line><line x1="0" y1="330.75" x2="1063.8375" y2="330.75" fill="rgb(0, 0, 0)" stroke="rgb(60, 60, 60)" stroke-width="1px" opacity="0.25"></line><line x1="0" y1="283.5" x2="1063.8375" y2="283.5" fill="rgb(0, 0, 0)" stroke="rgb(60, 60, 60)" stroke-width="1px" opacity="0.25"></line><line x1="0" y1="236.24999999999997" x2="1063.8375" y2="236.24999999999997" fill="rgb(0, 0, 0)" stroke="rgb(60, 60, 60)" stroke-width="1px" opacity="0.25"></line><line x1="0" y1="188.99999999999997" x2="1063.8375" y2="188.99999999999997" fill="rgb(0, 0, 0)" stroke="rgb(60, 60, 60)" stroke-width="1px" opacity="0.25"></line><line x1="0" y1="141.75" x2="1063.8375" y2="141.75" fill="rgb(0, 0, 0)" stroke="rgb(60, 60, 60)" stroke-width="1px" opacity="0.25"></line><line x1="0" y1="94.5" x2="1063.8375" y2="94.5" fill="rgb(0, 0, 0)" stroke="rgb(60, 60, 60)" stroke-width="1px" opacity="0.25"></line><line x1="0" y1="47.25" x2="1063.8375" y2="47.25" fill="rgb(0, 0, 0)" stroke="rgb(60, 60, 60)" stroke-width="1px" opacity="0.25"></line><line x1="0" y1="0" x2="1063.8375" y2="0" fill="rgb(0, 0, 0)" stroke="rgb(60, 60, 60)" stroke-width="1px" opacity="0.25"></line></g></g></g><g><g><line x1="0" y1="330.75" x2="1063.8375" y2="330.75" fill="rgb(0, 0, 0)" stroke="rgb(153, 153, 153)" stroke-width="1.5px"></line></g></g><g><g><line x1="81.83365384615385" y1="0" x2="81.83365384615385" y2="378" fill="rgb(0, 0, 0)" stroke="rgb(153, 153, 153)" stroke-width="1.5px"></line></g></g><g><g><g><g><g><path stroke="rgb(255, 112, 67)" stroke-width="2px" d="M81.83365384615385,53.54133662581444L82.09643080128205,97.53078146033272L82.14939536057693,110.18417570121888L82.19190339743591,122.73356147683025L82.24350406250001,132.39758694192156L82.87475977564104,135.8194797456423L82.91772244391026,140.18539214176866L83.17117945512821,140.35491401083615L83.28892899038463,143.17565018936995L83.65399801282052,148.3148490188453L83.72332930288462,148.66193324440331L83.80789074519232,148.72528408744745L84.45528587339744,148.43537576378438L84.50688653846154,148.30791177107326L85.50775758814103,149.646934800668L85.91147028044873,150.71217691138796L86.0499055448718,151.34834892816622L86.22812105769232,151.8932774329778L86.5495454647436,152.20597942978577L86.70548403846155,152.11259618320855L86.77549727564103,152.37826997649174L86.95212157852563,151.8905021759606L87.37447415865385,153.65996036332967L87.38470336538462,154.61935121632376L87.60565423076923,154.84776325126418L87.76613911858975,155.0907503835255L88.0300526522436,155.15254372514468L88.31601580929488,154.98047740805305L88.34556685096155,154.89152101908897L88.54128567307693,154.74945320327683L88.63880411057693,154.7237927573901L88.67290146634618,153.90701308999618L88.90794590544871,154.62845430739722L89.5532951923077,155.03888557254473L89.7290102323718,154.70539943142265L90.51665915064103,154.66581460808578L90.94333072916668,154.7962606851879L90.99470407852564,153.83572499050723L91.47365826923077,154.8812930715028L91.50252736378205,155.57709762394904L91.8446375,155.85078940615935L92.61182800480769,156.05375691782618L92.74458037660257,156.16462880163712L93.81250955929488,156.81622829740974L94.12961496794874,157.4208905458755L94.22304172275642,157.6170271643516L94.33988199519233,157.65754389986L94.8474779647436,157.62109225823704L95.3914444471154,158.16721555683247L96.01974505608976,158.75660751071047L96.22296529647437,159.0117338693841L96.43027721955129,159.46244048851824L96.62099509615385,160.06243129030764L102.96855884615385,160.24051847770528L103.06062170673077,160.50578058338363L103.13790904647436,161.17164637373588L103.43523798878206,161.26527487055722L103.60458818910259,161.36627832846605L103.87736703525643,161.33799927179638L103.9144194951923,161.86794078143197L104.10263689903847,162.28067844321822L104.17083161057693,162.69595457385387L104.37723427083334,162.41759905411644L104.43860951121795,163.242778940079L104.59977634615386,163.19731835006613L105.54995599358975,163.29704783746885L105.5760972996795,163.67564340703115L106.45103544871796,163.95541744423042L106.52286721153847,164.31217904357783L106.58378782051282,164.5793665655826L106.81269473557693,164.5597904364853L106.84042725160256,165.00168325167164L107.26800809294873,165.3739969681945L107.39621415064103,165.84236813829835L107.43303929487182,166.0004894010683L107.81924867788462,166.55136949215103L108.01701334134617,166.8403393586742L108.31047791666667,167.10273304857586L109.65459568108977,167.35600020754936L110.36632115384616,167.78515789692406L111.60450979967949,167.83531029419876L111.62860526442309,168.00962402176316L111.68929855769233,168.3089728204181L111.86819601762822,168.56821190518397L112.3678359375,168.69523944646562L112.52309256410257,168.94809007097356L112.54650608173077,169.38515445669617L112.93817104166669,169.29766776127374L113.06478588942309,169.68963148058364L113.14821075320513,170.0682424643049L113.16003116987183,170.37689848216598L113.77310162660258,170.57323831293579L113.80583508814102,170.55990619782668L114.24591829326924,170.6764393210284L114.69032049679487,170.688636742766L114.88922173878207,170.64519657689632L115.10085266025644,170.3933110478564L115.10767213141027,170.79862066258238L115.2263309294872,171.20622066317569L115.35681014423079,171.21668810410475L115.53025202724359,171.36212097239394L115.85349495993592,171.44409264137917L115.86440611378208,171.61358482853814L115.89964004807695,171.54429701518634L115.94896755608976,171.5874064596352L115.98170101762823,171.72972076908084L116.0146617948718,171.59890524885031L116.1378669070513,171.71724882398144L116.43474121794873,171.8844963416688L116.58226911057693,171.9864194944396L116.6511457692308,172.02097240440452L122.71774730769232,172.3199463221647L123.13032531250002,172.5064034403404L123.20374828525642,172.7560001649319L123.7208915144231,172.75743234414983L123.74612355769231,172.89218622695256L123.91388254807693,173.11629386517808L124.22166801282052,172.9434271774677L124.50331217147438,173.13741725987063L124.7565418669872,173.31148648116667L124.85542419871794,173.46805240203022L125.61102160256411,173.70693386079645L125.71808729967951,174.05701398533293L126.12725556891029,174.27592599669836L126.49073338141027,174.42139329903713L127.40340593750001,174.40498752572685L127.46910017628205,174.59725376905496L127.69209688301284,174.781758191555L127.89963612179488,174.84031403546814L128.67978362179488,175.08782864589392L128.9834774038462,175.23340246198842L130.07709326121795,175.43499018602253L130.15415328525643,175.47185969645722L130.25621803685897,175.63237479202647L130.44943638621797,175.8170755968481L130.52922419871797,175.97122073094144L130.66174925480772,176.0570894371482L130.71835086538462,176.29716466138225L130.77654368589742,176.4823190132559L131.2861854967949,176.90781136761788L131.4337133894231,176.7879529724626L131.82992466346153,176.9716113973886L131.95403903846156,177.12859364733515L132.1131600320513,177.49682992625313L132.83352350160257,177.50146549606586L132.9128566826923,177.36728682410165L133.81234492788462,177.28624964636066L134.22560487980772,177.29837931736205L134.4399635897436,177.471569386603L134.63545509615386,177.58840353589548L135.64610072115386,177.71453605501574L135.71929637820514,177.7161119441471L136.3744202403846,177.96976808579592L137.13570053685896,178.06423804503407L137.48008383012822,178.21569582773716L137.56714574519233,178.3848365981013L138.09701865384616,178.62368564058988L144.71031446314106,178.86649896653944L144.96854510416668,179.1788382782392L145.0042336698718,179.20050790284998L145.1474425641026,179.129864410727L145.16085419070515,179.38196413086817L145.4893253846154,179.56132365714257L145.85644024839743,179.68596707210222L146.7532007051282,179.56610675234455L147.6422324278846,179.5226887495285L148.17165070512823,179.61958877507146L148.3905557291667,179.7023804821121L148.4714801201923,179.96352591206718L148.64833173878205,179.7848782396988L148.67970130608973,179.98597337434862L150.4741314823718,180.20539079402758L150.4998181570513,180.35962269797344L150.51618488782051,180.3123686698226L150.98922887019233,180.43372212887326L151.04014758814102,180.62600138837269L151.85939338942308,180.87609552163363L151.86462165064103,180.9488450689386L152.13467270833334,181.14847283276734L153.0887167227564,181.2805372158884L153.2819350721154,181.36702584022078L154.44033590544873,181.39930297988178L154.82177165865386,181.45453944380367L155.72671548076926,181.52632837271977L155.87515263621796,181.71291744907856L156.0567778846154,181.52544347205202L156.6830326522436,181.68254143408342L157.03287152243593,181.73374583443638L157.41771701121795,181.9039687076769L157.7054986939103,182.14361447065036L157.74573357371798,182.05558540569882L160.36122807692308,182.12270978887182L160.58377015224357,182.29998890706014L160.62696013621795,182.30669181058485L161.01726120192308,182.29995302792287L161.84082600160258,182.46244044368194L161.93220691506409,182.4656383942995L162.68689505608972,182.61316710982535L162.94057938301285,182.7542742919399L163.1885808173077,182.92287649398517L163.377025536859,182.94070955766625L170.13125708333337,183.02532690185274L170.23855009615383,183.16371837555056L170.30651749198722,183.1547990208536L170.6165761137821,183.35789613636257L171.0150605448718,183.37814389304893L171.45218864583333,183.4540102753183L171.49878836538463,183.45105032973666L171.5194740945513,183.5108310426995L171.54970708333335,183.58555195564773L171.5733479166667,183.79366487535896L171.81202940705128,183.88476862686676L172.20664947115387,184.06824504451143L172.47283616185896,184.2445825974347L173.57440806891026,184.416695530074L174.78554614583337,184.45749979871056L176.50450750801284,184.65282352083557L177.2641965945513,184.65046812902364L177.46559830929488,184.7788211268596L177.58994,184.88806464723504L177.88795088942308,184.96598808180903L177.90750004006412,185.0286450493286L180.44638915064104,185.124905225063L181.67662174679492,185.3320552436696L181.86597572916668,185.55373433570668L182.0751061778846,185.52266934842822L182.13420826121796,185.46609094867406L182.24195590544875,185.55222452950798L182.33242755608975,185.5514345808853L184.9381474839744,185.67059826564582L185.00225051282052,185.77488774107655L185.28594051282053,185.7605374086947L185.30117066506412,185.9024558138485L185.47211207532052,186.1227542308425L185.5396248397436,186.29943482181721L185.92697080128207,186.3404671567804L185.94629263621798,186.4718506827245L187.75527101762822,186.5394379447528L187.85051629807694,186.65489284622905L189.2285041025641,186.70086722916557L192.23611819711542,186.80951233238304L192.4191073397436,186.82457327438289L192.9612552964744,186.87155369182238L193.97326481570514,186.89301046465147L194.76546004807696,186.92697221410842L194.8532039102564,187.08440921982188L194.99891327724362,187.28285551505172L195.3976250240385,187.48021907809903L195.68176965544873,187.62288090066076L201.59993403846156,187.71756420873186L202.0893447516026,187.76994528613363L202.21823275641026,187.95104768774706L202.72014583333336,188.02461488827223L202.73719451121795,188.15941687372953L203.38186185096154,188.39900933772665L203.6587323798077,188.5854190983059L204.79167385416667,188.62163573805026L205.15856140224363,188.8384772853935L205.18515733974363,188.9142756279231L205.6991181490385,189.04583450041864L206.41470798878206,189.19360237970582L207.1880360176282,189.3087925680032L207.87407481570514,189.47204231993285L209.13817745192313,189.46173115037814L210.93374420673078,189.5330150104515L211.61841911057695,189.6558361885467L212.37992672275644,189.7836100787998L213.26895844551285,189.9499265833737L213.55196649839746,190.09731110846025L215.0295185817308,190.1379991404987L215.3736745592949,190.18110217256512L217.22288782051288,190.22147735991638L217.49998566506414,190.3715771588433L217.83095733173081,190.6166037088098L218.21671208333333,190.71356768815872L219.0793751842949,190.81648395748343L219.9211252403846,190.86933875757177L220.32029161858975,190.95621192735553L221.36094291666666,191.12626803178065L221.7573815064103,191.15273087413377L221.84444342147438,191.21174955057492L221.9631022195513,191.31658147194247L222.10949353365385,191.4567698695199L222.84122278846155,191.59316323263985L223.3010824599359,191.72420855107424L224.47994170673078,191.74254034588117L224.53813452724359,191.67610557487734L226.61648201923074,191.72749262487403L227.1613577644231,191.82043253597905L227.2461465224359,191.90465558139604L227.40367630608975,192.0388921004589L227.5030132692308,192.11160385740237L227.52983652243591,192.16441710824557L229.04171327724362,192.24022623894837L230.29149502403845,192.2512454185197L231.23690104166667,192.21798741797883L231.39920445512823,192.3053484080349L232.98314028846153,192.4295475006468L233.0624734695513,192.48892805285539L233.54392813301286,192.6828676190399L240.08607412660257,192.71449457982425L240.24564975160257,192.87964726443786L240.397042011218,192.93178762733962L240.40954437500002,192.96325834451986L240.85076415865387,193.03839583405528L241.1428648397436,193.10962266580333L241.2394740144231,193.27780891595495L243.35032765224364,193.3305492330451L244.06273507211537,193.36239350554706L244.88811839743593,193.46226649091895L246.36976216346156,193.57829493789592L247.5104323717949,193.72431438526976L248.05235301282056,193.8892722707308L248.6929286698718,193.8900208395499L250.23458378205126,193.93459327081314L250.59260601762824,194.13824507046718L251.66758198717952,194.16373242040564L252.32384242788467,194.15884005219118L255.28553875000003,194.15898921006513L256.4500771073718,194.22992750960285L257.1902170432693,194.33012722817557L257.6146154647436,194.2364488550318L258.2781500080128,194.28953960213147L259.1439955288462,194.3330062013449L261.3669158092949,194.25627053084548L262.5125869631411,194.41790886973118L262.5453204246795,194.52367029872713L263.5557387339744,194.69431781955544L265.7636561778846,194.6543962576089L265.8736769791667,194.71128305032607L266.06644069711547,194.8337272614334L266.79998847756417,194.93860781356727L267.10049983974363,195.01949998372703L268.46530333333334,195.00878462755196L268.9883567708334,195.08973059049856L269.3088719150641,195.16267498199826L269.9960472916667,195.22613512873536L272.2432903525641,195.29057774161538L273.0784482532051,195.3748168657028L278.33057762019234,195.42891467569746L278.33398735576924,195.41309166006772L278.71746895032055,195.4853763126781L278.79862065705134,195.64749827521038L278.91296045673084,195.6984110699867L280.10000306891027,195.76762884442843L281.14701920673076,195.8123757399077L282.3058746714744,195.90906329450738L282.3404266586538,195.98665644913174L289.6727220432693,196.1594246764665L290.2364649919872,196.2441714357382L290.7367868589744,196.3068129436557L292.06203741987184,196.40410577705566L298.28139511217955,196.50928682582892L298.54258085737183,196.49526308493247L299.198841298077,196.59332811009918L299.84009890224354,196.64207870383458L300.3697444951923,196.66564449204557L300.65502570512825,196.82365678115184L302.67813548076924,196.8710679002576L303.18595876602564,196.92071574679485L303.4319143589743,196.94488694612724L303.71446778044873,197.01678570386488L303.8322173157052,197.1011213063103L304.872641298077,197.19486750165657L305.2679433092949,197.2261712211718L309.771749375,197.31076494659249L309.9185953205129,197.4208487431398L310.3079871233975,197.50309423178666L312.5445463461539,197.5127339283359L313.20717162660264,197.49137567633767L314.3096527964744,197.6013814819331L315.79947992788465,197.77244985342048L316.2045565144231,197.84576428426948L317.2206577163462,197.77378414948186L317.2552097035257,197.8491689489408L317.49161803685905,197.82133674113985L318.61023862179485,197.78467770410262L318.8975656730769,197.92202492953382L320.7195010496795,197.85468389764125L321.4298626282052,197.8708788142126L322.36299359775643,197.90397976830891L322.77375307692313,197.93096325742684L323.6464180689103,197.99871917949426L323.6598296955128,198.05660023381068L324.61955660256416,198.05138263694494L324.70934630608974,198.15362288543923L326.1243865705128,198.1235889096351L326.4630869711539,198.2286074084101L327.238006209936,198.276897775559L329.9403353125,198.3473077071683L330.82777582532054,198.4411860205652L331.2333070432693,198.5575170638355L331.35810336538464,198.63298948278646L332.8229257692308,198.66732716631526L332.93249193910253,198.66283095602134L333.0311469551282,198.62994304522053L333.059106786859,198.70925663835274L333.268237235577,198.7647838056556L333.3680288301282,198.7658197726709L341.3363535576923,198.8618443331148L341.55844100160255,198.92475416530115L341.7750728685898,198.94856918169688L342.36132007211535,199.0459805879404L342.39519011217953,199.22678340499706L342.7000204727564,199.3450310563236L342.7018389983975,199.39406893116234L344.2498589503205,199.4728953835669L344.64152391025647,199.6026424706527L345.4496312419872,199.684523531956L345.8790306089744,199.79759976713154L347.13881424679494,199.84616813034575L347.48842580128206,199.87489648849584L348.34085969551285,199.94299318249188L348.50429968749995,199.95111150003598L348.83322551282055,200.08311005848745L352.4454993830128,200.20407620682843L354.1071771875,200.32373533635945L355.1626040064102,200.47619328853997L357.36142882211544,200.56540075055528L359.26360664262825,200.62665908863616L359.53729475160264,200.7193952016908L359.912138349359,200.78748000449545L360.24151880608974,200.81739348627892L360.40041248397443,200.87302601135488L360.59022109775646,200.93574207411956L360.6015868830129,201.00935008808582L362.7015293669872,201.10256441318552L363.3727926442308,201.14749344758607L363.9328985416667,201.21864361510163L366.3172129727564,201.30189492877878L366.610677548077,201.42031917582696L367.10531652243594,201.43548104786836L367.14350556089744,201.53669007569576L367.2435244711539,201.58661986983344L367.3560457451923,201.69494177228384L367.61359443910254,201.78445787993573L367.74930191506417,201.79775044053298L368.47716680288465,201.86015840216984L371.1992723717949,201.92003095070027L371.8689444391026,201.9801071356068L374.0529937339744,202.01960196802045L374.4028326041667,202.0255896824198L377.09606907852566,202.05197473595837L378.5379325961539,202.14555342106294L379.61472709134614,202.18136844070503L379.98957068910255,202.18129642306826L380.0329879887821,202.2094487989297L382.5484635817308,202.34298778871747L383.6282131810898,202.41295101780733L383.6798138461539,202.4417674158122L383.8616664102564,202.5017903316181L384.3012949839744,202.58224920761594L384.5513422596154,202.63441236979713L384.68432194711545,202.6293534263601L385.21669532852565,202.72199548948754L386.05230786057695,202.7384990048709L393.95311982371794,202.70957312215532L394.21339630608975,202.69130992932764L395.2319979807693,202.6727641771717L396.41062991185896,202.75298999754176L396.54724665064106,202.8626448957819L397.0207452644231,202.93109311280492L397.12235538461545,202.94997576115586L397.8015747115385,203.02697214204636L399.0465828285257,203.055061855513L399.1243247996795,203.1206389911199L399.6071433573718,203.11504866551658L401.23654233173085,203.21818977902672L401.7730073958333,203.21171139328789L401.95122290865385,203.25070716318717L402.99778441506413,203.36841743529726L403.56357320512825,203.40850187261844L405.022485400641,203.43794295334135L408.6790858333333,203.5200853515205L411.01634591346163,203.5851818194016L411.3802783573719,203.63501120740804L411.9424300961538,203.72195860236306L413.306097011218,203.74675538939078L413.37042735576927,203.8393537837867L415.0912072435898,203.93522548967854L415.8797654246795,203.990558352531L416.3191666826923,203.98392354637332L416.9945216426283,204.10340317661823L418.0665425080128,204.16738384605608L418.4563889423077,204.19935652036207L419.0262694150641,204.3112238627596L419.9314405528847,204.33993781367246L420.3597033413462,204.35043577423332L421.58652620192316,204.4227037795414L422.2230101762821,204.4503753769101L423.0984029567308,204.40861612242392L423.3654989102564,204.44178442291062L423.98720736378203,204.47254920971739L424.8394139423077,204.5693292010474L426.8059221073718,204.68706716927895L427.9243153766026,204.75635813230022L428.03047181089744,204.84386229364276L428.0568404326923,204.91282617081862L430.09267988782057,204.91482201302048L431.61364927083343,204.96992614971248L431.9457575160257,204.99102264547938L432.16943616987174,205.00561314855184L432.4963161538462,205.07524271217648L433.20554115384624,205.1531645624816L433.7356413782052,205.20037523798953L435.57326153846157,205.22166501492825L436.2063357772436,205.28217252649887L437.6345603525641,205.3987296984219L437.91143088141024,205.52228942609364L445.9954593028847,205.594885788349L446.55033693910264,205.64201841841506L447.3789026842949,205.72217686081362L448.7653011698718,205.84192292725015L450.4265243429487,205.87575497658796L450.680435985577,205.94705038470158L451.8292895592949,206.002210356335L453.1177149759616,206.09291030347958L453.2286450400641,206.1337849832826L454.59594900641025,206.1995978153071L456.71544064102574,206.28977886333797L457.6842601762821,206.30322597241803L459.7041875320513,206.3439616776568L459.71441673878206,206.40112552278327L459.8674002083333,206.46429375523144L460.85986057692315,206.46808818830317L461.33426845352574,206.50062479714785L462.57109320512825,206.57664178233034L463.7122180448718,206.6340706678315L464.6237540224359,206.66739211817293L464.7721911778847,206.61055057195796L464.92426538461547,206.67363209608732L464.9379043269231,206.6856012880087L465.68554568108976,206.66265487235162L465.8176161057693,206.6934664551213L465.8221624198718,206.7247819670262L466.4031813621795,206.7384305064949L466.71642240384614,206.71942573531294L468.22625331730774,206.78276011892245L469.8711097596154,206.78824338138168L470.72808996794873,206.8069884582512L472.2761099198719,206.84233184745926L473.3529044150642,206.8846382362808L473.98506939102566,206.8878593731071L474.0232584294872,206.9810801696096L475.2437164503206,207.0287045457854L475.32327694711546,207.0685899403745L476.3432425160256,207.12222306928376L476.48122314903844,207.13629710197648L477.74191604967945,207.13635299201223L477.9417265544872,207.2080141140976L478.6730011778846,207.3196078519154L478.79893407852563,207.35221035957144L482.2129886538462,207.4274284824422L482.26981758012823,207.51543381040767L482.28709357371804,207.53365670005314L482.4603081410257,207.54061906588484L484.1731319791667,207.61165944531382L485.2776589903847,207.6816452874085L485.5636221474359,207.7283563435089L490.57093249999997,207.76052467164516L499.96884569711534,207.84418592855334L500.3580101842948,207.89721793245963L502.0817451762821,207.95494623870172L503.9566451121795,207.96954333738498L504.23897121794874,207.98271001426082L504.84590415064105,208.0653636471629L507.2811372996795,208.1463805528744L507.9323967948718,208.20515886238758L508.0696954807692,208.25146123917938L509.0401062259615,208.30961008714053L512.0227155929487,208.39784597041196L513.8228286618589,208.3517145707827L513.8346490785257,208.40770096900093L514.952360400641,208.36905471412902L515.0314662660256,208.43382980058027L516.2239644551282,208.55383068416313L516.2330570833334,208.58184018885953L517.7460704166667,208.5732359800669L517.8981446233975,208.58314249813017L521.0637431330128,208.62802792217306L522.1348547355769,208.70948717821307L522.5103802804487,208.73969948858263L523.6849205288461,208.77472843576234L524.0143009855769,208.82431019846356L525.4175208333334,208.93821141572437L526.1553876121794,209.02083843321304L528.6426760576924,209.07985194301978L530.3698207852564,209.09259229578865L532.254040665064,209.14924968863417L534.1355327564103,209.12492023974198L536.7623930448717,209.16817879398045L538.3149593108974,209.19062823524374L538.8793842067308,209.25004810075973L540.3551177644231,209.3011209224086L540.6001640945512,209.40561030585863L540.6347160817307,209.4446416018903L541.5014708653846,209.5363445679805L542.028615985577,209.63722991985819L543.3513660737179,209.70531805607595L544.9428033253204,209.7619750067825L544.9737182612179,209.85701301397975L545.5451899439103,209.9225039707497L545.8793440304488,209.98314996359153L555.2399774519231,210.05594235565596L556.505671298077,210.11619583769257L560.383449911859,210.19382704789373L560.5955354647436,210.2513005655132L562.505669334936,210.1735241755924L563.1044189022437,210.17446408041596L563.2001188141026,210.24226170266658L564.5492375240384,210.23850554912556L564.720633565705,210.34109905900428L564.8752082451922,210.41543481587124L566.5514342548078,210.44579543404623L568.2713048798076,210.51272968168905L568.4661144391025,210.5422997587248L568.5470388301281,210.6158541764013L572.4248174439103,210.6110701040906L573.1090377163462,210.63893992597798L573.5652603365385,210.6453466629854L574.5395354487179,210.65106442424823L574.6040931089743,210.70800628804946L577.4480398958334,210.77782734252543L578.1111198076924,210.8695301609125L578.871263525641,210.89759425742233L579.0653911378205,210.94799113670257L580.1790107772437,211.02122079835428L581.4447046233975,211.04467136260902L581.7679475560898,211.07281047694505L582.9993167307692,211.08125958886285L584.8651240384617,211.12875923318015L585.1331292548077,211.0847746797366L589.2727755608975,211.0824356369169L592.9250569951923,211.1407497176825L593.9257007291667,211.145452395414L596.8044268189103,211.16475413852191L597.0735686137821,211.17827358336456L597.1058474439103,211.20049288003233L597.7641537259616,211.2113725088948L600.0177616266026,211.29306232135525L601.5587347916667,211.37816510774329L601.5630537900641,211.4004068556102L602.1240689503205,211.4508074565399L609.4004446714744,211.50148776731754L609.4031724599358,211.5472213731645L609.770287323718,211.63610138061708L609.8189328846154,211.6662812723412L610.1003497275641,211.68809991697398L610.5338407772437,211.75160616799923L610.8868620673077,211.82610880203956L611.4608342227564,211.84458234675975L611.9291045753205,211.89382732042264L612.7692634214743,211.94930856797367L613.1191022916666,211.98676467255643L614.9501302964743,212.0237628797771L617.8115803926282,212.1252911179367L618.148007636218,212.19684328806065L618.1989263541667,212.20013528275388L618.8722354727564,212.2568834814737L621.7716472916667,212.30142799332012L621.7786940785256,212.38659370570485L621.8132460657051,212.4541440307645L622.2224143349358,212.52216418035675L622.7150074679488,212.5840303993723L623.0705292307694,212.65400445018832L623.8440845753205,212.6963500398375L624.5076191185897,212.70819971865217L625.7701305448718,212.75380509788536L626.1604316105769,212.78542795788871L626.5918768189102,212.75825703974894L626.853971826923,212.83448546350445L629.279203084936,212.89180823770468L630.3710004166666,212.9480671115748L630.7922164182693,213.03229316555655L631.3011762820513,213.05755900386725L632.6778001923077,213.05902506331842L632.7935038862179,213.0877805876502L634.4469983253206,213.13434739865914L635.1950943108975,213.14852545747735L636.0463916266026,213.18379172397698L636.6008146314102,213.21380362434465L638.0360859935897,213.26607381337104L640.1126149599359,213.29868114447447L642.9933868910256,213.36391045806997L644.0722272275642,213.36047820009134L644.3384139182692,213.3969999106977L645.5838766666667,213.44024977327172L646.3494759615385,213.50164519587122L649.7226137099359,213.55121514329835L653.3939896634615,213.5446551627496L655.6378229887821,213.58856508128576L663.3288225560898,213.6357311567699L665.7808770673078,213.73063880936525L667.3620851121794,213.8143983053529L667.7116966666667,213.7958100921161L667.880592235577,213.83581282156015L669.5343139903847,213.89703676050743L669.9252970032052,213.89623811885545L671.3905740384615,213.93730936644724L671.6281189503205,213.9973632954222L673.3864059294873,214.02081341646894L674.3359036298077,214.06865545132436L674.3890955048076,214.10224358029637L674.9457916666667,214.11048027996398L676.6781646554487,214.1379129192789L677.5760616907052,214.15738978472405L677.9211269310898,214.20811001047883L678.9522309695514,214.26113283575506L679.2286468669871,214.33339483102498L679.2661539583333,214.40043072732428L679.9781067467948,214.4213503054241L680.7371138862179,214.46619243469976L681.4138327403846,214.48665171028642L682.4565298798077,214.52612878709166L682.6745256410258,214.53965103152464L683.1139268990383,214.58295884451428L683.7651863942307,214.6436966924671L686.1154034695513,214.6375170911608L686.474789599359,214.70197751745943L686.9664734695514,214.76532123773708L687.215838798077,214.76801431784145L688.3894697836538,214.76718712781758L689.1891664342949,214.81643395437976L689.3464689022436,214.86778144100302L690.8303858253206,214.9381155241642L692.8844105368589,214.968645874709L693.4877064182692,215.0437142220332L696.6321645673078,215.08233331178982L697.0322402083333,215.10487884266212L697.4325431650641,215.13431075881596L697.5889363701924,215.14735047546642L698.0326566266026,215.18874048580233L699.1094511217949,215.2565365644283L699.5320310176282,215.31793723880696L699.5624913221154,215.35810927816996L701.2616762179488,215.3708806367491L702.0331857211538,215.38382286966166L702.0943336458334,215.4124564146462L702.4389442548078,215.49123715882266L702.5885179887821,215.50104738574615L703.4741399759615,215.50983050212528L704.6454978044873,215.51647035471632L708.4578094951924,215.5665606595299L708.9765439342948,215.61176685381028L709.0188246554487,215.59945958029883L709.2156800560898,215.63719260316134L709.9314972115385,215.67458979282097L709.9565019391026,215.6778448360744L711.1737775400641,215.6861698229694L719.8508726362179,215.77269327392526L720.5826018910257,215.82462468322515L722.4631847195514,215.84194530300323L722.6784526923076,215.83252324463888L723.5417977403847,215.8793270795649L723.7361526682693,215.96191088476928L724.4594712419871,215.95409086821599L724.716337988782,215.9924802850951L725.9152010176282,216.04983340090757L726.435981298077,216.0773972965989L726.9990422996796,216.12241508670854L727.4079832532051,216.17346602513436L728.2113169551282,216.21903156588132L728.6245769070513,216.24526302774197L728.8514379807692,216.28399736212228L730.2121497916667,216.29236262302598L730.2282892067308,216.3479011418773L730.6706455689102,216.3501553029572L730.6754191987179,216.40939016617205L730.9256937900642,216.47909911011902L732.028402275641,216.50816315448935L733.1497506490384,216.54316676974466L733.2297657772436,216.53330719205076L734.7932431971154,216.57043507443677L735.4506402163461,216.64274391103586L737.7810808253205,216.69473783235435L738.4864414583334,216.77234952668363L739.2420388621795,216.84190063038838L739.7725937179488,216.85253089940556L740.1706235176282,216.88725974868805L741.2080923958333,216.91569600756407L742.6590485416667,216.94496118839146L743.429194150641,216.98963186457286L744.5810028285257,217.02523216783996L745.1033743189101,217.04985337691247L747.4722312820513,217.12015486877237L752.0358213782051,217.17353412765982L752.0437774278846,217.20889962252525L752.3808866185898,217.1788347950911L753.4340402804487,217.188747132759L755.8574530128205,217.23671571591592L757.7303071073718,217.23664271888038L759.4585884134615,217.291315983098L759.5397401201923,217.32517321490337L760.3203422516025,217.3492673567733L761.3632667067308,217.4468684357911L761.7290176762821,217.52354888056558L762.1952421875001,217.56646923086277L763.3650088060897,217.58789596698142L763.3904681650641,217.63953620799978L763.4438873557692,217.639242609296L764.5131804326923,217.64271661601407L766.0905241105769,217.66938214548645L766.5594764102565,217.69470949577274L774.2759353365385,217.76470889115208L775.3136315304487,217.7824236014405L776.0210380048077,217.84252200765977L776.5088575080129,217.8932243411093L777.966633125,217.91771864976465L779.138672900641,217.9964726438829L782.0869575961539,218.0200948067121L783.7465895592949,218.1015395119387L784.8990801842949,218.19394793187726L785.1077560016026,218.26091593252022L785.365532011218,218.29003593380583L787.1583709775642,218.35668537560386L789.0273607051282,218.40605682569782L789.0928276282051,218.4958840210746L790.4608135416667,218.54818008501636L791.6649048317308,218.6294129591638L791.6878637179487,218.64687677686786L792.3770849358974,218.6161778636265L796.1950795192307,218.67266475888158L796.6833536538461,218.68950894000724L796.7867822996795,218.70076125237136L797.5732946394231,218.6950427164246L797.8972195192308,218.68130392543188L799.2708883253206,218.7291085581201L799.5211629166668,218.7782904790549L799.6395943990384,218.79303620876442L801.9932212099359,218.8118118781054L802.2173544951924,218.84507088646367L807.5067636378205,218.8775383060883L808.2248539503205,218.93421394309271L810.4750521153846,218.98520555961989L810.9594618830129,219.03570972955757L811.5893537019231,219.06925052499003L814.8551984375,219.1327342051899L815.3150581089744,219.1771976872854L818.9587015464743,219.197541172987L819.8134085977564,219.26065952877897L820.0184473637821,219.27787461888184L820.1316505849359,219.28801188928097L822.9683232692307,219.34850510977142L823.0365179807694,219.33198313692645L823.2108691266027,219.36409556033027L831.706338974359,219.4225222778553L832.0514042147438,219.47742831797524L832.9352076762822,219.55456080336307L833.1093315064104,219.60962214882127L836.3569909855771,219.67762983988138L836.6836436538464,219.66691771122163L837.1262273317308,219.71359721074577L837.2248823477565,219.73281020529654L837.8690950560897,219.7107095756499L838.525355496795,219.7805756845208L839.4803087740385,219.84078247751611L841.1822214583333,219.88633708708304L841.3579364983975,219.91956229783625L842.9730145833335,219.96478488898626L845.6712520032053,220.04945903638537L846.3784311618591,220.0927064070971L847.2442766826924,220.07669325153864L849.2473826762821,220.1267588558314L850.516940889423,220.15789172738252L852.5841499118591,220.17283125830537L854.7050054407051,220.22224586779737L857.0836369791668,220.2291039636843L857.9401625560898,220.21379581509956L859.0067278445513,220.23993303821067L859.1697132051282,220.22315502108682L859.5977486778846,220.25130384555766L859.7584608814104,220.30421707861686L861.6485909695514,220.3221737380831L861.6935994791667,220.33562362146432L862.1248173717948,220.33272467391987L862.2014227644231,220.37196176604465L862.6576453846154,220.40564743388953L863.183426610577,220.43386404379078L863.4014223717949,220.45531445575662L866.8900364983974,220.49973063348935L868.3741807371796,220.49008335412123L869.5055310016027,220.5180602390534L869.9599350961539,220.5729089591367L870.1381506089746,220.59902072126343L871.5777409695513,220.6011186570913L872.0139598076925,220.6679606495251L872.6779489823718,220.71793837558909L872.8343421875002,220.76695423723862L873.1478105448718,220.74090265459364L873.2646508173078,220.79202618786067L874.2191494631411,220.78497787251874L875.614185945513,220.81214118611734L875.7337540064104,220.84964124936138L876.6962087019231,220.8634462559555L877.2078963541668,220.9400673585317L877.8587012179488,221.00468894470083L886.2764290945513,221.03483906741815L887.2077415384616,221.07922852349387L887.9358337419873,221.15287937968176L888.9667104647438,221.17882226290976L890.4178939262821,221.2383319964988L890.4415347596156,221.285815236336L891.2612351923077,221.37096504732315L892.2173250480769,221.43379306472892L892.3653075721155,221.49675993444987L893.5184801442309,221.52820401233626L894.2961271714744,221.60473103715293L895.1828857371796,221.59626882474106L896.5661018028848,221.66177486341994L896.7663669391026,221.68917720376618L897.5019605608976,221.74862080602156L897.8015626602565,221.77706540288463L898.669681338141,221.79836461937387L898.7712914583333,221.86665120548966L899.0899880769232,221.90942083109618L899.1131742788461,221.98557404949318L899.2797966907051,222.0360584255995L899.3568567147437,222.02732211715752L900.5441266426283,222.05651719247163L903.3091948798077,222.09642811661377L904.7983400641026,222.11086668633237L905.0192909294873,222.10474612735115L905.1315848878206,222.13965492205426L906.4843406490386,222.15767738513793L908.6417940064105,222.14317678466173L909.7135875560898,222.17621485210515L910.7408272275643,222.18891463135262L910.8463017147437,222.20577511973312L911.7164662339745,222.26198960081285L914.511767459936,222.2832736295777L915.3566999358975,222.30174036949646L918.421370272436,222.33135280830294L919.1390059535258,222.35713561450237L920.2803581089745,222.39597763048198L920.5326785416668,222.4529470859871L920.5367702243591,222.48273636720614L921.9399900721156,222.48785416404854L922.0691053926284,222.52705790836256L923.3043389342948,222.58355118760494L923.7660171314103,222.65084139846033L924.6996027323719,222.6491741560951L924.8771362980771,222.63238532712717L925.4740673397438,222.69021487672794L927.2298538461539,222.7401091365706L929.0917967868592,222.7666515546586L929.6062122275644,222.83410751788065L929.9526413621796,222.86826527482822L930.0262916506412,222.85116629515443L930.4354599198718,222.90148851903683L930.7948460496796,222.91839245557915L932.0634950000001,222.93250806936777L932.298994070513,223.00027948621548L933.536728084936,222.9817008878709L933.7235815945515,223.0098164549608L941.5459696394232,223.01654140621068L942.4565963541668,223.0842047399842L943.4035935817309,223.1119007404546L943.4188237339745,223.14319584997915L943.483836025641,223.19169209540277L943.4983842307694,223.24807505633663L943.5783993589745,223.28683175741125L943.6463667548078,223.33785664294044L945.9015658653847,223.36988253490853L946.6444335897437,223.4183379422426L948.6870925160258,223.45421558415288L948.7248269230769,223.50872605705985L948.7518774919872,223.55396605279668L948.8466681410257,223.56219343675903L949.6756885176284,223.5609497714241L952.3561953125002,223.57429909117L955.2967512740386,223.62234910549657L955.3694922996796,223.66551547693865L955.7968458253207,223.72003493795384L957.5996866826923,223.71439813600304L960.809839070513,223.77858652760276L963.7313005128206,223.7973334052858L963.8590519391028,223.84954406369144L963.8961043990386,223.92110240335745L967.3463021714746,223.96531028129093L967.5763456650642,223.9705635624505L968.2421533653848,224.01998822428527L971.2193071554489,224.06388863271627L971.3140978044873,224.07500401462522L971.3970680368591,224.0940883072454L971.9123927403846,224.11676092343404L972.8221101923078,224.14278113911274L973.4656409535257,224.20011777003322L973.7929755689103,224.22894141842033L977.5430027564103,224.22423768509506L978.5304621794874,224.2535404391277L981.4787468750002,224.29586044147453L981.641732235577,224.31543405331544L982.4523400400642,224.31389404273526L983.5100400160256,224.35077282083475L984.6829890544873,224.37686141213516L987.0502548076925,224.4517559834273L987.2466555769232,224.45205330616514L987.5719443509616,224.4543096238787L989.3079543910258,224.4857184502505L989.5830063942309,224.5173554812868" style="fill: none;" fill="none"></path></g></g></g></g><g opacity="0.2"><g><g><g><path stroke="rgb(255, 112, 67)" stroke-width="2px" d="M81.83365384615385,53.54133662581444L82.09643080128205,141.47623685002327L82.14939536057693,135.45301665365696L82.19190339743591,160.30647267401218L82.24350406250001,170.957145139575L82.87475977564104,152.87768375873566L82.91772244391026,166.2893350124359L83.17117945512821,141.53682996332645L83.28892899038463,165.64022970199585L83.65399801282052,194.33699016273022L83.72332930288462,152.11374302208424L83.80789074519232,149.41797611117363L84.45528587339744,144.9790060222149L84.50688653846154,146.66243281960487L85.50775758814103,168.25326722860336L85.91147028044873,166.56357412040234L86.0499055448718,161.4410128891468L86.22812105769232,161.07413095235825L86.5495454647436,157.78144513070583L86.70548403846155,150.3559513092041L86.77549727564103,157.63630610704422L86.95212157852563,141.75930511951447L87.37447415865385,192.14348566532135L87.38470336538462,176.42248061299324L87.60565423076923,160.26165094971657L87.76613911858975,161.08708602190018L88.0300526522436,156.73766081035137L88.31601580929488,150.3991677314043L88.34556685096155,152.43653547763824L88.54128567307693,150.69071312248707L88.63880411057693,153.96579694747925L88.67290146634618,128.98794409632683L88.90794590544871,177.33755913376808L89.5532951923077,168.3553024828434L89.7290102323718,143.56312957406044L90.51665915064103,153.3050039112568L90.94333072916668,159.40644738078117L90.99470407852564,118.96312822401524L91.47365826923077,193.8475842475891L91.50252736378205,182.17755903303623L91.8446375,166.57692347466946L92.61182800480769,164.2029773890972L92.74458037660257,160.72248530387878L93.81250955929488,184.2271355241537L94.12961496794874,183.43590465188026L94.22304172275642,166.2431192100048L94.33988199519233,159.47816495597363L94.8474779647436,155.9483591169119L95.3914444471154,183.74883998930454L96.01974505608976,186.92622569203377L96.22296529647437,171.44801554083824L96.43027721955129,181.86068084836006L96.62099509615385,190.44904705882072L102.96855884615385,169.42865815758705L103.06062170673077,174.44288966059685L103.13790904647436,196.7870472818613L103.43523798878206,166.36174258589745L103.60458818910259,166.9595908820629L103.87736703525643,159.74529285728931L103.9144194951923,192.21437242627144L104.10263689903847,186.30426970124245L104.17083161057693,187.25798812508583L104.37723427083334,145.69229525327682L104.43860951121795,213.59941133111715L104.59977634615386,160.38044330477715L105.54995599358975,169.57003739476204L105.5760972996795,187.84372624754906L106.45103544871796,182.07674887776375L106.52286721153847,187.75339280068874L106.58378782051282,182.3844317793846L106.81269473557693,163.2370079755783L106.84042725160256,195.27250108122826L107.26800809294873,191.2249008268118L107.39621415064103,198.79822325706482L107.43303929487182,177.2731639891863L107.81924867788462,206.3353982269764L108.01701334134617,187.97727611660957L108.31047791666667,186.53867197036743L109.65459568108977,186.35017570853233L110.36632115384616,200.36706809699535L111.60450979967949,171.6892051398754L111.62860526442309,181.56527709960938L111.68929855769233,191.86385330557823L111.86819601762822,189.20555752515793L112.3678359375,178.92435801029205L112.52309256410257,189.5415726006031L112.54650608173077,205.38300347328186L112.93817104166669,162.01182451844215L113.06478588942309,202.69108083844185L113.14821075320513,202.29181122779846L113.16003116987183,196.9286799877882L113.77310162660258,187.64240165054798L113.80583508814102,169.38869458436966L114.24591829326924,181.0199249982834L114.69032049679487,171.78238306939602L114.88922173878207,166.71040293574333L115.10085266025644,147.34879803657532L115.10767213141027,208.24742567539215L115.2263309294872,209.23617911338806L115.35681014423079,172.20280323922634L115.53025202724359,185.19462575018406L115.85349495993592,179.31472805142403L115.86440611378208,188.0406855493784L115.89964004807695,164.76645250618458L115.94896755608976,175.84329043328762L115.98170101762823,185.90750661492348L116.0146617948718,158.44901141524315L116.1378669070513,183.71976149082184L116.43474121794873,188.9970090687275L116.58226911057693,182.50643473863602L116.6511457692308,175.6183087527752L122.71774730769232,203.71395398676395L123.13032531250002,192.25218151509762L123.20374828525642,199.4111670255661L123.7208915144231,172.9116567671299L123.74612355769231,187.52328541874886L123.91388254807693,197.64865797758102L124.22166801282052,153.86647944152355L124.50331217147438,194.71785512566566L124.7565418669872,192.8303578197956L124.85542419871794,191.16308261454105L125.61102160256411,200.91688406467438L125.71808729967951,214.24297553300858L126.12725556891029,199.5985649228096L126.49073338141027,191.37681309878826L127.40340593750001,172.47828152775764L127.46910017628205,197.3466358780861L127.69209688301284,196.77523282170296L127.89963612179488,181.87186163663864L128.67978362179488,205.0276121199131L128.9834774038462,192.97007542848587L130.07709326121795,200.17320674657822L130.15415328525643,180.0286791175604L130.25621803685897,195.61145921051502L130.44943638621797,198.96804732084274L130.52922419871797,195.42691987752914L130.66174925480772,186.9701039493084L130.71835086538462,207.01753896474838L130.77654368589742,200.3362153172493L131.2861854967949,232.09530074894428L131.4337133894231,161.1378079354763L131.82992466346153,201.11174520850182L131.95403903846156,197.898592248559L132.1131600320513,226.5365620404482L132.83352350160257,178.12281940877438L132.9128566826923,159.26585671305656L133.81234492788462,166.28387135267258L134.22560487980772,178.95568956434727L134.4399635897436,201.28435742855072L134.63545509615386,193.75318121910095L135.64610072115386,195.27435985207558L135.71929637820514,177.93685783445835L136.3744202403846,213.71904154121876L137.13570053685896,191.4595143198967L137.48008383012822,199.8213357925415L137.56714574519233,202.65782010555267L138.09701865384616,213.10466849058867L144.71031446314106,214.12729521095753L144.96854510416668,224.80270904302597L145.0042336698718,182.38430504500866L145.1474425641026,168.69041633605957L145.16085419070515,216.8509718477726L145.4893253846154,206.37164425849915L145.85644024839743,198.4233148097992L146.7532007051282,161.44606818258762L147.6422324278846,172.9221053123474L148.17165070512823,194.4328013509512L148.3905557291667,192.42889147996902L148.4714801201923,220.32681700587273L148.64833173878205,152.02179019153118L148.67970130608973,211.40719529986382L150.4741314823718,214.6743934303522L150.4998181570513,204.7182675898075L150.51618488782051,172.80955110490322L150.98922887019233,199.80373379588127L151.04014758814102,211.4783355295658L151.85939338942308,221.21487998217344L151.86462165064103,192.74388273060322L152.13467270833334,213.68160561472178L153.0887167227564,202.91334477066994L153.2819350721154,195.60653065145016L154.44033590544873,186.7403486073017L154.82177165865386,190.64081025123596L155.72671548076926,193.5251860767603L155.87515263621796,213.0547773912549L156.0567778846154,149.87914842367172L156.6830326522436,208.3316758722067L157.03287152243593,190.46221335232258L157.41771701121795,211.06174555420876L157.7054986939103,223.39131758362055L157.74573357371798,166.83127936720848L160.36122807692308,193.7870756238699L160.58377015224357,213.25250414013863L160.62696013621795,183.4825288206339L161.01726120192308,181.11227211356163L161.84082600160258,211.2338226735592L161.93220691506409,183.03452280163765L162.68689505608972,208.97823241353035L162.94057938301285,208.0874868929386L163.1885808173077,213.33048098534346L163.377025536859,186.17152248322964L170.13125708333337,198.42463847994804L170.23855009615383,208.4623249322176L170.30651749198722,181.51701946556568L170.6165761137821,220.8163637369871L171.0150605448718,187.12905701994896L171.45218864583333,197.5700545012951L171.49878836538463,182.8979031443596L171.5194740945513,194.73104958236217L171.54970708333335,197.67051261663437L171.5733479166667,223.19181655347347L171.81202940705128,201.2055145651102L172.20664947115387,219.0993945747614L172.47283616185896,218.0552018880844L173.57440806891026,217.55623456835747L174.78554614583337,192.34707739949226L176.50450750801284,222.57637330144644L177.2641965945513,184.1912556141615L177.46559830929488,209.90601253509521L177.58994,206.36201244592667L177.88795088942308,200.34588937461376L177.90750004006412,197.44560134410858L180.44638915064104,204.2782176733017L181.67662174679492,226.71533495932817L181.86597572916668,230.0167232081294L182.0751061778846,179.2670477628708L182.13420826121796,174.0276515185833L182.24195590544875,203.03446058928967L182.33242755608975,185.39047260582447L184.9381474839744,210.04646238684654L185.00225051282052,207.19096791744232L185.28594051282053,182.80227501690388L185.30117066506412,215.27087581157684L185.47211207532052,231.8855271935463L185.5396248397436,223.1412424966693L185.92697080128207,194.9290509223938L185.94629263621798,214.075826972723L187.75527101762822,200.792994171381L187.85051629807694,211.09430220723152L189.2285041025641,196.46888767182827L192.23611819711542,209.97842010855675L192.4191073397436,190.04820030927658L192.9612552964744,196.96406704187393L193.97326481570514,191.5192625373602L194.76546004807696,194.27600276470184L194.8532039102564,221.2756350338459L194.99891327724362,230.53538364171982L195.3976250240385,230.65090906620026L195.68176965544873,218.93959660828114L201.59993403846156,208.5759775042534L202.0893447516026,199.3501092195511L202.21823275641026,228.12920477986336L202.72014583333336,204.40291021764278L202.73719451121795,218.2750930711627L203.38186185096154,242.11141419410706L203.6587323798077,230.51963337510824L204.79167385416667,196.79686215519905L205.15856140224363,237.9540619701147L205.18515733974363,206.14149463176727L205.6991181490385,219.0476658269763L206.41470798878206,223.00579865276814L207.1880360176282,215.7552898004651L207.87407481570514,227.07813323289156L209.13817745192313,187.07853224873543L210.93374420673078,206.06344033777714L211.61841911057695,218.23176399618387L212.37992672275644,219.60976798832417L213.26895844551285,228.90038345754147L213.55196649839746,224.72671770304441L215.0295185817308,199.72912949323654L215.3736745592949,200.37440460920334L217.22288782051288,199.80046686530113L217.49998566506414,226.09700497984886L217.83095733173081,249.12212048470974L218.21671208333333,213.93958047777414L219.0793751842949,215.5464245080948L219.9211252403846,203.6100177168846L220.32029161858975,211.9628832936287L221.36094291666666,232.37604555487633L221.7573815064103,197.59172607958317L221.84444342147438,205.61689880490303L221.9631022195513,216.98286712914705L222.10949353365385,225.88520367443562L222.84122278846155,225.19234684109688L223.3010824599359,224.1045856922865L224.47994170673078,196.28598180413246L224.53813452724359,175.1606850028038L226.61648201923074,204.54067048430443L227.1613577644231,215.06434102356434L227.2461465224359,213.03158500045538L227.40367630608975,225.81188079714775L227.5030132692308,210.45972910523415L227.52983652243591,205.53077575564384L229.04171327724362,211.48309510946274L230.29149502403845,195.05648937821388L231.23690104166667,183.72646433115005L231.39920445512823,214.67556220293045L232.98314028846153,224.32503309845924L233.0624734695513,207.7824794948101L233.54392813301286,242.7760937511921L240.08607412660257,200.90694245696068L240.24564975160257,235.78196150064468L240.397042011218,206.51502308249474L240.40954437500002,201.1850258409977L240.85076415865387,212.72359934449196L241.1428648397436,211.82277140021324L241.2394740144231,237.5885600298643L243.35032765224364,207.26443161070347L244.06273507211537,201.7989834845066L244.88811839743593,219.9952024295926L246.36976216346156,224.48828809708357L247.5104323717949,232.7308877259493L248.05235301282056,238.07564952224493L248.6929286698718,194.0910832285881L250.23458378205126,205.93911391496658L250.59260601762824,249.1355965733528L251.66758198717952,201.0653181821108L252.32384242788467,192.8304986357689L255.28553875000003,194.1995960175991L256.4500771073718,213.5937575697899L257.1902170432693,221.75411362946033L257.6146154647436,168.5293651074171L258.2781500080128,208.89709424972534L259.1439955288462,206.3240062147379L261.3669158092949,173.03194177150726L262.5125869631411,239.24224649369717L262.5453204246795,223.92896705120802L263.5557387339744,242.26319973170757L265.7636561778846,183.49730041623116L265.8736769791667,210.65067556500435L266.06644069711547,229.22999140620232L266.79998847756417,224.47631169855595L267.10049983974363,217.85934095084667L268.46530333333334,191.97563302516937L268.9883567708334,218.06072187423706L269.3088719150641,215.915137052536L269.9960472916667,213.32570028305054L272.2432903525641,213.71635195612907L273.0784482532051,219.52098351716995L278.33057762019234,210.97396087646484L278.33398735576924,190.85507583618164L278.71746895032055,216.35925655066967L278.79862065705134,242.57914149016142L278.91296045673084,210.4729517251253L280.10000306891027,215.90320993959904L281.14701920673076,208.86101719737053L282.3058746714744,224.17251531779766L282.3404266586538,218.72331735491753L289.6727220432693,246.90664165467024L290.2364649919872,221.19660910964012L290.7367868589744,214.79481925070286L292.06203741987184,225.1875802204013L298.28139511217955,227.7003990188241L298.54258085737183,192.3267154097557L299.198841298077,225.8119089603424L299.84009890224354,211.201547652483L300.3697444951923,203.7201217263937L300.65502570512825,244.23558090627193L302.67813548076924,211.1300131380558L303.18595876602564,211.88702572882175L303.4319143589743,204.2481393814087L303.71446778044873,218.7908738180995L303.8322173157052,222.70034064352512L304.872641298077,225.71577389538288L305.2679433092949,206.77161794900894L309.771749375,223.1646531522274L309.9185953205129,231.14144854992628L310.3079871233975,222.75330153107643L312.5445463461539,200.47889006137848L313.20717162660264,190.90462897717953L314.3096527964744,231.60243076086044L315.79947992788465,250.76499228179455L316.2045565144231,220.6072027310729L317.2206577163462,175.37703466415405L317.2552097035257,221.35713931918144L317.49161803685905,189.12302528321743L318.61023862179485,186.30257990956306L318.8975656730769,241.03519291430712L320.7195010496795,176.67026039958L321.4298626282052,202.9766274690628L322.36299359775643,208.3623033463955L322.77375307692313,206.4748905301094L323.6464180689103,219.4988754093647L323.6598296955128,216.4627422094345L324.61955660256416,196.38863664865494L324.70934630608974,230.80514480173588L326.1243865705128,188.5115037560463L326.4630869711539,231.91007141768932L327.238006209936,213.79730705916882L329.9403353125,221.02460239827633L330.82777582532054,228.74061365425587L331.2333070432693,236.18228019028902L331.35810336538464,223.09390016645193L332.8229257692308,209.8194811195135L332.93249193910253,197.19952543079853L333.0311469551282,187.90431936085224L333.059106786859,224.62889988720417L333.268237235577,216.94836017489433L333.3680288301282,199.1057653427124L341.3363535576923,230.4360731765628L341.55844100160255,219.65255492180586L341.7750728685898,206.81118723750114L342.36132007211535,231.2718793451786L342.39519011217953,259.1612573415041L342.7000204727564,238.62197325378656L342.7018389983975,215.71510796248913L344.2498589503205,225.76083500683308L344.64152391025647,242.95852084457874L345.4496312419872,227.10007940232754L345.8790306089744,237.73307946324348L347.13881424679494,216.17239375412464L347.48842580128206,209.55095914006233L348.34085969551285,222.92388600111008L348.50429968749995,202.6962065398693L348.83322551282055,244.8038015216589L352.4454993830128,241.26688447594643L354.1071771875,241.02178723365068L355.1626040064102,252.43012004345655L357.36142882211544,231.0238320082426L359.26360664262825,221.58259977400303L359.53729475160264,232.5045260488987L359.912138349359,224.16810073703527L360.24151880608974,211.109425842762L360.40041248397443,220.05038820952177L360.59022109775646,222.59593968093395L360.6015868830129,226.47940483689308L362.7015293669872,233.41771763563156L363.3727926442308,216.75261189043522L363.9328985416667,225.9774663001299L366.3172129727564,230.3258705958724L366.610677548077,242.78368373215199L367.10531652243594,206.74108904600143L367.14350556089744,237.01855105161667L367.2435244711539,219.12338257580996L367.3560457451923,239.81084027141333L367.61359443910254,233.34097293019295L367.74930191506417,206.49228130280972L368.47716680288465,223.9410701841116L371.1992723717949,223.14250279963017L371.8689444391026,223.313481554389L374.0529937339744,216.06985860317945L374.4028326041667,204.1595661342144L377.09606907852566,211.47236493229866L378.5379325961539,235.6165027320385L379.61472709134614,215.01454849541187L379.98957068910255,202.1554450392723L380.0329879887821,212.33301807940006L382.5484635817308,250.4488745033741L383.6282131810898,227.66109023988247L383.6798138461539,212.859338901937L383.8616664102564,224.23926208913326L384.3012949839744,231.77190278470516L384.5513422596154,221.5918584242463L384.68432194711545,200.78758683800697L385.21669532852565,236.50822692364454L386.05230786057695,208.76774069666862L393.95311982371794,192.1237291842699L394.21339630608975,195.99606987833977L395.2319979807693,195.86221021413803L396.41062991185896,232.2649910375476L396.54724665064106,243.26968190073967L397.0207452644231,228.1969231814146L397.12235538461545,209.93189451098442L397.8015747115385,231.54507641494274L399.0465828285257,213.4766550064087L399.1243247996795,227.49166046082973L399.6071433573718,201.03395846486092L401.23654233173085,241.67879936099052L401.7730073958333,200.79190988838673L401.95122290865385,217.8407673239708L402.99778441506413,247.48264235258102L403.56357320512825,218.45595006644726L405.022485400641,214.50830098986626L408.6790858333333,234.45822798460722L411.01634591346163,228.14365249872208L411.3802783573719,222.46476256102324L411.9424300961538,236.63203232735395L413.306097011218,213.14786379039288L413.37042735576927,239.00321841984987L415.0912072435898,240.40148583054543L415.8797654246795,225.07148449122906L416.3191666826923,201.45206925272942L416.9945216426283,249.77081742882729L418.0665425080128,228.6614891588688L418.4563889423077,216.45934854447842L419.0262694150641,247.27586113661528L419.9314405528847,215.38569715619087L420.3597033413462,208.39526836574078L421.58652620192316,232.31169969588518L422.2230101762821,215.14610581845045L423.0984029567308,188.24209463596344L423.3654989102564,217.3027306124568L423.98720736378203,216.42034251987934L424.8394139423077,242.21384373307228L426.8059221073718,250.55542995035648L427.9243153766026,231.79296181350946L428.03047181089744,239.04033751040697L428.0568404326923,231.90573428571224L430.09267988782057,205.697220236063L431.61364927083343,226.60497044026852L431.9457575160257,213.2867435440421L432.16943616987174,210.75183776021004L432.4963161538462,232.53981453180313L433.20554115384624,235.93564101308584L433.7356413782052,223.87913227826357L435.57326153846157,213.65774434804916L436.2063357772436,229.2947597131133L437.6345603525641,251.72497701644897L437.91143088141024,254.7060652524233L445.9954593028847,234.5359795242548L446.55033693910264,224.46009673923254L447.3789026842949,237.77414844185114L448.7653011698718,253.7950563132763L450.4265243429487,219.44428105652332L450.680435985577,234.58308950811625L451.8292895592949,228.19034707546234L453.1177149759616,242.63115186989307L453.2286450400641,222.62441267073154L454.59594900641025,232.79055849462748L456.71544064102574,242.78010700643063L457.6842601762821,211.75237749516964L459.7041875320513,222.87541714310646L459.71441673878206,229.63339396566153L459.8674002083333,232.17427034676075L460.85986057692315,208.01469911634922L461.33426845352574,219.7817887812853L462.57109320512825,237.6510330364108L463.7122180448718,230.14387299120426L464.6237540224359,220.327922411263L464.7721911778847,183.27419158816338L464.92426538461547,232.6089410930872L464.9379043269231,211.61364559829235L465.68554568108976,197.2015109360218L465.8176161057693,219.41561092436314L465.8221624198718,219.6733534410596L466.4031813621795,212.38992181420326L466.71642240384614,198.83894723653793L468.22625331730774,233.08187153935432L469.8711097596154,209.06832647323608L470.72808996794873,214.6126104220748L472.2761099198719,221.5802340656519L473.3529044150642,224.5506766140461L473.98506939102566,208.23479448258877L474.0232584294872,246.01598766446114L475.2437164503206,226.99838210642338L475.32327694711546,223.81630723178387L476.3432425160256,229.6736180484295L476.48122314903844,213.06221951544285L477.74191604967945,207.15991799533367L477.9417265544872,237.46398013830185L478.6730011778846,254.49984730035067L478.79893407852563,221.15487125515938L482.2129886538462,239.31521733105183L482.26981758012823,244.87480797618628L482.28709357371804,215.27997252345085L482.4603081410257,210.5042269527912L484.1731319791667,237.8915115147829L485.2776589903847,237.55210277438164L485.5636221474359,227.69169659167528L490.57093249999997,221.52699154615402L499.96884569711534,243.69487573206425L500.3580101842948,230.65285232663155L502.0817451762821,232.7586284726858L503.9566451121795,214.2496783733368L504.23897121794874,213.65492098778486L504.84590415064105,243.7195537313819L507.2811372996795,243.14052549004555L507.9323967948718,233.62697721272707L508.0696954807692,228.30362648516893L509.0401062259615,233.52503348886967L512.0227155929487,246.70997102558613L513.8228286618589,188.29535123705864L513.8346490785257,232.78027188777924L514.952360400641,191.52338844537735L515.0314662660256,236.70536928623915L516.2239644551282,260.99656120687723L516.2330570833334,220.83828174322844L517.7460704166667,204.80336268246174L517.8981446233975,212.92916954308748L521.0637431330128,228.34458281099796L522.1348547355769,244.53720872104168L522.5103802804487,222.04468739032745L523.6849205288461,224.2204490751028L524.0143009855769,230.71464237570763L525.4175208333334,259.2890619188547L526.1553876121794,245.59272301197052L528.6426760576924,235.23289889842272L530.3698207852564,214.74582233279943L532.254040665064,234.32108730822802L534.1355327564103,198.30229756236076L536.7623930448717,228.4351274818182L538.3149593108974,219.20182411372662L538.8793842067308,235.78084905445576L540.3551177644231,232.13320840895176L540.6001640945512,256.1752264648676L540.6347160817307,226.93663430213928L541.5014708653846,250.68381891399622L542.028615985577,254.96039298176765L543.3513660737179,240.3316270262003L544.9428033253204,235.2776079699397L544.9737182612179,252.70981577038765L545.5451899439103,239.4883857741952L545.8793440304488,237.39498031139374L555.2399774519231,242.99773105233908L556.505671298077,237.4164969921112L560.383449911859,245.41019734740257L560.5955354647436,236.35474455356598L562.505669334936,174.80650466680527L563.1044189022437,210.60237568616867L563.2001188141026,241.14543069899082L564.5492375240384,208.52435436844826L564.720633565705,257.21615222096443L564.8752082451922,244.41979636251926L566.5514342548078,224.35048558562994L568.2713048798076,241.20378483831882L568.4661144391025,224.11691413074732L568.5470388301281,244.42189452052116L572.4248174439103,208.40970200300217L573.1090377163462,223.47812359035015L573.5652603365385,213.60027734935284L574.5395354487179,213.29129894077778L574.6040931089743,237.03208346664906L577.4480398958334,243.0933943837881L578.1111198076924,253.36189229786396L578.871263525641,223.9166949391365L579.0653911378205,234.35436916351318L580.1790107772437,245.07122513651848L581.4447046233975,221.96113423258066L581.7679475560898,224.18685038387775L582.9993167307692,215.02341286092997L584.8651240384617,233.31624564528465L585.1331292548077,190.51582199335098L589.2727755608975,209.98736192286015L592.9250569951923,238.4727083221078L593.9257007291667,213.3521032780409L596.8044268189103,220.23199152946472L597.0735686137821,217.53635839372873L597.1058474439103,221.66179467737675L597.7641537259616,216.33947190642357L600.0177616266026,249.84055653959513L601.5587347916667,251.58102084696293L601.5630537900641,221.91919923573732L602.1240689503205,235.31328369677067L609.4004446714744,235.523029088974L609.4031724599358,233.24812591820955L609.770287323718,253.8568815663457L609.8189328846154,226.0184859931469L610.1003497275641,222.07549088448286L610.5338407772437,242.01878544688225L610.8868620673077,247.37310160696507L611.4608342227564,220.66839431226254L611.9291045753205,235.44115868210793L612.7692634214743,238.50751803070307L613.1191022916666,229.93604269623756L614.9501302964743,229.77284402400255L617.8115803926282,260.88396475464106L618.148007636218,246.59670569747686L618.1989263541667,213.78452096879482L618.8722354727564,239.59828560054302L621.7716472916667,233.78610630333424L621.7786940785256,253.50766499340534L621.8132460657051,245.10473933815956L622.2224143349358,245.43492463231087L622.7150074679488,242.55097125470638L623.0705292307694,246.58425052464008L623.8440845753205,233.2513928487897L624.5076191185897,218.4662577956915L625.7701305448718,234.9380091279745L626.1604316105769,228.18420749902725L626.5918768189102,199.51344166696072L626.853971826923,250.03200993686914L629.279203084936,240.8931518420577L630.3710004166666,240.4584318101406L630.7922164182693,254.26145289838314L631.3011762820513,225.438211530447L632.6778001923077,213.77816312760115L632.7935038862179,227.20769096910954L634.4469983253206,236.02384109795094L635.1950943108975,220.1248164921999L636.0463916266026,230.55437971651554L636.6008146314102,228.0115248709917L638.0360859935897,239.06495214253664L640.1126149599359,229.40908820182085L642.9933868910256,245.62489946186543L644.0722272275642,211.6612273156643L644.3384139182692,231.49666388332844L645.5838766666667,234.8960670903325L646.3494759615385,243.9901668280363L649.7226137099359,238.19219586253166L653.3939896634615,210.28042812645435L655.6378229887821,235.4600280225277L663.3288225560898,237.1527064293623L665.7808770673078,261.0990259498358L667.3620851121794,255.66061449050903L667.7116966666667,204.49986201524734L667.880592235577,233.8610978499055L669.5343139903847,244.57613025605679L669.9252970032052,213.49564404040575L671.3905740384615,234.5588409975171L671.6281189503205,244.179782576859L673.3864059294873,225.81821751594543L674.3359036298077,238.1609910428524L674.3890955048076,231.0332244336605L674.9457916666667,218.26648217439651L676.6781646554487,227.99319767206907L677.5760616907052,224.00410645455122L677.9211269310898,239.87523541599512L678.9522309695514,241.11963321268559L679.2286468669871,250.9730056375265L679.2661539583333,248.4231874421239L679.9781067467948,225.04895393550396L680.7371138862179,237.26899226009846L681.4138327403846,224.9004916548729L682.4565298798077,234.63943701982498L682.6745256410258,221.43576391786337L683.1139268990383,236.6903794258833L683.7651863942307,245.67833208292723L686.1154034695513,211.47696961462498L686.474789599359,247.70159006863832L686.9664734695514,247.22410422563553L687.215838798077,216.1493210569024L688.3894697836538,214.34251130372286L689.1891664342949,240.12345877289772L689.3464689022436,241.2792058736086L690.8303858253206,251.14969448000193L692.8844105368589,230.70201118290424L693.4877064182692,253.7653863877058L696.6321645673078,235.02144963294268L697.0322402083333,226.75606597959995L697.4325431650641,230.35846949368715L697.5889363701924,221.89864714443684L698.0326566266026,236.63828455656767L699.1094511217949,250.4230910986662L699.5320310176282,247.1966169476509L699.5624913221154,236.23434689641L701.2616762179488,222.01390501856804L702.0331857211538,222.12192495167255L702.0943336458334,230.33360843360424L702.4389442548078,256.5821142196655L702.5885179887821,220.62260095775127L703.4741399759615,220.09935696423054L704.6454978044873,218.98922015726566L708.4578094951924,241.78843867778778L708.9765439342948,239.29834757745266L709.0188246554487,209.14500077068806L709.2156800560898,235.44390459358692L709.9314972115385,235.3227465301752L709.9565019391026,217.3895577415824L711.1737775400641,220.06792683899403L719.8508726362179,261.3541704118252L720.5826018910257,243.2071666494012L722.4631847195514,224.9829816520214L722.6784526923076,210.85554872453213L723.5417977403847,240.62435527145863L723.7361526682693,259.6625270023942L724.4594712419871,211.81232285499573L724.716337988782,236.34294417500496L725.9152010176282,246.47996221482754L726.435981298077,230.7150225788355L726.9990422996796,240.04988242685795L727.4079832532051,243.33148603141308L728.2113169551282,240.4802160412073L728.6245769070513,230.22433523833752L728.8514379807692,236.94405940175056L730.2121497916667,220.7581081688404L730.2282892067308,246.02264825999737L730.6706455689102,217.5556220188737L730.6754191987179,248.11415270715952L730.9256937900642,253.82231828570366L732.028402275641,232.0912945345044L733.1497506490384,235.32709070295095L733.2297657772436,211.2378218472004L734.7932431971154,236.52861707657576L735.4506402163461,255.54589875787497L737.7810808253205,244.69215557724237L738.4864414583334,258.60003527998924L739.2420388621795,254.35744714736938L739.7725937179488,222.59133499860764L740.1706235176282,235.65174897015095L741.2080923958333,232.29325280338526L742.6590485416667,232.78418657183647L743.429194150641,241.1872389614582L744.5810028285257,236.3257998302579L745.1033743189101,230.40939559042454L747.4722312820513,255.2980415225029L752.0358213782051,246.185980707407L752.0437774278846,236.44669738411903L752.3808866185898,200.81076514720917L753.4340402804487,222.58978602290154L755.8574530128205,243.3956417888403L757.7303071073718,217.19680179655552L759.4585884134615,247.15611827373505L759.5397401201923,235.8347252458334L760.3203422516025,230.53229273110628L761.3632667067308,270.89305852353573L761.7290176762821,259.5482477992773L762.1952421875001,241.10831160843372L763.3650088060897,229.35012855380774L763.3904681650641,246.01074931025505L763.4438873557692,217.47780711203814L764.5131804326923,219.55446251481771L766.0905241105769,232.35538785159588L766.5594764102565,231.6550677716732L774.2759353365385,256.3795081973076L775.3136315304487,227.56257538497448L776.0210380048077,251.04923636466265L776.5088575080129,245.93087849020958L777.966633125,231.47364047169685L779.138672900641,261.6165035292506L782.0869575961539,231.1143837198615L783.7465895592949,263.2843631207943L784.8990801842949,269.50012803822756L785.1077560016026,255.47201261669397L785.365532011218,234.48361710458994L787.1583709775642,255.44984114170074L789.0273607051282,245.90514437109232L789.0928276282051,268.56786292791367L790.4608135416667,247.7224378734827L791.6649048317308,263.9824019819498L791.6878637179487,228.40476755797863L792.3770849358974,201.44967538118362L796.1950795192307,250.28437328338623L796.6833536538461,228.12340316176414L796.7867822996795,225.00776526331902L797.5732946394231,215.48725363612175L797.8972195192308,210.96856762468815L799.2708883253206,245.58678057789803L799.5211629166668,246.43125396966934L799.6395943990384,227.09039126336575L801.9932212099359,229.38498754799366L802.2173544951924,237.58877125382423L807.5067636378205,237.18926225602627L808.2248539503205,250.92410025000572L810.4750521153846,247.78897342085838L810.9594618830129,247.58605760335922L811.5893537019231,238.0446348041296L814.8551984375,255.0755241215229L815.3150581089744,244.37049669027328L818.9587015464743,230.73308926820755L819.8134085977564,255.0784882977605L820.0184473637821,229.05436572432518L820.1316505849359,225.04936230182648L822.9683232692307,253.75488151609898L823.0365179807694,209.92776860296726L823.2108691266027,237.65610945224762L831.706338974359,252.72888225317L832.0514042147438,250.80036525428295L832.9352076762822,263.5903491899371L833.1093315064104,251.068323969841L836.3569909855771,258.56216986477375L836.6836436538464,213.53750158846378L837.1262273317308,246.44325149059296L837.2248823477565,230.742763325572L837.8690950560897,207.03659136593342L838.525355496795,259.87664473056793L839.4803087740385,254.4189766868949L841.1822214583333,246.0687795728445L841.3579364983975,239.02979743480682L842.9730145833335,245.99475261569023L845.6712520032053,268.82345800101757L846.3784311618591,245.02234791219234L847.2442766826924,210.83925631642342L849.2473826762821,249.02901296317577L850.516940889423,238.14364251494408L852.5841499118591,228.80983174592257L854.7050054407051,248.81114248931408L857.0836369791668,224.19974912703037L857.9401625560898,211.34437729418278L859.0067278445513,235.39459788054228L859.1697132051282,210.4880331158638L859.5977486778846,236.5959059894085L859.7584608814104,251.05039809644222L861.6485909695514,230.76371674239635L861.6935994791667,228.1621557176113L862.1248173717948,218.64460826665163L862.2014227644231,243.236871778965L862.6576453846154,240.0495585501194L863.183426610577,236.9002093076706L863.4014223717949,232.98202597349882L866.8900364983974,246.45653043687344L868.3741807371796,214.84821666777134L869.5055310016027,236.89092953503132L869.9599350961539,252.69463580846786L870.1381506089746,235.90196487307549L871.5777409695513,221.83149200677872L872.0139598076925,259.8962603956461L872.6779489823718,250.06951627135277L872.8343421875002,249.57381588220596L873.1478105448718,205.4195452183485L873.2646508173078,250.87960944324732L874.2191494631411,216.63396035134792L875.614185945513,236.8207750171423L875.7337540064104,242.96557572484016L876.6962087019231,229.01069869101048L877.2078963541668,266.19060062617064L877.8587012179488,259.19499684870243L886.2764290945513,238.86537366360426L887.2077415384616,247.34888125956059L887.9358337419873,264.76940133422613L888.9667104647438,236.5529219135642L890.4178939262821,256.528780169785L890.4415347596156,249.4635921791196L891.2612351923077,271.935589581728L892.2173250480769,258.76849342882633L892.3653075721155,258.93945810198784L893.5184801442309,240.23886450380087L894.2961271714744,267.1727145910263L895.1828857371796,216.55403320491314L896.5661018028848,260.72016057372093L896.7663669391026,238.03903032839298L897.5019605608976,257.240097977221L897.8015626602565,238.77166767418385L898.669681338141,234.53241688013077L898.7712914583333,262.7201909646392L899.0899880769232,247.51417104899883L899.1131742788461,267.6064559519291L899.2797966907051,252.2997737377882L899.3568567147437,216.78670343756676L900.5441266426283,239.58131727576256L903.3091948798077,246.06949773430824L904.7983400641026,230.78935229033232L905.0192909294873,218.4234708622098L905.1315848878206,243.14979822188616L906.4843406490386,233.01180151104927L908.6417940064105,213.40436008572578L909.7135875560898,242.09976871311665L910.7408272275643,229.8525247424841L910.8463017147437,232.38681093603373L911.7164662339745,256.228750616312L914.511767459936,235.1522324681282L915.3566999358975,233.47456504404545L918.421370272436,240.25926169753075L919.1390059535258,237.97666293382645L920.2803581089745,245.94220009446144L920.5326785416668,257.0104904919863L920.5367702243591,240.5645366460085L921.9399900721156,225.59631266444921L922.0691053926284,246.3540656939149L923.3043389342948,256.94078658521175L923.7660171314103,263.60069212317467L924.6996027323719,221.63391311466694L924.8771362980771,212.40234178304672L925.4740673397438,257.9503948688507L927.2298538461539,253.18135917931795L929.0917967868592,238.97090819478035L929.6062122275644,264.0424599945545L929.9526413621796,243.74824498593807L930.0262916506412,212.39225935935974L930.4354599198718,253.70149818062782L930.7948460496796,233.27108596265316L932.0634950000001,231.5829699933529L932.298994070513,264.55876176059246L933.536728084936,211.5818493515253L933.7235815945515,240.27239982783794L941.5459696394232,227.14816101640463L942.4565963541668,264.68066614866257L943.4035935817309,240.1488338112831L943.4188237339745,242.406099781394L943.483836025641,253.0609122365713L943.4983842307694,257.99638536572456L943.5783993589745,247.1870696246624L943.6463667548078,254.82306924462318L945.9015658653847,243.14388395100832L946.6444335897437,253.35503455996513L948.6870925160258,245.63379903137684L948.7248269230769,257.22789627313614L948.7518774919872,251.55580070614815L948.8466681410257,228.65775753557682L949.6756885176284,222.79022347927094L952.3561953125002,231.85222421586514L955.2967512740386,253.43641211092472L955.3694922996796,250.4657160937786L955.7968458253207,257.58951169252396L957.5996866826923,220.21048188954592L960.809839070513,263.70322727411985L963.7313005128206,235.46480168402195L963.8590519391028,256.3634833395481L963.8961043990386,268.5106423571706L967.3463021714746,251.52880628407001L967.5763456650642,227.24794321507215L968.2421533653848,254.87323493510485L971.2193071554489,251.485082924366L971.3140978044873,231.0220858901739L971.3970680368591,236.02885414659977L971.9123927403846,238.30403190851212L972.8221101923078,240.43450717628002L973.4656409535257,260.1209956482053L973.7929755689103,242.2974320948124L977.5430027564103,221.2738889157772L978.5304621794874,242.64416326582432L981.4787468750002,250.87192089110613L981.641732235577,236.61450777947903L982.4523400400642,223.3456580042839L983.5100400160256,247.55086769163609L984.6829890544873,240.7986009567976L987.0502548076925,271.6226119995117L987.2466555769232,224.639425881207L987.5719443509616,225.8770715519786L989.3079543910258,244.30269379913807L989.5830063942309,244.48995792120695" style="fill: none;" fill="none"></path></g></g></g></g></g></g><g transform="translate(51, 378)" clip-path="url(#clip_1)"><clipPath id="clip_1"><rect width="1063" height="22"></rect></clipPath><g><g><line x1="0" y1="0" x2="0" y2="5" style="visibility: inherit;" fill="rgb(0, 0, 0)" stroke="rgb(204, 204, 204)" stroke-width="1px"></line><line x1="81.83365384615385" y1="0" x2="81.83365384615385" y2="5" style="visibility: inherit;" fill="rgb(0, 0, 0)" stroke="rgb(204, 204, 204)" stroke-width="1px"></line><line x1="163.6673076923077" y1="0" x2="163.6673076923077" y2="5" style="visibility: inherit;" fill="rgb(0, 0, 0)" stroke="rgb(204, 204, 204)" stroke-width="1px"></line><line x1="245.50096153846158" y1="0" x2="245.50096153846158" y2="5" style="visibility: inherit;" fill="rgb(0, 0, 0)" stroke="rgb(204, 204, 204)" stroke-width="1px"></line><line x1="327.3346153846154" y1="0" x2="327.3346153846154" y2="5" style="visibility: inherit;" fill="rgb(0, 0, 0)" stroke="rgb(204, 204, 204)" stroke-width="1px"></line><line x1="409.1682692307692" y1="0" x2="409.1682692307692" y2="5" style="visibility: inherit;" fill="rgb(0, 0, 0)" stroke="rgb(204, 204, 204)" stroke-width="1px"></line><line x1="491.0019230769231" y1="0" x2="491.0019230769231" y2="5" style="visibility: inherit;" fill="rgb(0, 0, 0)" stroke="rgb(204, 204, 204)" stroke-width="1px"></line><line x1="572.8355769230769" y1="0" x2="572.8355769230769" y2="5" style="visibility: inherit;" fill="rgb(0, 0, 0)" stroke="rgb(204, 204, 204)" stroke-width="1px"></line><line x1="654.6692307692307" y1="0" x2="654.6692307692307" y2="5" style="visibility: inherit;" fill="rgb(0, 0, 0)" stroke="rgb(204, 204, 204)" stroke-width="1px"></line><line x1="736.5028846153847" y1="0" x2="736.5028846153847" y2="5" style="visibility: inherit;" fill="rgb(0, 0, 0)" stroke="rgb(204, 204, 204)" stroke-width="1px"></line><line x1="818.3365384615385" y1="0" x2="818.3365384615385" y2="5" style="visibility: inherit;" fill="rgb(0, 0, 0)" stroke="rgb(204, 204, 204)" stroke-width="1px"></line><line x1="900.1701923076923" y1="0" x2="900.1701923076923" y2="5" style="visibility: inherit;" fill="rgb(0, 0, 0)" stroke="rgb(204, 204, 204)" stroke-width="1px"></line><line x1="982.0038461538463" y1="0" x2="982.0038461538463" y2="5" style="visibility: inherit;" fill="rgb(0, 0, 0)" stroke="rgb(204, 204, 204)" stroke-width="1px"></line><line x1="1063.8375" y1="0" x2="1063.8375" y2="5" style="visibility: inherit;" fill="rgb(0, 0, 0)" stroke="rgb(204, 204, 204)" stroke-width="1px"></line></g><g transform="translate(0, 8)"><text x="0" y="0" dx="0em" dy="0.95em" style="text-anchor: middle; visibility: hidden; font-family: Roboto, sans-serif; font-size: 12px; font-weight: 200;" fill="rgb(50, 49, 63)" stroke="none" stroke-width="1px">-0.1</text><text x="81.83365384615385" y="0" dx="0em" dy="0.95em" style="text-anchor: middle; visibility: inherit; font-family: Roboto, sans-serif; font-size: 12px; font-weight: 200;" fill="rgb(50, 49, 63)" stroke="none" stroke-width="1px">0</text><text x="163.6673076923077" y="0" dx="0em" dy="0.95em" style="text-anchor: middle; visibility: inherit; font-family: Roboto, sans-serif; font-size: 12px; font-weight: 200;" fill="rgb(50, 49, 63)" stroke="none" stroke-width="1px">0.1</text><text x="245.50096153846158" y="0" dx="0em" dy="0.95em" style="text-anchor: middle; visibility: inherit; font-family: Roboto, sans-serif; font-size: 12px; font-weight: 200;" fill="rgb(50, 49, 63)" stroke="none" stroke-width="1px">0.2</text><text x="327.3346153846154" y="0" dx="0em" dy="0.95em" style="text-anchor: middle; visibility: inherit; font-family: Roboto, sans-serif; font-size: 12px; font-weight: 200;" fill="rgb(50, 49, 63)" stroke="none" stroke-width="1px">0.3</text><text x="409.1682692307692" y="0" dx="0em" dy="0.95em" style="text-anchor: middle; visibility: inherit; font-family: Roboto, sans-serif; font-size: 12px; font-weight: 200;" fill="rgb(50, 49, 63)" stroke="none" stroke-width="1px">0.4</text><text x="491.0019230769231" y="0" dx="0em" dy="0.95em" style="text-anchor: middle; visibility: inherit; font-family: Roboto, sans-serif; font-size: 12px; font-weight: 200;" fill="rgb(50, 49, 63)" stroke="none" stroke-width="1px">0.5</text><text x="572.8355769230769" y="0" dx="0em" dy="0.95em" style="text-anchor: middle; visibility: inherit; font-family: Roboto, sans-serif; font-size: 12px; font-weight: 200;" fill="rgb(50, 49, 63)" stroke="none" stroke-width="1px">0.6</text><text x="654.6692307692307" y="0" dx="0em" dy="0.95em" style="text-anchor: middle; visibility: inherit; font-family: Roboto, sans-serif; font-size: 12px; font-weight: 200;" fill="rgb(50, 49, 63)" stroke="none" stroke-width="1px">0.7</text><text x="736.5028846153847" y="0" dx="0em" dy="0.95em" style="text-anchor: middle; visibility: inherit; font-family: Roboto, sans-serif; font-size: 12px; font-weight: 200;" fill="rgb(50, 49, 63)" stroke="none" stroke-width="1px">0.8</text><text x="818.3365384615385" y="0" dx="0em" dy="0.95em" style="text-anchor: middle; visibility: inherit; font-family: Roboto, sans-serif; font-size: 12px; font-weight: 200;" fill="rgb(50, 49, 63)" stroke="none" stroke-width="1px">0.9</text><text x="900.1701923076923" y="0" dx="0em" dy="0.95em" style="text-anchor: middle; visibility: inherit; font-family: Roboto, sans-serif; font-size: 12px; font-weight: 200;" fill="rgb(50, 49, 63)" stroke="none" stroke-width="1px">1</text><text x="982.0038461538463" y="0" dx="0em" dy="0.95em" style="text-anchor: middle; visibility: inherit; font-family: Roboto, sans-serif; font-size: 12px; font-weight: 200;" fill="rgb(50, 49, 63)" stroke="none" stroke-width="1px">1.1</text><text x="1063.8375" y="0" dx="0em" dy="0.95em" style="text-anchor: middle; visibility: hidden; font-family: Roboto, sans-serif; font-size: 12px; font-weight: 200;" fill="rgb(50, 49, 63)" stroke="none" stroke-width="1px">1.2</text></g><line x1="0" y1="0" x2="1063.8375" y2="0" fill="rgb(0, 0, 0)" stroke="rgb(204, 204, 204)" stroke-width="1px"></line></g></g></g></g></svg>