<svg viewBox="0 0 1129 400" xmlns="http://www.w3.org/2000/svg"><g><g><g><g><g><line x1="51.5625" y1="336" x2="46.5625" y2="336" style="visibility: inherit;" fill="rgb(0, 0, 0)" stroke="rgb(204, 204, 204)" stroke-width="1px"></line><line x1="51.5625" y1="294.00000000000006" x2="46.5625" y2="294.00000000000006" style="visibility: inherit;" fill="rgb(0, 0, 0)" stroke="rgb(204, 204, 204)" stroke-width="1px"></line><line x1="51.5625" y1="252.00000000000003" x2="46.5625" y2="252.00000000000003" style="visibility: inherit;" fill="rgb(0, 0, 0)" stroke="rgb(204, 204, 204)" stroke-width="1px"></line><line x1="51.5625" y1="210" x2="46.5625" y2="210" style="visibility: inherit;" fill="rgb(0, 0, 0)" stroke="rgb(204, 204, 204)" stroke-width="1px"></line><line x1="51.5625" y1="168.00000000000003" x2="46.5625" y2="168.00000000000003" style="visibility: inherit;" fill="rgb(0, 0, 0)" stroke="rgb(204, 204, 204)" stroke-width="1px"></line><line x1="51.5625" y1="126.00000000000001" x2="46.5625" y2="126.00000000000001" style="visibility: inherit;" fill="rgb(0, 0, 0)" stroke="rgb(204, 204, 204)" stroke-width="1px"></line><line x1="51.5625" y1="83.99999999999996" x2="46.5625" y2="83.99999999999996" style="visibility: inherit;" fill="rgb(0, 0, 0)" stroke="rgb(204, 204, 204)" stroke-width="1px"></line><line x1="51.5625" y1="42.00000000000002" x2="46.5625" y2="42.00000000000002" style="visibility: inherit;" fill="rgb(0, 0, 0)" stroke="rgb(204, 204, 204)" stroke-width="1px"></line><line x1="51.5625" y1="0" x2="46.5625" y2="0" style="visibility: inherit;" fill="rgb(0, 0, 0)" stroke="rgb(204, 204, 204)" stroke-width="1px"></line></g><g transform="translate(41.5625, 0)"><text x="0" y="336" dx="0em" dy="0.3em" style="text-anchor: end; visibility: inherit; font-family: Roboto, sans-serif; font-size: 12px; font-weight: 200;" fill="rgb(50, 49, 63)" stroke="none" stroke-width="1px">0.16</text><text x="0" y="294.00000000000006" dx="0em" dy="0.3em" style="text-anchor: end; visibility: inherit; font-family: Roboto, sans-serif; font-size: 12px; font-weight: 200;" fill="rgb(50, 49, 63)" stroke="none" stroke-width="1px">0.18</text><text x="0" y="252.00000000000003" dx="0em" dy="0.3em" style="text-anchor: end; visibility: inherit; font-family: Roboto, sans-serif; font-size: 12px; font-weight: 200;" fill="rgb(50, 49, 63)" stroke="none" stroke-width="1px">0.2</text><text x="0" y="210" dx="0em" dy="0.3em" style="text-anchor: end; visibility: inherit; font-family: Roboto, sans-serif; font-size: 12px; font-weight: 200;" fill="rgb(50, 49, 63)" stroke="none" stroke-width="1px">0.22</text><text x="0" y="168.00000000000003" dx="0em" dy="0.3em" style="text-anchor: end; visibility: inherit; font-family: Roboto, sans-serif; font-size: 12px; font-weight: 200;" fill="rgb(50, 49, 63)" stroke="none" stroke-width="1px">0.24</text><text x="0" y="126.00000000000001" dx="0em" dy="0.3em" style="text-anchor: end; visibility: inherit; font-family: Roboto, sans-serif; font-size: 12px; font-weight: 200;" fill="rgb(50, 49, 63)" stroke="none" stroke-width="1px">0.26</text><text x="0" y="83.99999999999996" dx="0em" dy="0.3em" style="text-anchor: end; visibility: inherit; font-family: Roboto, sans-serif; font-size: 12px; font-weight: 200;" fill="rgb(50, 49, 63)" stroke="none" stroke-width="1px">0.28</text><text x="0" y="42.00000000000002" dx="0em" dy="0.3em" style="text-anchor: end; visibility: inherit; font-family: Roboto, sans-serif; font-size: 12px; font-weight: 200;" fill="rgb(50, 49, 63)" stroke="none" stroke-width="1px">0.3</text><text x="0" y="0" dx="0em" dy="0.3em" style="text-anchor: end; visibility: hidden; font-family: Roboto, sans-serif; font-size: 12px; font-weight: 200;" fill="rgb(50, 49, 63)" stroke="none" stroke-width="1px">0.32</text></g><line x1="51.5625" y1="0" x2="51.5625" y2="378" fill="rgb(0, 0, 0)" stroke="rgb(204, 204, 204)" stroke-width="1px"></line></g></g><g transform="translate(51, 0)" clip-path="url(#clip_0)"><clipPath id="clip_0"><rect width="1077" height="378"></rect></clipPath><g><g><g><line x1="0" y1="0" x2="0" y2="378" fill="rgb(0, 0, 0)" stroke="rgb(60, 60, 60)" stroke-width="1px" opacity="0.25"></line><line x1="97.94886363636364" y1="0" x2="97.94886363636364" y2="378" fill="rgb(0, 0, 0)" stroke="rgb(60, 60, 60)" stroke-width="1px" opacity="0.25"></line><line x1="195.89772727272728" y1="0" x2="195.89772727272728" y2="378" fill="rgb(0, 0, 0)" stroke="rgb(60, 60, 60)" stroke-width="1px" opacity="0.25"></line><line x1="293.84659090909093" y1="0" x2="293.84659090909093" y2="378" fill="rgb(0, 0, 0)" stroke="rgb(60, 60, 60)" stroke-width="1px" opacity="0.25"></line><line x1="391.79545454545456" y1="0" x2="391.79545454545456" y2="378" fill="rgb(0, 0, 0)" stroke="rgb(60, 60, 60)" stroke-width="1px" opacity="0.25"></line><line x1="489.7443181818182" y1="0" x2="489.7443181818182" y2="378" fill="rgb(0, 0, 0)" stroke="rgb(60, 60, 60)" stroke-width="1px" opacity="0.25"></line><line x1="587.6931818181818" y1="0" x2="587.6931818181818" y2="378" fill="rgb(0, 0, 0)" stroke="rgb(60, 60, 60)" stroke-width="1px" opacity="0.25"></line><line x1="685.6420454545453" y1="0" x2="685.6420454545453" y2="378" fill="rgb(0, 0, 0)" stroke="rgb(60, 60, 60)" stroke-width="1px" opacity="0.25"></line><line x1="783.590909090909" y1="0" x2="783.590909090909" y2="378" fill="rgb(0, 0, 0)" stroke="rgb(60, 60, 60)" stroke-width="1px" opacity="0.25"></line><line x1="881.5397727272726" y1="0" x2="881.5397727272726" y2="378" fill="rgb(0, 0, 0)" stroke="rgb(60, 60, 60)" stroke-width="1px" opacity="0.25"></line><line x1="979.4886363636364" y1="0" x2="979.4886363636364" y2="378" fill="rgb(0, 0, 0)" stroke="rgb(60, 60, 60)" stroke-width="1px" opacity="0.25"></line><line x1="1077.4375" y1="0" x2="1077.4375" y2="378" fill="rgb(0, 0, 0)" stroke="rgb(60, 60, 60)" stroke-width="1px" opacity="0.25"></line></g><g><line x1="0" y1="336" x2="1077.4375" y2="336" fill="rgb(0, 0, 0)" stroke="rgb(60, 60, 60)" stroke-width="1px" opacity="0.25"></line><line x1="0" y1="294.00000000000006" x2="1077.4375" y2="294.00000000000006" fill="rgb(0, 0, 0)" stroke="rgb(60, 60, 60)" stroke-width="1px" opacity="0.25"></line><line x1="0" y1="252.00000000000003" x2="1077.4375" y2="252.00000000000003" fill="rgb(0, 0, 0)" stroke="rgb(60, 60, 60)" stroke-width="1px" opacity="0.25"></line><line x1="0" y1="210" x2="1077.4375" y2="210" fill="rgb(0, 0, 0)" stroke="rgb(60, 60, 60)" stroke-width="1px" opacity="0.25"></line><line x1="0" y1="168.00000000000003" x2="1077.4375" y2="168.00000000000003" fill="rgb(0, 0, 0)" stroke="rgb(60, 60, 60)" stroke-width="1px" opacity="0.25"></line><line x1="0" y1="126.00000000000001" x2="1077.4375" y2="126.00000000000001" fill="rgb(0, 0, 0)" stroke="rgb(60, 60, 60)" stroke-width="1px" opacity="0.25"></line><line x1="0" y1="83.99999999999996" x2="1077.4375" y2="83.99999999999996" fill="rgb(0, 0, 0)" stroke="rgb(60, 60, 60)" stroke-width="1px" opacity="0.25"></line><line x1="0" y1="42.00000000000002" x2="1077.4375" y2="42.00000000000002" fill="rgb(0, 0, 0)" stroke="rgb(60, 60, 60)" stroke-width="1px" opacity="0.25"></line><line x1="0" y1="0" x2="1077.4375" y2="0" fill="rgb(0, 0, 0)" stroke="rgb(60, 60, 60)" stroke-width="1px" opacity="0.25"></line></g></g></g><g><g><line x1="0" y1="672" x2="1077.4375" y2="672" fill="rgb(0, 0, 0)" stroke="rgb(153, 153, 153)" stroke-width="1.5px"></line></g></g><g><g><line x1="97.94886363636364" y1="0" x2="97.94886363636364" y2="378" fill="rgb(0, 0, 0)" stroke="rgb(153, 153, 153)" stroke-width="1.5px"></line></g></g><g><g><g><g><g><path stroke="rgb(255, 112, 67)" stroke-width="2px" d="M100.65320455334596,-29.90261577038406L100.76747822758838,11.843564843646078L100.97058607954546,-21.23470359739453L101.06867098327018,10.570785103317462L101.11206777146465,78.32184153464823L101.22389272411617,64.92615547597701L101.57854923453283,31.834956233025355L101.58779996054292,68.17498039964167L101.79607733585858,57.21247917924895L101.95755692077019,44.79386675625235L102.26636792140151,80.8426014561201L102.54280138099746,79.64965346384349L102.56796879734848,95.55893799298138L102.73040066287878,93.62233040812175L102.82331604324494,111.85592276962676L102.85460526357323,60.13133633413185L103.14042548926767,93.42307915087589L103.8927271780303,74.1259121002976L104.10399743529041,116.62679232120502L105.03056647727273,84.91884630972285L105.49038197601008,65.64634293343897L105.54017264835858,70.617915756246L105.95699947916665,26.13871662645641L105.97944609375,36.30315052931711L106.25179835069444,71.18444562053018L106.88288832070707,69.78554205883965L106.9903599905303,5.127399454458024L107.74919160353535,26.818168983607286L107.95978166035353,71.52826602074254L108.02031949968433,29.149919881637913L108.07106245265152,42.61833680573801L108.39211706123737,69.33541095855436L108.77112474747474,49.60045101975205L109.17040240688131,50.50491029462819L109.2967836489899,80.72243060151457L109.41350604482324,71.90061529562125L109.53390152304293,70.91904835751637L113.64135991161616,96.77407124552447L113.70203379103535,77.6572202856023L113.75196050347222,75.18346047488822L113.94894655145202,85.23364749007435L114.04635125473484,83.09953745873545L114.2116399621212,131.4707085172679L114.23204597537877,68.0150428700623L114.34196636679292,121.87783897448807L114.38250631313132,130.25393479185843L114.50426219223485,152.9948425359582L114.54058489583333,114.0385253946215L114.6349967171717,105.92172649623333L115.22024117739898,139.03671214056834L115.2369741082702,141.69125745935932L115.7503894018308,162.37399934675517L115.79011310763889,160.26009778348336L115.82466729008837,172.55793016056856L115.96438046085858,186.98118334353353L115.98301795296717,146.88947685563795L116.25985953282829,160.22929248812343L116.42800508207071,113.2572239971313L116.45330853851009,85.40357989884342L116.72212375315655,80.59901744614197L116.87054348958334,122.72955154472679L117.07405946180555,178.78668894227798L117.98226309185605,169.85727189693725L118.50846615372474,161.3054147166841L119.40551449652777,144.12911484258368L119.422247427399,135.6527159071982L119.4659162957702,121.65183605295545L119.59610666035353,126.74247973884424L119.91892979008838,104.21862698629667L120.0223202572601,106.06962862631777L120.03782882733584,118.84304661167324L120.29263191287879,92.81280151970772L120.3733036852904,91.24077868442293L120.4247268386995,140.70995879161686L120.43234508364898,139.769287347724L120.82672529987373,37.129075241047104L120.84713131313131,104.91728901383755L121.13744086174242,130.6134183854906L121.45196554608586,86.82477596110402L121.59181475694444,111.66372079078131L121.72200512152776,120.67986599459515L121.72690256470959,175.13188886555588L121.79791549084595,166.79476246781678L121.87641062184343,164.13813026873788L121.9810254498106,143.61757040100412L122.18685410353534,168.6473525051899L122.1932479876894,135.9474073222058L122.21270172032827,194.95324678246843L122.24167825915404,221.66734096422593L122.26194823232322,194.91052249082807L122.28221820549241,185.6550766647392L122.34928596906565,156.2963243973573L122.53076344696969,171.31848558499334L122.62109406565658,135.3811957401867L122.66353857323232,202.86833994167063L126.44246014835858,188.7805304561675L126.69018914930555,167.73604288307547L126.73630673926768,190.7281311905844L127.05382430555557,171.503978571681L127.0694689157197,168.97069435202351L127.17190710227273,133.65922110607187L127.3571937026515,144.61713162261225L127.50983068181819,174.23182448862778L127.65457733585858,194.52158408831824L127.71538725536615,192.53997984809445L128.17520275410354,197.31595689822896L128.2405019965278,176.36705865126643L128.4886391177399,206.4107736209738L128.71269714330808,221.95693916438265L129.26937318497477,193.434393849124L129.30923293087122,169.55378921398494L129.44377657828284,133.06522297602282L129.57423902304294,152.11208066786165L130.10057812499997,161.44900923636453L130.28450432449495,174.05730553666896L130.93314346590907,157.7303688299665L130.97286717171716,162.73007281851827L131.0256507260101,197.51024541993175L131.1317619949495,174.55123606764815L131.18318514835858,147.36662001278125L131.26344880050505,156.67001306334805L131.295690301452,158.6814564902763L131.327931802399,170.53894181485057L131.63932756470956,180.8503185953801L131.7308825441919,160.44745898521572L132.00473124210856,135.55095591709988L132.0877156960227,160.55473510364277L132.18253563762627,164.03481383287664L132.6103817155934,212.68782453038543L132.65990030776513,183.92391946493538L133.22269815340908,197.34013947593542L133.496274771149,186.77654076068023L133.639116863952,188.1499023225809L133.76998742897726,207.68446932953032L134.44882747001262,173.02559744549652L134.50025062342172,161.87560522099054L134.91517289299242,179.40693361484836L135.33907380839648,213.26455754592317L135.5152457228535,146.02106148334923L135.56843739741163,122.24576200445047L135.89221280776516,156.58782800078126L139.57168907828282,202.5137322428211L139.69031603535353,206.97840917601494L139.70800124684342,201.20616660412742L139.78948925978534,212.9922897451913L139.79778770517677,204.52461431227897L139.994229592803,222.14070259215097L140.2075404513889,234.2874694268802L140.73224707228536,209.82172782426474L141.25423289141415,219.54237403396016L141.5710702572601,165.8410226698115L141.67269220328282,195.63348866673678L141.7215305950126,213.39841833813412L141.82043173926766,229.82638751926075L141.83825299084597,259.6540783850077L142.90059004103534,225.79918299959442L142.9160986111111,131.47370816973648L142.92534933712122,183.2452893835772L143.21348224431816,179.24473532333786L143.24014610164141,217.21445236381777L143.7426781881313,232.69856048689414L143.7460791903409,212.29933548609102L143.910551657197,209.55199871444512L144.31894400252526,202.75712956180456L144.3582595880682,206.9523016046898L144.84759578598488,138.76983524748192L145.09695726799242,167.50220304363074L145.64383842329548,161.24026390095418L145.73240052083332,153.8937951337091L145.85320411931818,205.73685085837798L146.22962704387623,175.0619478467986L146.44225770202019,166.0044078972271L146.67189337121212,201.98666547216965L146.84765716540406,189.08533157395124L146.87146418087121,121.33990353039978L147.59424517045454,121.0469247918849L147.7038934816919,152.23900334963352L147.72892485795452,169.34351602154464L147.96645085227271,173.32024864529063L148.44218304135103,181.54610812768036L148.49945591856059,179.59241824212484L148.9765485085227,181.4057783178259L149.13231440972223,204.22892133544497L149.28263870738638,202.23269085973865L149.39555198074495,206.44526498848415L153.02251677714648,238.5958839972867L153.08767997948232,243.4961897325548L153.12930824652776,229.96269422722054L153.3147308869949,201.67706111641047L153.55035232007572,238.9089912627418L153.8178071338384,246.86273999537704L153.8503207149621,245.3283862800936L153.8629724431818,262.9745291073049L153.88188201546714,245.85478825562743L153.89562206439393,231.82189304347963L154.0406407986111,224.00571195314012L154.2772145123106,219.4396710159164L154.43529309501264,207.5628671980966L155.0896459201389,169.91013495546989L155.82467051767676,172.8837920214082L156.2391846669823,194.03435074003607L156.388284603851,179.60455590910954L156.49766083491158,129.69212998406434L156.56432047821968,185.06350801859108L156.63451716382576,203.45779952093247L156.63846232638886,156.6371840517776L157.4254542376894,176.58671874291042L157.82119485479797,170.53922978929484L157.86540788352272,170.98187014992115L157.90866863162876,195.2489299388831L157.91628687657825,180.37002823424965L157.9380532907197,220.5330631117381L157.95628266256313,202.09444652678712L158.543159603851,202.52916990925155L158.58220310921718,189.54171173101238L158.7474918166035,199.17816126540646L158.75647046243685,238.0120808613023L158.856459927399,217.76975545476205L158.88026694286614,188.42597342246967L159.10119604640153,167.96042647787453L159.1119432133838,203.94087275760486L160.1046277383207,198.1212577158041L160.12435355113635,169.10268197857306L160.41561538036615,178.810464968699L161.08833361742424,151.7852841081725L161.2005666903409,196.89111346378962L161.48393819444442,213.95313467010882L162.08237854324494,228.71969004526755L162.52899815340908,224.0522400620879L162.57824466540401,224.21697896023397L162.6624534801136,211.85845273315795L162.883382583649,213.95847884166173L163.04418196811864,230.47747609226658L166.69835478219696,205.3665024352596L166.99206533301768,223.24022907689366L167.07178482481058,184.63859478637673L167.36495121527778,219.78441433909597L167.37392986111112,243.7234483051482L167.72273664772726,233.18245605755948L167.87523758680553,242.8425514944142L168.52319652777774,217.32536703632755L168.8177233191288,199.28460334710172L168.84411509627523,203.99252249581752L169.2436648358586,164.64479256739102L169.66715763099745,192.49106226605102L169.96046006155302,151.08934155846788L170.1230279671717,170.68395984020924L170.38789801925503,195.9655230036205L170.782006155303,212.21906933729807L170.9330106534091,231.6274428459702L171.09721104008835,174.46700363711702L171.29093212594697,166.23750410888303L171.35623136837123,172.36675077923368L172.57719116161618,180.59291757493156L172.96572165404038,155.27183369010058L174.80688821022727,216.56331040387965L174.9966641335227,145.30663505748285L175.1464442708333,210.9401740047656L175.32574510732323,200.60934234936968L175.7759017597853,190.61603437232927L177.08692009154038,172.93335019569375L177.50020988005048,144.4801654042051L178.11075779671717,208.73856642372888L178.32801381786618,206.54163960532833L178.3875993765783,196.77418715904054L178.48554824021463,170.90638193577468L178.59084326862373,173.53762877637112L178.92563792613637,175.5054420271752L179.08004342645202,187.9368631147884L179.85873689236112,240.2406089844431L179.90186160037877,228.47491467846186L181.50318948074494,264.59236665280315L181.9075006234217,245.23300607032564L181.9725277856692,254.09308366195555L182.0885699810606,235.25712549815293L182.1625757891414,295.98763983326984L182.18379804292925,279.2514336638322L183.35401488320704,249.8091240723533L183.80988521938127,232.2799230098488L184.02754936079546,205.9056475925304L184.0701299084596,217.66460335063084L184.58544976325757,258.06030514125325L184.64435512152778,196.33214050700832L185.00309283459595,160.80040801865206L189.38086287878787,183.34687100233043L189.49295991161614,235.99141093719845L189.59553413825756,228.86769867318185L189.60369654356057,263.4144825004179L189.8956385732323,288.093924108901L190.07425920928029,249.65362469181918L190.1333006076389,229.285163449201L190.94341933396464,249.06871607718048L192.23185501104797,246.9221883941721L193.4657386126894,249.46753291660733L194.36346715593436,245.46768138631697L195.05128584280303,259.61518691673587L195.3855363399621,246.9959766548557L195.7747470328283,248.94702742586625L196.7316530145202,249.29719518476787L196.95557499999998,224.21374296458998L197.60679890309342,235.0083344180134L197.97995686553028,236.67103551618737L199.7052172664141,216.21897882695487L200.4535737926136,231.27523109004193L200.9118928503788,205.41929037979423L201.17295377998735,187.55904340512262L201.58542732796715,196.3711792931957L202.132580563447,203.81435963547253L203.54345232007574,216.32058454177394L204.25072473958332,208.78094280136588L204.27153887310607,209.82028992398358L204.89378623737375,149.19788694038263L206.29431894728535,149.9109915712731L206.35825778882574,190.50392583723408L206.48232634943182,161.44679834673133L206.93670024463384,203.72758184808094L207.12321120580805,261.4719348128891L207.95346386521462,253.6718432769928L208.2761509548611,205.23953947220764L208.4789867266414,202.56204855915618L208.9015272411616,226.23770392225214L210.28110977746212,203.2155970590474L210.80363975694442,207.35574368579162L214.02112388731058,196.82814784015994L214.02234824810603,221.69374176958667L214.2585138415404,229.78262220084352L214.31524255839645,211.1101074353438L214.3873438052399,197.8571691593874L215.1482160195707,229.99462481029917L215.77794558869948,182.54915239625032L216.48344948705807,135.1638124597839L216.50399154040403,132.9236285098059L221.27110831755047,157.77751010702033L221.68779910827018,178.44776040343035L222.05728398832068,220.93302150981182L223.54869147727274,217.3479828144107L227.42392943497475,226.99268184333997L227.58459277935603,187.95884090799066L228.0284915877525,195.41579929672466L228.495789291351,230.05961510946025L228.82024490214644,268.4930499876122L228.9947843355429,252.02963455227496L230.26050131786613,169.8710841638296L230.56251031407828,210.75507900133428L230.7046722064394,222.17960184225262L230.8635670296717,215.22886772995483L230.933491635101,206.49786727455432L231.55437859848482,187.2281256009768L231.79000003156565,157.60011693773455L234.44101323390151,165.56333261095153L234.52930325126263,173.97580364562677L234.75472167771463,171.70920447836875L236.0578496843434,201.8384127875004L236.45127761994948,236.79878412841765L237.10807916666667,227.94032041525244L237.99043517992425,203.51904304203634L238.2229276909722,238.9133624993398L238.82966648516413,259.7915931679388L238.85129685921714,204.16092186794165L238.98951358901513,194.64400480762419L239.64182581281568,215.79140352353636L239.81854188762625,216.85671708074327L240.85748004261362,184.5431525056786L241.2793403566919,210.18598433406513L241.8285341934975,198.28468956989863L242.07299823232322,205.19620780016675L242.58927036773986,196.1134643069845L242.59716069286614,105.87461540174135L243.16172705965906,149.4971701924303L243.2151908143939,212.8704780473887L244.04748407512625,238.2074317297089L244.2440620028409,235.87119351391476L244.69530697601007,228.71102856734083L246.29663485637627,194.5297871538323L246.84079520991162,171.47366257359516L247.08593944917925,210.9904912701245L247.1632102193813,220.688310169637L248.36893352272727,231.11407457796327L248.45382253787875,243.3762669980979L248.55149932133838,189.38532002094124L248.5710890940656,217.6675286014243L248.72590271464645,220.41623037572884L248.79365067866163,212.31649249503718L254.28558904671715,235.2158965927941L254.64337447916668,234.66459530964994L255.10713514046716,254.08344880566298L256.315307165404,245.62650277510468L256.38577593118686,214.44510377821433L256.97999903724747,197.54737058506672L256.9821756786616,204.27133707539002L258.0529472143308,209.73420427045676L258.3251634311868,229.35162182927994L258.8885054371843,209.9560177581362L259.19160275410354,248.11968249421435L260.0490634311869,268.62327128852087L260.28931022727267,256.26928614499974L260.8949607007576,212.18941697432282L261.00882625473486,229.4382065353017L261.24172688604796,286.9294137130512L263.76894360795455,292.37088627638417L265.0164312184343,245.92467710388897L265.82369310290403,247.28601678021676L267.40012564709593,228.1643802631374L268.7835173058712,236.21977004459356L268.9746536300505,285.28953457505025L269.24006784248735,219.28645177263328L269.4687512310606,229.41807515369837L269.5823447048611,218.43299457399243L269.715936071654,252.68149493317716L269.7228741161616,240.25484875548435L271.19931719539136,224.50766660993426L271.6626697364267,173.70294515028675L272.0526966698232,176.2536870940631L273.8055732086489,224.7834848346773L274.0052800583964,255.6910030712166L274.48169244791666,268.242536393969L274.51107710700757,196.9830015231185L274.59066055871216,228.62502811724025L274.6773180950126,200.09949795230676L274.97184488636367,197.30687916174205L275.07360287247474,206.07581012186208L275.65503821022725,190.79796362362387L277.8886804214015,256.3483238008147L278.383594262942,265.3465164057329L279.9061549321338,211.40498001288861L280.1474900489268,211.04537598437963L282.03001279198236,286.1852977284604L283.0323561631945,302.1550413613804L283.7951329387626,241.45266875298552L284.05320098642676,252.23030610484918L284.0829937657829,236.54028994800473L285.8519230350379,237.59095985270636L286.6235424163509,195.7699771319455L286.66421840277775,210.598828577675L286.80039453125005,195.85196093540054L287.1313800662878,214.73044290435706L287.3173468671086,228.2964434760356L287.42168961489904,235.80229683742186L287.8251845170455,215.59669859424386L288.44715980113637,206.8223064852664L295.04714468907827,270.8077375002449L295.5782451941288,289.62492494033256L296.3048353061869,285.4777762666135L297.13046260258835,259.0632009610408L297.2251465041035,247.6843803468271L297.549602114899,228.39273394006042L297.6218394018308,224.59208958660096L298.1049177556818,270.1270747263106L298.9757103614267,225.16030483715963L299.02808579545456,227.14101923270962L299.3709068181818,253.1595597312685L300.4951421085858,210.2614969280861L300.86530718907824,193.7368804852666L300.987471188447,235.31209084036956L301.70222581281564,271.13834894086733L302.092932946654,188.5717754625428L303.06045005523987,192.8653148331135L305.61963619791663,222.60839452254112L307.2306229245581,217.93387542907803L307.48637829071964,184.7744346782232L307.87654126420455,186.82248007802156L308.8768440340908,225.5139387819051L308.9259545059975,226.68723392324924L310.3644424005682,225.99743327997493L310.98655372474747,239.21611624659516L311.38542326388887,235.7962818485583L311.9229176530934,152.93271019113573L312.7554829940025,150.00574995310615L313.05028186553034,152.32796738881774L313.4675168166035,172.30268525087178L314.093573303346,184.71987733246885L314.39979954229796,217.9470258772493L315.3294975063131,260.0036894452644L315.78563992266413,267.3576138002916L316.4331907433712,261.35770990748665L316.62038190498737,238.31464899956862L317.0625121922348,258.6188618026953L317.6779575520833,243.67098298566225L319.0518264046717,232.84680184660365L319.8726922979798,219.5722105797411L319.9480585069444,258.2830568251777L319.96819244002523,250.76037531481796L321.4379695549242,232.8764587246574L322.53159582544185,228.89428558368667L322.7647685369318,202.3567320729445L322.9191740372474,216.35882095248402L323.1576523121843,233.35282769054714L323.6608645991161,216.144766058031L324.0327982007575,241.76516516536668L325.33715056818176,247.47163350302102L325.79288486426765,285.85130872081595L326.8252930950126,291.88486641496945L327.0260882654671,298.8596505752238L333.05960222537874,304.56527099794346L333.4528941208965,288.7521799432408L334.02235793087124,251.83293562097384L334.97939995265153,269.37886386491675L336.12376917613636,231.95243607388625L336.2970842487373,246.27537094608957L337.0903340041035,261.8090937796594L337.9891508680555,318.24802941461576L338.0661495580808,284.36178442466354L339.02183117897727,285.94505837338033L340.4781403251263,309.71628522143874L341.1424240767045,300.038453359998L342.5437730271464,313.98635774826806L342.55111919191916,307.6072995542038L342.6551898595328,314.858301608476L343.35049075126256,278.57718599361954L343.6827006470959,309.4898124964403L344.5419298453283,285.36132402607006L345.3452465672349,313.3666827403796L345.96953453282833,288.69309752722336L346.0703402383207,291.61486111605024L346.17536318655306,298.07731861188324L346.1846139125631,320.787208451714L346.7132656960227,261.7924048029696L346.80223591382577,301.86817791004864L346.8056369160353,287.61820586883954L347.211308459596,242.0736259243723L347.429652801452,244.5999769462249L348.54817440814395,225.98700159150968L349.80423254419196,219.40148080205094L350.4234870265151,250.35013683328137L351.51044733270203,211.60533926301656L352.2718637073863,199.62750619300283L352.73317564709595,188.46770556955383L352.7625603061868,239.07269859426523L353.6879049873737,234.4777597910959L353.75116362847217,241.42801134150017L354.52019824810594,236.8081037781286L354.6166506707701,247.6146492589502L355.5953230666035,243.5370531099432L355.749320446654,234.5893160830375L356.31633553503787,228.54856235566362L356.4093869554924,244.052176420585L358.5286194523358,257.9065309910153L358.5633096748737,248.1488619892702L358.5743289220328,243.8782462745252L358.6751346275252,276.0780459683742L359.7616868134469,303.5066102052692L360.4520902619949,292.23535626560226L360.6190114504419,285.9827707852709L363.6471277777778,319.18203183685466L370.2004509154041,279.75128565236764L371.0353289378156,330.4837887406637L372.91118571654044,293.4061995577985L374.37116794507574,317.0449878115758L374.58856000631306,315.60891545649196L375.0897316919191,269.16365197203055L376.9800087200126,271.55177580655516L377.4698890782828,242.83666369522157L377.57681658775243,239.51460698368876L378.32911827651515,238.22010807468135L380.62465872790403,207.31229520007165L382.0181173532196,249.76768519976255L382.02655183869945,224.46916302739683L382.81136710858584,195.73698168217604L382.86768770517676,239.65123375188986L383.59767881944447,283.3875536199312L383.6031204229797,252.16831744169596L384.6623285511364,266.8469112423384L384.76639921875,299.18834698839925L386.98085977746206,272.66653561975926L387.7365624684343,324.0689789795063L388.0169410905934,301.7347285952081L388.8952159011995,246.07439104353844L389.14648194444436,219.8417787053314L390.2235113241793,250.54110378611847L390.76154987373735,226.5536993657873L393.73252936395204,164.82020322771825L395.00382398989905,183.8959843652961L396.3568787089646,221.9322151862096L397.6757873658459,268.17708240285583L399.5483791824495,283.96005233725947L400.67792003630046,324.23382287383697L401.0748850142045,332.1403866598643L402.1434799084595,319.4316057199024L402.3722993371212,271.0728698154558L402.39937131470964,236.7355480182332L403.01236795296717,229.5461329929925L403.37872391098483,241.56112873035056L404.31848884154033,231.3944864957177L405.43197696496213,178.66739091209433L405.4526550583965,170.20384767610943L405.86023116319444,235.06582383489084L406.0830648279672,265.1883447895973L412.3313860874368,260.60833487096596L413.21387814078287,283.60236502398953L415.9748117345328,244.15835395282454L416.1225512705177,290.86036779180733L417.4787349116162,262.09822956142165L417.9054926688762,272.0643417323669L417.9707919113004,257.7742193391944L418.92810601325755,276.6779360205546L419.0489096117424,236.75940917912817L419.156517321654,233.01467177262123L420.3343524068813,256.93640640372166L421.545653353851,211.91001736518226L421.67951680082064,216.82667798636248L421.7404627604166,244.31922122739493L424.65308105271464,274.2381268316671L425.1640476246843,271.9076516851284L425.535709146149,262.27648874667284L426.25699369476,283.808779886645L426.30678436710855,257.8400649137986L428.37758659248743,279.7325324003513L428.86284158775254,304.00351475385526L429.42536735321966,304.4823664349776L429.5658967645201,300.2841442061938L430.361867321654,293.42288434705L431.2644933080808,220.69778244615114L431.4942650173611,198.68614678931553L432.37158754734844,253.39492209763716L433.72314582544186,255.90225789553756L433.9096567866162,254.12628556255603L436.9468877998737,173.72509546854556L439.589194436553,207.14908430444274L440.29238565340904,205.67943690697592L442.38372993213386,185.2144899754539L442.57649873737375,191.48477814130865L442.60044179292925,224.15818518121768L443.0802551846591,237.91384788584548L444.912579135101,249.6161854280939L446.1151735164141,251.678925562734L446.11952679924235,223.4623491101471L446.5623372869318,268.8105768044596L452.21412275883836,290.4133979606512L452.2202445628156,302.69534378814L453.001522790404,208.70742677192268L453.11035486111103,239.2235165032171L453.75858588226,244.21041464760438L454.0883470565025,269.26178255054083L454.36423635574494,283.5318215273185L454.8203787720959,294.1128580798128L455.1674170375631,313.85400532659406L455.82761958648985,287.04152969703983L456.1043251262626,274.5258884202595L457.51043547979793,269.7670213801357L459.77645523200755,308.2080693973716L460.0211913510101,333.2186873396406L460.0624114977904,307.16258206606915L460.6156865372474,298.69761602068553L462.9240147569444,298.2900592326201L462.9271436789772,301.7363556289123L462.9555760574495,267.7286832847265L463.2696926215277,301.863796121959L463.66148807607317,290.62166612570536L463.9341124131944,286.88187664285334L464.55091817392673,258.92309113463784L465.07045527146454,261.61253018451345L466.0843620501894,262.1096919254816L466.38378628472213,233.07797438361388L466.7218459043561,260.06476661239947L466.9257699968434,266.2145602028065L468.84964892676766,273.6474375796612L469.6978588778409,260.75657079650733L470.02857233270197,251.0005216481315L470.3873100457702,227.91507252943677L471.45549681976,247.43696342046357L471.5437868371212,237.30101643881383L472.81902662563135,239.37164167690977L473.3746143465909,248.08358447628444L474.038489977904,241.61125841663613L474.46742437657826,268.11700124100645L475.5882586647727,265.950277844404L477.2076798768939,304.020224499306L479.46444890309346,293.20229325747545L480.3084416114267,277.0068731430534L480.52134434974744,249.30913611193677L481.46015699968433,250.85094792807215L482.0569648674242,280.76462406613894L484.79218688446963,296.73422137915173L487.68902452651514,295.2151874781792L491.5180088541666,297.90766721255454L499.38003764204547,329.00104518703745L504.9293849273989,347.391148829294L509.0060982559974,303.28810960282846L510.0106182686237,296.74676453012205L510.48947937973486,263.1620454963325L514.698287634154,300.3547453270125L515.7881047821969,292.0104094854455L519.6252515151515,261.328237015692L520.1133633522727,299.9581270448492L524.5119475299873,311.43665694189826L527.2052691998106,339.4583999573753L527.3779040719697,326.36666418669023L528.8823714094066,295.94316559766173L533.8270205018939,315.7066380127337L536.0458343434343,259.91058206224835L537.1295296874999,272.5988582591081L540.1196908301766,246.38910392641216L540.8813792850378,281.43479471039296L540.9942925583964,265.1841029681654L542.8347789141415,214.5992711757357L544.6741769491792,242.64436819402778L546.5822752288509,272.8976849689985L549.4548977351641,243.02105157225756L550.1465255445075,276.64146576314823L551.2359345722853,279.8147729753832L553.0470362689392,238.63488987203718L559.4995537010732,253.57007362315824L560.4168720170454,253.990025436102L561.7500648832071,235.84059071255848L562.4195181581439,259.54613506622985L565.8690866792929,302.96793537037297L568.0132145123105,299.1399536412759L568.4182058554292,290.81441346894525L572.5912355666036,251.0041111236264L578.0303903803662,279.6561064914137L579.6435537484217,287.4932052728695L588.1988428267044,229.62375538570654L589.3101543087122,251.2019012273727L590.4624138573231,278.56442658313387L590.8977421401514,248.7401290905969L592.1796478929923,282.5918784721194L595.1436893386995,273.73172889849536L596.3321355508207,269.27882229507566L596.3910409090909,230.46596409809945L601.0814310763889,229.93345957954148L603.053468197601,224.21528524136204L603.2300482323232,232.7895494340399L604.2349763652146,178.6439366840446L604.6266357796717,214.41709330696608L607.1870462831439,215.73193632971496L610.5295512547348,202.20037085659055L620.3198122553662,237.68002206591817L621.7544910274621,198.36578740184336L621.876791066919,226.23197902145878L622.425032623106,239.6239309126311L624.265518978851,247.6392751582964L624.3241522569443,273.7043587236705L627.4006988557448,273.46670202428714L643.0514308238635,254.58271610745552L645.0626474905301,269.3665904760884L649.915605563447,244.40269194606108L650.4014047190656,297.66566354372003L652.914065151515,314.65785030327976L653.445981897096,268.4213550794288L655.5642621133206,283.92475680757553L656.3383302162247,312.2101428762018L659.6510424084595,309.61654087632536L660.8790762863005,260.3891534133532L662.388032946654,291.06748362325305L663.3555500552399,321.8407778021257L665.3278592566287,316.20925121763713L666.3406777146464,304.6741989926062L666.9619727982953,301.2087791249491L670.3191700994317,242.75022863658293L670.3534522017045,266.2581105668069L671.3164799873737,261.7857080959512L671.3277713147095,282.80389804024895L671.8739722695707,288.353610672828L674.6663311237372,234.78493554489398L677.3933907354798,249.15952724871985L677.454472735164,310.2182301918146L678.693117739899,325.00255547997216L679.2165999999999,285.25511533639946L680.9794074652776,309.8727179683574L681.5027536852904,308.2711007545785L682.0591576467804,308.79277867975213L682.6038621606692,293.61928278745637L682.8894103061867,306.66832913483046L683.7061949968434,322.84768103077926L684.8123369554924,345.64121417114086L685.3914596117423,289.7530165905294L686.2710948232321,286.90791656938416L686.6952678188131,293.8741441867782L688.5617378314392,328.5766254128238L692.1145607796716,293.93534607060076L692.1197303030302,235.57056280593466L692.3797029119319,231.99735165012117L693.2094114109848,281.9106870196594L695.0903016729798,241.76019633426276L696.5689213936236,255.80366857417823L697.9543536537248,230.09718665819403L698.0157077335857,204.58449016416694L698.6121074810605,141.54215990546123L699.4156962831439,210.4496618929075L699.6918576625629,235.32477746144335L700.0436573311235,253.7158223255599L700.9643766493056,275.2422656455114L700.9851907828281,260.4619328164145L701.0299479719065,234.1328027715137L701.9079507023358,226.69073126732417L703.1441469854798,247.34931105386676L703.4389458570075,247.4684352994649L709.1843269097222,317.3868668747358L709.8962246922348,323.30610355570394L710.3705964804292,317.3550832798151L710.668932394255,296.30694325745515L711.6759011284721,322.98434104907756L712.5987970880681,291.6952629946962L714.6700074337119,312.0414948978004L716.0025200994318,260.772459943174L716.9150770123106,209.94874317591115L717.0875758443811,280.6574635931535L717.2981659011995,254.39198815993566L718.7200569049874,281.7404777537114L720.1671153251261,318.95839223446404L720.2103760732323,241.1959580015061L721.1089208570075,266.53548909610015L722.0501822285353,307.4770381533236L722.0678674400252,310.896002130695L722.5986958648989,288.5299783688711L725.4109165719696,242.71282688033153L725.7838024542297,273.31594671756966L725.8602569839015,248.33809169501626L726.4279522727271,216.46129751426318L726.7217988636363,255.23269100321738L727.8139286931818,264.93598777850514L728.0133634627525,216.29940966844586L728.1152574889519,259.4329363589289L729.8371168876262,255.32360597162256L729.9882574258206,275.14510829275133L736.6251091777145,253.79003159418878L738.6240822364267,234.19336068758477L744.3963992266413,242.04450187760065L745.8030537405302,270.2243777851907L747.4469621685605,244.11268553380057L755.861449755366,223.24273901727136L757.1487971117423,241.2670351597448L766.7973043402777,278.77715458469277L768.9200738794191,260.70726000068595L769.495251373106,296.15563923596153L769.8115445785985,292.25212801980257L777.2306268386994,233.86861847333483L777.3972759469697,245.97045764024477L777.8912375078912,244.29937239107744L793.2643116556186,261.5853491045073L794.3232477035983,282.6715662131927L796.806931597222,241.48393004239924L797.3144971669822,302.7249803370317L806.4305434895833,300.2495581523228L807.2880041666666,301.79008337352565L808.3565990609216,288.815186026656L808.6293594381312,287.54729848084656L810.3391112689393,318.529089861976L812.0611067077019,332.49882498614005L814.69089765625,296.7143180801392L819.5129746291035,311.5037270566178L820.0333279671717,269.4031541931839L824.4225253787879,273.88994074989625L831.4260051688761,283.9357983179645L833.2308490214647,289.5587892477367L835.4600019097222,314.91579723028264L840.5221896385732,326.0669167021985L843.9820972064393,308.30920672297924L849.5368860953282,302.2572728626755L854.8870706912878,302.7049442191617L861.3322419586489,306.7445862805663L863.6247895280933,266.1855411121737L866.7524872001261,286.8946780198509L867.1472755366161,329.125181450468L868.4518999842171,319.03254490734446L868.9042332780933,320.1601046898443L874.153068008207,327.1590900050686L874.2828502525252,322.1966810481004L875.3021986347853,296.0200606737288L875.5398606691917,303.51591704808186L876.76054838226,291.1995530517251L878.1163239030932,323.1700397247881L878.7271438999368,347.20323547809187L888.2034243765783,361.9874219482474L892.1934801688761,352.80468768986054L895.2443151909721,265.6646532721042L896.4987408459594,291.76055572669026L896.9867166429924,273.58511322879974L900.8863057765151,271.68279494133117L901.8558634864266,265.8213651972206L903.6397571654039,255.84040329439586L904.0648824416035,291.9325706576297L904.8797625710225,270.68874168485337L905.0968825520832,227.7030839686986L907.8054407118055,264.5686641314863L911.4793393386993,303.04903839702837L911.6359214804291,270.35270847484725L914.3375415956439,237.69485071662228L915.7666427241161,271.8547375402639L917.5781525410354,274.84592987309634L932.2797328124999,303.92677546269147L934.8102144965277,325.07204633192094L936.6124735874367,254.38958125851076L939.4947549400251,248.4496368500085L943.3373432765151,244.7246893842513L943.4076760022094,215.11239203211636L945.6164228772095,280.13509273765663L948.1666303740529,300.1239744915854L948.435989749053,299.75863032903027L951.5689929845328,293.4687283120498L953.778147979798,295.16625745784916L955.0068620580809,273.87859852130225L956.1207583017676,303.9330973566473L956.2676815972222,324.5909819090903L956.8419068102904,319.2026454141463L957.088819570707,322.4314945179656L957.7237186631943,323.059465768244L957.8005813131313,315.72952172893656L958.0255916193181,336.860827861657L958.043684951073,346.27017756606955L958.1594550662878,338.6916529435266L958.2138711016412,320.8941931783169L959.082759146149,361.22023916596237L961.1715186631944,321.99277796956335L962.2832382654672,311.5550156033781L962.4443097301136,312.0032344100921L962.5298789457069,322.82140997875024L963.5168497869316,338.04104063408545L965.1207624289772,329.7695919364511L965.9259837121211,274.6004834943902L966.6697148753155,250.22052144848652L966.7479379261363,243.85429873373127L967.4003861900251,264.30639482918986L969.3677979482324,264.36161020626787L969.8545493844696,292.2037287189374L971.1723697206438,314.67454400264086L971.5131501420453,297.9415677464179L972.1222016177398,311.4581914708717L972.2319859690655,312.88187281880994L972.233210329861,339.47229733821285L972.8464790482954,281.24044155333365L972.9074250078913,280.82552446874337L973.4862755839646,246.80892885894988L973.7325081439393,246.2432716439451L974.2812938604796,195.6589481204918L974.359380871212,193.34794353068895L974.6154083175504,240.06266283167014L975.4202214804292,259.278542370633L976.2183686789772,245.98356583776217L976.4330399384469,260.39898578561633L976.6180544586489,263.67153341911614L976.6523365609216,257.67890944088924L976.8399358428029,266.25543023351094L977.0090336726641,314.28737934352915L977.6131877051768,237.95059981299622L977.7388887468434,214.16852039309254L978.377733001894,256.6374955785985L978.4681996606691,241.14655190782034L983.3631941208965,272.4554517392891L983.8075010495581,309.56729586866965L984.250175497159,281.5316697594372L984.2580658222853,301.41703793030075L984.2893550426137,292.91196833027055L984.2953408065026,319.55439196808726L984.3339761916035,320.0738963769888L984.3660816524621,329.78806305450297L985.545957339015,301.3506294281608L985.8954443260732,338.4886128778056L986.8432356218433,341.5618636533497L986.8590162720959,346.79623717813956L986.8705796796086,327.15869476049704L986.9132962673611,314.92822431117037L987.2897191919192,311.1994497215137L988.4539502683082,322.9581035992733L989.8011552635732,335.412130273654L989.8372058869949,342.2414365990602L990.0301107323232,311.43437054059757L990.85614614899,291.1558975833765L992.3315009075127,291.30436604369356L993.65326640625,335.48206468313145L993.7118996843435,323.586403059299L993.7279524147726,252.86134410341694L995.3692760811239,280.82676015162536L995.4685853456439,273.45928722538986L995.7593030145202,307.6779555196669L997.0311418008206,336.8608147928182L997.0720898674243,320.3276617425122L997.1070521701389,341.19129323348034L997.3244442313762,309.9917575799503L997.7060366792928,294.2638436486172L997.9778447758839,261.58322217046305L998.1092595012625,274.19600981461457L999.6918138494318,286.1124551653114L1000.1165310053661,298.3732913231401L1001.3645627761994,300.169927781555L1001.4344873816287,328.7552648697692L1001.7827500078912,351.4842566677569L1002.2403888652146,335.12987718752856L1002.7465940340909,321.0675110445728L1003.8621227588383,337.2253972784466L1003.9539498184974,297.46360655401867L1004.1048182765152,248.21449568137362L1004.9553409090908,273.1745544568588L1005.0825383917298,289.52208723401367" style="fill: none;" fill="none"></path></g></g></g></g><g opacity="0.2"><g><g><g><path stroke="rgb(255, 112, 67)" stroke-width="2px" d="M98.87883368055556,-60.036781311035185L99.11159827178031,2.2994459867477417L99.15689962121212,13.562783718109154L99.2092750552399,-79.78593993186954L100.65320455334596,-28.915637612342845L100.76747822758838,74.45223641395572L100.97058607954546,-70.847067117691L101.06867098327018,58.27611100673676L101.11206777146465,179.9447105526924L101.22389272411617,44.83306717872623L101.57854923453283,-17.801189303398132L101.58779996054292,122.68458616733554L101.79607733585858,40.76880526542664L101.95755692077019,26.16600108146667L102.26636792140151,134.91561126708984L102.54280138099746,77.86023330688477L102.56796879734848,119.42285013198853L102.73040066287878,90.71742010116579L102.82331604324494,139.20630526542666L102.85460526357323,-17.455533027648897L103.14042548926767,143.36068940162662L103.8927271780303,45.18016290664673L104.10399743529041,180.3781108260155L105.03056647727273,37.356928110122674L105.49038197601008,36.737588167190566L105.54017264835858,78.07527494430546L105.95699947916665,-40.580081820487926L105.97944609375,51.549801349639914L106.25179835069444,123.50638818740848L106.88288832070707,67.68718671798707L106.9903599905303,-91.8598144054413L107.74919160353535,59.35432326793672L107.95978166035353,138.593411564827L108.02031949968433,-34.41759932041169L108.07106245265152,62.820962190628045L108.39211706123737,109.41102218627931L108.77112474747474,19.998011112213153L109.17040240688131,51.86159920692444L109.2967836489899,126.04871106147768L109.41350604482324,58.667892336845426L109.53390152304293,69.44669795036316L113.64135991161616,135.55660557746887L113.70203379103535,48.98194384574892L113.75196050347222,71.47282075881958L113.94894655145202,100.30892801284793L114.04635125473484,79.89837241172793L114.2116399621212,204.02746510505676L114.23204597537877,-27.168455600738497L114.34196636679292,202.6720331311226L114.38250631313132,142.81807851791382L114.50426219223485,187.10620415210727L114.54058489583333,55.604049682617195L114.6349967171717,93.74652814865112L115.22024117739898,188.70919060707095L115.2369741082702,145.6730754375458L115.7503894018308,193.39811217784882L115.79011310763889,157.08924543857577L115.82466729008837,191.0046787261963L115.96438046085858,208.61606311798099L115.98301795296717,86.75191712379456L116.25985953282829,180.2390159368515L116.42800508207071,42.79912126064304L116.45330853851009,43.623113751411466L116.72212375315655,73.39217376708987L116.87054348958334,185.92535269260406L117.07405946180555,262.87239503860474L117.98226309185605,156.4631463289261L118.50846615372474,148.47762894630435L119.40551449652777,118.36466503143312L119.422247427399,122.93811750411992L119.4659162957702,100.6505162715912L119.59610666035353,134.37844526767734L119.91892979008838,70.43284785747531L120.0223202572601,108.8461310863495L120.03782882733584,138.00317358970645L120.29263191287879,53.767433881759665L120.3733036852904,88.88274443149567L120.4247268386995,214.91372895240784L120.43234508364898,138.35828018188477L120.82672529987373,-116.83124291896823L120.84713131313131,206.59960967302322L121.13744086174242,169.1576124429703L121.45196554608586,21.14181232452393L121.59181475694444,148.92213803529742L121.72200512152776,134.20408380031586L121.72690256470959,256.80992317199707L121.79791549084595,154.2890728712082L121.87641062184343,160.1531819701195L121.9810254498106,112.8367305994034L122.18685410353534,206.19202566146856L122.1932479876894,86.89748954772952L122.21270172032827,283.46200597286224L122.24167825915404,261.7384822368622L122.26194823232322,154.77529478073123L122.28221820549241,171.7719079256058L122.34928596906565,112.25819599628448L122.53076344696969,193.85172736644748L122.62109406565658,81.47526097297668L122.66353857323232,304.0990562438965L126.44246014835858,167.64881622791293L126.69018914930555,136.1693115234375L126.73630673926768,225.2162636518479L127.05382430555557,142.6677496433258L127.0694689157197,165.17076802253723L127.17190710227273,80.6920112371445L127.3571937026515,161.05399739742282L127.50983068181819,218.6538637876511L127.65457733585858,224.95622348785403L127.71538725536615,189.5675734877587L128.17520275410354,204.47992247343063L128.2405019965278,144.94371128082278L128.4886391177399,251.47634607553485L128.71269714330808,245.276187479496L129.26937318497477,150.650575876236L129.30923293087122,133.73288226127627L129.44377657828284,78.3323736190796L129.57423902304294,180.6823672056198L130.10057812499997,175.454402089119L130.28450432449495,192.9697499871254L130.93314346590907,133.23996376991275L130.97286717171716,170.22962880134585L131.0256507260101,249.68050432205206L131.1317619949495,140.11272203922272L131.18318514835858,106.58969593048097L131.26344880050505,170.62510263919833L131.295690301452,161.69862163066864L131.327931802399,188.32516980171206L131.63932756470956,196.31738376617432L131.7308825441919,129.8431695699692L132.00473124210856,98.20620131492618L132.0877156960227,198.06040388345718L132.18253563762627,169.2549319267273L132.6103817155934,285.6673405766487L132.65990030776513,140.77806186676025L133.22269815340908,217.46446949243546L133.496274771149,170.93114268779755L133.639116863952,190.209944665432L133.76998742897726,236.9863198399544L134.44882747001262,121.03728961944581L134.50025062342172,145.15061688423157L134.91517289299242,205.7039262056351L135.33907380839648,264.0509934425354L135.5152457228535,45.155817389488256L135.56843739741163,86.58281278610234L135.89221280776516,208.10092699527746L139.57168907828282,271.4025886058808L139.69031603535353,213.6754245758057L139.70800124684342,192.547802746296L139.78948925978534,230.67147445678717L139.79778770517677,191.82310116291046L139.994229592803,248.5648350119591L140.2075404513889,252.50761967897418L140.73224707228536,173.12311542034152L141.25423289141415,234.12334334850314L141.5710702572601,85.2889956235886L141.67269220328282,240.32218766212466L141.7215305950126,240.0458128452301L141.82043173926766,254.4683412909508L141.83825299084597,304.3956146836281L142.90059004103534,175.01683992147446L142.9160986111111,-10.014504075050345L142.92534933712122,260.9026612043381L143.21348224431816,173.24390423297882L143.24014610164141,274.16902792453766L143.7426781881313,255.92472267150882L143.7460791903409,181.7004979848862L143.910551657197,205.43099355697632L144.31894400252526,192.56482583284378L144.3582595880682,213.2450596690178L144.84759578598488,36.49613571166995L145.09695726799242,210.600754737854L145.64383842329548,151.84735518693927L145.73240052083332,142.87409198284152L145.85320411931818,283.50143444538116L146.22962704387623,129.04959332942963L146.44225770202019,152.4180979728699L146.67189337121212,255.96005183458334L146.84765716540406,169.73333072662356L146.87146418087121,19.721761465072632L147.59424517045454,120.60745668411255L147.7038934816919,199.0271211862564L147.72892485795452,195.00028502941134L147.96645085227271,179.28534758090976L148.44218304135103,193.88489735126498L148.49945591856059,176.66188341379168L148.9765485085227,184.1258184313774L149.13231440972223,238.46363586187366L149.28263870738638,199.2383451461792L149.39555198074495,212.76412618160248L153.02251677714648,286.8218125104904L153.08767997948232,250.84664833545688L153.12930824652776,209.66245096921924L153.3147308869949,159.2486114501953L153.55035232007572,294.75688648223877L153.8178071338384,258.7933630943299L153.8503207149621,243.0268557071686L153.8629724431818,289.44374334812164L153.88188201546714,220.17517697811127L153.89562206439393,210.77255022525787L154.0406407986111,212.2814403176308L154.2772145123106,212.59060961008075L154.43529309501264,189.74766147136688L155.0896459201389,113.43103659152986L155.82467051767676,177.34427762031558L156.2391846669823,225.76018881797793L156.388284603851,157.95986366271973L156.49766083491158,54.8234910964966L156.56432047821968,268.12057507038116L156.63451716382576,231.0492367744446L156.63846232638886,86.40626084804536L157.4254542376894,206.5110207796097L157.82119485479797,161.4679963588715L157.86540788352272,171.64583069086078L157.90866863162876,231.6495196223259L157.91628687657825,158.0516756772995L157.9380532907197,280.77761542797094L157.95628266256313,174.43652164936069L158.543159603851,203.18125498294833L158.58220310921718,170.0605244636536L158.7474918166035,213.63283556699753L158.75647046243685,296.262960255146L158.856459927399,187.40626734495163L158.88026694286614,144.4103003740311L159.10119604640153,137.26210606098175L159.1119432133838,257.9115421772003L160.1046277383207,189.39183515310293L160.12435355113635,125.57481837272644L160.41561538036615,193.372139453888L161.08833361742424,111.24751281738284L161.2005666903409,264.54985749721527L161.48393819444442,239.54616647958758L162.08237854324494,250.86952310800555L162.52899815340908,217.05106508731845L162.57824466540401,224.46408730745316L162.6624534801136,193.3206633925438L162.883382583649,217.10851800441745L163.04418196811864,255.25597196817404L166.69835478219696,167.700041949749L166.99206533301768,250.05081903934482L167.07178482481058,126.73614335060122L167.36495121527778,272.50314366817474L167.37392986111112,279.6319992542267L167.72273664772726,217.3709676861763L167.87523758680553,257.33269464969635L168.52319652777774,179.0495903491974L168.8177233191288,172.22345781326297L168.84411509627523,211.0544012188912L169.2436648358586,105.62319767475131L169.66715763099745,234.26046681404117L169.96046006155302,88.98676049709323L170.1230279671717,200.0758872628212L170.38789801925503,233.88786774873736L170.782006155303,236.59938883781433L170.9330106534091,260.7400031089783L171.09721104008835,88.7263448238373L171.29093212594697,153.89325481653214L171.35623136837123,181.56062078475952L172.57719116161618,192.9321677684784L172.96572165404038,117.29020786285403L174.80688821022727,308.50052547454834L174.9966641335227,38.42162203788758L175.1464442708333,309.3904824256897L175.32574510732323,185.11309486627582L175.7759017597853,175.6260724067688L177.08692009154038,146.40932393074038L177.50020988005048,101.80038821697238L178.11075779671717,305.1261679530144L178.32801381786618,203.2462493777275L178.3875993765783,182.1230084896088L178.48554824021463,132.10467410087588L178.59084326862373,177.48449903726578L178.92563792613637,178.45716190338138L179.08004342645202,206.5839947462082L179.85873689236112,318.69622778892517L179.90186160037877,210.82637321949005L181.50318948074494,318.76854461431503L181.9075006234217,216.1939651966095L181.9725277856692,267.3832000494004L182.0885699810606,207.00318825244904L182.1625757891414,387.08341133594513L182.18379804292925,254.1471244096756L183.35401488320704,205.64565968513494L183.80988521938127,205.98612141609195L184.02754936079546,166.34423446655276L184.0701299084596,235.30303698778152L184.58544976325757,318.65385782718664L184.64435512152778,103.73989355564117L185.00309283459595,107.50280928611758L189.38086287878787,217.16656547784808L189.49295991161614,314.9582208395004L189.59553413825756,218.18213027715686L189.60369654356057,315.23465824127203L189.8956385732323,325.1130865216256L190.07425920928029,191.99317556619647L190.1333006076389,198.73247158527377L190.94341933396464,278.7440450191498L192.23185501104797,243.70239686965945L193.4657386126894,253.2855497002602L194.36346715593436,239.46790409088135L195.05128584280303,280.8364452123642L195.3855363399621,228.06716126203537L195.7747470328283,251.87360358238223L196.7316530145202,249.82244682312017L196.95557499999998,186.58856463432315L197.60679890309342,251.20022159814837L197.97995686553028,239.16508716344836L199.7052172664141,185.5408937931061L200.4535737926136,253.85960948467257L200.9118928503788,166.63537931442264L201.17295377998735,160.76867294311523L201.58542732796715,209.5893831253052L202.132580563447,214.97913014888766L203.54345232007574,235.07992190122604L204.25072473958332,197.47148019075397L204.27153887310607,211.37931060791018L204.89378623737375,58.264282464981086L206.29431894728535,150.98064851760867L206.35825778882574,251.39332723617554L206.48232634943182,117.86110711097719L206.93670024463384,267.1487571001053L207.12321120580805,348.0884642601013L207.95346386521462,241.97170597314837L208.2761509548611,132.59108376502994L208.4789867266414,198.545812189579L208.9015272411616,261.75118696689606L210.28110977746212,168.68243676424026L210.80363975694442,213.56596362590793L214.02112388731058,181.03675407171252L214.02234824810603,258.9921326637268L214.2585138415404,241.91594284772876L214.31524255839645,183.10133528709414L214.3873438052399,177.9777617454529L215.1482160195707,278.2008082866669L215.77794558869948,111.38094377517703L216.48344948705807,64.08580255508424L216.50399154040403,129.56335258483887L221.27110831755047,195.05833250284195L221.68779910827018,209.45313584804535L222.05728398832068,284.660913169384L223.54869147727274,211.97042477130893L227.42392943497475,241.459730386734L227.58459277935603,129.40807950496676L228.0284915877525,206.60123687982565L228.495789291351,282.0253388285637L228.82024490214644,326.1432023048401L228.9947843355429,227.33451139926913L230.26050131786613,46.633258581161535L230.56251031407828,272.08107125759125L230.7046722064394,239.31638610363007L230.8635670296717,204.8027665615082L230.933491635101,193.40136659145355L231.55437859848482,158.32351309061053L231.79000003156565,113.15810394287112L234.44101323390151,177.50815612077713L234.52930325126263,186.59451019763947L234.75472167771463,168.30930572748187L236.0578496843434,247.03222525119784L236.45127761994948,289.2393411397934L237.10807916666667,214.65262484550476L237.99043517992425,166.88712698221207L238.2229276909722,292.0048416852951L238.82966648516413,291.10893917083746L238.85129685921714,120.7149149179459L238.98951358901513,180.36862921714783L239.64182581281568,247.51250159740454L239.81854188762625,218.4546874165535L240.85748004261362,136.0728056430817L241.2793403566919,248.6502320766449L241.8285341934975,180.43274742364886L242.07299823232322,215.56348514556888L242.58927036773986,182.48934906721118L242.59716069286614,-29.48365795612338L243.16172705965906,214.93100237846375L243.2151908143939,307.9304398298264L244.04748407512625,276.21286225318914L244.2440620028409,232.3668361902237L244.69530697601007,217.97078114748L246.29663485637627,143.25792503356934L246.84079520991162,136.88947570323947L247.08593944917925,270.2657343149185L247.1632102193813,235.2350385189057L248.36893352272727,246.75272119045258L248.45382253787875,261.76955562829977L248.55149932133838,108.39889955520631L248.5710890940656,260.09084147214895L248.72590271464645,224.53928303718567L248.79365067866163,200.1668856739998L254.28558904671715,269.56500273942953L254.64337447916668,233.83764338493347L255.10713514046716,283.2117290496826L256.315307165404,232.94108372926712L256.38577593118686,167.67300528287888L256.97999903724747,172.20077079534533L256.9821756786616,214.35728681087497L258.0529472143308,217.92850506305697L258.3251634311868,258.7777481675148L258.8885054371843,180.8626116514206L259.19160275410354,305.36517959833145L260.0490634311869,299.37865447998047L260.28931022727267,237.73830842971802L260.8949607007576,146.06961321830752L261.00882625473486,255.31139087677002L261.24172688604796,373.1662244796753L263.76894360795455,300.5330951213837L265.0164312184343,176.2553633451462L265.82369310290403,249.32802629470825L267.40012564709593,199.4819254875183L268.7835173058712,248.30285471677783L268.9746536300505,358.89418137073517L269.24006784248735,120.28182756900787L269.4687512310606,244.61551022529605L269.5823447048611,201.95537370443344L269.715936071654,304.05424547195435L269.7228741161616,221.614879488945L271.19931719539136,200.88689339160922L271.6626697364267,97.49586296081546L272.0526966698232,180.07980000972748L273.8055732086489,297.5781814455986L274.0052800583964,302.0522804260254L274.48169244791666,287.0698363780976L274.51107710700757,90.09369921684265L274.59066055871216,276.08806800842285L274.6773180950126,157.31120270490646L274.97184488636367,193.11795097589493L275.07360287247474,219.22920656204226L275.65503821022725,167.88119387626648L277.8886804214015,354.6738640666008L278.383594262942,278.84380531311035L279.9061549321338,130.49267542362213L280.1474900489268,210.5059699416161L282.03001279198236,398.89518034458166L283.0323561631945,326.10965681076055L283.7951329387626,150.39910984039307L284.05320098642676,268.39676213264465L284.0829937657829,213.0052657127381L285.8519230350379,239.16696470975876L286.6235424163509,133.03850305080417L286.66421840277775,232.84210574626925L286.80039453125005,173.7316594719887L287.1313800662878,243.04816585779193L287.3173468671086,248.6454443335533L287.42168961489904,247.06107687950137L287.8251845170455,185.28830122947693L288.44715980113637,193.66071832180026L295.04714468907827,366.78588402271276L295.5782451941288,317.85070610046387L296.3048353061869,279.25705325603485L297.13046260258835,219.44133800268173L297.2251465041035,230.61614942550662L297.549602114899,199.4552643299103L297.6218394018308,218.89112305641177L298.1049177556818,338.42955243587494L298.9757103614267,157.71015000343323L299.02808579545456,230.11209082603455L299.3709068181818,292.18737047910696L300.4951421085858,145.91440272331238L300.86530718907824,168.94995582103732L300.987471188447,297.67490637302404L301.70222581281564,324.8777360916138L302.092932946654,64.72191524505618L303.06045005523987,199.30562388896942L305.61963619791663,267.2230140566826L307.2306229245581,210.9220967888832L307.48637829071964,135.03527355194095L307.87654126420455,189.89454817771917L308.8768440340908,283.55112683773046L308.9259545059975,228.44717663526538L310.3644424005682,224.96273231506348L310.98655372474747,259.0441406965256L311.38542326388887,230.666530251503L311.9229176530934,28.63735270500185L312.7554829940025,145.6153095960617L313.05028186553034,155.8112935423851L313.4675168166035,202.26476204395294L314.093573303346,203.3456654548645L314.39979954229796,267.7877486944199L315.3294975063131,323.088684797287L315.78563992266413,278.38850033283234L316.4331907433712,252.3578540682793L316.62038190498737,203.7500576376915L317.0625121922348,289.0751810073853L317.6779575520833,221.2491647601128L319.0518264046717,216.61053013801575L319.8726922979798,199.6603236794472L319.9480585069444,316.3493261933327L319.96819244002523,239.47635304927826L321.4379695549242,206.0505838394165L322.53159582544185,222.92102587223053L322.7647685369318,162.55040180683136L322.9191740372474,237.3619542717934L323.1576523121843,258.8438377976418L323.6608645991161,190.33267360925677L324.0327982007575,280.1957638263703L325.33715056818176,256.0313360095024L325.79288486426765,343.42082154750824L326.8252930950126,300.93520295619965L327.0260882654671,309.32182681560516L333.05960222537874,313.12370163202286L333.4528941208965,265.03254336118704L334.02235793087124,196.45406913757327L334.97939995265153,295.6977562308312L336.12376917613636,175.81279438734055L336.2970842487373,267.75977325439453L337.0903340041035,285.1096780300141L337.9891508680555,402.9064328670502L338.0661495580808,233.5324169397354L339.02183117897727,288.3199692964554L340.4781403251263,345.3731254935265L341.1424240767045,285.5217055678368L342.5437730271464,334.9082143306732L342.55111919191916,298.0387122631073L342.6551898595328,325.73480468988424L343.35049075126256,224.15551257133487L343.6827006470959,355.8587522506714L344.5419298453283,249.1685913205147L345.3452465672349,355.37472081184393L345.96953453282833,251.68271970748904L346.0703402383207,295.9975064992905L346.17536318655306,307.7710048556328L346.1846139125631,354.8520432114601L346.7132656960227,173.3001993298531L346.80223591382577,361.98183757066727L346.8056369160353,266.2432478070259L347.211308459596,173.75675600767136L347.429652801452,248.38950347900396L348.54817440814395,198.06753855943683L349.80423254419196,209.52319961786273L350.4234870265151,296.773120880127L351.51044733270203,153.4881429076195L352.2718637073863,181.66075658798218L352.73317564709595,171.72800463438034L352.7625603061868,314.9801881313324L353.6879049873737,227.58535158634191L353.75116362847217,251.85338866710666L354.52019824810594,229.87824243307114L354.6166506707701,263.82446748018265L355.5953230666035,237.42065888643268L355.749320446654,221.16771054267886L356.31633553503787,219.48743176460266L356.4093869554924,267.3075975179672L358.5286194523358,278.6880628466606L358.5633096748737,233.51235848665237L358.5743289220328,237.4723227024079L358.6751346275252,324.3777455091477L359.7616868134469,344.6494565606117L360.4520902619949,275.328475356102L360.6190114504419,276.60389256477356L363.6471277777778,368.9809234142304L370.2004509154041,220.60516637563705L371.0353289378156,406.5825433731079L372.91118571654044,237.7898157835007L374.37116794507574,352.50317019224167L374.58856000631306,313.45480692386633L375.0897316919191,199.49575674533844L376.9800087200126,275.133961558342L377.4698890782828,199.76399552822113L377.57681658775243,234.53152191638952L378.32911827651515,236.27835971117022L380.62465872790403,160.95057588815692L382.0181173532196,313.45077019929886L382.02655183869945,186.52137976884842L382.81136710858584,152.6387096643448L382.86768770517676,305.52261185646057L383.59767881944447,348.9920334219933L383.6031204229797,205.3394631743431L384.6623285511364,288.8648019433022L384.76639921875,347.70050060749054L386.98085977746206,232.88381856679916L387.7365624684343,401.1726440191269L388.0169410905934,268.2333530187607L388.8952159011995,162.58388471603396L389.14648194444436,180.49286019802096L390.2235113241793,296.59009140729904L390.76154987373735,190.57259273529056L393.73252936395204,72.21995902061465L395.00382398989905,212.5096560716629L396.3568787089646,278.9865614175797L397.6757873658459,337.54438322782516L399.5483791824495,307.6345072388649L400.67792003630046,384.6444786787033L401.0748850142045,344.00023233890533L402.1434799084595,300.36843430995947L402.3722993371212,198.53476595878604L402.39937131470964,185.22956532239917L403.01236795296717,218.76201045513156L403.37872391098483,259.5836223363877L404.31848884154033,216.14452314376834L405.43197696496213,99.57674753665928L405.4526550583965,157.50853282213214L405.86023116319444,332.35878807306295L406.0830648279672,310.3721262216568L412.3313860874368,253.7383199930191L413.21387814078287,318.09341025352484L415.9748117345328,184.992337346077L416.1225512705177,360.9133885502816L417.4787349116162,218.95502221584326L417.9054926688762,287.01350998878485L417.9707919113004,236.33903574943548L418.92810601325755,305.0335110425949L419.0489096117424,176.8816189169884L419.156517321654,227.39756566286087L420.3343524068813,292.81900835037237L421.545653353851,144.37043380737305L421.67951680082064,224.20166891813278L421.7404627604166,285.55803608894354L424.65308105271464,319.11648523807526L425.1640476246843,268.41193896532064L425.535709146149,247.82974433898926L426.25699369476,316.10721659660345L426.30678436710855,218.8869924545288L428.37758659248743,312.57123363018036L428.86284158775254,340.409988284111L429.42536735321966,305.2006439566612L429.5658967645201,293.98681086301804L430.361867321654,283.13099455833435L431.2644933080808,111.61012959480288L431.4942650173611,165.6686933040619L432.37158754734844,335.4580850601197L433.72314582544186,259.66326159238815L433.9096567866162,251.46232706308365L436.9468877998737,53.12331032752991L439.589194436553,257.2850675582886L440.29238565340904,203.47496581077576L442.38372993213386,154.51706957817078L442.57649873737375,200.89021039009097L442.60044179292925,273.16829574108124L443.0802551846591,258.54734194278717L444.912579135101,267.1696917414665L446.1151735164141,254.7730357646942L446.11952679924235,181.13748443126678L446.5623372869318,336.83291834592825L452.21412275883836,322.81762969493866L452.2202445628156,321.11826252937317L453.001522790404,67.72555124759675L453.11035486111103,284.9976511001587L453.75858588226,251.69076186418536L454.0883470565025,306.83883440494543L454.36423635574494,304.93687999248505L454.8203787720959,309.9844129085541L455.1674170375631,343.46572619676596L455.82761958648985,246.82281625270846L456.1043251262626,255.7524265050888L457.51043547979793,262.6287208199501L459.77645523200755,365.8696414232254L460.0211913510101,370.7346142530441L460.0624114977904,268.0784241557121L460.6156865372474,286.00016695261L462.9240147569444,297.67872405052185L462.9271436789772,306.9058002233505L462.9555760574495,216.71717476844793L463.2696926215277,353.0664653778077L463.66148807607317,273.75847113132477L463.9341124131944,281.2721924185753L464.55091817392673,216.98491287231448L465.07045527146454,265.64668875932693L466.0843620501894,262.8554345369339L466.38378628472213,189.53039807081228L466.7218459043561,300.54495495557785L466.9257699968434,275.43925058841705L468.84964892676766,284.79675364494324L469.6978588778409,241.4202706217766L470.02857233270197,236.36644792556766L470.3873100457702,193.28689885139465L471.45549681976,276.71979975700384L471.5437868371212,222.09709596633914L472.81902662563135,242.47757953405383L473.3746143465909,261.1514986753464L474.038489977904,231.90276932716375L474.46742437657826,307.875615477562L475.5882586647727,262.7001927495003L477.2076798768939,361.12514448165894L479.46444890309346,276.9753963947296L480.3084416114267,252.7137429714203L480.52134434974744,207.76253056526184L481.46015699968433,253.16366565227509L482.0569648674242,325.63513827323914L484.79218688446963,320.68861734867096L487.68902452651514,292.9366366267205L491.5180088541666,301.94638681411743L499.38003764204547,375.6411121487618L504.9293849273989,374.9763042926789L509.0060982559974,237.13355076313022L510.0106182686237,286.93474692106247L510.48947937973486,212.7849669456482L514.698287634154,356.14379507303244L515.7881047821969,279.49390572309494L519.6252515151515,215.3049783110619L520.1133633522727,357.9029620885849L524.5119475299873,328.65445178747177L527.2052691998106,381.4910144805909L527.3779040719697,306.72906053066254L528.8823714094066,250.30791771411896L533.8270205018939,345.35184663534164L536.0458343434343,176.2164981365204L537.1295296874999,291.63127255439764L540.1196908301766,207.07447242736816L540.8813792850378,334.003330886364L540.9942925583964,240.8080653548241L542.8347789141415,138.72202348709106L544.6741769491792,284.7120137214661L546.5822752288509,318.27766013145447L549.4548977351641,198.20610147714618L550.1465255445075,327.07208704948425L551.2359345722853,284.5747337937355L553.0470362689392,176.86506521701813L559.4995537010732,275.9728492498398L560.4168720170454,254.6199531555176L561.7500648832071,208.61643862724304L562.4195181581439,295.10445159673696L565.8690866792929,368.10063582658773L568.0132145123105,293.3979810476303L568.4182058554292,278.3261032104492L572.5912355666036,191.28865760564807L578.0303903803662,322.63409954309464L579.6435537484217,299.24885344505316L588.1988428267044,142.8195805549622L589.3101543087122,283.569119989872L590.4624138573231,319.6082146167755L590.8977421401514,204.00368285179138L592.1796478929923,333.36950254440313L595.1436893386995,260.44150453805923L596.3321355508207,262.599462389946L596.3910409090909,172.24667680263522L601.0814310763889,229.13470280170444L603.053468197601,215.6380237340927L603.2300482323232,245.65094572305682L604.2349763652146,97.42551755905154L604.6266357796717,268.07682824134827L607.1870462831439,217.70420086383822L610.5295512547348,181.903022646904L620.3198122553662,290.8994988799095L621.7544910274621,139.39443540573123L621.876791066919,268.03126645088196L622.425032623106,259.71185874938965L624.265518978851,259.66229152679443L624.3241522569443,312.8019840717316L627.4006988557448,273.1102169752121L643.0514308238635,226.25673723220825L645.0626474905301,291.5424020290375L649.915605563447,206.95684415102008L650.4014047190656,377.56012094020844L652.914065151515,340.1461304426194L653.445981897096,199.06661224365237L655.5642621133206,307.17985939979553L656.3383302162247,354.63822197914124L659.6510424084595,305.7261378765106L660.8790762863005,186.548072218895L662.388032946654,337.0849789381028L663.3555500552399,368.0007190704346L665.3278592566287,307.76196134090424L666.3406777146464,287.3716206550598L666.9619727982953,296.0106493234635L670.3191700994317,155.0624029040337L670.3534522017045,301.519933462143L671.3164799873737,255.07710438966754L671.3277713147095,314.3311829566956L671.8739722695707,296.6781796216965L674.6663311237372,154.43192285299304L677.3933907354798,270.7214148044586L677.454472735164,401.80628460645676L678.693117739899,347.1790434122086L679.2165999999999,225.63395512104037L680.9794074652776,346.79912191629415L681.5027536852904,305.86867493391037L682.0591576467804,309.5752955675125L682.6038621606692,270.8590389490128L682.8894103061867,326.2418986558914L683.7061949968434,347.1167088747025L684.8123369554924,379.8315138816834L685.3914596117423,205.92072021961215L686.2710948232321,282.6402665376664L686.6952678188131,304.32348561286926L688.5617378314392,380.63034725189215L692.1145607796716,241.97342705726624L692.1197303030302,148.02338790893558L692.3797029119319,226.63753491640094L693.2094114109848,356.780690073967L695.0903016729798,181.53446030616763L696.5689213936236,276.8688769340515L697.9543536537248,191.53746378421786L698.0157077335857,166.31544542312625L698.6121074810605,46.97866451740265L699.4156962831439,313.8109148740769L699.6918576625629,272.6374508142472L700.0436573311235,281.3023896217346L700.9643766493056,307.53193062543875L700.9851907828281,238.29143357276917L701.0299479719065,194.63910770416263L701.9079507023358,215.52762401103973L703.1441469854798,278.3371807336807L703.4389458570075,247.647121667862L709.1843269097222,422.2645142376423L709.8962246922348,332.1849585771561L710.3705964804292,308.42855286598206L710.668932394255,264.73473322391516L711.6759011284721,363.00043773651123L712.5987970880681,244.76164591312408L714.6700074337119,342.5608427524567L716.0025200994318,183.8689075112343L716.9150770123106,133.7131680250168L717.0875758443811,386.72054421901703L717.2981659011995,214.99377501010898L718.7200569049874,322.76321214437485L720.1671153251261,374.7852639555931L720.2103760732323,124.55230665206912L721.1089208570075,304.54478573799133L722.0501822285353,368.88936173915863L722.0678674400252,316.02444809675217L722.5986958648989,254.98094272613525L725.4109165719696,173.987099647522L725.7838024542297,319.2206264734268L725.8602569839015,210.87130916118625L726.4279522727271,168.64610624313354L726.7217988636363,313.38978123664856L727.8139286931818,279.49093294143677L728.0133634627525,143.34454250335696L728.1152574889519,324.1332263946533L729.8371168876262,249.15961039066315L729.9882574258206,304.87736177444464L736.6251091777145,221.75741654634479L738.6240822364267,204.79835432767868L744.3963992266413,253.8212136626244L745.8030537405302,312.4941916465759L747.4469621685605,204.94514715671542L755.861449755366,191.93781924247745L757.1487971117423,268.30347937345505L766.7973043402777,335.04233372211456L768.9200738794191,233.6024181246758L769.495251373106,349.3282080888748L769.8115445785985,286.3968611955643L777.2306268386994,146.29335415363312L777.3972759469697,264.12321639060974L777.8912375078912,241.79274451732638L793.2643116556186,287.5143141746521L794.3232477035983,314.3008918762207L796.806931597222,179.70247578620913L797.3144971669822,394.58655577898026L806.4305434895833,296.5364248752594L807.2880041666666,304.1008712053299L808.3565990609216,269.35284000635147L808.6293594381312,285.6454671621323L810.3391112689393,365.00177693367004L812.0611067077019,353.4534276723862L814.69089765625,243.03755772113803L819.5129746291035,333.6878405213356L820.0333279671717,206.2522948980332L824.4225253787879,280.6201205849648L831.4260051688761,299.00458467006683L833.2308490214647,297.993275642395L835.4600019097222,352.95130920410156L840.5221896385732,342.7935959100724L843.9820972064393,281.67264175415045L849.5368860953282,293.17937207221985L854.8870706912878,303.37645125389105L861.3322419586489,312.80404937267303L863.6247895280933,205.3469733595848L866.7524872001261,317.9583833813668L867.1472755366161,392.4709365963936L868.4518999842171,303.893590092659L868.9042332780933,321.85144436359406L874.153068008207,337.6575679779053L874.2828502525252,314.75306761264807L875.3021986347853,256.7551301121712L875.5398606691917,314.7597016096115L876.76054838226,272.72500705718994L878.1163239030932,371.1257697343827L878.7271438999368,383.25302910804754L888.2034243765783,384.1637016534806L892.1934801688761,339.0305863022805L895.2443151909721,134.9546016454697L896.4987408459594,330.90440940856934L896.9867166429924,246.32194948196414L900.8863057765151,268.8293175101281L901.8558634864266,257.02922058105474L903.6397571654039,240.86896044015887L904.0648824416035,346.0708217024804L904.8797625710225,238.82299822568896L905.0968825520832,163.22459739446643L907.8054407118055,319.8670343756676L911.4793393386993,360.76959979534155L911.6359214804291,221.30821359157565L914.3375415956439,188.7080640792847L915.7666427241161,323.0945677757263L917.5781525410354,279.33271837234497L932.2797328124999,347.5480438470841L934.8102144965277,356.7899526357651L936.6124735874367,148.36588364839554L939.4947549400251,239.5397202372551L943.3373432765151,239.13726818561554L943.4076760022094,170.69394600391388L945.6164228772095,377.66914379596716L948.1666303740529,330.1072971224785L948.435989749053,299.21061408519745L951.5689929845328,284.03387528657913L953.778147979798,297.71255117654806L955.0068620580809,241.94711011648178L956.1207583017676,349.014845609665L956.2676815972222,355.5778087377548L956.8419068102904,311.12014067173004L957.088819570707,327.27476817369467L957.7237186631943,324.0014226436615L957.8005813131313,304.7346056699753L958.0255916193181,368.55778706073767L958.043684951073,360.38420212268835L958.1594550662878,327.3238660097122L958.2138711016412,294.1980035305023L959.082759146149,421.7093081474305L961.1715186631944,263.1515861749649L962.2832382654672,295.8983720541001L962.4443097301136,312.67556262016296L962.5298789457069,339.0486733317376L963.5168497869316,360.8704866170884L965.1207624289772,317.3624188899994L965.9259837121211,191.84682083129888L966.6697148753155,213.65057837963104L966.7479379261363,234.30496466159823L967.4003861900251,294.98453897237783L969.3677979482324,264.4444332718849L969.8545493844696,333.9669064879418L971.1723697206438,348.380766928196L971.5131501420453,272.84210336208344L972.1222016177398,331.7331270575524L972.2319859690655,315.0173948407173L972.233210329861,379.35793411731726L972.8464790482954,193.8926578760147L972.9074250078913,280.2031488418579L973.4862755839646,195.7840354442597L973.7325081439393,245.39478582143786L974.2812938604796,119.7824628353119L974.359380871212,189.88143664598465L974.6154083175504,310.1347417831421L975.4202214804292,288.10236167907715L976.2183686789772,226.04110103845596L976.4330399384469,282.02211570739746L976.6180544586489,268.58035486936575L976.6523365609216,248.68997347354892L976.8399358428029,279.12021142244345L977.0090336726641,386.33530300855637L977.6131877051768,123.44543051719668L977.7388887468434,178.49540126323703L978.377733001894,320.3409583568573L978.4681996606691,217.91013640165332L983.3631941208965,319.41880148649216L983.8075010495581,365.2350620627403L984.250175497159,239.47823059558868L984.2580658222853,331.2450901865959L984.2893550426137,280.15436393022543L984.2953408065026,359.5180274248124L984.3339761916035,320.8531529903412L984.3660816524621,344.3593130707741L985.545957339015,258.69447898864746L985.8954443260732,394.19558805227285L986.8432356218433,346.17173981666565L986.8590162720959,354.6477974653244L986.8705796796086,297.7023811340332L986.9132962673611,296.5825186371804L987.2897191919192,305.60628783702856L988.4539502683082,340.5960844159127L989.8011552635732,354.09317028522497L989.8372058869949,352.4853960871697L990.0301107323232,265.2237714529038L990.85614614899,260.73818814754486L992.3315009075127,291.52706873416906L993.65326640625,401.7486126422882L993.7118996843435,305.7429106235504L993.7279524147726,146.77375566959384L995.3692760811239,322.774884223938L995.4685853456439,262.4080778360367L995.7593030145202,359.0059579610825L997.0311418008206,380.6351037025452L997.0720898674243,295.5279321670533L997.1070521701389,372.48674046993256L997.3244442313762,263.1924540996552L997.7060366792928,270.67197275161743L997.9778447758839,212.56228995323184L998.1092595012625,293.1151912808419L999.6918138494318,303.9871231913567L1000.1165310053661,316.7645455598832L1001.3645627761994,302.8648824691773L1001.4344873816287,371.6332705020905L1001.7827500078912,385.5777443647385L1002.2403888652146,310.598307967186L1002.7465940340909,299.97396183013916L1003.8621227588383,361.4622266292572L1003.9539498184974,237.8209204673767L1004.1048182765152,174.34082937240603L1004.9553409090908,310.61464262008667L1005.0825383917298,314.04338639974594" style="fill: none;" fill="none"></path></g></g></g></g></g></g><g transform="translate(51, 378)" clip-path="url(#clip_1)"><clipPath id="clip_1"><rect width="1077" height="22"></rect></clipPath><g><g><line x1="0" y1="0" x2="0" y2="5" style="visibility: inherit;" fill="rgb(0, 0, 0)" stroke="rgb(204, 204, 204)" stroke-width="1px"></line><line x1="97.94886363636364" y1="0" x2="97.94886363636364" y2="5" style="visibility: inherit;" fill="rgb(0, 0, 0)" stroke="rgb(204, 204, 204)" stroke-width="1px"></line><line x1="195.89772727272728" y1="0" x2="195.89772727272728" y2="5" style="visibility: inherit;" fill="rgb(0, 0, 0)" stroke="rgb(204, 204, 204)" stroke-width="1px"></line><line x1="293.84659090909093" y1="0" x2="293.84659090909093" y2="5" style="visibility: inherit;" fill="rgb(0, 0, 0)" stroke="rgb(204, 204, 204)" stroke-width="1px"></line><line x1="391.79545454545456" y1="0" x2="391.79545454545456" y2="5" style="visibility: inherit;" fill="rgb(0, 0, 0)" stroke="rgb(204, 204, 204)" stroke-width="1px"></line><line x1="489.7443181818182" y1="0" x2="489.7443181818182" y2="5" style="visibility: inherit;" fill="rgb(0, 0, 0)" stroke="rgb(204, 204, 204)" stroke-width="1px"></line><line x1="587.6931818181818" y1="0" x2="587.6931818181818" y2="5" style="visibility: inherit;" fill="rgb(0, 0, 0)" stroke="rgb(204, 204, 204)" stroke-width="1px"></line><line x1="685.6420454545453" y1="0" x2="685.6420454545453" y2="5" style="visibility: inherit;" fill="rgb(0, 0, 0)" stroke="rgb(204, 204, 204)" stroke-width="1px"></line><line x1="783.590909090909" y1="0" x2="783.590909090909" y2="5" style="visibility: inherit;" fill="rgb(0, 0, 0)" stroke="rgb(204, 204, 204)" stroke-width="1px"></line><line x1="881.5397727272726" y1="0" x2="881.5397727272726" y2="5" style="visibility: inherit;" fill="rgb(0, 0, 0)" stroke="rgb(204, 204, 204)" stroke-width="1px"></line><line x1="979.4886363636364" y1="0" x2="979.4886363636364" y2="5" style="visibility: inherit;" fill="rgb(0, 0, 0)" stroke="rgb(204, 204, 204)" stroke-width="1px"></line><line x1="1077.4375" y1="0" x2="1077.4375" y2="5" style="visibility: inherit;" fill="rgb(0, 0, 0)" stroke="rgb(204, 204, 204)" stroke-width="1px"></line></g><g transform="translate(0, 8)"><text x="0" y="0" dx="0em" dy="0.95em" style="text-anchor: middle; visibility: hidden; font-family: Roboto, sans-serif; font-size: 12px; font-weight: 200;" fill="rgb(50, 49, 63)" stroke="none" stroke-width="1px">-0.2</text><text x="97.94886363636364" y="0" dx="0em" dy="0.95em" style="text-anchor: middle; visibility: inherit; font-family: Roboto, sans-serif; font-size: 12px; font-weight: 200;" fill="rgb(50, 49, 63)" stroke="none" stroke-width="1px">0</text><text x="195.89772727272728" y="0" dx="0em" dy="0.95em" style="text-anchor: middle; visibility: inherit; font-family: Roboto, sans-serif; font-size: 12px; font-weight: 200;" fill="rgb(50, 49, 63)" stroke="none" stroke-width="1px">0.2</text><text x="293.84659090909093" y="0" dx="0em" dy="0.95em" style="text-anchor: middle; visibility: inherit; font-family: Roboto, sans-serif; font-size: 12px; font-weight: 200;" fill="rgb(50, 49, 63)" stroke="none" stroke-width="1px">0.4</text><text x="391.79545454545456" y="0" dx="0em" dy="0.95em" style="text-anchor: middle; visibility: inherit; font-family: Roboto, sans-serif; font-size: 12px; font-weight: 200;" fill="rgb(50, 49, 63)" stroke="none" stroke-width="1px">0.6</text><text x="489.7443181818182" y="0" dx="0em" dy="0.95em" style="text-anchor: middle; visibility: inherit; font-family: Roboto, sans-serif; font-size: 12px; font-weight: 200;" fill="rgb(50, 49, 63)" stroke="none" stroke-width="1px">0.8</text><text x="587.6931818181818" y="0" dx="0em" dy="0.95em" style="text-anchor: middle; visibility: inherit; font-family: Roboto, sans-serif; font-size: 12px; font-weight: 200;" fill="rgb(50, 49, 63)" stroke="none" stroke-width="1px">1</text><text x="685.6420454545453" y="0" dx="0em" dy="0.95em" style="text-anchor: middle; visibility: inherit; font-family: Roboto, sans-serif; font-size: 12px; font-weight: 200;" fill="rgb(50, 49, 63)" stroke="none" stroke-width="1px">1.2</text><text x="783.590909090909" y="0" dx="0em" dy="0.95em" style="text-anchor: middle; visibility: inherit; font-family: Roboto, sans-serif; font-size: 12px; font-weight: 200;" fill="rgb(50, 49, 63)" stroke="none" stroke-width="1px">1.4</text><text x="881.5397727272726" y="0" dx="0em" dy="0.95em" style="text-anchor: middle; visibility: inherit; font-family: Roboto, sans-serif; font-size: 12px; font-weight: 200;" fill="rgb(50, 49, 63)" stroke="none" stroke-width="1px">1.6</text><text x="979.4886363636364" y="0" dx="0em" dy="0.95em" style="text-anchor: middle; visibility: inherit; font-family: Roboto, sans-serif; font-size: 12px; font-weight: 200;" fill="rgb(50, 49, 63)" stroke="none" stroke-width="1px">1.8</text><text x="1077.4375" y="0" dx="0em" dy="0.95em" style="text-anchor: middle; visibility: hidden; font-family: Roboto, sans-serif; font-size: 12px; font-weight: 200;" fill="rgb(50, 49, 63)" stroke="none" stroke-width="1px">2</text></g><line x1="0" y1="0" x2="1077.4375" y2="0" fill="rgb(0, 0, 0)" stroke="rgb(204, 204, 204)" stroke-width="1px"></line></g></g></g></g></svg>