<svg viewBox="0 0 1129 400" xmlns="http://www.w3.org/2000/svg"><g><g><g><g><g><line x1="61.953125" y1="378" x2="56.953125" y2="378" style="visibility: inherit;" fill="rgb(0, 0, 0)" stroke="rgb(204, 204, 204)" stroke-width="1px"></line><line x1="61.953125" y1="346.5" x2="56.953125" y2="346.5" style="visibility: inherit;" fill="rgb(0, 0, 0)" stroke="rgb(204, 204, 204)" stroke-width="1px"></line><line x1="61.953125" y1="315" x2="56.953125" y2="315" style="visibility: inherit;" fill="rgb(0, 0, 0)" stroke="rgb(204, 204, 204)" stroke-width="1px"></line><line x1="61.953125" y1="283.5" x2="56.953125" y2="283.5" style="visibility: inherit;" fill="rgb(0, 0, 0)" stroke="rgb(204, 204, 204)" stroke-width="1px"></line><line x1="61.953125" y1="252.00000000000003" x2="56.953125" y2="252.00000000000003" style="visibility: inherit;" fill="rgb(0, 0, 0)" stroke="rgb(204, 204, 204)" stroke-width="1px"></line><line x1="61.953125" y1="220.5" x2="56.953125" y2="220.5" style="visibility: inherit;" fill="rgb(0, 0, 0)" stroke="rgb(204, 204, 204)" stroke-width="1px"></line><line x1="61.953125" y1="189.00000000000003" x2="56.953125" y2="189.00000000000003" style="visibility: inherit;" fill="rgb(0, 0, 0)" stroke="rgb(204, 204, 204)" stroke-width="1px"></line><line x1="61.953125" y1="157.50000000000003" x2="56.953125" y2="157.50000000000003" style="visibility: inherit;" fill="rgb(0, 0, 0)" stroke="rgb(204, 204, 204)" stroke-width="1px"></line><line x1="61.953125" y1="126.00000000000006" x2="56.953125" y2="126.00000000000006" style="visibility: inherit;" fill="rgb(0, 0, 0)" stroke="rgb(204, 204, 204)" stroke-width="1px"></line><line x1="61.953125" y1="94.50000000000004" x2="56.953125" y2="94.50000000000004" style="visibility: inherit;" fill="rgb(0, 0, 0)" stroke="rgb(204, 204, 204)" stroke-width="1px"></line><line x1="61.953125" y1="63.00000000000003" x2="56.953125" y2="63.00000000000003" style="visibility: inherit;" fill="rgb(0, 0, 0)" stroke="rgb(204, 204, 204)" stroke-width="1px"></line><line x1="61.953125" y1="31.500000000000014" x2="56.953125" y2="31.500000000000014" style="visibility: inherit;" fill="rgb(0, 0, 0)" stroke="rgb(204, 204, 204)" stroke-width="1px"></line><line x1="61.953125" y1="0" x2="56.953125" y2="0" style="visibility: inherit;" fill="rgb(0, 0, 0)" stroke="rgb(204, 204, 204)" stroke-width="1px"></line></g><g transform="translate(51.953125, 0)"><text x="0" y="378" dx="0em" dy="0.3em" style="text-anchor: end; visibility: hidden; font-family: Roboto, sans-serif; font-size: 12px; font-weight: 200;" fill="rgb(50, 49, 63)" stroke="none" stroke-width="1px">-0.05</text><text x="0" y="346.5" dx="0em" dy="0.3em" style="text-anchor: end; visibility: inherit; font-family: Roboto, sans-serif; font-size: 12px; font-weight: 200;" fill="rgb(50, 49, 63)" stroke="none" stroke-width="1px">0</text><text x="0" y="315" dx="0em" dy="0.3em" style="text-anchor: end; visibility: inherit; font-family: Roboto, sans-serif; font-size: 12px; font-weight: 200;" fill="rgb(50, 49, 63)" stroke="none" stroke-width="1px">0.05</text><text x="0" y="283.5" dx="0em" dy="0.3em" style="text-anchor: end; visibility: inherit; font-family: Roboto, sans-serif; font-size: 12px; font-weight: 200;" fill="rgb(50, 49, 63)" stroke="none" stroke-width="1px">0.1</text><text x="0" y="252.00000000000003" dx="0em" dy="0.3em" style="text-anchor: end; visibility: inherit; font-family: Roboto, sans-serif; font-size: 12px; font-weight: 200;" fill="rgb(50, 49, 63)" stroke="none" stroke-width="1px">0.15</text><text x="0" y="220.5" dx="0em" dy="0.3em" style="text-anchor: end; visibility: inherit; font-family: Roboto, sans-serif; font-size: 12px; font-weight: 200;" fill="rgb(50, 49, 63)" stroke="none" stroke-width="1px">0.2</text><text x="0" y="189.00000000000003" dx="0em" dy="0.3em" style="text-anchor: end; visibility: inherit; font-family: Roboto, sans-serif; font-size: 12px; font-weight: 200;" fill="rgb(50, 49, 63)" stroke="none" stroke-width="1px">0.25</text><text x="0" y="157.50000000000003" dx="0em" dy="0.3em" style="text-anchor: end; visibility: inherit; font-family: Roboto, sans-serif; font-size: 12px; font-weight: 200;" fill="rgb(50, 49, 63)" stroke="none" stroke-width="1px">0.3</text><text x="0" y="126.00000000000006" dx="0em" dy="0.3em" style="text-anchor: end; visibility: inherit; font-family: Roboto, sans-serif; font-size: 12px; font-weight: 200;" fill="rgb(50, 49, 63)" stroke="none" stroke-width="1px">0.35</text><text x="0" y="94.50000000000004" dx="0em" dy="0.3em" style="text-anchor: end; visibility: inherit; font-family: Roboto, sans-serif; font-size: 12px; font-weight: 200;" fill="rgb(50, 49, 63)" stroke="none" stroke-width="1px">0.4</text><text x="0" y="63.00000000000003" dx="0em" dy="0.3em" style="text-anchor: end; visibility: inherit; font-family: Roboto, sans-serif; font-size: 12px; font-weight: 200;" fill="rgb(50, 49, 63)" stroke="none" stroke-width="1px">0.45</text><text x="0" y="31.500000000000014" dx="0em" dy="0.3em" style="text-anchor: end; visibility: inherit; font-family: Roboto, sans-serif; font-size: 12px; font-weight: 200;" fill="rgb(50, 49, 63)" stroke="none" stroke-width="1px">0.5</text><text x="0" y="0" dx="0em" dy="0.3em" style="text-anchor: end; visibility: hidden; font-family: Roboto, sans-serif; font-size: 12px; font-weight: 200;" fill="rgb(50, 49, 63)" stroke="none" stroke-width="1px">0.55</text></g><line x1="61.953125" y1="0" x2="61.953125" y2="378" fill="rgb(0, 0, 0)" stroke="rgb(204, 204, 204)" stroke-width="1px"></line></g></g><g transform="translate(61, 0)" clip-path="url(#clip_0)"><clipPath id="clip_0"><rect width="1067" height="378"></rect></clipPath><g><g><g><line x1="0" y1="0" x2="0" y2="378" fill="rgb(0, 0, 0)" stroke="rgb(60, 60, 60)" stroke-width="1px" opacity="0.25"></line><line x1="97.00426136363636" y1="0" x2="97.00426136363636" y2="378" fill="rgb(0, 0, 0)" stroke="rgb(60, 60, 60)" stroke-width="1px" opacity="0.25"></line><line x1="194.00852272727272" y1="0" x2="194.00852272727272" y2="378" fill="rgb(0, 0, 0)" stroke="rgb(60, 60, 60)" stroke-width="1px" opacity="0.25"></line><line x1="291.0127840909091" y1="0" x2="291.0127840909091" y2="378" fill="rgb(0, 0, 0)" stroke="rgb(60, 60, 60)" stroke-width="1px" opacity="0.25"></line><line x1="388.01704545454544" y1="0" x2="388.01704545454544" y2="378" fill="rgb(0, 0, 0)" stroke="rgb(60, 60, 60)" stroke-width="1px" opacity="0.25"></line><line x1="485.0213068181818" y1="0" x2="485.0213068181818" y2="378" fill="rgb(0, 0, 0)" stroke="rgb(60, 60, 60)" stroke-width="1px" opacity="0.25"></line><line x1="582.0255681818181" y1="0" x2="582.0255681818181" y2="378" fill="rgb(0, 0, 0)" stroke="rgb(60, 60, 60)" stroke-width="1px" opacity="0.25"></line><line x1="679.0298295454544" y1="0" x2="679.0298295454544" y2="378" fill="rgb(0, 0, 0)" stroke="rgb(60, 60, 60)" stroke-width="1px" opacity="0.25"></line><line x1="776.0340909090908" y1="0" x2="776.0340909090908" y2="378" fill="rgb(0, 0, 0)" stroke="rgb(60, 60, 60)" stroke-width="1px" opacity="0.25"></line><line x1="873.0383522727273" y1="0" x2="873.0383522727273" y2="378" fill="rgb(0, 0, 0)" stroke="rgb(60, 60, 60)" stroke-width="1px" opacity="0.25"></line><line x1="970.0426136363636" y1="0" x2="970.0426136363636" y2="378" fill="rgb(0, 0, 0)" stroke="rgb(60, 60, 60)" stroke-width="1px" opacity="0.25"></line><line x1="1067.046875" y1="0" x2="1067.046875" y2="378" fill="rgb(0, 0, 0)" stroke="rgb(60, 60, 60)" stroke-width="1px" opacity="0.25"></line></g><g><line x1="0" y1="378" x2="1067.046875" y2="378" fill="rgb(0, 0, 0)" stroke="rgb(60, 60, 60)" stroke-width="1px" opacity="0.25"></line><line x1="0" y1="346.5" x2="1067.046875" y2="346.5" fill="rgb(0, 0, 0)" stroke="rgb(60, 60, 60)" stroke-width="1px" opacity="0.25"></line><line x1="0" y1="315" x2="1067.046875" y2="315" fill="rgb(0, 0, 0)" stroke="rgb(60, 60, 60)" stroke-width="1px" opacity="0.25"></line><line x1="0" y1="283.5" x2="1067.046875" y2="283.5" fill="rgb(0, 0, 0)" stroke="rgb(60, 60, 60)" stroke-width="1px" opacity="0.25"></line><line x1="0" y1="252.00000000000003" x2="1067.046875" y2="252.00000000000003" fill="rgb(0, 0, 0)" stroke="rgb(60, 60, 60)" stroke-width="1px" opacity="0.25"></line><line x1="0" y1="220.5" x2="1067.046875" y2="220.5" fill="rgb(0, 0, 0)" stroke="rgb(60, 60, 60)" stroke-width="1px" opacity="0.25"></line><line x1="0" y1="189.00000000000003" x2="1067.046875" y2="189.00000000000003" fill="rgb(0, 0, 0)" stroke="rgb(60, 60, 60)" stroke-width="1px" opacity="0.25"></line><line x1="0" y1="157.50000000000003" x2="1067.046875" y2="157.50000000000003" fill="rgb(0, 0, 0)" stroke="rgb(60, 60, 60)" stroke-width="1px" opacity="0.25"></line><line x1="0" y1="126.00000000000006" x2="1067.046875" y2="126.00000000000006" fill="rgb(0, 0, 0)" stroke="rgb(60, 60, 60)" stroke-width="1px" opacity="0.25"></line><line x1="0" y1="94.50000000000004" x2="1067.046875" y2="94.50000000000004" fill="rgb(0, 0, 0)" stroke="rgb(60, 60, 60)" stroke-width="1px" opacity="0.25"></line><line x1="0" y1="63.00000000000003" x2="1067.046875" y2="63.00000000000003" fill="rgb(0, 0, 0)" stroke="rgb(60, 60, 60)" stroke-width="1px" opacity="0.25"></line><line x1="0" y1="31.500000000000014" x2="1067.046875" y2="31.500000000000014" fill="rgb(0, 0, 0)" stroke="rgb(60, 60, 60)" stroke-width="1px" opacity="0.25"></line><line x1="0" y1="0" x2="1067.046875" y2="0" fill="rgb(0, 0, 0)" stroke="rgb(60, 60, 60)" stroke-width="1px" opacity="0.25"></line></g></g></g><g><g><line x1="0" y1="346.5" x2="1067.046875" y2="346.5" fill="rgb(0, 0, 0)" stroke="rgb(153, 153, 153)" stroke-width="1.5px"></line></g></g><g><g><line x1="97.00426136363636" y1="0" x2="97.00426136363636" y2="378" fill="rgb(0, 0, 0)" stroke="rgb(153, 153, 153)" stroke-width="1.5px"></line></g></g><g><g><g><g><g><path stroke="rgb(255, 112, 67)" stroke-width="2px" d="M97.00426136363636,39.21367371082307L97.16997697679923,65.58488707371468L97.20285064315024,85.95470234087749L97.23046991201073,90.32831810875656L97.26307412208017,97.58878554246405L97.6661807193024,97.47853922534685L97.69272216303662,99.46163629786652L97.85116245659722,104.06408677271119L97.92526293402778,106.6103457272776L98.15578278290721,110.52586747789499L98.20064725378788,114.03819175943843L98.25251758798927,114.6185419245778L98.65751037918244,115.3165795096651L98.68903676412562,115.95370684213292L99.33142053937816,117.68134328779216L99.59252367621527,119.10377841823298L99.68252207425822,120.11900863357315L99.79569371251579,122.75892100975403L99.99684282670454,122.80602459430928L100.09398181620895,124.80372984275425L100.13696009311869,128.3667392594368L100.24770662484218,129.7439761553761L100.598942887863,130.17545752462792L100.60810440143624,132.347331805456L100.81437318497476,133.3506117596519L100.97429548808395,134.10610291964505L101.28012836766098,136.02973935737268L101.55389594973168,137.19636496528057L101.57882065577652,138.71853619119216L101.7396860558712,139.8479843586817L101.83170537602588,141.38088315724676L101.86269284840594,141.32637342367263L102.14575667219064,142.7606573081277L102.89080329071969,143.2298880063687L103.10003609335543,144.85096109672804L104.01766946022727,145.1691365048899L104.47305057607322,145.46499879660578L104.52236107559975,146.0777145576127L104.93516809895833,145.7288141942734L104.95739824218751,146.1019012407535L105.22712398003472,146.9939021405628L105.85212782512626,147.43648028396316L105.95856305634469,146.72180483653523L106.7100766256313,147.0929579599569L106.91863578756312,147.98758424879003L106.97858981021149,147.68938819221424L107.02884340672348,148.03894489465245L107.34680181897096,148.6720208075183L107.72215441919191,148.71857765217754L108.11758151238952,148.9591771655252L108.24274395517676,149.63773871603956L108.35834069996844,149.8914603439268L108.47757510456124,150.19821815814686L112.54542185921717,150.8707113301985L112.6055106100063,151.03364979869627L112.65495583767361,151.31459931456445L112.85004218552714,151.74174803437984L112.94650753432765,152.04555332993309L113.11020222537877,152.98870907931612L113.1304114464962,152.70998947808238L113.23927178424873,153.60503543998647L113.27942077020202,154.17265815258196L113.40000245620264,154.93975878577731L113.43597486979168,155.04683580706873L113.52947619949494,155.3323545952047L114.10907666114267,156.05505205695388L114.12564822245896,156.55703854965543L114.63411222577335,157.26194154980524L114.67345284288194,157.7831101327943L114.70767379064077,158.43980821805525L114.84603959122475,159.15505038101134L114.864497346512,159.32440405287943L115.13866911300505,159.88731109668169L115.30519309501263,159.85721729360935L115.33025252919822,159.83134581972868L115.5964753353851,159.92812811524743L115.74346373697917,160.4777137797465L115.94501703559027,161.32069495184228L116.84446210345644,161.72226883072918L117.3655905520044,162.08265368308037L118.25398791232638,162.31808378426464L118.27055947364268,162.56518775714295L118.31380720683396,162.72242740472188L118.44274203756312,163.00144782182417L118.76245191564078,163.03859397950598L118.86484530263573,163.21465318491082L118.88020431068496,163.4915908280014L119.13255011837121,163.46238607078948L119.21244390585542,163.55749049860097L119.26337114307134,164.08956163013931L119.27091591895517,164.34601914526476L119.6614927990846,163.7263085036005L119.68170202020201,164.212004731923L119.96921187263257,164.56221932623524L120.28070333412246,164.41531700747407L120.41920386284721,164.69006508880773L120.54813869357638,164.9114035489416L120.55298890664456,165.52204905658294L120.6233169961332,165.79420267590933L120.70105513336489,166.0793866296696L120.80466107362689,166.2112281011611L121.0085047506313,166.62916078334533L121.01483697324812,166.67348377701023L121.03410309738004,167.31367904158694L121.06280019136679,167.8763174737167L121.08287468434342,168.1094277849376L121.10294917732007,168.38840204604267L121.16937015072601,168.48788424261966L121.34909749053028,168.82245780680523L121.4385569760101,168.82744863970973L121.48059215593433,169.46774603021302L125.22307045059975,169.71043924976635L125.46841039496528,169.86048956730744L125.51408323469064,170.25573244114975L125.82853871527779,170.4162382110475L125.84403245146781,170.63558270168696L125.94548274147728,170.62175068868947L126.12898246922347,170.82465277346571L126.28014744318182,171.17808932788097L126.42349818497475,171.54234066079835L126.48372166390466,171.80745218795911L126.93910277975063,172.10714608099678L127.0037722873264,172.24770969859296L127.24951641611428,172.65992490465013L127.47141366398358,173.0497139353228L128.02272121606694,173.1936294514696L128.06219656131628,173.29274115368344L128.1954426925505,173.2520347619822L128.32464697956124,173.46554719338275L128.84591015624997,173.66291060405757L129.0280626025884,173.90003272086219L129.6704463778409,173.9887187304104L129.7097869949495,174.16513426832128L129.76206151357323,174.52888287091213L129.86714946338384,174.62706736689634L129.91807670059973,174.6447524693997L129.9975663036616,174.81215706816334L130.02949687302714,174.9563662804506L130.0614274423927,175.1600224263854L130.36982015664455,175.37910896303097L130.4604921953914,175.44351358388317L130.73169994278723,175.43534648891912L130.81388410866475,175.65200855716498L130.9077896227904,175.80125040895194L131.33150962555237,176.20704694972767L131.38055066879733,176.2874438286858L131.9379209872159,176.53495437294686L132.20885927833018,176.6776848576762L132.35032382615213,176.86025663294248L132.47993229758524,177.1410874974721L133.15222572009154,177.1701145899147L133.20315295730745,177.25003595912193L133.61407378669506,177.45689784655053L134.03388667337438,177.7836510031495L134.2083596156881,177.6490409136641L134.26103831873422,177.60216311780152L134.58169129379735,177.806672512321L138.2256833175505,178.13846612731152L138.3431662563131,178.3483243385905L138.3606809146149,178.51270568695747L138.4413830709438,178.75191508120747L138.44960148753157,178.91027487294178L138.64414892282196,179.17981028398756L138.85540264756943,179.45386782893232L139.37504908656882,179.56809762578035L139.89200096275255,179.80053749621774L140.2057828026357,179.74000735518956L140.30642472380052,179.9808121543034L140.35479212634152,180.2182275415289L140.45273948469065,180.48050666369045L140.47038887113322,180.83496128308835L141.5224809225063,180.93977339438982L141.53783993055555,180.69411272682584L141.5470014441288,180.95996378187658L141.8323556463068,181.05903959112715L141.85876236190026,181.34451494328965L142.356448113952,181.59303183958187L142.3598163174716,181.7022507877857L142.52270263967804,181.8536638628884L142.9271565183081,181.9799693916347L142.96609295099432,182.14233062853094L143.45071007339018,181.98438764186312L143.69766675544508,182.14036239954396L144.23927388139205,182.18980813226412L144.32698190104165,182.22278636725432L144.44662049005683,182.503861825876L144.81941325560288,182.51037293769326L145.02999333964647,182.55770119818362L145.25741444128786,182.78481776267762L145.4314831991793,182.86011363214124L145.4550606238163,182.67589830357474L146.17087123579546,182.6667798088526L146.2794621172664,182.79173226747218L146.30425209517043,182.90854507184002L146.53948742897725,182.99755747951784L147.01063173729483,183.11025526781765L147.06735228456438,183.1929221839697L147.53984387428977,183.2872112611212L147.69410759548612,183.47084593076156L147.84298219105114,183.58774982254303L147.9548065479009,183.7257610920362L151.54679350931187,183.98381557157086L151.61132828874685,184.18060154293153L151.65255509982637,184.30852930853422L151.83618955571336,184.35364483875972L152.06953869554923,184.6165882520104L152.33441422032828,184.8193066228233L152.36661424597534,184.99489312340089L152.37914396306817,185.24259213847503L152.39787117463698,185.3782640986378L152.41147871685607,185.49782340493397L152.55509891493054,185.6186191100865L152.7893911517519,185.73875960748526L152.94594525134153,185.82221764017942L153.59398760850695,185.78660372402885L154.32192375315657,185.8499768515575L154.73244039812184,185.98718956893526L154.8801024404198,186.01934254306013L154.9884238656092,185.89395371741014L155.05444065459278,186.09359086883214L155.12396037523672,186.23535072063925L155.12786749131942,186.15796359145654L155.9072697857481,186.2614535420419L156.29919394728535,186.2967117414299L156.34298059303978,186.34680279502058L156.38582414180868,186.48539924044252L156.39336891769253,186.5140949701235L156.4149254202178,186.7230468246551L156.4329789910827,186.77436435202446L157.0141961904198,186.86718500812782L157.0528631668245,186.91104676198276L157.2165578578756,187.01763251804132L157.22544991516727,187.24251244728L157.32447509864267,187.30900654290753L157.34805252327968,187.31336925010578L157.566851023911,187.3074982867508L157.5774945470328,187.47313348012787L158.56060579032513,187.54035863916837L158.58014137073863,187.51699993050156L158.86859432015464,187.58911726648137L159.53482497632575,187.54564129187588L159.64597569247158,187.7163979352611L159.9266144097222,187.85098664868337L160.51928350102588,188.00014950932157L160.9615959872159,188.10141924630358L161.01036757417927,188.21205482096912L161.09376429332383,188.27911923214162L161.31256279395518,188.37811688869567L161.47181145636043,188.52821258759494L165.09074404592803,188.55840645056347L165.38162210187815,188.6996055624421L165.46057279237687,188.673674765133L165.7509119357639,188.84349634672873L165.75980399305556,189.02150391477534L166.10524694602273,189.11516038974523L166.25627719184024,189.2611378171446L166.89798732638886,189.302392564172L167.1896737511837,189.33432443809895L167.21581101049557,189.41703972216243L167.61150755997474,189.36102508514685L168.03091626223167,189.47336149132505L168.32139013375945,189.39583278009073L168.48239026199494,189.46294456920197L168.7447059520991,189.573243315889L169.13501337594695,189.68619759496278L169.2845616122159,189.82929180295562L169.44717847814076,189.75118127837422L169.63903135061554,189.75678002158415L169.7037008581913,189.7975132949723L170.9128859217172,189.8523541969214L171.2976694917929,189.81123491061334L173.12108014914773,190.01118890881867L173.30902590553973,189.8706737053833L173.45736158854163,190.0702234466962L173.63493327809343,190.1133099741507L174.08074869594378,190.14428703287956L175.3791237886679,190.1388274715615L175.78842788036613,190.0782912437746L176.3930877761995,190.26862822343207L176.6082486170297,190.33249982809434L176.66725954269256,190.37005689107193L176.76426380405618,190.34630637329064L176.8685433850221,190.37793434451177L177.20010933948865,190.4105178492606L177.35302577927715,190.47688281103663L178.12420965711806,190.6779397337634L178.16691847774618,190.74793272192224L179.75280342290085,190.94678768117052L180.15321545730743,191.0217048245832L180.21761550860165,191.1570787881201L180.3325386126894,191.2198036786327L180.40583072127524,191.49534274173323L180.42684831123734,191.61203021226322L181.58577977825124,191.67082032224044L182.0372537780145,191.72960863224876L182.25281880326705,191.74160000677088L182.29498871133205,191.83398590995952L182.80533890861741,192.02273847250294L182.86367619357637,191.9608522749465L183.21895430082068,191.9037353789032L187.55450587121211,191.9735195492538L187.66552185921714,192.1553398685322L187.7671068773674,192.22493223461512L187.77519056581437,192.40508560424476L188.06431715593433,192.59531721352934L188.24121520478218,192.6328661513168L188.29968721788194,192.67781347032414L189.10199329624368,192.81297817772696L190.37800351759785,192.90773049005435L191.5999877544981,193.01264769360716L192.48905875552398,193.10138259319746L193.17024423532197,193.23582925779726L193.50127127722536,193.31052975560328L193.88672848800505,193.41124185232445L194.83440623027147,193.50903296003497L195.05616874999998,193.53621384377402L195.7011123599274,193.63454111314897L196.07067165009468,193.71899575459497L197.7792939315025,193.7440406271502L198.52043343394885,193.8437381118303L198.9743325402462,193.8475491836022L199.23287584240845,193.84494606449897L199.64137156526198,193.89539768562847L200.18324814749053,193.95137525522185L201.58051369554923,194.02872887596268L202.28096529947916,194.0650646994841L202.30157870501895,194.11612914713825L202.9178252209596,194.0026840863803L204.3048514303188,193.9891053943714L204.36817365648673,194.08273755951825L204.49104572088066,194.03369984932968L204.94103771109533,194.1434218333315L205.12574999210855,194.33817485888048L205.94799583530616,194.41968178912973L206.26757098524305,194.3854718902938L206.46845064315025,194.4207726851533L206.8869162484217,194.52211236223988L208.25319432410038,194.5255370118781L208.7706851128472,194.57575371704775L211.9571403705019,194.59182883572387L211.95835292376893,194.68871383761086L212.19224097616794,194.76734794995707L212.24842261087434,194.78477768883408L212.31982852548927,194.7968265701191L213.0733630168876,194.9118084101935L213.69701958057132,194.85508606233418L214.39571971867107,194.75032123059066L214.41606366792928,194.71297287346997L219.13720717724112,194.74250677204284L219.54987947245897,194.78648741310718L219.9158011028251,194.9064030020265L221.39282571022727,194.9521668945861L225.23069152856692,195.0274012642937L225.38980546283142,194.98949681310637L225.82942338620578,195.02927213009238L226.2922145497948,195.1443333139796L226.61354116556186,195.30280920460854L226.78639737018622,195.36192701963827L228.03990799202964,195.24105935102787L228.33900446456755,195.3444924193675L228.4797953716856,195.41492172246885L228.63715784011995,195.4508806944597L228.7064081044823,195.47540795532927L229.32130733901514,195.46532277336973L229.55465647885103,195.4110035321883L232.18010375828598,195.41994425981974L232.26754232165405,195.43770572071125L232.49078685093116,195.4375599008765L233.78134771148987,195.51391862238142L234.17098149463382,195.63078559073492L234.82144895833332,195.6748542815059L235.69529567945077,195.67257379449418L235.92554607204858,195.7908184847686L236.52643357994,195.90756252300235L236.54785535432447,195.86027603777478L236.68473914535983,195.87032402252333L237.3307605804135,195.94442472673194L237.5057724352904,195.99044576116606L238.53469124644886,195.9579073621509L238.9524832110164,196.03232879491839L239.4963807153567,196.04178603863207L239.73848718434343,196.08437342167616L240.24978047861424,196.09556485345362L240.25759471077967,195.90734927190417L240.81671649502837,195.94949120608294L240.86966465435603,196.07850089719793L241.6939314196654,196.17719676022375L241.8886135830966,196.23449158708024L242.3355068260732,196.2780922270751L243.92139177122792,196.25208987833247L244.4603043343592,196.2203209862408L244.70308444404984,196.3120496985314L244.7796100280145,196.3709799595112L245.97370553977274,196.44021353688436L246.05777589962116,196.52289204148303L246.15451070470328,196.46449501682602L246.17391155697595,196.5452235009842L246.32723218118687,196.5930710354368L246.39432679529673,196.61846118088556L251.83330183869947,196.70684745719052L252.18763684895833,196.76235522767777L252.64692508088697,196.86231229875798L253.8434456991793,196.9163170909613L253.9132348761048,196.9111608117283L254.5017273950442,196.91010746998882L254.5038830452967,196.94694435251625L255.56432824139836,196.9868007116451L255.83391925110476,197.06302330256145L256.39182848208645,197.06926399580334L256.6920027797506,197.18647631530197L257.5411942511048,197.29778341311254L257.77912414772726,197.35380183663776L258.37893383049243,197.32829645965617L258.49170128432763,197.39955142565697L258.72235586134786,197.57450985060112L261.2252005326705,197.68461308376786L262.460657583649,197.68488277433607L263.2601343710543,197.74929209726332L264.8213640664457,197.76972024477487L266.19141453006625,197.8327388643223L266.3807075678661,197.9919703136594L266.64356217053347,197.9425881857519L266.8700401751894,198.0015404411517L266.98253817274303,198.02319143432152L267.1148412069918,198.1331696891242L267.12171234217175,198.17135534223428L268.5839168540877,198.19147383232283L269.04280090159403,198.12245065725725L269.4290664812184,198.12474732111363L271.16503857520513,198.22785237558915L271.36281948587435,198.3343035081632L271.83463743489585,198.4274461881727L271.8637387133049,198.35207404976035L271.9425546756629,198.43546978015777L272.02837650134154,198.41749716222552L272.3200629261364,198.42999389988958L272.4208395754419,198.46455011654774L272.9966676491477,198.4555308069326L275.20876899266096,198.604201567317L275.69890996882896,198.6883029164692L277.2067873204703,198.6472642858934L277.44579504221906,198.67357856760435L279.31016305437186,198.85762470096128L280.3028399956598,198.97994998123542L281.058260681029,198.9550132750636L281.31383996409403,199.0285327879768L281.3433454269255,199.05563503719935L283.0952154415246,199.10434095831866L283.85939345604476,199.06484472253055L283.89967717013883,199.10811953857805L284.0345400390625,199.10236818200488L284.3623336055871,199.15380471316078L284.54650697403724,199.2096180528894L284.6498434580177,199.2638793333868L285.04944712357957,199.26722257349584L285.66542418323866,199.27740733930895L292.20175993331753,199.42907969387028L292.72773859493367,199.54014175737666L293.44732159485477,199.6192688934536L294.2649866812658,199.64939708138925L294.3587574672506,199.68846536360363L294.6800840830177,199.7021043705771L294.75162472577335,199.73141021054533L295.23004435369313,199.85714975996612L296.09243918284403,199.83660169978333L296.14430951704543,199.87443194657618L296.4838244318182,199.96198813196665L297.5972177872474,199.9317985742913L297.9638130583175,199.92019219537997L298.08479892874055,200.01157634879246L298.7926605804135,200.12428304691855L299.17959980074176,200.02914941035874L300.1377863379892,200.04151631439083L302.67229212239585,200.10778409289807L304.2677427655461,200.12911541758305L304.5210316702178,200.090268394478L304.907431977983,200.09495369075782L305.89808799715905,200.1735338954862L305.9467248559817,200.20836189385466L307.3713402166193,200.24030098499952L307.9874520044192,200.29887137289367L308.3824749131944,200.33494304311614L308.9147857974274,200.21270560945032L309.73932201901823,200.1824111297689L310.0312779000947,200.16020024565773L310.4444891078756,200.1742736873337L311.0645080117582,200.189128972195L311.36778105666036,200.25396819271555L312.28851317077016,200.36141582375313L312.740256626815,200.43381172731026L313.38156257694123,200.48578714603866L313.56694849865846,200.5000360384357L314.0048149562026,200.5799686673485L314.61432506510414,200.6073932907581L315.97494455886994,200.63114198428676L316.7878941603536,200.64179399695377L316.86253355034717,200.74175105767645L316.88247331518306,200.78252804747825L318.33807614820074,200.79762330123418L319.4211556719539,200.82551480835028L319.6520797052557,200.8073517033828L319.80499614504413,200.8461053702995L320.04117457583646,200.90099899577143L320.53953396859214,200.90377345023006L320.90788070549235,200.97450375533018L322.19965411931815,201.0266998138496L322.6509933909406,201.14458141142492L323.6734452513415,201.23000126396954L323.87230398713695,201.32138313522105L329.84763175899616,201.41525279895833L330.2371308139994,201.47270202367528L330.8011028113163,201.47859817742676L331.74891528172355,201.5586334991385L332.88224840198865,201.54889654452245L333.0538920533459,201.60770404171427L333.8394918422506,201.67918612467764L334.72964066840274,201.83789146064817L334.80589679608585,201.870335623059L335.7523619850852,201.9432314288105L337.1946267321654,202.0580361383445L337.85250424360794,202.1281899488152L339.24033882181186,202.23448766135414L339.24761414141415,202.3132208756762L339.350681169113,202.41201114334623L340.039276696654,202.43583552557283L340.3682828164456,202.55612590776585L341.2192257536301,202.5978418511177L342.01479542495264,202.7170374183536L342.6330628630051,202.76007734924943L342.7328964153251,202.83525434440458L342.83690654000947,202.91871162896626L342.84606805358266,203.03606972280392L343.3696216086647,203.02119967273995L343.45773381273676,203.14314503537574L343.4611020162563,203.19532955577174L343.86286133207074,203.18046878871976L344.0790999980271,203.2195306765715L345.1868347715436,203.22217512439838L346.43077969539144,203.23305444758824L347.0440621922348,203.30660070333855L348.12054003708965,203.27703036514035L348.87461344105105,203.26776365125556L349.33147656644564,203.25142277731908L349.36057784485473,203.3375307831146L350.2769986584596,203.3609371428475L350.33964724392354,203.40155306654063L351.10126542376884,203.42637522041107L351.1967876755839,203.47523385837974L352.1660219203756,203.50516764660927L352.3185341757418,203.52346864377358L352.8800810665246,203.54051207030798L352.97223511482,203.5912983570721L355.0710300919349,203.6499307816293L355.1053857678346,203.67649586027687L355.116298747238,203.70575091195778L355.216132299558,203.7960042255984L356.29220595999044,203.90015977777875L356.97595127446334,203.9553210416321L357.14126270320395,204.01117305079288L360.1401763888889,204.1314271332099L366.6303003866793,204.14760819646105L367.45712698666347,204.29345393163678L369.314893319918,204.32118677059145L370.76079572679924,204.42862265933223L370.9760912957701,204.50853877676596L371.47242976641405,204.50909429396097L373.3444772825915,204.56206072937877L373.8296333175505,204.56267695968486L373.93552963620573,204.5873199488669L374.68057625473483,204.61307987806325L376.9539789023043,204.586820971811L378.33399924834276,204.66564403598372L378.34235239307134,204.6569138817296L379.11959903724744,204.62494890948832L379.1753764875316,204.69794313548664L379.8983276909722,204.80044921832064L379.9037168166035,204.80432851935856L380.9527101207387,204.86525426791147L381.05577714843747,204.96610601554207L383.24888182410035,204.98836320118505L383.9972966461489,205.12506958282282L384.27497134430234,205.17093663317584L385.1447762211963,205.1449246651799L385.39361909722214,205.1311459735019L386.4602617877999,205.19602672247257L386.9931115845959,205.1889840050167L389.9354394511522,205.10202866726777L391.1944739267677,205.11001305649128L392.5344800149936,205.16275710638504L393.84066933988316,205.25472035702353L395.6952021977588,205.3262622749156L396.8138499506786,205.44924651687168L397.2069866654829,205.54455622471568L398.265276211332,205.61032119852314L398.4918889441288,205.60775791879402L398.5186998441446,205.59631663211186L399.125784846512,205.6072844867477L399.48860772964014,205.6454136237979L400.41930972616785,205.6545039252615L401.5220595584754,205.5860841444371L401.54253823587436,205.55635749564172L401.9461837456597,205.6426682325983L402.166868440262,205.7141233237367L408.35493194641725,205.74787387383998L409.22891339567553,205.82402636513493L411.963221012863,205.8120908471659L412.1095357737532,205.9161413443111L413.4526406092172,205.92638951036835L413.87528278685284,205.98135169726302L413.93995229442856,206.00284915324866L414.8880342211174,206.06933360517573L415.00767281013253,206.05163359559484L415.1142427694918,206.06705020833434L416.2807190123895,206.1251756065973L417.4803383779198,206.0861918115372L417.61291086845006,206.09939493898057L417.67326907552075,206.15251631404342L420.55779856968115,206.22729195146582L421.06383746646145,206.26887079284327L421.43191474708016,206.29695262577118L422.14624334951066,206.36920433023815L422.1955538490372,206.37826307555557L424.2463856080335,206.44788517726766L424.7269608862058,206.53526180669962L425.2840617483427,206.59962952003667L425.42323591777136,206.65655706314112L426.21153026949173,206.70630804225075L427.1054514835858,206.64559488876705L427.33300731336806,206.61980500545033L428.20186909327646,206.70303771259836L429.54039317195384,206.73742277851903L429.7251054529672,206.76644562058902L432.7330459240846,206.6685508627041L435.34987060250944,206.70137369763395L436.0462803622159,206.69975985046943L438.1174560704703,206.66695215003125L438.3083658459596,206.66376964430123L438.3320779987373,206.70655438197875L438.8072641512784,206.73991458121085L440.6219174794823,206.77863715889058L441.81291424400246,206.80937895314486L441.8172255445075,206.7934100721186L442.25576564275565,206.8759392216286L447.85304625157823,206.94935120269665L447.85910901791345,207.02145560029533L448.6328527304293,206.93363827512954L448.7406352430555,206.98287843997215L449.3826148338856,207.01101709176157L449.7091958471433,207.07370665305967L449.98242451665084,207.1350032182946L450.43416797269566,207.19926852148566L450.7778594598327,207.28429197260544L451.43169512705174,207.30860475927383L451.705732165404,207.33841915802955L453.0982822285353,207.37243047485808L455.3424488695549,207.4706927423692L455.58482479482325,207.57167470227841L455.6256474214804,207.60848255382163L456.17358677004415,207.65631077754688L458.45965386284723,207.71123783254959L458.46275261008515,207.77171390847775L458.49091079150884,207.7761392805797L458.8019980685763,207.86491358137707L459.1900151140309,207.90439298270178L459.4600103081596,207.9483883981407L460.07086769846904,207.95259694338625L460.5853944681186,207.98677346199406L461.58952330137305,208.0191259797819L461.886059939236,208.0062968061885L462.22085936908144,208.0616893201487L462.42281685211486,208.1015075257185L464.3281422190656,208.1469379192531L465.16817217684655,208.1656710173401L465.49569628708963,208.18125546112688L465.85097439433395,208.17047130920383L466.90885975576066,208.21064320099757L466.9962983191288,208.21738763851076L468.25923991082703,208.2365249032595L468.80946963778405,208.2669659815816L469.4669429648043,208.27953572660488L469.89174079269253,208.3381987311926L471.00176594460225,208.36928013478848L472.605569732481,208.45990969623912L474.8405748599274,208.49932368530253L475.676428245344,208.52394620078314L475.88727778566914,208.52133802027805L476.81703668521146,208.54613788688863L477.4080890388257,208.61455609378987L480.1169330374052,208.67978866784495L482.9858340672348,208.72812670318865L486.7778923177083,208.78173494147202L494.56410102982954,208.87943442259692L500.05993134864264,208.97644198034098L504.09732954348164,208.99055230388726L505.0921621350221,209.0344355861919L505.56640519057765,209.03383959991953L509.73462441011674,209.11890155528988L510.81393154592797,209.15795745233223L514.6140734848485,209.15862042501777L515.0974780539773,209.24423052292585L519.4536430299084,209.31217958935395L522.1209907611269,209.4113413361963L522.2919607717803,209.46580315726442L523.7819192806976,209.48662430173704L528.678883013731,209.56372680223296L530.8762989898989,209.54043482055224L531.949543359375,209.5854970611444L534.9108678937815,209.5804469665677L535.6652107540247,209.65036402027127L535.7770351108743,209.6650967781696L537.5997721275253,209.61962036520836L539.4214313190498,209.6602355979069L541.3111282216697,209.72047650034733L544.15604764244,209.70997950557845L544.8410055101799,209.77517082456845L545.9199084615688,209.81524585164064L547.7135441998105,209.79208834537621L554.1038346452809,209.82701823269943L555.0123064985795,209.84935818895005L556.3326422782512,209.84475296806275L556.9956394590436,209.89064932961597L560.4119409248736,209.97898509717893L562.5353911517518,210.02353984756948L562.9364768268623,210.05919271379778L567.0692625453756,210.04412519591608L572.4559630701547,210.1054150375755L574.0535693635575,210.15295440021748L582.5263526811079,210.10963912824437L583.6269468631629,210.14799695134616L584.7680942155934,210.2071063831878L585.1992242660984,210.1991911800645L586.4687675366949,210.26604336729406L589.4042242680713,210.29060781605173L590.5812093059501,210.3163468811031L590.639546590909,210.2899533467092L595.2847034288194,210.29638231414248L597.2377225576073,210.2950308264716L597.4125996843434,210.31092842336386L598.4078364603062,210.241689441601L598.7957187776199,210.27052223541642L601.3314371152935,210.2704090405944L604.6417075343276,210.2497999366764L614.3375529139047,210.29159284533347L615.7583958866004,210.2466886214927L615.879516485164,210.27535529343265L616.4224708925188,210.29919593371807L618.2452079091697,210.3229415624627L618.3032757378471,210.37687883393608L621.3501526416508,210.4080849787993L636.8499515980112,210.41257320976374L638.8417724313446,210.45412319955824L643.6479293974905,210.44756615001032L644.129043588226,210.53773648598025L646.6174723484849,210.6064665909897L647.1442593789457,210.5951748960012L649.242111259075,210.6450372242519L650.0087143801294,210.72156888094852L653.289479336332,210.77028500378853L654.5056702631786,210.7516664793036L656.0000748007417,210.81790699382353L656.9582613379891,210.90136679325923L658.9115499230586,210.95071991896248L659.9146009311868,210.98848035487015L660.5299043501419,211.0309871426398L663.8547254083807,210.99431801857003L663.888676899858,211.03982752499962L664.8424174084596,211.05920753219752L664.8535998441445,211.11168448458466L665.3945333293876,211.154150825915L668.1599631470958,211.11705875230314L670.8607234572285,211.14495789928165L670.92121639244,211.2458645854387L672.1479161142677,211.3160673158883L672.6663499999999,211.31843111274432L674.4121572482638,211.3881680191498L674.9304564058554,211.43497442735625L675.4814945016573,211.48371209881398L676.0209459773516,211.51084321348813L676.3037403448546,211.56859475292924L677.1126481021148,211.63774996772443L678.20812261482,211.72481931152197L678.7816603101325,211.71551636883373L679.6528124684341,211.74861347042733L680.0728948113951,211.7935882620536L681.9213649029355,211.88051905507174L685.4399250276198,211.89082456631502L685.4450446969696,211.84938416848905L685.7025101740057,211.85129437549512L686.5242171046401,211.9247223825387L688.3869683791035,211.90172478131302L689.8513285412719,211.93109435736304L691.2233999270044,211.91360691102992L691.2841623184974,211.8823504662986L691.8748104876894,211.78586394090362L692.6706496152935,211.8355494902482L692.9441477410826,211.86260657503436L693.292554713147,211.8943228406681L694.2043947699652,211.94026374627984L694.225008175505,211.94834360856973L694.2693337338226,211.93262862641902L695.1388691544349,211.9283218217377L696.3631437697285,211.95817750129314L696.6550996508049,211.97128144722214L702.3450732204861,212.0791411026285L703.0501055812026,212.13785889280422L703.5199026081123,212.18354800620656L703.815361420849,212.2054562915696L704.8126191189235,212.28047849993126L705.7266148259943,212.29137823914894L707.7778507694127,212.35508337383325L709.0975129083806,212.33296184780545L710.0012692767519,212.2838455830623L710.1721045592644,212.3712108770864L710.3806637211964,212.3658741550969L711.7888422486584,212.418539488322L713.2219454821652,212.499038342512L713.2647890309343,212.44489801304184L714.1546684008049,212.48751733029988L715.0868524068812,212.56453977051365L715.104367065183,212.61303078054343L715.6300762705176,212.62870629007787L718.4151763967801,212.60100066920862L718.7844662306659,212.65102163874508L718.860183445786,212.64302596650762L719.4224039772727,212.61250844652838L719.7134167613635,212.65928152295322L720.7950142755682,212.68786606959398L720.9925257299558,212.64386408113734L721.0934371074021,212.6961903926143L722.7986911852903,212.7085132101742L722.9483741497,212.7504119912117L729.5212212259311,212.7480700799444L731.5009165265941,212.73673627648543L737.2175662681501,212.75142090262918L738.6106552438446,212.79715024782692L740.2387100970643,212.7858335926574L748.5720497889046,212.7676654584952L749.8469821851324,212.78990512248043L759.4024408420138,212.8473356858308L761.5047387507891,212.8510885425465L762.074369330019,212.91585777789038L762.387612257339,212.94730367109287L769.7351461430712,212.90490139546267L769.9001881155302,212.92460005154607L770.3893859947126,212.9325093256445L785.6142048157354,212.9644183886491L786.6629286635889,213.01030929096575L789.122660329861,212.98548101303325L789.6253310231217,213.07334934512997L798.6534637369791,213.10964261151162L799.5026552083333,213.149804611356L800.5609447541823,213.17169371734863L800.831074676452,213.20204304370418L802.5243379498105,213.2737582986013L804.2297267558395,213.33926943997554L806.8341564453124,213.3470424503521L811.6097301235005,213.40203054142043L812.1250652619949,213.39052992408864L816.4719339962121,213.41775087448045L823.4078734118528,213.45446299192773L825.1953116556186,213.49055923325244L827.4029669704861,213.55509818520653L832.4163358171559,213.61420887466784L835.8428766216856,213.64148955334824L841.3440960661301,213.67466397192075L846.642684386837,213.71303549070035L853.025699512705,213.756189610879L855.2961381411773,213.74369443890717L858.3936728259152,213.7893956974845L858.7846538904672,213.87344473144833L860.0766967605745,213.91160281556714L860.5246678286773,213.958923464362L865.7228836845012,214.01426961247313L865.8514143308081,214.0576930221956L866.8609322896938,214.07118277068167L867.0963023516413,214.11445006841035L868.3052179588856,214.13602497055945L869.6479186099272,214.20804673276518L870.2528479620422,214.2861135013469L879.6377407926925,214.3644582613516L883.5893171618528,214.41950082180566L886.6107304470485,214.36997555599424L887.853058633207,214.4207754228354L888.336328474195,214.42822924747887L892.1983106297348,214.44715888431804L893.158518089094,214.46002136234725L894.9252081991792,214.46461204406978L895.3462336391256,214.52280186883635L896.1532552024146,214.52623768955456L896.3682813151041,214.49119458549188L899.0507185980903,214.53589239466032L902.6891867680712,214.6012691103008L902.8442588581123,214.59566815493758L905.5198250059185,214.5735369128702L906.9351441248422,214.61960853188475L908.7291840475062,214.64339331781304L923.288984765625,214.70166728663176L925.7950629123263,214.7644799675241L927.5799413214171,214.7217381714025L930.434426440183,214.72517505132677L934.2399575047348,214.72840054232933L934.3096119535195,214.69707582781405L936.4970580472694,214.77021196902402L939.0226717743844,214.8192042230144L939.2894334931343,214.85251954490843L942.3922225753629,214.87811765820302L944.5800728535353,214.91053556721826L945.7969374210859,214.914847511658L946.9000914378156,214.97292912322638L947.0455978298611,215.0341687484879L947.6142853121054,215.0729638881668L947.8588168876262,215.11976620216686L948.4875931206595,215.1648192085049L948.5637145202019,215.20012166856094L948.7865548650568,215.26727099515222L948.8044737077807,215.33017728418454L948.919127355587,215.37641959977344L948.9730186119001,215.40601516178083L949.8335272470802,215.49916330646735L951.9021431206596,215.51303534731255L953.003141487137,215.5431924662766L953.1626596058237,215.5816339430123L953.2474036063761,215.6331103425976L954.2248562677555,215.69531955137109L955.8133010475851,215.73576239563647L956.6107569128787,215.71377456147232L957.3473156585384,215.70265922723297L957.4247843394885,215.70181409479576L958.0709405026829,215.7310482691178L960.0193788746843,215.74508701225065L960.5014361624052,215.79350914555312L961.8065476621684,215.84895062453396L962.1440416548295,215.86691942642716L962.7472195411142,215.913943118442L962.8559451507259,215.9526056635497L962.8571577039929,216.02292715570533L963.464512162642,216.00163276108697L963.5248703697126,216.0229203269515L964.0981386087436,216.00258476989896L964.3419965435605,216.00671212102162L964.8854898634785,215.94904807052987L964.9628238162878,215.92597125824577L965.216382177241,215.9620176215193L966.0134338581123,215.9871662170823L966.8038838600852,215.98181083910842L967.0164848662405,216.00391410143695L967.1997151377051,216.01938117624942L967.2336666291824,216.02507366895952L967.4194567353218,216.04564437310384L967.586923814315,216.1186013784459L968.1852514875316,216.06291004633258L968.3097402896149,216.03423234267999L968.942423638731,216.07485714511546L969.0320178523516,216.06542309309293L973.8798058139994,216.10549678851564L974.3198279217961,216.16780231619396L974.7582332919034,216.16873662713775L974.7660475240688,216.21432247875921L974.7970349964489,216.2349608705325L974.8029630346434,216.29412332143013L974.8412258266255,216.33437406057402L974.8730216678503,216.38594449919952L976.0415188328598,216.39584427830366L976.3876354265309,216.4714120819092L977.3262863833647,216.52354398310385L977.3419148476956,216.5796637916091L977.3533667396623,216.608102716582L977.3956713758681,216.63593680491098L977.7684641414141,216.66807029117268L978.9214675702336,216.71703295612596L980.2556803484059,216.77240228340744L980.2913833057133,216.8268732388528L980.4824278093434,216.83915194435295L981.3004970801768,216.84924214836818L982.7616237669666,216.87413634972594L984.0706423828126,216.95202035985992L984.1287102114899,216.98355703765523L984.1446081321022,216.93861157377594L985.7701031506472,216.97831366788392L985.8684546934185,216.98894640597055L986.1563687302714,217.0459043498746L987.41594211845,217.1131087890832L987.4564952888257,217.13937930994553L987.491120421007,217.20245156900074L987.7064159899779,217.21307038065655L988.0843284248735,217.22724398290998L988.3535152501579,217.2136046505962L988.4836626341539,217.23848419023324L990.0509550958807,217.26850104092452L990.4715763514047,217.30455035506617L991.7075723149462,217.333891434683L991.7768225793087,217.395949282363L992.1217266197126,217.46451522899926L992.5749520853062,217.49723270674576L993.0762754971591,217.52482357709695L994.1810462515782,217.5815961437339L994.2719877466067,217.5794806153299L994.4214012547349,217.5472161098004L995.263721590909,217.5797149072186L995.3896924025411,217.61377017402566" style="fill: none;" fill="none"></path></g></g></g></g><g opacity="0.2"><g><g><g><path stroke="rgb(255, 112, 67)" stroke-width="2px" d="M97.00426136363636,39.21367371082307L97.16997697679923,91.92972922325141L97.20285064315024,126.63324379920965L97.23046991201073,103.4229412078858L97.26307412208017,126.55812317132953L97.6661807193024,96.9289591312409L97.69272216303662,111.31864303350453L97.85116245659722,136.15262889862066L97.92526293402778,126.88896560668951L98.15578278290721,145.58983379602438L98.20064725378788,148.96883511543277L98.25251758798927,120.9642180204392L98.65751037918244,123.63878273963931L98.68903676412562,124.17861485481265L99.33142053937816,141.68763542175296L99.59252367621527,140.270407140255L99.68252207425822,136.22530871629718L99.79569371251579,167.23567092418676L99.99684282670454,123.64587986469272L100.09398181620895,162.38283330202106L100.13696009311869,198.88341316580778L100.24770662484218,158.3499201536179L100.598942887863,139.55964320898062L100.60810440143624,181.70537585020068L100.81437318497476,157.13064157962802L100.97429548808395,152.74980032444003L101.28012836766098,185.374683380127L101.55389594973168,168.25806999206546L101.57882065577652,180.72685503959661L101.7396860558712,172.1152260303498L101.83170537602588,186.66189157962802L101.86269284840594,139.66334009170538L102.14575667219064,187.908206820488L102.89080329071969,158.45404887199408L103.10003609335543,199.01343324780467L104.01766946022727,156.10707843303683L104.47305057607322,155.92127645015722L104.52236107559975,168.32258248329165L104.93516809895833,132.72597545385364L104.95739824218751,160.364940404892L105.22712398003472,181.95191645622256L105.85212782512626,165.20615601539615L105.95856305634469,117.34205567836764L106.7100766256313,162.70629698038107L106.91863578756312,186.47802346944812L106.97858981021149,134.57472020387652L107.02884340672348,163.74628865718844L107.34680181897096,177.72330665588385L107.72215441919191,150.89940333366397L108.11758151238952,160.4584797620774L108.24274395517676,182.71461331844336L108.35834069996844,162.50036770105368L108.47757510456124,165.734009385109L112.54542185921717,185.56698167324072L112.6055106100063,159.5945831537247L112.65495583767361,166.3418462276459L112.85004218552714,174.9926784038544L112.94650753432765,168.8695117235184L113.11020222537877,206.10823953151706L113.1304114464962,136.7494633197785L113.23927178424873,205.70160993933683L113.27942077020202,187.74542355537417L113.40000245620264,201.0318612456322L113.43597486979168,161.58121490478518L113.52947619949494,173.02395844459537L114.10907666114267,201.51275718212133L114.12564822245896,188.60192263126376L114.63411222577335,202.91943365335467L114.67345284288194,192.02677363157278L114.70767379064077,202.20140361785894L114.84603959122475,207.48481893539434L114.864497346512,170.9255751371384L115.13866911300505,198.9717047810555L115.30519309501263,157.73973637819293L115.33025252919822,157.9869341254235L115.5964753353851,166.917652130127L115.74346373697917,200.67760580778128L115.94501703559027,223.76171851158142L116.84446210345644,191.83894389867785L117.3655905520044,189.44328868389132L118.25398791232638,180.40939950943L118.27055947364268,181.781435251236L118.31380720683396,175.09515488147738L118.44274203756312,185.21353358030325L118.76245191564078,166.0298543572426L118.86484530263573,177.55383932590487L118.88020431068496,186.30095207691195L119.13255011837121,161.03023016452792L119.21244390585542,171.56482332944873L119.26337114307134,209.3741186857224L119.27091591895517,186.4074840545655L119.6614927990846,109.8506271243096L119.68170202020201,206.879882901907L119.96921187263257,195.6472837328911L120.28070333412246,151.2425436973572L120.41920386284721,189.57664141058925L120.54813869357638,185.16122514009479L120.55298890664456,221.94297695159915L120.6233169961332,191.1867218613625L120.70105513336489,192.94595459103587L120.80466107362689,178.75101917982104L121.0085047506313,206.75760769844058L121.01483697324812,170.96924686431888L121.03410309738004,229.93860179185873L121.06280019136679,223.42154467105868L121.08287468434342,191.3325884342194L121.10294917732007,196.43157237768176L121.16937015072601,178.57745879888537L121.34909749053028,203.05551820993426L121.4385569760101,169.34257829189303L121.48059215593433,236.129716873169L125.22307045059975,195.1946448683739L125.46841039496528,185.75079345703128L125.51408323469064,212.46487909555438L125.82853871527779,187.70032489299777L125.84403245146781,194.45123040676123L125.94548274147728,169.10760337114337L126.12898246922347,193.21619921922687L126.28014744318182,210.49615913629535L126.42349818497475,212.38686704635623L126.48372166390466,201.77027204632762L126.93910277975063,206.24397674202925L127.0037722873264,188.38311338424685L127.24951641611428,220.34290382266045L127.47141366398358,218.48285624384886L128.02272121606694,190.09517276287085L128.06219656131628,185.0198646783829L128.1954426925505,168.39971208572393L128.32464697956124,199.10471016168597L128.84591015624997,197.53632062673572L129.0280626025884,202.79092499613765L129.6704463778409,184.87198913097384L129.7097869949495,195.9688886404038L129.76206151357323,219.80415129661563L129.86714946338384,186.93381661176684L129.91807670059973,176.87690877914432L129.9975663036616,196.08753079175952L130.02949687302714,193.40958648920065L130.0614274423927,201.39755094051364L130.36982015664455,203.79521512985235L130.4604921953914,183.85295087099078L130.73169994278723,174.3618603944779L130.81388410866475,204.3181211650372L130.9077896227904,195.67647957801822L131.33150962555237,230.60020217299464L131.38055066879733,187.13341856002813L131.9379209872159,210.1393408477307L132.20885927833018,196.1793428063393L132.35032382615213,201.96298339962962L132.47993229758524,215.99589595198634L133.15222572009154,181.21118688583377L133.20315295730745,188.4451850652695L133.61407378669506,206.61117786169055L134.03388667337438,224.11529803276068L134.2083596156881,158.4467452168465L134.26103831873422,170.87484383583072L134.58169129379735,207.33027809858325L138.2256833175505,226.32077658176425L138.3431662563131,209.00262737274173L138.3606809146149,202.6643408238888L138.4413830709438,214.10144233703616L138.44960148753157,202.4469303488732L138.64414892282196,219.46945050358772L138.85540264756943,220.65228590369227L139.37504908656882,196.8369346261025L139.89200096275255,215.13700300455096L140.2057828026357,170.4866986870766L140.30642472380052,216.99665629863745L140.35479212634152,216.9137438535691L140.45273948469065,221.24050238728526L140.47038887113322,236.21868440508848L141.5224809225063,197.40505197644237L141.53783993055555,141.89564877748492L141.5470014441288,223.17079836130142L141.8323556463068,196.87317126989367L141.85876236190026,227.1507083773613L142.356448113952,221.67741680145264L142.3598163174716,199.4101493954659L142.52270263967804,206.52929806709295L142.9271565183081,202.6694477498532L142.96609295099432,208.8735179007054L143.45071007339018,155.84884071350103L143.69766675544508,208.08022642135623L144.23927388139205,190.4542065560818L144.32698190104165,187.76222759485248L144.44662049005683,229.9504303336144L144.81941325560288,183.61487799882894L145.02999333964647,190.62542939186102L145.25741444128786,221.688015550375L145.4314831991793,195.8199992179871L145.4550606238163,150.81652843952185L146.17087123579546,181.0822370052338L146.2794621172664,204.60813635587695L146.30425209517043,203.40008550882345L146.53948742897725,198.68560427427295L147.01063173729483,203.06546920537951L147.06735228456438,197.89856502413753L147.53984387428977,200.13774552941328L147.69410759548612,216.4390907585621L147.84298219105114,204.6715035438538L147.9548065479009,208.7292378544808L151.54679350931187,230.94654375314713L151.61132828874685,220.15399450063708L151.65255509982637,207.7987352907658L151.83618955571336,192.67458343505865L152.06953869554923,233.32706594467163L152.33441422032828,222.53800892829898L152.36661424597534,217.8080567121506L152.37914396306817,231.73312300443652L152.39787117463698,210.95255309343344L152.41147871685607,208.1317650675774L152.55509891493054,208.58443209528926L152.7893911517519,208.67718288302424L152.94594525134153,201.82429844141012L153.59398760850695,178.929310977459L154.32192375315657,198.1032832860947L154.73244039812184,212.6280566453934L154.8801024404198,192.28795909881597L154.9884238656092,161.347047328949L155.05444065459278,225.3361725211144L155.12396037523672,214.2147710323334L155.12786749131942,170.82187825441363L155.9072697857481,206.85330623388293L156.29919394728535,193.34039890766147L156.34298059303978,196.39374920725825L156.38582414180868,214.39485588669783L156.39336891769253,192.3155027031899L156.4149254202178,229.13328462839127L156.4329789910827,197.23095649480823L157.0141961904198,205.85437649488452L157.0528631668245,195.9181573390961L157.2165578578756,208.9898506700993L157.22544991516727,233.7788880765438L157.32447509864267,201.12188020348555L157.34805252327968,188.22309011220935L157.566851023911,186.07863181829455L157.5774945470328,222.2734626531601L158.56060579032513,201.7175505459309L158.58014137073863,182.572445511818L158.86859432015464,202.9116418361664L159.53482497632575,178.27425384521487L159.64597569247158,224.26495724916464L159.9266144097222,216.7638499438763L160.51928350102588,220.16085693240166L160.9615959872159,210.01531952619555L161.01036757417927,212.23922619223598L161.09376429332383,202.89619901776317L161.31256279395518,210.03255540132525L161.47181145636043,221.47679159045222L165.09074404592803,195.21001258492473L165.38162210187815,219.91524571180344L165.46057279237687,182.9208430051804L165.7509119357639,226.65094310045248L165.75980399305556,228.78959977626806L166.10524694602273,210.11129030585295L166.25627719184024,222.0998083949089L166.89798732638886,198.61487710475927L167.1896737511837,196.5670373439789L167.21581101049557,208.21632036566737L167.61150755997474,176.5869593024254L168.03091626223167,215.17814004421234L168.32139013375945,171.596028149128L168.48239026199494,204.9227661788464L168.7447059520991,215.0663603246212L169.13501337594695,215.87981665134436L169.2845616122159,223.1220009326935L169.44717847814076,171.5179034471512L169.63903135061554,191.06797644495967L169.7037008581913,199.3681862354279L170.9128859217172,202.77965033054357L171.2976694917929,180.08706235885623L173.12108014914773,237.4501576423645L173.30902590553973,156.4264866113663L173.45736158854163,237.7171447277069L173.63493327809343,200.43392845988276L174.08074869594378,197.5878217220307L175.3791237886679,188.82279717922214L175.78842788036613,175.44011646509176L176.3930877761995,236.43785038590437L176.6082486170297,205.87387481331828L176.66725954269256,199.53690254688266L176.76426380405618,184.53140223026278L176.8685433850221,198.14534971117976L177.20010933948865,198.43714857101443L177.35302577927715,206.8751984238625L178.12420965711806,240.5088683366776L178.16691847774618,208.14791196584704L179.75280342290085,240.5305633842945L180.15321545730743,209.75818955898288L180.21761550860165,225.1149600148201L180.3325386126894,207.00095647573474L180.40583072127524,261.02502340078354L180.42684831123734,221.14413732290274L181.58577977825124,206.5936979055405L182.0372537780145,206.6958364248276L182.25281880326705,194.80327033996588L182.29498871133205,215.49091109633451L182.80533890861741,240.496157348156L182.86367619357637,176.0219680666924L183.21895430082068,177.1508427858353L187.55450587121211,210.04996964335444L187.66552185921714,239.38746625185019L187.7671068773674,210.35463908314708L187.77519056581437,239.47039747238162L188.06431715593433,242.43392595648768L188.24121520478218,202.49795266985896L188.29968721788194,204.51974147558218L189.10199329624368,228.52321350574493L190.37800351759785,218.01071906089786L191.5999877544981,220.88566491007805L192.48905875552398,216.74037122726446L193.17024423532197,229.15093356370932L193.50127127722536,213.32014837861067L193.88672848800505,220.46208107471472L194.83440623027147,219.84673404693606L195.05616874999998,200.87656939029696L195.7011123599274,220.26006647944456L196.07067165009468,216.6495261490345L197.7792939315025,200.56226813793185L198.52043343394885,221.05788284540176L198.9743325402462,194.8906137943268L199.23287584240845,193.13060188293463L199.64137156526198,207.7768149375916L200.18324814749053,209.39373904466632L201.58051369554923,215.4239765703678L202.28096529947916,204.1414440572262L202.30157870501895,208.31379318237308L202.9178252209596,162.37928473949435L204.3048514303188,190.19419455528265L204.36817365648673,220.31799817085272L204.49104572088066,180.2583321332932L204.94103771109533,225.04462713003164L205.12574999210855,249.32653927803045L205.94799583530616,217.49151179194456L206.26757098524305,184.677325129509L206.46845064315025,204.46374365687373L206.8869162484217,223.42535609006887L208.25319432410038,195.50473102927214L208.7706851128472,208.9697890877724L211.9571403705019,199.21102622151378L211.95835292376893,222.5976397991181L212.19224097616794,217.47478285431868L212.24842261087434,199.8304005861283L212.31982852548927,198.2933285236359L213.0733630168876,228.3602424860001L213.69701958057132,178.31428313255316L214.39571971867107,164.1257407665253L214.41606366792928,183.7690057754517L219.13720717724112,203.4174997508526L219.54987947245897,207.73594075441363L219.9158011028251,230.29827395081526L221.39282571022727,208.4911274313927L225.23069152856692,217.3379191160202L225.38980546283142,183.72242385149005L225.82942338620578,206.8803710639477L226.2922145497948,229.5076016485691L226.61354116556186,242.74296069145205L226.78639737018622,213.10035341978076L228.03990799202964,158.88997757434848L228.33900446456755,226.52432137727743L228.4797953716856,216.69491583108908L228.63715784011995,206.3408299684525L228.7064081044823,202.92040997743612L229.32130733901514,192.39705392718318L229.55465647885103,178.84743118286136L232.18010375828598,198.15244683623317L232.26754232165405,200.8783530592919L232.49078685093116,195.39279171824458L233.78134771148987,219.00966757535937L234.17098149463382,231.67180234193802L234.82144895833332,209.29578745365146L235.69529567945077,194.96613809466368L235.92554607204858,232.5014525055886L236.52643357994,232.23268175125125L236.54785535432447,181.1144744753838L236.68473914535983,199.01058876514438L237.3307605804135,219.15375047922137L237.5057724352904,210.4364062249661L238.53469124644886,185.72184169292453L238.9524832110164,219.49506962299353L239.4963807153567,199.02982422709468L239.73848718434343,209.56904554367068L240.24978047861424,199.6468047201634L240.25759471077967,136.05490261316305L240.81671649502837,209.37930071353918L240.86966465435603,237.27913194894793L241.6939314196654,227.76385867595675L241.8886135830966,214.61005085706716L242.3355068260732,210.29123434424403L243.92139177122792,187.87737751007086L244.4603043343592,185.9668427109719L244.70308444404984,225.97972029447558L244.7796100280145,215.47051155567172L245.97370553977274,218.92581635713577L246.05777589962116,223.43086668848994L246.15451070470328,177.41966986656192L246.17391155697595,222.9272524416447L246.32723218118687,212.26178491115573L246.39432679529673,204.95006570219996L251.83330183869947,225.76950082182884L252.18763684895833,215.05129301548004L252.64692508088697,229.86351871490484L253.8434456991793,214.7823251187802L253.9132348761048,195.2019015848637L254.5017273950442,196.56023123860365L254.5038830452967,209.2071860432625L255.56432824139836,210.27855151891714L255.83391925110476,222.53332445025444L256.39182848208645,199.1587834954262L256.6920027797506,236.5095538794995L257.5411942511048,234.71359634399414L257.77912414772726,216.22149252891546L258.37893383049243,188.72088396549228L258.49170128432763,221.49341726303106L258.72235586134786,256.8498673439026L261.2252005326705,235.05992853641513L262.460657583649,197.77660900354388L263.2601343710543,219.69840788841253L264.8213640664457,204.74457764625552L266.19141453006625,219.39085641503337L266.3807075678661,252.56825441122058L266.64356217053347,180.98454827070242L266.8700401751894,218.2846530675888L266.98253817274303,205.4866121113301L267.1148412069918,236.11627364158633L267.12171234217175,211.38446384668356L268.5839168540877,205.1660680174828L269.04280090159403,174.14875888824466L269.4290664812184,198.9239400029183L271.16503857520513,234.17345443367958L271.36281948587435,235.51568412780762L271.83463743489585,231.02095091342926L271.8637387133049,171.92810976505285L271.9425546756629,227.72642040252686L272.02837650134154,192.09336081147197L272.3200629261364,202.83538529276854L272.4208395754419,210.6687619686127L272.9966676491477,195.26435816288L275.20876899266096,251.3021592199803L275.69890996882896,228.55314159393316L277.2067873204703,184.0478026270867L277.44579504221906,208.05179098248485L279.31016305437186,264.5685541033745L280.3028399956598,242.73289704322815L281.058260681029,190.01973295211795L281.31383996409403,225.41902863979345L281.3433454269255,208.80157971382144L283.0952154415246,216.65008941292763L283.85939345604476,184.81155091524127L283.89967717013883,214.7526317238808L284.0345400390625,197.01949784159663L284.3623336055871,217.8144497573376L284.54650697403724,219.49363330006605L284.6498434580177,219.01832306385046L285.04944712357957,200.48649036884314L285.66542418323866,202.9982154965401L292.20175993331753,254.93576520681384L292.72773859493367,240.25521183013916L293.44732159485477,228.6771159768105L294.2649866812658,210.73240140080458L294.3587574672506,214.08484482765198L294.6800840830177,204.7365792989731L294.75162472577335,210.56733691692358L295.23004435369313,246.42886573076248L296.09243918284403,192.21304500103003L296.14430951704543,213.93362724781042L296.4838244318182,232.55621114373207L297.5972177872474,188.67432081699374L297.9638130583175,195.58498674631122L298.08479892874055,234.20247191190722L298.7926605804135,242.36332082748416L299.17959980074176,164.31657457351687L300.1377863379892,204.69168716669085L302.67229212239585,225.06690421700483L304.2677427655461,208.176629036665L304.5210316702178,185.4105820655823L304.907431977983,201.86836445331576L305.89808799715905,229.96533805131912L305.9467248559817,213.43415299057966L307.3713402166193,212.3888196945191L307.9874520044192,222.61324220895773L308.3824749131944,214.09995907545095L308.9147857974274,153.49120581150058L309.73932201901823,188.58459287881854L310.0312779000947,191.6433880627156L310.4444891078756,205.5794286131859L311.0645080117582,205.90369963645938L311.36778105666036,225.236324608326L312.28851317077016,241.8266054391861L312.740256626815,228.41655009984976L313.38156257694123,220.60735622048378L313.56694849865846,206.02501729130748L314.0048149562026,231.6225543022156L314.61432506510414,211.27474942803386L315.97494455886994,209.88315904140475L316.7878941603536,204.79809710383418L316.86253355034717,239.8047978579998L316.88247331518306,216.74290591478353L318.33807614820074,206.715175151825L319.4211556719539,211.7763077616692L319.6520797052557,193.66512054204944L319.80499614504413,216.10858628153807L320.04117457583646,222.55315133929253L320.53953396859214,201.99980208277705L320.90788070549235,228.95872914791107L322.19965411931815,221.70940080285078L322.6509933909406,247.92624646425247L323.6734452513415,235.18056088685995L323.87230398713695,237.6965480446816L329.84763175899616,238.83711048960686L330.2371308139994,224.40976300835612L330.8011028113163,203.83622074127203L331.74891528172355,233.60932686924937L332.88224840198865,197.64383831620222L333.0538920533459,225.2279319763184L333.8394918422506,230.4329034090042L334.72964066840274,265.77192986011505L334.80589679608585,214.95972508192068L335.7523619850852,231.39599078893667L337.1946267321654,248.51193764805797L337.85250424360794,230.55651167035103L339.24033882181186,245.37246429920197L339.24761414141415,234.31161367893225L339.350681169113,242.62044140696526L340.039276696654,212.14665377140048L340.3682828164456,251.65762567520144L341.2192257536301,219.65057739615443L342.01479542495264,251.5124162435532L342.6330628630051,220.40481591224673L342.7328964153251,233.69925194978717L342.83690654000947,237.23130145668983L342.84606805358266,251.3556129634381L343.3696216086647,196.89005979895595L343.45773381273676,253.49455127120024L343.4611020162563,224.77297434210777L343.86286133207074,197.02702680230144L344.0790999980271,219.4168510437012L345.1868347715436,204.3202615678311L346.43077969539144,207.75695988535887L347.0440621922348,233.93193626403811L348.12054003708965,190.94644287228587L348.87461344105105,199.39822697639468L349.33147656644564,196.41840139031416L349.36057784485473,239.39405643939978L350.2769986584596,213.1756054759026L350.33964724392354,220.45601660013202L351.10126542376884,213.8634727299214L351.1967876755839,224.04734024405485L352.1660219203756,216.1261976659298L352.3185341757418,211.25031316280368L352.8800810665246,210.74622952938086L352.97223511482,225.09227925539022L355.0710300919349,228.50641885399824L355.1053857678346,214.9537075459957L355.116298747238,216.14169681072238L355.216132299558,242.21332365274432L356.29220595999044,248.29483696818357L356.97595127446334,227.49854260683065L357.14126270320395,227.88116776943212L360.1401763888889,255.59427702426913L366.6303003866793,211.08154991269114L367.45712698666347,266.8747630119324L369.314893319918,216.23694473505023L370.76079572679924,250.6509510576725L370.9760912957701,238.93644207715988L371.47242976641405,204.74872702360156L373.3444772825915,227.44018846750265L373.8296333175505,204.8291986584664L373.93552963620573,215.25945657491687L374.68057625473483,215.78350791335106L376.9539789023043,193.1851727664471L378.33399924834276,238.93523105978966L378.34235239307134,200.85641393065458L379.11959903724744,190.6916128993035L379.1753764875316,236.55678355693823L379.8983276909722,249.59761002659803L379.9037168166035,206.501838952303L380.9527101207387,231.55944058299067L381.05577714843747,249.21015018224716L383.24888182410035,214.7651455700398L383.9972966461489,265.25179320573807L384.27497134430234,225.3700059056282L385.1447762211963,193.67516541481024L385.39361909722214,199.04785805940634L386.4602617877999,233.87702742218977L386.9931115845959,202.0717778205872L389.9354394511522,166.56598770618442L391.1944739267677,208.6528968214989L392.5344800149936,228.59596842527392L393.84066933988316,246.16331496834755L395.6952021977588,237.19035217165947L396.8138499506786,260.293343603611L397.2069866654829,248.1000697016716L398.265276211332,235.01053029298785L398.4918889441288,204.46042978763586L398.5186998441446,200.46886959671977L399.125784846512,210.5286031365395L399.48860772964014,222.77508670091632L400.41930972616785,209.74335694313052L401.5220595584754,174.7730242609978L401.54253823587436,192.15255984663966L401.9461837456597,244.60763642191887L402.166868440262,238.0116378664971L408.35493194641725,221.02149599790573L409.22891339567553,240.32802307605746L411.963221012863,200.39770120382312L412.1095357737532,253.1740165650845L413.4526406092172,210.586506664753L413.87528278685284,231.00405299663544L413.93995229442856,215.80171072483066L414.8880342211174,236.41005331277853L415.00767281013253,197.96448567509654L415.1142427694918,213.11926969885826L416.2807190123895,232.74570250511172L417.4803383779198,188.21113014221194L417.61291086845006,212.1605006754399L417.67326907552075,230.56741082668304L420.55779856968115,240.6349455714226L421.06383746646145,225.4235816895962L421.43191474708016,219.24892330169683L422.14624334951066,239.73216497898102L422.1955538490372,210.5660977363587L424.2463856080335,238.6713700890541L424.7269608862058,247.0229964852333L425.2840617483427,236.46019318699837L425.42323591777136,233.0960432589054L426.21153026949173,229.83929836750036L427.1054514835858,178.38303887844089L427.33300731336806,194.60060799121862L428.20186909327646,245.53742551803592L429.54039317195384,222.7989784777165L429.7251054529672,220.33869811892515L432.7330459240846,160.83699309825903L435.34987060250944,222.08552026748663L436.0462803622159,205.94248974323278L438.1174560704703,191.25512087345126L438.3083658459596,205.1670631170273L438.3320779987373,226.85048872232437L438.8072641512784,222.4642025828362L440.6219174794823,225.05090752244L441.81291424400246,221.33191072940826L441.8172255445075,199.24124532938006L442.25576564275565,245.9498755037785L447.85304625157823,241.74528890848165L447.85910901791345,241.235478758812L448.6328527304293,165.21766537427908L448.7406352430555,230.39929533004766L449.3826148338856,220.4072285592556L449.7091958471433,236.95165032148364L449.98242451665084,236.38106399774554L450.43416797269566,237.89532387256628L450.7778594598327,247.9397178590298L451.43169512705174,218.9468448758126L451.705732165404,221.6257279515267L453.0982822285353,223.68861624598506L455.3424488695549,254.66089242696765L455.58482479482325,256.12038427591324L455.6256474214804,225.3235272467137L456.17358677004415,230.70005008578306L458.45965386284723,234.20361721515656L458.46275261008515,236.97174006700521L458.49091079150884,209.9151524305344L458.8019980685763,250.8199396133423L459.1900151140309,227.0275413393975L459.4600103081596,229.28165772557261L460.07086769846904,209.99547386169436L460.5853944681186,224.5940066277981L461.58952330137305,223.7566303610802L461.886059939236,201.7591194212437L462.22085936908144,235.0634864866734L462.42281685211486,227.53177517652517L464.3281422190656,230.33902609348303L465.16817217684655,217.32608118653303L465.49569628708963,215.80993437767032L465.85097439433395,202.88606965541842L466.90885975576066,227.91593992710116L466.9962983191288,211.52912878990176L468.25923991082703,217.64327386021617L468.80946963778405,223.24544960260397L469.4669429648043,214.47083079814914L469.89174079269253,237.2626846432686L471.00176594460225,223.71005782485014L472.605569732481,253.23754334449768L474.8405748599274,227.99261891841888L475.676428245344,220.7141228914261L475.88727778566914,207.2287591695786L476.81703668521146,220.84909969568258L477.4080890388257,242.59054148197177L480.1169330374052,241.1065852046013L482.9858340672348,232.78099098801616L486.7778923177083,235.48391604423523L494.56410102982954,257.5923336446285L500.05993134864264,257.39289128780365L504.09732954348164,216.0400652289391L505.0921621350221,230.98042407631874L505.56640519057765,208.73549008369451L509.73462441011674,251.74313852190977L510.81393154592797,228.74817171692854L514.6140734848485,209.4914934933186L515.0974780539773,252.27088862657553L519.4536430299084,243.4963355362416L522.1209907611269,259.34730434417725L522.2919607717803,236.91871815919876L523.7819192806976,219.99237531423574L528.678883013731,248.50555399060255L530.8762989898989,197.76494944095614L531.949543359375,232.3893817663193L534.9108678937815,207.02234172821048L535.6652107540247,245.1009992659092L535.7770351108743,217.14241960644725L537.5997721275253,186.51660704612735L539.4214313190498,230.31360411643982L541.3111282216697,240.38329803943634L544.15604764244,204.3618304431439L544.8410055101799,243.02162611484528L545.9199084615688,230.2724201381207L547.7135441998105,197.9595195651055L554.1038346452809,227.691854774952L555.0123064985795,221.2859859466553L556.3326422782512,207.48493158817297L556.9956394590436,233.4313354790211L560.4119409248736,255.33019074797633L562.5353911517518,232.91939431428915L562.9364768268623,228.39783096313477L567.0692625453756,202.28659728169447L572.4559630701547,241.69022986292845L574.0535693635575,234.67465603351596L582.5263526811079,187.74587416648868L583.6269468631629,229.97073599696165L584.7680942155934,240.78246438503268L585.1992242660984,206.10110485553747L586.4687675366949,244.91085076332095L589.4042242680713,223.03245136141783L590.5812093059501,223.67983871698385L590.639546590909,196.57400304079061L595.2847034288194,213.64041084051135L597.2377225576073,209.59140712022784L597.4125996843434,218.5952837169171L598.4078364603062,174.1276552677155L598.7957187776199,225.32304847240454L601.3314371152935,210.2112602591515L604.6417075343276,199.47090679407123L614.3375529139047,232.16984966397288L615.7583958866004,186.7183306217194L615.879516485164,225.30937993526462L616.4224708925188,222.81355762481692L618.2452079091697,222.79868745803836L618.3032757378471,238.74059522151947L621.3501526416508,226.83306509256366L636.8499515980112,212.77702116966253L638.8417724313446,232.3627206087113L643.6479293974905,206.98705324530604L644.129043588226,258.1680362820626L646.6174723484849,246.94383913278583L647.1442593789457,204.61998367309573L649.242111259075,237.05395781993866L650.0087143801294,251.29146659374237L653.289479336332,236.61784136295324L654.5056702631786,200.86442166566852L656.0000748007417,246.02549368143085L656.9582613379891,255.30021572113037L658.9115499230586,237.22858840227133L659.9146009311868,231.111486196518L660.5299043501419,233.70319479703906L663.8547254083807,191.41872087121013L663.888676899858,235.3559800386429L664.8424174084596,221.42313131690025L664.8535998441445,239.1993548870087L665.3945333293876,233.90345388650894L668.1599631470958,191.22957685589793L670.8607234572285,226.1164244413376L670.92121639244,265.441885381937L672.1479161142677,249.0537130236626L672.6663499999999,212.59018653631216L674.4121572482638,248.93973657488826L674.9304564058554,236.6606024801731L675.4814945016573,237.7725886702538L676.0209459773516,226.15771168470386L676.3037403448546,242.77256959676748L677.1126481021148,249.03501266241076L678.20812261482,258.849454164505L678.7816603101325,206.67621606588366L679.6528124684341,229.69207996129992L680.0728948113951,236.1970456838608L681.9213649029355,259.0891041755676L685.4399250276198,217.49202811717987L685.4450446969696,189.3070163726807L685.7025101740057,212.89126047492027L686.5242171046401,251.9342070221901L688.3869683791035,199.3603380918503L689.8513285412719,227.96066308021548L691.2233999270044,202.36123913526538L691.2841623184974,194.7946336269379L691.8748104876894,158.99359935522085L692.6706496152935,239.04327446222308L692.9441477410826,226.69123524427417L693.292554713147,229.29071688652039L694.2043947699652,237.15957918763164L694.225008175505,216.3874300718308L694.2693337338226,203.2917323112488L695.1388691544349,209.55828720331195L696.3631437697285,228.40115422010422L696.6550996508049,219.1941365003586L702.3450732204861,271.5793542712927L703.0501055812026,244.55548757314685L703.5199026081123,237.42856585979465L703.815361420849,224.32041996717453L704.8126191189235,253.80013132095337L705.7266148259943,218.32849377393728L707.7778507694127,247.66825282573703L709.0975129083806,200.0606722533703L710.0012692767519,185.01395040750506L710.1721045592644,260.9161632657051L710.3806637211964,209.3981325030327L711.7888422486584,241.72896364331245L713.2219454821652,257.33557918667793L713.2647890309343,182.26569199562078L714.1546684008049,236.26343572139746L715.0868524068812,255.5668085217476L715.104367065183,239.70733442902568L715.6300762705176,221.39428281784063L718.4151763967801,197.09612989425662L718.7844662306659,240.6661879420281L718.860183445786,208.1613927483559L719.4224039772727,195.49383187294012L719.7134167613635,238.9169343709946L720.7950142755682,228.74727988243103L720.9925257299558,187.9033627510071L721.0934371074021,242.13996791839605L722.7986911852903,219.647883117199L722.9483741497,236.3632085323334L729.5212212259311,211.42722496390346L731.5009165265941,206.33950629830366L737.2175662681501,221.0463640987873L738.6106552438446,238.6482574939728L740.2387100970643,206.38354414701465L748.5720497889046,202.48134577274328L749.8469821851324,225.39104381203651L759.4024408420138,245.41270011663443L761.5047387507891,214.98072543740275L762.074369330019,249.6984624266625L762.387612257339,230.8190583586693L769.7351461430712,188.78800624609L769.9001881155302,224.13696491718292L770.3893859947126,217.43782335519793L785.6142048157354,231.1542942523957L786.6629286635889,239.19026756286627L789.122660329861,198.81074273586276L789.6253310231217,263.2759667336941L798.6534637369791,233.86092746257782L799.5026552083333,236.13026136159897L800.5609447541823,225.70585200190544L800.831074676452,230.5936401486397L802.5243379498105,254.40053308010107L804.2297267558395,250.93602830171588L806.8341564453124,217.81126731634143L811.6097301235005,245.0063521564007L812.1250652619949,206.77568846940997L816.4719339962121,229.08603617548945L823.4078734118528,234.60137540102008L825.1953116556186,234.29798269271856L827.4029669704861,250.78539276123053L832.4163358171559,247.73807877302175L835.8428766216856,229.40179252624512L841.3440960661301,232.85381162166595L846.642684386837,235.91293537616733L853.025699512705,238.7412148118019L855.2961381411773,206.5040920078755L858.3936728259152,240.28751501441002L858.7846538904672,262.6412809789181L860.0766967605745,236.0680770277977L860.5246678286773,241.45543330907827L865.7228836845012,246.19727039337164L865.8514143308081,239.32592028379443L866.8609322896938,221.9265390336514L867.0963023516413,239.32791048288345L868.3052179588856,226.71750211715698L869.6479186099272,256.23773092031485L870.2528479620422,259.87590873241425L879.6377407926925,260.14911049604416L883.5893171618528,246.60917589068416L886.6107304470485,185.38638049364093L887.853058633207,244.17132282257086L888.336328474195,218.79658484458926L892.1983106297348,225.54879525303843L893.158518089094,222.00876617431643L894.9252081991792,217.16068813204765L895.3462336391256,248.72124651074412L896.1532552024146,216.54689946770668L896.3682813151041,193.86737921833998L899.0507185980903,240.8601103127003L902.6891867680712,253.1308799386025L902.8442588581123,211.29246407747272L905.5198250059185,201.51241922378546L906.9351441248422,241.82837033271795L908.7291840475062,228.69981551170355L923.288984765625,249.1644131541252L925.7950629123263,251.93698579072958L927.5799413214171,189.40976509451872L930.434426440183,216.76191607117659L934.2399575047348,216.64118045568472L934.3096119535195,196.10818380117422L936.4970580472694,258.20074313879013L939.0226717743844,243.9321891367436L939.2894334931343,234.66318422555923L942.3922225753629,230.11016258597377L944.5800728535353,234.21376535296443L945.7969374210859,217.4841330349446L946.9000914378156,249.60445368289953L947.0455978298611,251.5733426213265L947.6142853121054,238.23604220151907L947.8588168876262,243.08243045210838L948.4875931206595,242.1004267930985L948.5637145202019,236.32038170099264L948.7865548650568,255.46733611822128L948.8044737077807,253.01526063680652L948.919127355587,243.09715980291367L948.9730186119001,233.15940105915075L949.8335272470802,271.4127924442291L951.9021431206596,223.84547585248947L953.003141487137,233.66951161623004L953.1626596058237,238.70266878604892L953.2474036063761,246.61460199952126L954.2248562677555,253.16114598512652L955.8133010475851,240.10872566699987L956.6107569128787,202.45404624938968L957.3473156585384,208.99517351388934L957.4247843394885,215.19148939847946L958.0709405026829,233.39536169171333L960.0193788746843,224.23332998156553L960.5014361624052,245.09007194638252L961.8065476621684,249.41423007845881L962.1440416548295,226.75263100862506L962.7472195411142,244.41993811726573L962.8559451507259,239.4052184522152L962.8571577039929,258.70738023519516L963.464512162642,203.06779736280444L963.5248703697126,228.96094465255743L964.0981386087436,203.63521063327792L964.3419965435605,218.51843574643135L964.8854898634785,180.8347388505936L964.9628238162878,201.86443099379545L965.216382177241,237.94042253494263L966.0134338581123,231.3307085037232L966.8038838600852,212.71233031153685L967.0164848662405,229.5066347122193L967.1997151377051,225.47410646080974L967.2336666291824,219.50699204206467L967.4194567353218,228.63606342673302L967.586923814315,260.8005909025669L968.1852514875316,181.93362915515903L968.3097402896149,198.44862037897113L968.942423638731,241.00228750705725L969.0320178523516,210.27304092049602L973.8798058139994,240.7256404459477L974.3198279217961,254.47051861882215L974.7582332919034,216.74346917867666L974.7660475240688,244.27352705597883L974.7970349964489,228.9463091790676L974.8029630346434,252.75540822744375L974.8412258266255,241.1559458971024L974.8730216678503,248.20779392123222L976.0415188328598,222.50834369659424L976.3876354265309,263.15867641568184L977.3262863833647,248.75152194499972L977.3419148476956,251.29433923959732L977.3533667396623,234.21071434020996L977.3956713758681,233.8747555911541L977.7684641414141,236.58188635110855L978.9214675702336,247.07882532477382L980.2556803484059,251.12795108556747L980.2913833057133,250.64561882615095L980.4824278093434,224.46713143587115L981.3004970801768,223.12145644426346L982.7616237669666,232.35812062025073L984.0706423828126,265.42458379268646L984.1287102114899,236.62287318706515L984.1446081321022,188.93212670087817L985.7701031506472,241.73246526718142L985.8684546934185,223.622423350811L986.1563687302714,252.60178738832474L987.41594211845,259.09053111076355L987.4564952888257,233.558379650116L987.491120421007,256.64602214097977L987.7064159899779,223.85773622989657L988.0843284248735,226.1015918254853L988.3535152501579,208.6686869859696L988.4836626341539,232.83455738425258L990.0509550958807,236.09613695740703L990.4715763514047,239.92936366796494L991.7075723149462,235.75946474075317L991.7768225793087,256.3899811506272L992.1217266197126,260.57332330942154L992.5749520853062,238.0794923901558L993.0762754971591,234.89218854904178L994.1810462515782,253.33866798877722L994.2719877466067,216.24627614021307L994.4214012547349,197.20224881172183L995.263721590909,238.084392786026L995.3896924025411,239.11301591992384" style="fill: none;" fill="none"></path></g></g></g></g></g></g><g transform="translate(61, 378)" clip-path="url(#clip_1)"><clipPath id="clip_1"><rect width="1067" height="22"></rect></clipPath><g><g><line x1="0" y1="0" x2="0" y2="5" style="visibility: inherit;" fill="rgb(0, 0, 0)" stroke="rgb(204, 204, 204)" stroke-width="1px"></line><line x1="97.00426136363636" y1="0" x2="97.00426136363636" y2="5" style="visibility: inherit;" fill="rgb(0, 0, 0)" stroke="rgb(204, 204, 204)" stroke-width="1px"></line><line x1="194.00852272727272" y1="0" x2="194.00852272727272" y2="5" style="visibility: inherit;" fill="rgb(0, 0, 0)" stroke="rgb(204, 204, 204)" stroke-width="1px"></line><line x1="291.0127840909091" y1="0" x2="291.0127840909091" y2="5" style="visibility: inherit;" fill="rgb(0, 0, 0)" stroke="rgb(204, 204, 204)" stroke-width="1px"></line><line x1="388.01704545454544" y1="0" x2="388.01704545454544" y2="5" style="visibility: inherit;" fill="rgb(0, 0, 0)" stroke="rgb(204, 204, 204)" stroke-width="1px"></line><line x1="485.0213068181818" y1="0" x2="485.0213068181818" y2="5" style="visibility: inherit;" fill="rgb(0, 0, 0)" stroke="rgb(204, 204, 204)" stroke-width="1px"></line><line x1="582.0255681818181" y1="0" x2="582.0255681818181" y2="5" style="visibility: inherit;" fill="rgb(0, 0, 0)" stroke="rgb(204, 204, 204)" stroke-width="1px"></line><line x1="679.0298295454544" y1="0" x2="679.0298295454544" y2="5" style="visibility: inherit;" fill="rgb(0, 0, 0)" stroke="rgb(204, 204, 204)" stroke-width="1px"></line><line x1="776.0340909090908" y1="0" x2="776.0340909090908" y2="5" style="visibility: inherit;" fill="rgb(0, 0, 0)" stroke="rgb(204, 204, 204)" stroke-width="1px"></line><line x1="873.0383522727273" y1="0" x2="873.0383522727273" y2="5" style="visibility: inherit;" fill="rgb(0, 0, 0)" stroke="rgb(204, 204, 204)" stroke-width="1px"></line><line x1="970.0426136363636" y1="0" x2="970.0426136363636" y2="5" style="visibility: inherit;" fill="rgb(0, 0, 0)" stroke="rgb(204, 204, 204)" stroke-width="1px"></line><line x1="1067.046875" y1="0" x2="1067.046875" y2="5" style="visibility: inherit;" fill="rgb(0, 0, 0)" stroke="rgb(204, 204, 204)" stroke-width="1px"></line></g><g transform="translate(0, 8)"><text x="0" y="0" dx="0em" dy="0.95em" style="text-anchor: middle; visibility: hidden; font-family: Roboto, sans-serif; font-size: 12px; font-weight: 200;" fill="rgb(50, 49, 63)" stroke="none" stroke-width="1px">-0.2</text><text x="97.00426136363636" y="0" dx="0em" dy="0.95em" style="text-anchor: middle; visibility: inherit; font-family: Roboto, sans-serif; font-size: 12px; font-weight: 200;" fill="rgb(50, 49, 63)" stroke="none" stroke-width="1px">0</text><text x="194.00852272727272" y="0" dx="0em" dy="0.95em" style="text-anchor: middle; visibility: inherit; font-family: Roboto, sans-serif; font-size: 12px; font-weight: 200;" fill="rgb(50, 49, 63)" stroke="none" stroke-width="1px">0.2</text><text x="291.0127840909091" y="0" dx="0em" dy="0.95em" style="text-anchor: middle; visibility: inherit; font-family: Roboto, sans-serif; font-size: 12px; font-weight: 200;" fill="rgb(50, 49, 63)" stroke="none" stroke-width="1px">0.4</text><text x="388.01704545454544" y="0" dx="0em" dy="0.95em" style="text-anchor: middle; visibility: inherit; font-family: Roboto, sans-serif; font-size: 12px; font-weight: 200;" fill="rgb(50, 49, 63)" stroke="none" stroke-width="1px">0.6</text><text x="485.0213068181818" y="0" dx="0em" dy="0.95em" style="text-anchor: middle; visibility: inherit; font-family: Roboto, sans-serif; font-size: 12px; font-weight: 200;" fill="rgb(50, 49, 63)" stroke="none" stroke-width="1px">0.8</text><text x="582.0255681818181" y="0" dx="0em" dy="0.95em" style="text-anchor: middle; visibility: inherit; font-family: Roboto, sans-serif; font-size: 12px; font-weight: 200;" fill="rgb(50, 49, 63)" stroke="none" stroke-width="1px">1</text><text x="679.0298295454544" y="0" dx="0em" dy="0.95em" style="text-anchor: middle; visibility: inherit; font-family: Roboto, sans-serif; font-size: 12px; font-weight: 200;" fill="rgb(50, 49, 63)" stroke="none" stroke-width="1px">1.2</text><text x="776.0340909090908" y="0" dx="0em" dy="0.95em" style="text-anchor: middle; visibility: inherit; font-family: Roboto, sans-serif; font-size: 12px; font-weight: 200;" fill="rgb(50, 49, 63)" stroke="none" stroke-width="1px">1.4</text><text x="873.0383522727273" y="0" dx="0em" dy="0.95em" style="text-anchor: middle; visibility: inherit; font-family: Roboto, sans-serif; font-size: 12px; font-weight: 200;" fill="rgb(50, 49, 63)" stroke="none" stroke-width="1px">1.6</text><text x="970.0426136363636" y="0" dx="0em" dy="0.95em" style="text-anchor: middle; visibility: inherit; font-family: Roboto, sans-serif; font-size: 12px; font-weight: 200;" fill="rgb(50, 49, 63)" stroke="none" stroke-width="1px">1.8</text><text x="1067.046875" y="0" dx="0em" dy="0.95em" style="text-anchor: middle; visibility: hidden; font-family: Roboto, sans-serif; font-size: 12px; font-weight: 200;" fill="rgb(50, 49, 63)" stroke="none" stroke-width="1px">2</text></g><line x1="0" y1="0" x2="1067.046875" y2="0" fill="rgb(0, 0, 0)" stroke="rgb(204, 204, 204)" stroke-width="1px"></line></g></g></g></g></svg>