<svg viewBox="0 0 1129 400" xmlns="http://www.w3.org/2000/svg"><g><g><g><g><g><line x1="61.953125" y1="378" x2="56.953125" y2="378" style="visibility: inherit;" fill="rgb(0, 0, 0)" stroke="rgb(204, 204, 204)" stroke-width="1px"></line><line x1="61.953125" y1="346.5" x2="56.953125" y2="346.5" style="visibility: inherit;" fill="rgb(0, 0, 0)" stroke="rgb(204, 204, 204)" stroke-width="1px"></line><line x1="61.953125" y1="315" x2="56.953125" y2="315" style="visibility: inherit;" fill="rgb(0, 0, 0)" stroke="rgb(204, 204, 204)" stroke-width="1px"></line><line x1="61.953125" y1="283.5" x2="56.953125" y2="283.5" style="visibility: inherit;" fill="rgb(0, 0, 0)" stroke="rgb(204, 204, 204)" stroke-width="1px"></line><line x1="61.953125" y1="252.00000000000003" x2="56.953125" y2="252.00000000000003" style="visibility: inherit;" fill="rgb(0, 0, 0)" stroke="rgb(204, 204, 204)" stroke-width="1px"></line><line x1="61.953125" y1="220.5" x2="56.953125" y2="220.5" style="visibility: inherit;" fill="rgb(0, 0, 0)" stroke="rgb(204, 204, 204)" stroke-width="1px"></line><line x1="61.953125" y1="189.00000000000003" x2="56.953125" y2="189.00000000000003" style="visibility: inherit;" fill="rgb(0, 0, 0)" stroke="rgb(204, 204, 204)" stroke-width="1px"></line><line x1="61.953125" y1="157.50000000000003" x2="56.953125" y2="157.50000000000003" style="visibility: inherit;" fill="rgb(0, 0, 0)" stroke="rgb(204, 204, 204)" stroke-width="1px"></line><line x1="61.953125" y1="126.00000000000006" x2="56.953125" y2="126.00000000000006" style="visibility: inherit;" fill="rgb(0, 0, 0)" stroke="rgb(204, 204, 204)" stroke-width="1px"></line><line x1="61.953125" y1="94.50000000000004" x2="56.953125" y2="94.50000000000004" style="visibility: inherit;" fill="rgb(0, 0, 0)" stroke="rgb(204, 204, 204)" stroke-width="1px"></line><line x1="61.953125" y1="63.00000000000003" x2="56.953125" y2="63.00000000000003" style="visibility: inherit;" fill="rgb(0, 0, 0)" stroke="rgb(204, 204, 204)" stroke-width="1px"></line><line x1="61.953125" y1="31.500000000000014" x2="56.953125" y2="31.500000000000014" style="visibility: inherit;" fill="rgb(0, 0, 0)" stroke="rgb(204, 204, 204)" stroke-width="1px"></line><line x1="61.953125" y1="0" x2="56.953125" y2="0" style="visibility: inherit;" fill="rgb(0, 0, 0)" stroke="rgb(204, 204, 204)" stroke-width="1px"></line></g><g transform="translate(51.953125, 0)"><text x="0" y="378" dx="0em" dy="0.3em" style="text-anchor: end; visibility: hidden; font-family: Roboto, sans-serif; font-size: 12px; font-weight: 200;" fill="rgb(50, 49, 63)" stroke="none" stroke-width="1px">-0.05</text><text x="0" y="346.5" dx="0em" dy="0.3em" style="text-anchor: end; visibility: inherit; font-family: Roboto, sans-serif; font-size: 12px; font-weight: 200;" fill="rgb(50, 49, 63)" stroke="none" stroke-width="1px">0</text><text x="0" y="315" dx="0em" dy="0.3em" style="text-anchor: end; visibility: inherit; font-family: Roboto, sans-serif; font-size: 12px; font-weight: 200;" fill="rgb(50, 49, 63)" stroke="none" stroke-width="1px">0.05</text><text x="0" y="283.5" dx="0em" dy="0.3em" style="text-anchor: end; visibility: inherit; font-family: Roboto, sans-serif; font-size: 12px; font-weight: 200;" fill="rgb(50, 49, 63)" stroke="none" stroke-width="1px">0.1</text><text x="0" y="252.00000000000003" dx="0em" dy="0.3em" style="text-anchor: end; visibility: inherit; font-family: Roboto, sans-serif; font-size: 12px; font-weight: 200;" fill="rgb(50, 49, 63)" stroke="none" stroke-width="1px">0.15</text><text x="0" y="220.5" dx="0em" dy="0.3em" style="text-anchor: end; visibility: inherit; font-family: Roboto, sans-serif; font-size: 12px; font-weight: 200;" fill="rgb(50, 49, 63)" stroke="none" stroke-width="1px">0.2</text><text x="0" y="189.00000000000003" dx="0em" dy="0.3em" style="text-anchor: end; visibility: inherit; font-family: Roboto, sans-serif; font-size: 12px; font-weight: 200;" fill="rgb(50, 49, 63)" stroke="none" stroke-width="1px">0.25</text><text x="0" y="157.50000000000003" dx="0em" dy="0.3em" style="text-anchor: end; visibility: inherit; font-family: Roboto, sans-serif; font-size: 12px; font-weight: 200;" fill="rgb(50, 49, 63)" stroke="none" stroke-width="1px">0.3</text><text x="0" y="126.00000000000006" dx="0em" dy="0.3em" style="text-anchor: end; visibility: inherit; font-family: Roboto, sans-serif; font-size: 12px; font-weight: 200;" fill="rgb(50, 49, 63)" stroke="none" stroke-width="1px">0.35</text><text x="0" y="94.50000000000004" dx="0em" dy="0.3em" style="text-anchor: end; visibility: inherit; font-family: Roboto, sans-serif; font-size: 12px; font-weight: 200;" fill="rgb(50, 49, 63)" stroke="none" stroke-width="1px">0.4</text><text x="0" y="63.00000000000003" dx="0em" dy="0.3em" style="text-anchor: end; visibility: inherit; font-family: Roboto, sans-serif; font-size: 12px; font-weight: 200;" fill="rgb(50, 49, 63)" stroke="none" stroke-width="1px">0.45</text><text x="0" y="31.500000000000014" dx="0em" dy="0.3em" style="text-anchor: end; visibility: inherit; font-family: Roboto, sans-serif; font-size: 12px; font-weight: 200;" fill="rgb(50, 49, 63)" stroke="none" stroke-width="1px">0.5</text><text x="0" y="0" dx="0em" dy="0.3em" style="text-anchor: end; visibility: hidden; font-family: Roboto, sans-serif; font-size: 12px; font-weight: 200;" fill="rgb(50, 49, 63)" stroke="none" stroke-width="1px">0.55</text></g><line x1="61.953125" y1="0" x2="61.953125" y2="378" fill="rgb(0, 0, 0)" stroke="rgb(204, 204, 204)" stroke-width="1px"></line></g></g><g transform="translate(61, 0)" clip-path="url(#clip_0)"><clipPath id="clip_0"><rect width="1067" height="378"></rect></clipPath><g><g><g><line x1="0" y1="0" x2="0" y2="378" fill="rgb(0, 0, 0)" stroke="rgb(60, 60, 60)" stroke-width="1px" opacity="0.25"></line><line x1="97.00426136363636" y1="0" x2="97.00426136363636" y2="378" fill="rgb(0, 0, 0)" stroke="rgb(60, 60, 60)" stroke-width="1px" opacity="0.25"></line><line x1="194.00852272727272" y1="0" x2="194.00852272727272" y2="378" fill="rgb(0, 0, 0)" stroke="rgb(60, 60, 60)" stroke-width="1px" opacity="0.25"></line><line x1="291.01278409090907" y1="0" x2="291.01278409090907" y2="378" fill="rgb(0, 0, 0)" stroke="rgb(60, 60, 60)" stroke-width="1px" opacity="0.25"></line><line x1="388.01704545454544" y1="0" x2="388.01704545454544" y2="378" fill="rgb(0, 0, 0)" stroke="rgb(60, 60, 60)" stroke-width="1px" opacity="0.25"></line><line x1="485.0213068181818" y1="0" x2="485.0213068181818" y2="378" fill="rgb(0, 0, 0)" stroke="rgb(60, 60, 60)" stroke-width="1px" opacity="0.25"></line><line x1="582.0255681818181" y1="0" x2="582.0255681818181" y2="378" fill="rgb(0, 0, 0)" stroke="rgb(60, 60, 60)" stroke-width="1px" opacity="0.25"></line><line x1="679.0298295454545" y1="0" x2="679.0298295454545" y2="378" fill="rgb(0, 0, 0)" stroke="rgb(60, 60, 60)" stroke-width="1px" opacity="0.25"></line><line x1="776.0340909090909" y1="0" x2="776.0340909090909" y2="378" fill="rgb(0, 0, 0)" stroke="rgb(60, 60, 60)" stroke-width="1px" opacity="0.25"></line><line x1="873.0383522727274" y1="0" x2="873.0383522727274" y2="378" fill="rgb(0, 0, 0)" stroke="rgb(60, 60, 60)" stroke-width="1px" opacity="0.25"></line><line x1="970.0426136363636" y1="0" x2="970.0426136363636" y2="378" fill="rgb(0, 0, 0)" stroke="rgb(60, 60, 60)" stroke-width="1px" opacity="0.25"></line><line x1="1067.046875" y1="0" x2="1067.046875" y2="378" fill="rgb(0, 0, 0)" stroke="rgb(60, 60, 60)" stroke-width="1px" opacity="0.25"></line></g><g><line x1="0" y1="378" x2="1067.046875" y2="378" fill="rgb(0, 0, 0)" stroke="rgb(60, 60, 60)" stroke-width="1px" opacity="0.25"></line><line x1="0" y1="346.5" x2="1067.046875" y2="346.5" fill="rgb(0, 0, 0)" stroke="rgb(60, 60, 60)" stroke-width="1px" opacity="0.25"></line><line x1="0" y1="315" x2="1067.046875" y2="315" fill="rgb(0, 0, 0)" stroke="rgb(60, 60, 60)" stroke-width="1px" opacity="0.25"></line><line x1="0" y1="283.5" x2="1067.046875" y2="283.5" fill="rgb(0, 0, 0)" stroke="rgb(60, 60, 60)" stroke-width="1px" opacity="0.25"></line><line x1="0" y1="252.00000000000003" x2="1067.046875" y2="252.00000000000003" fill="rgb(0, 0, 0)" stroke="rgb(60, 60, 60)" stroke-width="1px" opacity="0.25"></line><line x1="0" y1="220.5" x2="1067.046875" y2="220.5" fill="rgb(0, 0, 0)" stroke="rgb(60, 60, 60)" stroke-width="1px" opacity="0.25"></line><line x1="0" y1="189.00000000000003" x2="1067.046875" y2="189.00000000000003" fill="rgb(0, 0, 0)" stroke="rgb(60, 60, 60)" stroke-width="1px" opacity="0.25"></line><line x1="0" y1="157.50000000000003" x2="1067.046875" y2="157.50000000000003" fill="rgb(0, 0, 0)" stroke="rgb(60, 60, 60)" stroke-width="1px" opacity="0.25"></line><line x1="0" y1="126.00000000000006" x2="1067.046875" y2="126.00000000000006" fill="rgb(0, 0, 0)" stroke="rgb(60, 60, 60)" stroke-width="1px" opacity="0.25"></line><line x1="0" y1="94.50000000000004" x2="1067.046875" y2="94.50000000000004" fill="rgb(0, 0, 0)" stroke="rgb(60, 60, 60)" stroke-width="1px" opacity="0.25"></line><line x1="0" y1="63.00000000000003" x2="1067.046875" y2="63.00000000000003" fill="rgb(0, 0, 0)" stroke="rgb(60, 60, 60)" stroke-width="1px" opacity="0.25"></line><line x1="0" y1="31.500000000000014" x2="1067.046875" y2="31.500000000000014" fill="rgb(0, 0, 0)" stroke="rgb(60, 60, 60)" stroke-width="1px" opacity="0.25"></line><line x1="0" y1="0" x2="1067.046875" y2="0" fill="rgb(0, 0, 0)" stroke="rgb(60, 60, 60)" stroke-width="1px" opacity="0.25"></line></g></g></g><g><g><line x1="0" y1="346.5" x2="1067.046875" y2="346.5" fill="rgb(0, 0, 0)" stroke="rgb(153, 153, 153)" stroke-width="1.5px"></line></g></g><g><g><line x1="97.00426136363636" y1="0" x2="97.00426136363636" y2="378" fill="rgb(0, 0, 0)" stroke="rgb(153, 153, 153)" stroke-width="1.5px"></line></g></g><g><g><g><g><g><path stroke="rgb(255, 112, 67)" stroke-width="2px" d="M97.00426136363636,47.473675847053556L97.00426136363636,66.42421380485598L97.00426136363636,66.41878438170548L97.00426136363636,78.05718360646614L97.00426136363636,75.48690196481685L97.00426136363636,81.4812943292536L97.00426136363636,85.51263730550642L97.00426136363636,89.90893520612899L97.00426136363636,94.09729783290355L97.00426136363636,92.40475616597945L97.00426136363636,95.45399575006999L97.00426136363636,97.93215087044457L97.00426136363636,100.7850821292994L97.00426136363636,100.01401510975867L97.00426136363636,103.38133040232377L97.00426136363636,107.21522588069855L97.00426136363636,110.43038039997694L97.00426136363636,113.59566205902811L97.00426136363636,114.17065164282022L97.00426136363636,114.67817342793468L97.00426136363636,115.34767070511019L97.00426136363636,115.17828510947932L97.00426136363636,116.41762437680164L97.00426136363636,116.82287861361097L97.00426136363636,118.18158009870498L97.00426136363636,119.25102085379355L97.00426136363636,120.75602230901141L97.00426136363636,119.98852294618173L97.00426136363636,122.47895145536141L97.00426136363636,123.65028391066642L97.00426136363636,124.72911578149824L97.00426136363636,125.06456614712525L97.00426136363636,125.61653316016454L97.00426136363636,126.41193501494637L97.00426136363636,127.40365501406293L97.00426136363636,128.7499615367262L97.00426136363636,129.4190194059991L97.00426136363636,130.3947384996068L97.00426136363636,131.2271583205073L97.00426136363636,132.92084748262917L97.00426136363636,133.84107432001807L97.00426136363636,134.8723557343086L97.00426136363636,135.01078337352027L97.00426136363636,135.1388059408862L97.00426136363636,135.7447674928642L97.00426136363636,136.4979667668112L97.00426136363636,136.7537056346639L97.00426136363636,138.04742587647388L97.00426136363636,138.47302842920968L97.00426136363636,138.76943606711563L97.00426136363636,140.41989324225716L97.00426136363636,140.63947986321605L97.00426136363636,141.2444091188946L145.50639204545453,141.20160671661003L145.50639204545453,141.6512397415891L145.50639204545453,142.40499984741953L145.50639204545453,143.4990573161048L145.50639204545453,144.13871489739233L145.50639204545453,144.67472450260004L145.50639204545453,145.50016450624256L145.50639204545453,146.44867833189682L145.50639204545453,147.21022311042398L145.50639204545453,147.64872345289987L145.50639204545453,148.07462138138584L145.50639204545453,148.46622276515393L145.50639204545453,148.82196658482982L145.50639204545453,148.9615084655215L145.50639204545453,149.75686204698872L145.50639204545453,150.14140504204244L145.50639204545453,150.41747842958165L145.50639204545453,150.5312726188173L145.50639204545453,150.9076799652446L145.50639204545453,150.98270096348986L145.50639204545453,151.4767026379955L145.50639204545453,151.84285159257038L145.50639204545453,152.07213091685716L145.50639204545453,152.39909217647832L145.50639204545453,152.86158931209718L145.50639204545453,153.28985110040003L145.50639204545453,153.7079100106803L145.50639204545453,154.61910114401633L145.50639204545453,154.7372708050906L145.50639204545453,155.14775259888336L145.50639204545453,155.44567504903546L145.50639204545453,155.2869883657805L145.50639204545453,155.92926901342736L145.50639204545453,156.45441987336446L145.50639204545453,156.7194756152179L145.50639204545453,157.08070233983506L145.50639204545453,157.2476509182757L145.50639204545453,157.56647421571608L145.50639204545453,157.95164632079914L145.50639204545453,158.3683060581715L145.50639204545453,158.70166170423903L145.50639204545453,159.0997559359643L145.50639204545453,159.78798367505607L145.50639204545453,160.3040297251764L145.50639204545453,160.4835047983115L145.50639204545453,160.24869087134985L145.50639204545453,160.36673019554345L145.50639204545453,160.8301755502912L145.50639204545453,161.07065833187517L145.50639204545453,161.0068681802586L145.50639204545453,161.1909244580768L145.50639204545453,161.11953228686315L145.50639204545453,161.21078041187099L145.50639204545453,161.27043208435165L145.50639204545453,161.65470268880006L145.50639204545453,162.03345677268396L145.50639204545453,162.31519026458616L145.50639204545453,162.62808750527648L194.00852272727272,162.89692200438085L194.00852272727272,163.11398673618052L194.00852272727272,163.46759960898876L194.00852272727272,163.93732671314638L194.00852272727272,163.99451270135145L194.00852272727272,164.44788543524263L194.00852272727272,164.9640120297151L194.00852272727272,165.63682543031933L194.00852272727272,166.05701295471897L194.00852272727272,166.26708309980208L194.00852272727272,166.538561527757L194.00852272727272,166.6646740837691L194.00852272727272,166.95788308216908L194.00852272727272,166.8705869692149L194.00852272727272,166.958044790953L194.00852272727272,167.1313281403039L194.00852272727272,167.42702694962898L194.00852272727272,167.69084319374053L194.00852272727272,167.72949955786777L194.00852272727272,167.9877408975624L194.00852272727272,168.02328587606064L194.00852272727272,168.38410668718987L194.00852272727272,168.4739113715798L194.00852272727272,168.5675093898698L194.00852272727272,168.6996110149849L194.00852272727272,168.7960399167218L194.00852272727272,168.88300782339425L194.00852272727272,168.7627498667691L194.00852272727272,168.87906935910956L194.00852272727272,169.19500160172186L194.00852272727272,169.5098546847054L194.00852272727272,169.77215941475174L194.00852272727272,169.84880452384374L194.00852272727272,170.2126290297236L194.00852272727272,170.02265409543833L194.00852272727272,169.95202291659987L194.00852272727272,170.1940390838177L194.00852272727272,170.32871343394496L194.00852272727272,170.28357408967423L194.00852272727272,170.5260463675092L194.00852272727272,170.38129530698606L194.00852272727272,170.7227204022838L194.00852272727272,170.67524124665493L194.00852272727272,171.14619887511657L194.00852272727272,171.3461180042784L194.00852272727272,171.24631353034425L242.5106534090909,171.6782859638005L242.5106534090909,171.81153305777664L242.5106534090909,171.9033997207124L242.5106534090909,171.98140794868502L242.5106534090909,172.12428687677127L242.5106534090909,172.34900054660304L242.5106534090909,172.35881125388315L242.5106534090909,172.5539717503031L242.5106534090909,172.58028552088294L242.5106534090909,172.76922272315014L242.5106534090909,172.8893305046749L242.5106534090909,173.05743595647522L242.5106534090909,173.19769666243243L242.5106534090909,173.21472890825348L242.5106534090909,173.51081621714212L242.5106534090909,173.35403865420642L242.5106534090909,173.49653828872135L242.5106534090909,173.70769346121978L242.5106534090909,173.92485635150075L242.5106534090909,174.06662006543306L242.5106534090909,174.40635082011522L242.5106534090909,174.4825563382378L242.5106534090909,174.3992743804657L242.5106534090909,174.5862332029632L242.5106534090909,174.79277440283806L242.5106534090909,175.04817384494868L242.5106534090909,175.12365191171224L242.5106534090909,175.41265832136597L242.5106534090909,175.443109015256L242.5106534090909,175.65070050498778L242.5106534090909,175.77907737719087L242.5106534090909,175.9242285150538L242.5106534090909,176.07897701927092L242.5106534090909,176.02693833775018L242.5106534090909,175.95776070504937L242.5106534090909,176.12248497183427L242.5106534090909,176.23861994335525L242.5106534090909,176.52452857845157L242.5106534090909,176.56616353770247L242.5106534090909,176.80986689282057L242.5106534090909,176.7788949584705L242.5106534090909,176.7310431279098L242.5106534090909,176.9373815940091L242.5106534090909,177.1403581001668L291.01278409090907,176.93051987136653L291.01278409090907,177.0395293166075L291.01278409090907,177.39437504009516L291.01278409090907,177.49278062530433L291.01278409090907,177.72982222765899L291.01278409090907,177.98009077320617L291.01278409090907,178.17921851971724L291.01278409090907,178.1051777937211L291.01278409090907,178.32535144707558L291.01278409090907,178.31807261702608L291.01278409090907,178.4166116610667L291.01278409090907,178.48907586473362L291.01278409090907,178.51537126307034L291.01278409090907,178.50721849336347L291.01278409090907,178.52776341285247L291.01278409090907,178.7541254450843L291.01278409090907,178.86023888730455L291.01278409090907,178.8307328737891L291.01278409090907,179.00947489416455L291.01278409090907,179.25733097495856L291.01278409090907,179.3609838896759L291.01278409090907,179.38723944483897L291.01278409090907,179.2651412501872L291.01278409090907,179.18208197839036L291.01278409090907,179.15283239421277L291.01278409090907,179.53925624852425L291.01278409090907,179.5758455656983L291.01278409090907,179.54709367839754L291.01278409090907,179.64442006278875L291.01278409090907,179.68687839978443L291.01278409090907,179.70465377985028L291.01278409090907,179.603423462873L291.01278409090907,179.587802560299L291.01278409090907,179.66804984188164L291.01278409090907,179.65497181558968L291.01278409090907,179.71190337872198L291.01278409090907,179.94933976442667L291.01278409090907,180.0177445288662L291.01278409090907,180.13049347645006L291.01278409090907,180.33301465715178L291.01278409090907,180.38001662953866L291.01278409090907,180.49222173186484L291.01278409090907,180.5370245457795L291.01278409090907,180.3418775458267L291.01278409090907,180.4046352334736L291.01278409090907,180.54378062369977L291.01278409090907,180.66731851905496L291.01278409090907,180.6153124837925L339.51491477272725,180.5791652098849L339.51491477272725,180.80311407928542L339.51491477272725,180.73348726766207L339.51491477272725,180.83931617356805L339.51491477272725,180.93961706026212L339.51491477272725,181.08134798007904L339.51491477272725,181.25173048266598L339.51491477272725,181.31907001205357L339.51491477272725,181.4648896787398L339.51491477272725,181.5117210073503L339.51491477272725,181.49728617723787L339.51491477272725,181.66123954793082L339.51491477272725,181.81550067395642L339.51491477272725,181.92615556052817L339.51491477272725,182.1077677384573L339.51491477272725,182.2147174055025L339.51491477272725,182.09947213886682L339.51491477272725,182.083816846126L339.51491477272725,182.11710889638513L339.51491477272725,182.06164397378177L339.51491477272725,182.00811813077576L339.51491477272725,182.11285645642383L339.51491477272725,182.2144435208001L339.51491477272725,182.42679135989312L339.51491477272725,182.55647962492006L339.51491477272725,182.66103741042954L339.51491477272725,182.66035916041233L339.51491477272725,182.79417660341684L339.51491477272725,182.9132569958811L339.51491477272725,182.94212379086144L339.51491477272725,182.91148148831482L339.51491477272725,183.1323731781928L339.51491477272725,183.10630309928644L339.51491477272725,183.18074138840512L339.51491477272725,183.35073013242385L339.51491477272725,183.3478399293865L339.51491477272725,183.3756332203849L339.51491477272725,183.48302481510618L339.51491477272725,183.4726150757198L339.51491477272725,183.4828870115331L339.51491477272725,183.6195001354905L339.51491477272725,183.7507038809097L339.51491477272725,183.8833762984326L339.51491477272725,183.99854281113414L339.51491477272725,184.07800391037247L339.51491477272725,184.210365265829L339.51491477272725,184.3267386293525L339.51491477272725,184.42808311511598L339.51491477272725,184.41592690727L339.51491477272725,184.43085339126262L339.51491477272725,184.52385182711262L388.01704545454544,184.58947578543723L388.01704545454544,184.57689710957956L388.01704545454544,184.67915110467246L388.01704545454544,184.79878070328698L388.01704545454544,184.94495168045233L388.01704545454544,185.10025110008962L388.01704545454544,185.16075648482754L388.01704545454544,185.18918475204805L388.01704545454544,185.2155852720422L388.01704545454544,185.36709140882937L388.01704545454544,185.4504067039102L388.01704545454544,185.51580266477387L388.01704545454544,185.6660341686281L388.01704545454544,185.6334461318097L388.01704545454544,185.61618000410868L388.01704545454544,185.68965914625682L388.01704545454544,185.7576668924246L388.01704545454544,185.8447899839727L388.01704545454544,185.95153643929459L388.01704545454544,186.06277872664197L388.01704545454544,186.1945387846325L388.01704545454544,186.4307846769446L388.01704545454544,186.4078388783335L388.01704545454544,186.479899213095L388.01704545454544,186.4755612975445L388.01704545454544,186.57570510267848L388.01704545454544,186.6275568660782L388.01704545454544,186.72708485402742L388.01704545454544,186.80714105169307L388.01704545454544,186.85096711129617L388.01704545454544,186.9360333657065L388.01704545454544,186.93220674725566L388.01704545454544,187.0942816334323L388.01704545454544,187.16614586589048L388.01704545454544,187.2307705448349L388.01704545454544,187.2359755084094L388.01704545454544,187.3651142163992L388.01704545454544,187.36869685661657L388.01704545454544,187.33818080350093L388.01704545454544,187.38044265341344L388.01704545454544,187.43594800822382L388.01704545454544,187.49546829996086L388.01704545454544,187.39659071995095L388.01704545454544,187.3867915384622L388.01704545454544,187.52715812948503L388.01704545454544,187.4695916128649L388.01704545454544,187.40864711770817L388.01704545454544,187.53704315677012L436.5191761363637,187.65138723386244L436.5191761363637,187.72185629928694L436.5191761363637,187.74274109277584L436.5191761363637,187.71652660664324L436.5191761363637,187.82912737633444L436.5191761363637,187.82042333873784L436.5191761363637,187.9600209231966L436.5191761363637,188.0406086796455L436.5191761363637,188.19312507442194L436.5191761363637,188.28941710204302L436.5191761363637,188.30938730122588L436.5191761363637,188.3933444882677L436.5191761363637,188.4047702683475L436.5191761363637,188.5356183594178L436.5191761363637,188.53120639104654L436.5191761363637,188.6612556067556L436.5191761363637,188.82345527491972L436.5191761363637,188.86707434799064L436.5191761363637,188.86519310602984L436.5191761363637,188.82067710672854L436.5191761363637,188.88605173349535L436.5191761363637,189.00132432216205L436.5191761363637,189.06869214232967L436.5191761363637,189.18396350004866L436.5191761363637,189.2482066898481L436.5191761363637,189.4447036722473L436.5191761363637,189.4838373057272L436.5191761363637,189.37750279962628L436.5191761363637,189.28071094678344L436.5191761363637,189.38153318523058L436.5191761363637,189.39688864631364L436.5191761363637,189.55075366414007L436.5191761363637,189.57121618022285L436.5191761363637,189.68383997633737L436.5191761363637,189.68051962354937L436.5191761363637,189.79455745079596L436.5191761363637,189.9733827552776L436.5191761363637,189.96008176064393L436.5191761363637,190.00144007730944L436.5191761363637,190.0695389584424L436.5191761363637,190.15976398037935L436.5191761363637,190.11039878852225L436.5191761363637,190.00526750936524L436.5191761363637,190.07110594289716L436.5191761363637,190.11492242513216L436.5191761363637,190.16486635729396L436.5191761363637,190.21840580204906L436.5191761363637,190.25078943179943L436.5191761363637,190.26956436174694L436.5191761363637,190.35346834307293L436.5191761363637,190.37112205722158L485.0213068181818,190.37745196790115L485.0213068181818,190.50998097377243L485.0213068181818,190.59406573007445L485.0213068181818,190.57819138743764L485.0213068181818,190.70042197937417L485.0213068181818,190.61362508574143L485.0213068181818,190.69183880283788L485.0213068181818,190.79358945716515L485.0213068181818,190.90630618282586L485.0213068181818,190.99751444277473L485.0213068181818,190.99523095918047L485.0213068181818,191.03419394418685L485.0213068181818,191.0983499443194L485.0213068181818,191.20224843661686L485.0213068181818,191.16673297034583L485.0213068181818,191.19834608659488L485.0213068181818,191.25211777077902L485.0213068181818,191.3356397533164L485.0213068181818,191.31008211070287L485.0213068181818,191.29518289399945L485.0213068181818,191.32461916434292L485.0213068181818,191.45887302210843L485.0213068181818,191.39414538275878L485.0213068181818,191.3845201100928L485.0213068181818,191.38613961075689L485.0213068181818,191.40031226939348L485.0213068181818,191.50499689622464L485.0213068181818,191.601520468037L485.0213068181818,191.6424590111603L485.0213068181818,191.71635317592646L485.0213068181818,191.71706435226292L485.0213068181818,191.79497632766962L485.0213068181818,191.77743144451279L485.0213068181818,191.78842264242942L485.0213068181818,191.8239895627826L485.0213068181818,191.82232019406516L485.0213068181818,191.93546450169833L485.0213068181818,191.83134394104508L485.0213068181818,191.7912815117149L485.0213068181818,191.88123918292214L485.0213068181818,191.94108647354722L485.0213068181818,191.88536450573045L485.0213068181818,191.89576386127493L485.0213068181818,191.91421747804827L485.0213068181818,191.96552785792596L485.0213068181818,192.03811048694635L485.0213068181818,192.06043176664505L485.0213068181818,192.07787150401543L485.0213068181818,192.1701880507955L485.0213068181818,192.19083694094323L485.0213068181818,192.20792420833246L485.0213068181818,192.24012519008383L485.0213068181818,192.23186288501682L485.0213068181818,192.2824118990749L485.0213068181818,192.34422457874535L485.0213068181818,192.41685543140255L485.0213068181818,192.45283127550798L533.5234375,192.52653394176946L533.5234375,192.57068144733273L533.5234375,192.58573967857785L533.5234375,192.74562257739674L533.5234375,192.84345872434278L533.5234375,192.95406905176802L533.5234375,193.08292811541784L533.5234375,193.1435678058723L533.5234375,193.17816069442407L533.5234375,193.1787530456413L533.5234375,193.1795681854635L533.5234375,193.21249173607106L533.5234375,193.21639056380093L533.5234375,193.20196189574736L533.5234375,193.24759308156894L533.5234375,193.33155772451664L533.5234375,193.3287723556114L533.5234375,193.28015408743536L533.5234375,193.33152588345692L533.5234375,193.3935422894636L533.5234375,193.46999549674842L533.5234375,193.3702719051091L533.5234375,193.35116323266945L533.5234375,193.28373035877118L533.5234375,193.31130993992255L533.5234375,193.3830470166282L533.5234375,193.3378091694636L533.5234375,193.38760105132744L533.5234375,193.38059729733754L533.5234375,193.42681330717136L533.5234375,193.45301988484792L533.5234375,193.43421529269384L533.5234375,193.4182047270192L533.5234375,193.441510356396L533.5234375,193.4209879350722L533.5234375,193.47481430853875L533.5234375,193.5277359173268L533.5234375,193.5661146988684L533.5234375,193.67106659124963L533.5234375,193.81423416016014L533.5234375,193.8494775109849L533.5234375,193.85245804086637L533.5234375,193.91659483921327L533.5234375,193.9081978111541L533.5234375,193.94496762827544L533.5234375,193.9498160296416L533.5234375,194.04451997248876L533.5234375,193.97561152818432L533.5234375,194.02027565594622L533.5234375,194.01731209247222L533.5234375,194.0968379762796L533.5234375,194.04637649202598L533.5234375,194.0211272660931L582.0255681818181,194.06503431403945L582.0255681818181,194.08572815353946L582.0255681818181,194.14536948872924L582.0255681818181,194.16482485109077L582.0255681818181,194.16056292944768L582.0255681818181,194.2381924591981L582.0255681818181,194.29428821409905L582.0255681818181,194.30933229273202L582.0255681818181,194.33450799654835L582.0255681818181,194.4355642163632L582.0255681818181,194.42598668399836L582.0255681818181,194.48800332577835L582.0255681818181,194.56815006705637L582.0255681818181,194.50948609750404L582.0255681818181,194.6432323350702L582.0255681818181,194.68642402337017L582.0255681818181,194.5700633232591L582.0255681818181,194.6599017819017L582.0255681818181,194.65522242235093L582.0255681818181,194.70976982133107L582.0255681818181,194.66566440861575L582.0255681818181,194.74802213131574L582.0255681818181,194.80837707830574L582.0255681818181,194.89348527969403L582.0255681818181,194.85863253082263L582.0255681818181,194.86676567126645L582.0255681818181,194.7737768009007L582.0255681818181,194.85153563722395L582.0255681818181,194.90414784896637L582.0255681818181,194.92698830498546L582.0255681818181,195.01407605083273L582.0255681818181,195.11688825775343L582.0255681818181,195.12245418548935L582.0255681818181,195.1144847104848L582.0255681818181,195.13564259480495L582.0255681818181,195.19768840341192L582.0255681818181,195.21213391117533L582.0255681818181,195.32603868160564L582.0255681818181,195.34504890665977L582.0255681818181,195.3730231159362L582.0255681818181,195.41355753537715L582.0255681818181,195.38725910564048L582.0255681818181,195.41781984917588L582.0255681818181,195.38304154424696L582.0255681818181,195.40939172916305L582.0255681818181,195.49961363345435L582.0255681818181,195.57251929513583L582.0255681818181,195.65346785856835L582.0255681818181,195.66882971517924L582.0255681818181,195.66280823539722L582.0255681818181,195.7027035059675L630.5276988636364,195.74523193801107L630.5276988636364,195.79790639981786L630.5276988636364,195.82905379337237L630.5276988636364,195.8783668550486L630.5276988636364,195.94464258829052L630.5276988636364,195.98918119217677L630.5276988636364,196.0790842915602L630.5276988636364,196.09574383826566L630.5276988636364,196.12011576690298L630.5276988636364,196.13223567691765L630.5276988636364,196.16907403065892L630.5276988636364,196.1767077667071L630.5276988636364,196.2206878608557L630.5276988636364,196.2349329993274L630.5276988636364,196.2196325703394L630.5276988636364,196.2507747718023L630.5276988636364,196.31780088247683L630.5276988636364,196.2485487968352L630.5276988636364,196.26456801101386L630.5276988636364,196.28948381282225L630.5276988636364,196.3262347009345L630.5276988636364,196.38593992697318L630.5276988636364,196.4197383316121L630.5276988636364,196.46557694172455L630.5276988636364,196.51381996309172L630.5276988636364,196.41741426266117L630.5276988636364,196.49687884914803L630.5276988636364,196.4890229720628L630.5276988636364,196.49510531060284L630.5276988636364,196.55960119054072L630.5276988636364,196.55295367936992L630.5276988636364,196.6125539952315L630.5276988636364,196.58707495243874L630.5276988636364,196.6127737756459L630.5276988636364,196.65468511858754L630.5276988636364,196.7043601003747L630.5276988636364,196.69485108210077L630.5276988636364,196.7508698969435L630.5276988636364,196.80588048271173L630.5276988636364,196.82853555273658L630.5276988636364,196.8310395410272L630.5276988636364,196.7736127457318L630.5276988636364,196.7762866310892L679.0298295454545,196.7758096391365L679.0298295454545,196.8302974985333L679.0298295454545,196.86913111096302L679.0298295454545,196.8194250870229L679.0298295454545,196.89976331671477L679.0298295454545,196.9348093838709L679.0298295454545,196.89802326020933L679.0298295454545,196.9965803693319L679.0298295454545,197.0078691276977L679.0298295454545,196.93966957445235L679.0298295454545,196.9985640339698L679.0298295454545,197.08787987014134L679.0298295454545,197.1174787957642L679.0298295454545,197.15152869873324L679.0298295454545,197.1327220335528L679.0298295454545,197.13942832426716L679.0298295454545,197.2119444000149L679.0298295454545,197.21913744932803L679.0298295454545,197.2446754424683L679.0298295454545,197.22745501191147L679.0298295454545,197.19245672892393L679.0298295454545,197.18354718197529L679.0298295454545,197.18640561199413L679.0298295454545,197.22130136994178L679.0298295454545,197.249359836145L679.0298295454545,197.31298546954602L679.0298295454545,197.32532016936247L679.0298295454545,197.408860547089L679.0298295454545,197.36670106977454L679.0298295454545,197.34158937974874L679.0298295454545,197.25332026307544L679.0298295454545,197.2247585533497L679.0298295454545,197.22874503104055L679.0298295454545,197.28083890910605L679.0298295454545,197.3367509080019L679.0298295454545,197.37517370391814L679.0298295454545,197.4304345220514L679.0298295454545,197.42719966944898L679.0298295454545,197.4553767979855L679.0298295454545,197.48051442514682L727.5319602272726,197.53320681651255L727.5319602272726,197.56448451123615L727.5319602272726,197.65625610591323L727.5319602272726,197.65504020028033L727.5319602272726,197.7187369247505L727.5319602272726,197.70695647402277L727.5319602272726,197.7649698938071L727.5319602272726,197.8071762342497L727.5319602272726,197.7932750912493L727.5319602272726,197.8454772823591L727.5319602272726,197.83781374647094L727.5319602272726,197.8376545207259L727.5319602272726,197.84768738840128L727.5319602272726,197.85688825673995L727.5319602272726,197.92408923572177L727.5319602272726,197.927498400585L727.5319602272726,197.94667088563497L727.5319602272726,197.99143154415043L727.5319602272726,198.06356227402833L727.5319602272726,198.11574245940838L727.5319602272726,198.19409006545047L727.5319602272726,198.1313871428736L727.5319602272726,198.22374983048306L727.5319602272726,198.22889042499747L727.5319602272726,198.3327256358648L727.5319602272726,198.3355479016763L727.5319602272726,198.34418320809732L727.5319602272726,198.32838697509038L727.5319602272726,198.41149641744502L727.5319602272726,198.39505121010717L727.5319602272726,198.3766692865655L727.5319602272726,198.430010306L727.5319602272726,198.4533920297989L727.5319602272726,198.4377318378117L727.5319602272726,198.46049764162464L727.5319602272726,198.50384640338382L727.5319602272726,198.4798584119085L727.5319602272726,198.43881408285063L727.5319602272726,198.45595904026868L727.5319602272726,198.51491664606493L727.5319602272726,198.53377691350715L727.5319602272726,198.49949523168965L727.5319602272726,198.5212987436874L727.5319602272726,198.4789983611772L727.5319602272726,198.5051859874536L727.5319602272726,198.51493851465824L727.5319602272726,198.4609217171252L727.5319602272726,198.4400159521026L776.0340909090909,198.41139266509552L776.0340909090909,198.44544109871453L776.0340909090909,198.4431979743982L776.0340909090909,198.5160353405925L776.0340909090909,198.6002854975331L776.0340909090909,198.6513368094939L776.0340909090909,198.67073992215268L776.0340909090909,198.78053605212102L776.0340909090909,198.78453453487737L776.0340909090909,198.7590178382733L776.0340909090909,198.75467689639385L776.0340909090909,198.79104297100574L776.0340909090909,198.82370758803157L776.0340909090909,198.85410666317142L776.0340909090909,198.90862728187037L776.0340909090909,198.9378355154276L776.0340909090909,198.94598926182326L776.0340909090909,198.94239697585837L776.0340909090909,198.9099159265396L776.0340909090909,198.95467850242713L776.0340909090909,198.96655519692536L776.0340909090909,198.89822891165352L776.0340909090909,198.94128929220224L776.0340909090909,198.96480632870012L776.0340909090909,198.96664629378344L776.0340909090909,198.9456291099725L776.0340909090909,198.9667731893622L776.0340909090909,198.87274402773238L776.0340909090909,198.8777154164699L776.0340909090909,198.904490426115L776.0340909090909,198.94882880609921L776.0340909090909,198.98265315580363L776.0340909090909,199.01417024035723L776.0340909090909,199.06979116346739L776.0340909090909,199.06796266508596L776.0340909090909,199.06170799825568L776.0340909090909,199.09685516964896L776.0340909090909,199.0920697829077L776.0340909090909,199.09302891186167L776.0340909090909,199.08485987889108L776.0340909090909,199.10757381295062L776.0340909090909,199.17920476905232L776.0340909090909,199.22803507301992L776.0340909090909,199.22968962368446L776.0340909090909,199.24576970341934L776.0340909090909,199.2628968079987L776.0340909090909,199.25539974052026L776.0340909090909,199.29150555301317L776.0340909090909,199.31041531416417L776.0340909090909,199.38533618199477L776.0340909090909,199.4818939020295L776.0340909090909,199.47101992810624L776.0340909090909,199.49446692122478L776.0340909090909,199.5199463510858L776.0340909090909,199.52572503863095L776.0340909090909,199.60269912791512L776.0340909090909,199.60408505930488L776.0340909090909,199.70083416755276L824.5362215909091,199.74800460273542L824.5362215909091,199.79208094353237L824.5362215909091,199.83467317698558L824.5362215909091,199.83003069616944L824.5362215909091,199.80363023690856L824.5362215909091,199.8126756672852L824.5362215909091,199.8559037994034L824.5362215909091,199.8727964907795L824.5362215909091,199.8872692517338L824.5362215909091,199.9034504788221L824.5362215909091,199.98657116225286L824.5362215909091,200.05685206513874L824.5362215909091,200.05406104669535L824.5362215909091,200.08398859678692L824.5362215909091,200.1613514676526L824.5362215909091,200.14743313568954L824.5362215909091,200.19191965390525L824.5362215909091,200.24065069343445L824.5362215909091,200.3017440375066L824.5362215909091,200.3413281362665L824.5362215909091,200.37388670809776L824.5362215909091,200.42719248908088L824.5362215909091,200.38386364357382L824.5362215909091,200.37339161505497L824.5362215909091,200.36034295981597L824.5362215909091,200.3667656420096L824.5362215909091,200.3759622923857L824.5362215909091,200.41974654122424L824.5362215909091,200.44291739794687L824.5362215909091,200.41468739964847L824.5362215909091,200.43453027070834L824.5362215909091,200.44850441005335L824.5362215909091,200.44048228138848L824.5362215909091,200.45791582530265L824.5362215909091,200.52675730291907L824.5362215909091,200.54725931378067L824.5362215909091,200.57388894149778L824.5362215909091,200.5535741146166L824.5362215909091,200.56022148214095L824.5362215909091,200.61545842195136L824.5362215909091,200.6565514733955L824.5362215909091,200.6175031415707L824.5362215909091,200.60079946404332L824.5362215909091,200.62402001767043L824.5362215909091,200.6270099999949L824.5362215909091,200.68662387549298L824.5362215909091,200.65145257307034L824.5362215909091,200.61988458338755L824.5362215909091,200.63315131775383L824.5362215909091,200.66967448022947L824.5362215909091,200.7262074172555L824.5362215909091,200.7997133187799L824.5362215909091,200.778188179889L824.5362215909091,200.79018080562378L873.0383522727274,200.80224335737518L873.0383522727274,200.80254142945572L873.0383522727274,200.8446614849341L873.0383522727274,200.91194571186077L873.0383522727274,200.93109775766712L873.0383522727274,200.90750770091796L873.0383522727274,200.96297969843522L873.0383522727274,200.9725747652456L873.0383522727274,201.02180079446194L873.0383522727274,201.10198816032644L873.0383522727274,201.17376427653932L873.0383522727274,201.24670827433164L873.0383522727274,201.26123673876342L873.0383522727274,201.29459572456392L873.0383522727274,201.29299044404L873.0383522727274,201.3111332369099L873.0383522727274,201.29246469768262L873.0383522727274,201.2860345479793L873.0383522727274,201.23582010494349L873.0383522727274,201.2567153807869L873.0383522727274,201.25185168158072L873.0383522727274,201.25728539936796L873.0383522727274,201.2737495938404L873.0383522727274,201.29504804674363L873.0383522727274,201.2731874258706L873.0383522727274,201.25897817018753L873.0383522727274,201.28566869685898L873.0383522727274,201.274360752281L873.0383522727274,201.37276329358394L873.0383522727274,201.4095589884454L873.0383522727274,201.46324676795788L873.0383522727274,201.4731057405244L873.0383522727274,201.52907482064396L873.0383522727274,201.5329957675746L873.0383522727274,201.62264651744945L873.0383522727274,201.594477590022L873.0383522727274,201.65726859694016L873.0383522727274,201.6573146089098L873.0383522727274,201.6817480271603L873.0383522727274,201.679064294385L873.0383522727274,201.6732922750332L873.0383522727274,201.76254705043598L921.5404829545455,201.78324122370395L921.5404829545455,201.8335027442947L921.5404829545455,201.870053579293L921.5404829545455,201.89586071202953L921.5404829545455,201.9443627116449L921.5404829545455,201.96861944921017L921.5404829545455,201.9560121091244L921.5404829545455,202.03253194570348L921.5404829545455,201.99516105732894L921.5404829545455,201.98353754274163L921.5404829545455,202.00734547239708L921.5404829545455,202.06303645529243L921.5404829545455,202.12170429631368L921.5404829545455,202.1587880556498L921.5404829545455,202.16050348621565L921.5404829545455,202.2292032687706L921.5404829545455,202.2336515504893L921.5404829545455,202.22832750495974L921.5404829545455,202.2706932789135L921.5404829545455,202.22247740439357L921.5404829545455,202.23798574406146L921.5404829545455,202.24787717194363L921.5404829545455,202.2612921983442L921.5404829545455,202.28450840582974L921.5404829545455,202.31706620848306L921.5404829545455,202.35145448762313L921.5404829545455,202.34717234727805L921.5404829545455,202.41800126441424L921.5404829545455,202.46453118812178L921.5404829545455,202.4645352456956L921.5404829545455,202.42851281527786L921.5404829545455,202.39181934565505L921.5404829545455,202.34146351948303L921.5404829545455,202.32588811880015L921.5404829545455,202.36021050649424L921.5404829545455,202.36593142780285L921.5404829545455,202.36964156628468L921.5404829545455,202.35581223694388L921.5404829545455,202.3880043590333L921.5404829545455,202.38424240027044L921.5404829545455,202.3858359491005L921.5404829545455,202.38783235158323L921.5404829545455,202.43070347445263L921.5404829545455,202.44953447434014L921.5404829545455,202.46516598739967L921.5404829545455,202.44587878448917L921.5404829545455,202.48293877641643L921.5404829545455,202.51248586438888L921.5404829545455,202.50158301122772L921.5404829545455,202.55640643255873L921.5404829545455,202.5694304974862L970.0426136363636,202.55987807921775L970.0426136363636,202.53602176001723L970.0426136363636,202.5836205408568L970.0426136363636,202.6267503673504L970.0426136363636,202.69690483014602L970.0426136363636,202.75156757117645L970.0426136363636,202.7581496600439L970.0426136363636,202.76109389131443L970.0426136363636,202.74965720260377L970.0426136363636,202.74115571751648L970.0426136363636,202.76608985488744L970.0426136363636,202.82678067594225L970.0426136363636,202.84273862401471L970.0426136363636,202.83401354045563L970.0426136363636,202.83216356410495L970.0426136363636,202.78983775135237L970.0426136363636,202.75792465605133L970.0426136363636,202.77324239832845L970.0426136363636,202.75338156373817L970.0426136363636,202.69929443562864L970.0426136363636,202.7244708197278L970.0426136363636,202.712041839133L970.0426136363636,202.758376632411L970.0426136363636,202.75363788159964L970.0426136363636,202.7173767089854L970.0426136363636,202.71606717916518L970.0426136363636,202.74541083558947L970.0426136363636,202.77646079373213L970.0426136363636,202.8146641161425L970.0426136363636,202.86672597021473L970.0426136363636,202.82121634073576L970.0426136363636,202.7881174627775L970.0426136363636,202.76378991265997L970.0426136363636,202.76813715887587L970.0426136363636,202.81505861223485L970.0426136363636,202.80921642988235L970.0426136363636,202.83553117249951L970.0426136363636,202.86420242608742L970.0426136363636,202.86132205884078L970.0426136363636,202.84804631233038L970.0426136363636,202.85488425509746L970.0426136363636,202.9218644710569L970.0426136363636,202.8499490689182L970.0426136363636,202.88886202759429L970.0426136363636,202.9087991783367L970.0426136363636,202.89214562661272L970.0426136363636,202.9324135570664L970.0426136363636,202.9416944957418L970.0426136363636,202.93633173077927L970.0426136363636,202.98876926126445L970.0426136363636,203.0031504703097L970.0426136363636,202.9678090496345L970.0426136363636,202.98162783333524L970.0426136363636,202.98031904386093L970.0426136363636,202.9793170051504L970.0426136363636,202.94364191266123L970.0426136363636,202.96228462117287L970.0426136363636,202.96949944662225L1018.5447443181819,203.0117737779529L1018.5447443181819,203.04719500308062L1018.5447443181819,203.0912731407508L1018.5447443181819,203.09890821339215L1018.5447443181819,203.13503711130087L1018.5447443181819,203.12386044506968L1018.5447443181819,203.14532411256255L1018.5447443181819,203.114835458622L1018.5447443181819,203.1440345271817L1018.5447443181819,203.12970046955343L1018.5447443181819,203.09705375982264L1018.5447443181819,203.11177661315628L1018.5447443181819,203.13795093228015L1018.5447443181819,203.1510768278807L1018.5447443181819,203.18084182582987L1018.5447443181819,203.17573165269113L1018.5447443181819,203.1389725511176L1018.5447443181819,203.18399865988593L1018.5447443181819,203.20442507343623L1018.5447443181819,203.19602769572032L1018.5447443181819,203.1934116123249L1018.5447443181819,203.20388759704403L1018.5447443181819,203.2288081979885L1018.5447443181819,203.22238879321702L1018.5447443181819,203.1965148429074L1018.5447443181819,203.23104082076566L1018.5447443181819,203.2231433745757L1018.5447443181819,203.2429871441313L1018.5447443181819,203.19888932471403L1018.5447443181819,203.17800976933862L1018.5447443181819,203.15940330166862L1018.5447443181819,203.21391417002496L1018.5447443181819,203.25045293777129L1018.5447443181819,203.27367353667088L1018.5447443181819,203.30522422255427L1018.5447443181819,203.32365270774977L1018.5447443181819,203.30537951564025L1018.5447443181819,203.36404162739854L1018.5447443181819,203.34676037427138L1018.5447443181819,203.2651630805438L1018.5447443181819,203.2891120368605L1018.5447443181819,203.26802867313648L1018.5447443181819,203.27207835595726L1018.5447443181819,203.35213288749256L1018.5447443181819,203.35528165897736L1018.5447443181819,203.36157719272583" style="fill: none;" fill="none"></path></g></g></g></g><g opacity="0.2"><g><g><g><path stroke="rgb(255, 112, 67)" stroke-width="2px" d="M97.00426136363636,47.473675847053556L97.00426136363636,85.35580122470861L97.00426136363636,66.40794181823736L97.00426136363636,112.9025974273682L97.00426136363636,65.23145252466207L97.00426136363636,111.36346006393435L97.00426136363636,109.61617791652684L97.00426136363636,120.56017005443577L97.00426136363636,127.45376908779147L97.00426136363636,77.24784278869635L97.00426136363636,125.77918553352359L97.00426136363636,125.02884292602545L97.00426136363636,134.7985424995423L97.00426136363636,90.06003105640418L97.00426136363636,150.17170393466955L97.00426136363636,164.26573061943057L97.00426136363636,161.43777036666876L97.00426136363636,166.9237353801728L97.00426136363636,124.42269587516789L97.00426136363636,124.22523432970053L97.00426136363636,128.59790825843817L97.00426136363636,111.66005605459219L97.00426136363636,143.3717193603516L97.00426136363636,126.03269183635717L97.00426136363636,150.38591319322592L97.00426136363636,145.6422361135483L97.00426136363636,159.36218047142032L97.00426136363636,99.55365622043615L97.00426136363636,191.2088769078255L97.00426136363636,157.11411917209628L97.00426136363636,156.59723067283633L97.00426136363636,135.29879593849185L97.00426136363636,142.99102807044986L97.00426136363636,152.21869879961017L97.00426136363636,160.53850078582767L97.00426136363636,175.032050549984L97.00426136363636,153.06466484069827L97.00426136363636,165.8185740709305L97.00426136363636,162.2498279213906L97.00426136363636,197.67022722959524L97.00426136363636,169.90527892112735L97.00426136363636,176.27868497371676L97.00426136363636,140.70143544673925L97.00426136363636,140.52434527874L97.00426136363636,161.81568288803103L97.00426136363636,169.62368452548986L97.00426136363636,148.2453414201737L97.00426136363636,197.4150874614716L97.00426136363636,158.409194290638L97.00426136363636,152.93605291843417L97.00426136363636,220.87238126993182L97.00426136363636,151.55201965570453L97.00426136363636,171.88113355636602L145.50639204545453,138.99328136444097L145.50639204545453,165.2753623723984L145.50639204545453,182.72163534164432L145.50639204545453,203.0517443418503L145.50639204545453,179.56131184101108L145.50639204545453,174.86335301399234L145.50639204545453,192.76794442534452L145.50639204545453,201.6573751866818L145.50639204545453,192.2527551054955L145.50639204545453,173.9965086579323L145.50639204545453,174.06505787372592L145.50639204545453,172.7310236692429L145.50639204545453,171.1982699632645L145.50639204545453,157.86932462453848L145.50639204545453,201.27295696735385L145.50639204545453,175.4080104231835L145.50639204545453,168.814687371254L145.50639204545453,158.2204821109772L145.50639204545453,176.6925712823868L145.50639204545453,156.1916431188584L145.50639204545453,186.23598897457126L145.50639204545453,177.94609630107882L145.50639204545453,168.6304625272751L145.50639204545453,176.31494039297107L145.50639204545453,187.11952471733096L145.50639204545453,185.40802860260015L145.50639204545453,185.4471942186356L145.50639204545453,224.63838243484497L145.50639204545453,163.92683351039892L145.50639204545453,187.44736307859424L145.50639204545453,179.16250222921377L145.50639204545453,142.50846111774447L145.50639204545453,208.23997744917872L145.50639204545453,199.70731803774837L145.50639204545453,178.7931700944901L145.50639204545453,187.49424540996557L145.50639204545453,171.45663911104205L145.50639204545453,184.9928843379021L145.50639204545453,191.43728980422026L145.50639204545453,194.97140461206442L145.50639204545453,188.29032504558566L145.50639204545453,194.79698055982593L145.50639204545453,222.12738955020907L145.50639204545453,207.51607069373134L145.50639204545453,177.06620299816137L145.50639204545453,138.34004545211795L145.50639204545453,171.48696148395544L145.50639204545453,204.9096890687943L145.50639204545453,184.16098111867908L145.50639204545453,154.8243575692177L145.50639204545453,179.19560337066653L145.50639204545453,154.07149904966357L145.50639204545453,170.30119711160663L145.50639204545453,167.2667630910874L145.50639204545453,200.62777572870257L145.50639204545453,200.78700104355815L145.50639204545453,191.39435970783236L145.50639204545453,195.20411708951002L194.00852272727272,191.126114666462L194.00852272727272,186.10110604763034L194.00852272727272,201.23095625638967L194.00852272727272,214.51995679736143L194.00852272727272,170.20356470346456L194.00852272727272,214.07718443870544L194.00852272727272,221.9218921065331L194.00852272727272,240.48399084806445L194.00852272727272,213.17382180690765L194.00852272727272,190.00914359092715L194.00852272727272,197.46149101853374L194.00852272727272,181.14122951030734L194.00852272727272,200.87482327222827L194.00852272727272,156.69550144672397L194.00852272727272,177.22915524244314L194.00852272727272,187.63461077213293L194.00852272727272,202.67520242929461L194.00852272727272,199.37062704563144L194.00852272727272,172.40543836355212L194.00852272727272,199.4517933726311L194.00852272727272,172.38525474071508L194.00852272727272,212.979092091322L194.00852272727272,179.65177202224734L194.00852272727272,180.29937529563907L194.00852272727272,185.37304991483694L194.00852272727272,181.05114483833316L194.00852272727272,180.01154744625094L194.00852272727272,153.26961779594424L194.00852272727272,183.9660167098046L194.00852272727272,210.4468923211098L194.00852272727272,210.89426466822627L194.00852272727272,204.47715872526175L194.00852272727272,180.0559889674187L194.00852272727272,218.9798333644867L194.00852272727272,144.3940057754517L194.00852272727272,160.36246204376224L194.00852272727272,203.26137238740924L194.00852272727272,188.84577834606173L194.00852272727272,164.03824710845953L194.00852272727272,204.2823726832867L194.00852272727272,150.10499471426013L194.00852272727272,218.84179615974432L194.00852272727272,163.94298040866855L194.00852272727272,238.32888686656955L194.00852272727272,200.036029458046L194.00852272727272,156.83823251724246L242.5106534090909,234.40833547711372L242.5106534090909,191.2751355171204L242.5106534090909,185.4008563756943L242.5106534090909,183.5091909170151L242.5106534090909,193.3600568175316L242.5106534090909,205.93877220153814L242.5106534090909,173.833631515503L242.5106534090909,202.05761173367503L242.5106534090909,176.5806131958962L242.5106534090909,201.65225887298587L242.5106534090909,191.35196471214297L242.5106534090909,199.04023522138598L242.5106534090909,194.99518373608592L242.5106534090909,175.8760263919831L242.5106534090909,220.02414339780813L242.5106534090909,148.5933446288109L242.5106534090909,196.12209641933447L242.5106534090909,207.41153830289846L242.5106534090909,208.76991489529613L242.5106534090909,196.93231397867206L242.5106534090909,229.48761516809466L242.5106534090909,186.9016917943955L242.5106534090909,160.75727248191836L242.5106534090909,205.36717200279242L242.5106534090909,208.9700894951821L242.5106534090909,217.52316722273832L242.5106534090909,187.73911499977115L242.5106534090909,223.95782822370532L242.5106534090909,180.5832978487015L242.5106534090909,210.86524718999868L242.5106534090909,197.66261377930644L242.5106534090909,200.787423491478L242.5106534090909,202.7142084538937L242.5106534090909,167.02703797817236L242.5106534090909,163.9365967512131L242.5106534090909,204.88295280933383L242.5106534090909,196.61125355958941L242.5106534090909,226.91467264294624L242.5106534090909,183.93839800357821L242.5106534090909,220.16233080625537L242.5106534090909,171.24385678768164L242.5106534090909,168.14012253284457L242.5106534090909,214.15076547861105L242.5106534090909,213.91357505321508L291.01278409090907,138.74255383014682L291.01278409090907,196.96696409583097L291.01278409090907,242.55145096778872L291.01278409090907,195.64233639836317L291.01278409090907,221.64196872711184L291.01278409090907,224.54619491100317L291.01278409090907,215.3917109370232L291.01278409090907,164.20850300788882L291.01278409090907,219.82828715443614L291.01278409090907,176.94010698795321L291.01278409090907,197.15096363425258L291.01278409090907,192.32466512918475L291.01278409090907,183.5571997761727L291.01278409090907,176.93744087219244L291.01278409090907,182.5001599788666L291.01278409090907,222.70399340987206L291.01278409090907,199.54835557937625L291.01278409090907,173.05444979667666L291.01278409090907,214.14471039175993L291.01278409090907,228.1771723330021L291.01278409090907,199.90225428342822L291.01278409090907,184.6114232540131L291.01278409090907,154.87304234504705L291.01278409090907,162.52257907390597L291.01278409090907,173.2627823352814L291.01278409090907,257.6624599993229L291.01278409090907,187.00225317478183L291.01278409090907,173.68853473663336L291.01278409090907,199.55329352617267L291.01278409090907,188.4057941436768L291.01278409090907,183.36897575855258L291.01278409090907,158.6549463272095L291.01278409090907,176.3428595066071L291.01278409090907,196.40138143301013L291.01278409090907,176.91757643222812L291.01278409090907,191.67335370182997L291.01278409090907,230.02257505059245L291.01278409090907,194.49761518836027L291.01278409090907,204.0858780741692L291.01278409090907,223.52128931879997L291.01278409090907,190.4402657747269L291.01278409090907,204.59655189514163L291.01278409090907,190.196870058775L291.01278409090907,138.11374479532248L291.01278409090907,194.03397390246394L291.01278409090907,210.87133044004446L291.01278409090907,207.6896122992039L291.01278409090907,169.1990962028504L339.51491477272725,172.61604273319247L339.51491477272725,230.31268411874774L339.51491477272725,165.28655254840857L339.51491477272725,204.4000478982926L339.51491477272725,203.34751421213153L339.51491477272725,212.85492056608206L339.51491477272725,219.5804979801178L339.51491477272725,196.51970440149313L339.51491477272725,214.4936993122101L339.51491477272725,192.15540432929996L339.51491477272725,178.2054417729378L339.51491477272725,219.17699450254446L339.51491477272725,217.23228836059573L339.51491477272725,207.41653257608417L339.51491477272725,224.08340790867808L339.51491477272725,207.01589235663417L339.51491477272725,155.2861776351929L339.51491477272725,178.4294142723084L339.51491477272725,189.9139332175255L339.51491477272725,169.02962887287143L339.51491477272725,169.39081245660785L339.51491477272725,206.88209840655333L339.51491477272725,206.31591492891314L339.51491477272725,232.96794766187674L339.51491477272725,213.52242583036423L339.51491477272725,207.7060126662255L339.51491477272725,182.49738121032718L339.51491477272725,215.05094566941267L339.51491477272725,211.7079087495804L339.51491477272725,189.9442180395127L339.51491477272725,175.45553112030032L339.51491477272725,237.04713293910032L339.51491477272725,176.7234944701195L339.51491477272725,201.46180996298796L339.51491477272725,225.22581034898758L339.51491477272725,182.63369107246402L339.51491477272725,190.26405805349353L339.51491477272725,210.18014931678778L339.51491477272725,180.87698364257815L339.51491477272725,186.0518580079079L339.51491477272725,217.88821855187422L339.51491477272725,216.76066750288012L339.51491477272725,217.36200803518298L339.51491477272725,213.1457149386406L339.51491477272725,204.2478633821011L339.51491477272725,217.9066936075688L339.51491477272725,214.03950208425522L339.51491477272725,210.37900024652484L339.51491477272725,181.29409933090213L339.51491477272725,188.27519202232364L339.51491477272725,208.54469382762912L388.01704545454544,201.58829087018972L388.01704545454544,181.30928868055346L388.01704545454544,211.317632585764L388.01704545454544,216.05217540264135L388.01704545454544,223.24015492200857L388.01704545454544,225.9014641642571L388.01704545454544,201.1016496419907L388.01704545454544,192.69987398386007L388.01704545454544,192.20994704961782L388.01704545454544,225.617241203785L388.01704545454544,207.6456120014191L388.01704545454544,202.98520410060885L388.01704545454544,225.9077351689339L388.01704545454544,176.88043856620794L388.01704545454544,180.9659605622292L388.01704545454544,205.53312832117084L388.01704545454544,204.17312765121463L388.01704545454544,209.49983918666845L388.01704545454544,215.01224005222323L388.01704545454544,216.42827609181404L388.01704545454544,222.25637698173526L388.01704545454544,251.261040955782L388.01704545454544,180.0944598913193L388.01704545454544,206.3589670658112L388.01704545454544,185.2757366895676L388.01704545454544,214.3468376398087L388.01704545454544,201.0441216230393L388.01704545454544,214.47102794051173L388.01704545454544,209.18088161945346L388.01704545454544,199.13080805540088L388.01704545454544,210.8323150277138L388.01704545454544,185.85450911521914L388.01704545454544,232.85599896311766L388.01704545454544,207.50845724344256L388.01704545454544,205.57007843256L388.01704545454544,188.71677213907245L388.01704545454544,224.19696190953258L388.01704545454544,188.3930643796921L388.01704545454544,178.59110856056216L388.01704545454544,199.52441686391833L388.01704545454544,203.42495360970503L388.01704545454544,204.68334147334105L388.01704545454544,158.77315664291385L388.01704545454544,184.54313689470297L388.01704545454544,228.36006411910057L388.01704545454544,170.68262064456945L388.01704545454544,169.5935123562813L388.01704545454544,225.16017132997516L436.5191761363637,221.23767668008804L436.5191761363637,208.47043687105182L436.5191761363637,193.90667626261714L436.5191761363637,179.96113532781604L436.5191761363637,221.2205346822739L436.5191761363637,185.23315393924716L436.5191761363637,229.55327296257025L436.5191761363637,212.10831427574163L436.5191761363637,233.84928667545324L436.5191761363637,217.18204522132876L436.5191761363637,194.31544625759128L436.5191761363637,213.70218211412435L436.5191761363637,191.85703405737883L436.5191761363637,228.16214257478717L436.5191761363637,187.1919980049134L436.5191761363637,228.22682404518127L436.5191761363637,238.2830184102059L436.5191761363637,202.19811791181567L436.5191761363637,188.28893566131595L436.5191761363637,175.15380942821508L436.5191761363637,209.0019702315331L436.5191761363637,224.55064469575888L436.5191761363637,209.89101657271388L436.5191761363637,224.89203894138342L436.5191761363637,209.19335791468623L436.5191761363637,250.5850961208344L436.5191761363637,201.68725633621222L436.5191761363637,156.14511752128607L436.5191761363637,158.96421575546267L436.5191761363637,221.02954128384596L436.5191761363637,194.22747382521635L436.5191761363637,238.05956223607066L436.5191761363637,196.03639581799513L436.5191761363637,225.3445182144642L436.5191761363637,188.62691277265554L436.5191761363637,226.0585209131241L436.5191761363637,246.96150684356695L436.5191761363637,185.71226620674136L436.5191761363637,203.2377716302872L436.5191761363637,211.91016742587092L436.5191761363637,219.15787169337278L436.5191761363637,174.21109342575076L436.5191761363637,156.07392096519476L436.5191761363637,211.36512511968616L436.5191761363637,204.3160183131695L436.5191761363637,206.38560006022456L436.5191761363637,207.64298343658453L436.5191761363637,200.8119536340237L436.5191761363637,196.40520223975184L436.5191761363637,217.82964849472046L436.5191761363637,196.164068967104L485.0213068181818,192.4588158130646L485.0213068181818,234.1762050390244L485.0213068181818,218.35496717691427L485.0213068181818,185.326599419117L485.0213068181818,231.21874102950096L485.0213068181818,161.7833139896393L485.0213068181818,216.72333249449736L485.0213068181818,224.72655200958258L485.0213068181818,228.57137256860733L485.0213068181818,221.53601878881457L485.0213068181818,190.22915446758273L485.0213068181818,204.13157755136493L485.0213068181818,212.706876039505L485.0213068181818,226.26533263921743L485.0213068181818,179.15767693519595L485.0213068181818,201.9087692499161L485.0213068181818,209.5052934587002L485.0213068181818,219.7428494095803L485.0213068181818,182.60066503286367L485.0213068181818,186.20808863639837L485.0213068181818,201.39450931549075L485.0213068181818,237.47413390874866L485.0213068181818,169.16638934612277L485.0213068181818,188.07284885644916L485.0213068181818,191.94440567493442L485.0213068181818,196.2951123118401L485.0213068181818,227.72826978564268L485.0213068181818,225.06390953063968L485.0213068181818,205.86156749725345L485.0213068181818,217.4300315380097L485.0213068181818,191.96500235795978L485.0213068181818,219.008165538311L485.0213068181818,185.63793414831164L485.0213068181818,195.64171680808073L485.0213068181818,204.31610280275348L485.0213068181818,191.23490908741957L485.0213068181818,231.82147094607356L485.0213068181818,155.05910718441012L485.0213068181818,177.6165681481362L485.0213068181818,223.76770788431173L485.0213068181818,213.19317930936816L485.0213068181818,172.062316775322L485.0213068181818,195.60201609134677L485.0213068181818,198.50280636549L485.0213068181818,210.31807386875155L485.0213068181818,218.04580101370811L485.0213068181818,200.072857528925L485.0213068181818,198.34918552637106L485.0213068181818,225.426163315773L485.0213068181818,199.6425520777703L485.0213068181818,198.38523441553122L485.0213068181818,203.90180343389514L485.0213068181818,189.2343834936619L485.0213068181818,210.65323466062551L485.0213068181818,214.8478420972824L485.0213068181818,218.9050694704056L485.0213068181818,205.59591346979147L533.5234375,219.4990875720978L533.5234375,208.75504472851756L533.5234375,198.11557182669645L533.5234375,251.56040632724765L533.5234375,228.89537134766582L533.5234375,233.78291541337967L533.5234375,240.72897309064865L533.5234375,215.6034418344498L533.5234375,206.01250344514852L533.5234375,193.39889386296275L533.5234375,193.48301732540133L533.5234375,205.48945659399038L533.5234375,194.67267760634428L533.5234375,187.80355238914493L533.5234375,210.348771750927L533.5234375,224.85136190056804L533.5234375,192.2814252376557L533.5234375,174.96855193376547L533.5234375,212.71218949556356L533.5234375,216.82857835292822L533.5234375,222.40796068310743L533.5234375,155.5624585747719L533.5234375,186.0947223901749L533.5234375,167.6346119642258L533.5234375,203.81868445873263L533.5234375,220.75804808735853L533.5234375,176.04703330993658L533.5234375,212.44972729682925L533.5234375,190.69499248266226L533.5234375,211.17689171433452L533.5234375,203.53423619270328L533.5234375,186.1888625621796L533.5234375,187.23955625295642L533.5234375,202.44969034194952L533.5234375,185.47601455450064L533.5234375,214.3458894789219L533.5234375,214.08033871650696L533.5234375,208.49430987238887L533.5234375,234.55822938680652L533.5234375,249.6767110526562L533.5234375,207.62251818180087L533.5234375,195.019056737423L533.5234375,219.05912214517596L533.5234375,190.61134779453283L533.5234375,208.40386846661573L533.5234375,195.8592774868012L533.5234375,231.3993891477585L533.5234375,166.7538174390793L533.5234375,211.69149899482733L533.5234375,192.84299933910376L533.5234375,225.65692314505583L533.5234375,173.99020010232928L533.5234375,183.97050404548648L582.0255681818181,211.56891399621966L582.0255681818181,202.3479085564614L582.0255681818181,217.99341747164726L582.0255681818181,201.95585811138156L582.0255681818181,192.45129624009135L582.0255681818181,225.4183527231217L582.0255681818181,216.85884439945224L582.0255681818181,200.3698008656502L582.0255681818181,204.49148440361026L582.0255681818181,235.26623332500463L582.0255681818181,190.55059039592746L582.0255681818181,219.6189125776291L582.0255681818181,227.09348076581955L582.0255681818181,170.66754394769671L582.0255681818181,249.0790223479271L582.0255681818181,212.29135626554492L582.0255681818181,147.07262599468237L582.0255681818181,231.38426551222804L582.0255681818181,192.73962163925174L582.0255681818181,217.07213366031652L582.0255681818181,176.55813896656042L582.0255681818181,228.60853859782225L582.0255681818181,219.65816268324858L582.0255681818181,229.9848457574845L582.0255681818181,180.4678850769997L582.0255681818181,198.22971725463873L582.0255681818181,156.26959884166723L582.0255681818181,227.09485137462622L582.0255681818181,216.75096058845526L582.0255681818181,204.42464375495913L582.0255681818181,231.27821230888372L582.0255681818181,237.98873180150989L582.0255681818181,197.4466396272183L582.0255681818181,191.78200730681425L582.0255681818181,203.99521136283877L582.0255681818181,221.21450775861743L582.0255681818181,201.27774471044543L582.0255681818181,243.22015786170962L582.0255681818181,203.34937298297885L582.0255681818181,207.1678327918053L582.0255681818181,212.5275515913964L582.0255681818181,184.26865839958197L582.0255681818181,208.35607552528387L582.0255681818181,180.63921117782598L582.0255681818181,206.59537830948832L582.0255681818181,233.85178381204608L582.0255681818181,226.6056191325188L582.0255681818181,230.15652859210974L582.0255681818181,202.22537988424304L582.0255681818181,193.08935219049457L582.0255681818181,212.77592280507093L630.5276988636364,213.9696010351181L630.5276988636364,218.40012216567993L630.5276988636364,209.21191745996478L630.5276988636364,217.09441074728971L630.5276988636364,224.49626156687742L630.5276988636364,215.20174080133438L630.5276988636364,234.91149911284447L630.5276988636364,203.30105432868007L630.5276988636364,206.67486423254016L630.5276988636364,201.38786280155185L630.5276988636364,212.16433086991316L630.5276988636364,199.49559652805334L630.5276988636364,215.36655181646347L630.5276988636364,202.44430178403857L630.5276988636364,189.5416533350945L630.5276988636364,209.8605252206326L630.5276988636364,225.64718806743622L630.5276988636364,165.90623670816424L630.5276988636364,203.29225802421573L630.5276988636364,207.23410078883174L630.5276988636364,212.49015086889273L630.5276988636364,222.6791065335274L630.5276988636364,211.3228615522385L630.5276988636364,216.70330846309668L630.5276988636364,217.83999377489093L630.5276988636364,153.74689006805423L630.5276988636364,231.71323978900912L630.5276988636364,193.00316342711454L630.5276988636364,199.19737645983702L630.5276988636364,225.24971151351934L630.5276988636364,193.59221541881564L630.5276988636364,223.19096320867538L630.5276988636364,185.2107548117638L630.5276988636364,208.10142391920095L630.5276988636364,215.41426965594295L630.5276988636364,218.96635258197787L630.5276988636364,192.42811793088916L630.5276988636364,221.91755497455603L630.5276988636364,221.54985630512243L630.5276988636364,207.0313163995743L630.5276988636364,197.96009221673015L630.5276988636364,170.8482953310013L630.5276988636364,197.98487582802775L679.0298295454545,196.55994960665709L679.0298295454545,221.5182478129864L679.0298295454545,214.48548504710203L679.0298295454545,174.24383783340457L679.0298295454545,233.4317203760147L679.0298295454545,212.8902747631073L679.0298295454545,180.13035857677465L679.0298295454545,241.97391772270208L679.0298295454545,202.16571146249774L679.0298295454545,165.74227058887485L679.0298295454545,223.97130900621414L679.0298295454545,238.0414626896382L679.0298295454545,210.7053365707398L679.0298295454545,212.8010631501675L679.0298295454545,188.47892457246783L679.0298295454545,200.22890979051596L679.0298295454545,230.65798366069794L679.0298295454545,200.54060125350955L679.0298295454545,209.05082398653033L679.0298295454545,189.25725200772288L679.0298295454545,180.975291967392L679.0298295454545,193.05035555362704L679.0298295454545,198.51397776603702L679.0298295454545,213.4469766318798L679.0298295454545,210.31084531545642L679.0298295454545,226.96527251601225L679.0298295454545,203.0803956985474L679.0298295454545,236.43127897381785L679.0298295454545,177.6512276530266L679.0298295454545,185.5850061178208L679.0298295454545,155.88135981559756L679.0298295454545,183.82266604900366L679.0298295454545,199.10144323110583L679.0298295454545,221.78016552329066L679.0298295454545,223.66126978397372L679.0298295454545,215.48571029305458L679.0298295454545,223.50671017169955L679.0298295454545,195.899043917656L679.0298295454545,210.78118944168094L679.0298295454545,209.38207948207858L727.5319602272726,222.5084375739098L727.5319602272726,212.40596169233325L727.5319602272726,241.25063055753714L727.5319602272726,197.07680994272235L727.5319602272726,228.04338777065283L727.5319602272726,192.092375099659L727.5319602272726,225.4445632696152L727.5319602272726,217.9668595790863L727.5319602272726,191.14620441198352L727.5319602272726,222.8340416550637L727.5319602272726,194.16538336873057L727.5319602272726,197.7612694501877L727.5319602272726,202.66594612598422L727.5319602272726,202.28035444021228L727.5319602272726,230.2668719887734L727.5319602272726,199.57004123926166L727.5319602272726,207.1939306855202L727.5319602272726,219.60348853468898L727.5319602272726,232.92810612916946L727.5319602272726,223.36405420303345L727.5319602272726,236.14433357119566L727.5319602272726,167.7268933653832L727.5319602272726,243.05767500400543L727.5319602272726,200.72683507204061L727.5319602272726,248.84215110540393L727.5319602272726,199.70985272526744L727.5319602272726,202.5535749793053L727.5319602272726,190.6202285885811L727.5319602272726,239.00925332307818L727.5319602272726,190.35341048240664L727.5319602272726,189.3786072134972L727.5319602272726,224.5679368972779L727.5319602272726,209.9227001667023L727.5319602272726,190.7480613291264L727.5319602272726,209.65082207322126L727.5319602272726,219.8335348963738L727.5319602272726,186.66444504261023L727.5319602272726,178.2014238238335L727.5319602272726,206.918156683445L727.5319602272726,227.64428713917738L727.5319602272726,207.86165186762813L727.5319602272726,181.52723425626758L727.5319602272726,209.32682329416278L727.5319602272726,177.49420845508578L727.5319602272726,211.50977128744128L727.5319602272726,203.3628725409508L727.5319602272726,171.58232206106192L727.5319602272726,188.02688652276996L776.0340909090909,184.13983994722372L776.0340909090909,215.43900632858282L776.0340909090909,197.3225338160992L776.0340909090909,234.9419341385365L776.0340909090909,240.7757427692414L776.0340909090909,224.232963860035L776.0340909090909,208.40323010087016L776.0340909090909,253.90825921297076L776.0340909090909,200.7941263318062L776.0340909090909,185.92195057868963L776.0340909090909,196.56866142153743L776.0340909090909,217.12232047319418L776.0340909090909,215.3053344190121L776.0340909090909,214.20763635635376L776.0340909090909,226.4720504879952L776.0340909090909,213.7187514603138L776.0340909090909,203.07623693346983L776.0340909090909,197.12096983194354L776.0340909090909,182.42479526996615L776.0340909090909,221.69504696130753L776.0340909090909,205.0060071945191L776.0340909090909,164.119920372963L776.0340909090909,220.8802669644356L776.0340909090909,210.95809185504916L776.0340909090909,199.90589672327044L776.0340909090909,188.20668035745624L776.0340909090909,209.7808797061444L776.0340909090909,150.73583149909976L776.0340909090909,201.42516964674002L776.0340909090909,212.63765090703964L776.0340909090909,221.7119636535645L776.0340909090909,216.36435502767566L776.0340909090909,215.22550114989286L776.0340909090909,227.70628371834755L776.0340909090909,198.1256730258465L776.0340909090909,195.83543264865878L776.0340909090909,217.243412822485L776.0340909090909,196.61905476450923L776.0340909090909,199.5891546607018L776.0340909090909,194.85535347461703L776.0340909090909,210.87861531972888L776.0340909090909,236.33495146036148L776.0340909090909,224.58029115200046L776.0340909090909,200.08951136469844L776.0340909090909,207.6098259687424L776.0340909090909,208.1797645390034L776.0340909090909,195.34862244129187L776.0340909090909,218.12376612424853L776.0340909090909,209.18249630928045L776.0340909090909,238.534459412098L776.0340909090909,249.9831359982491L776.0340909090909,193.77858066558844L776.0340909090909,211.77993142604834L776.0340909090909,212.88244539499283L776.0340909090909,202.55905741453174L776.0340909090909,240.04421317577362L776.0340909090909,200.3328976929188L776.0340909090909,250.623567044735L824.5362215909091,224.5978931486607L824.5362215909091,223.03277993202212L824.5362215909091,222.31291928887367L824.5362215909091,197.37775245308882L824.5362215909091,185.8457973003388L824.5362215909091,204.59921801090246L824.5362215909091,222.75111043453217L824.5362215909091,208.82771515846255L824.5362215909091,207.56615424156195L824.5362215909091,208.49638456106192L824.5362215909091,244.16615957021716L824.5362215909091,237.4448066353798L824.5362215909091,198.56799477338794L824.5362215909091,216.03275218605995L824.5362215909091,241.42504522204405L824.5362215909091,192.71721312403682L824.5362215909091,223.96148005127907L824.5362215909091,226.300743162632L824.5362215909091,233.00123655796057L824.5362215909091,221.54660815000537L824.5362215909091,217.8306623697281L824.5362215909091,229.03257304430008L824.5362215909091,177.1123530864716L824.5362215909091,194.7441276311875L824.5362215909091,193.33998584747317L824.5362215909091,203.8252183198929L824.5362215909091,205.33236229419714L824.5362215909091,224.03676965832713L824.5362215909091,212.95182073116305L824.5362215909091,185.16161942481997L824.5362215909091,211.1650162339211L824.5362215909091,208.01174291968348L824.5362215909091,196.0949846506119L824.5362215909091,209.90944468975073L824.5362215909091,237.88035044074059L824.5362215909091,211.6810692250729L824.5362215909091,215.047500371933L824.5362215909091,189.50290077924734L824.5362215909091,204.17922028899198L824.5362215909091,230.71298637986183L824.5362215909091,223.06601250171664L824.5362215909091,179.30538350343707L824.5362215909091,191.47655868530276L824.5362215909091,213.31856185197833L824.5362215909091,202.26296836137777L824.5362215909091,233.331083893776L824.5362215909091,181.37582892179492L824.5362215909091,183.30482000112536L824.5362215909091,207.9159411191941L824.5362215909091,220.7355456948281L824.5362215909091,231.81089097261435L824.5362215909091,241.2500109672547L824.5362215909091,188.9232459068299L824.5362215909091,207.40047955513003L873.0383522727274,207.45648676157003L873.0383522727274,200.96710467338565L873.0383522727274,224.11763557791716L873.0383522727274,238.11914616823196L873.0383522727274,211.53044307231906L873.0383522727274,187.84151637554172L873.0383522727274,231.71233856678012L873.0383522727274,206.29559987783438L873.0383522727274,228.35263842344287L873.0383522727274,245.65848970413208L873.0383522727274,241.08833545446396L873.0383522727274,241.84304335713392L873.0383522727274,209.35335302352908L873.0383522727274,219.88974863290792L873.0383522727274,200.39745712280276L873.0383522727274,211.44040533900264L873.0383522727274,190.86143696308142L873.0383522727274,197.69036391377455L873.0383522727274,173.13435816764834L873.0383522727274,212.95949989557266L873.0383522727274,198.5257124304772L873.0383522727274,204.30530691146856L873.0383522727274,210.5164835751057L873.0383522727274,213.26097750663763L873.0383522727274,188.98186290264132L873.0383522727274,193.26349461078647L873.0383522727274,216.31595188379293L873.0383522727274,194.90156927704814L873.0383522727274,256.872097492218L873.0383522727274,222.17844942212108L873.0383522727274,231.7900032699108L873.0383522727274,207.04644942283633L873.0383522727274,233.19304668903354L873.0383522727274,203.75293278694156L873.0383522727274,252.41934621334076L873.0383522727274,185.62159949541095L873.0383522727274,237.28933641314512L873.0383522727274,201.68344491720202L873.0383522727274,215.56807824969297L873.0383522727274,200.15265324711802L873.0383522727274,198.38789114356044L873.0383522727274,252.60422819852835L921.5404829545455,213.5800289511681L921.5404829545455,230.5068224072457L921.5404829545455,222.7373292446137L921.5404829545455,216.6404857635498L921.5404829545455,229.67619591951373L921.5404829545455,215.84817999601367L921.5404829545455,194.7367864251137L921.5404829545455,245.8820115923882L921.5404829545455,180.56395912170416L921.5404829545455,195.31281763315204L921.5404829545455,215.68080613017085L921.5404829545455,234.07134407758716L921.5404829545455,235.86584651470187L921.5404829545455,223.50407221913343L921.5404829545455,203.14862573146823L921.5404829545455,241.83070787787443L921.5404829545455,204.79971179366117L921.5404829545455,199.15482187271124L921.5404829545455,226.74579674005514L921.5404829545455,174.3474032878876L921.5404829545455,211.21035897731787L921.5404829545455,207.974736481905L921.5404829545455,210.03385090827945L921.5404829545455,215.74553453922277L921.5404829545455,221.20810532569885L921.5404829545455,222.31899315118795L921.5404829545455,199.85895806550985L921.5404829545455,243.6040128171444L921.5404829545455,229.54044932127002L921.5404829545455,202.46689805388456L921.5404829545455,181.43690550327307L921.5404829545455,180.99389845132833L921.5404829545455,172.95535290241244L921.5404829545455,193.230093061924L921.5404829545455,222.41820269823077L921.5404829545455,205.71160787343985L921.5404829545455,204.54092019796377L921.5404829545455,194.2567729353905L921.5404829545455,221.25437745451927L921.5404829545455,200.1779719591141L921.5404829545455,203.32105958461767L921.5404829545455,203.56030592322355L921.5404829545455,227.6262720823288L921.5404829545455,213.52435031533244L921.5404829545455,211.6647345721722L921.5404829545455,191.08692088723186L921.5404829545455,224.32415628433233L921.5404829545455,219.93809545040133L921.5404829545455,196.067084312439L921.5404829545455,234.93376681208616L921.5404829545455,210.2664413452149L970.0426136363636,196.9106564819813L970.0426136363636,188.41786676645282L970.0426136363636,230.77193194627762L970.0426136363636,228.186062514782L970.0426136363636,244.2998878061772L970.0426136363636,235.18984535336497L970.0426136363636,206.66680017113688L970.0426136363636,204.51066353917125L970.0426136363636,195.94893032312396L970.0426136363636,197.6823843419552L970.0426136363636,217.6131110787392L970.0426136363636,238.98959541320804L970.0426136363636,212.35776507854465L970.0426136363636,197.62811386585238L970.0426136363636,201.7276141941548L970.0426136363636,177.5017186403275L970.0426136363636,183.67820763587955L970.0426136363636,211.93732613325122L970.0426136363636,190.86336144804957L970.0426136363636,170.29747956991199L970.0426136363636,217.81688117980963L970.0426136363636,195.2563128769398L970.0426136363636,230.5715602040291L970.0426136363636,199.9072391688824L970.0426136363636,180.9221386313439L970.0426136363636,201.9284365475178L970.0426136363636,220.406130194664L970.0426136363636,221.47646301984793L970.0426136363636,225.83797493577006L970.0426136363636,234.26254400610927L970.0426136363636,175.3586872816086L970.0426136363636,182.80169391632086L970.0426136363636,188.0642309188843L970.0426136363636,205.39661192893985L970.0426136363636,231.2036737203598L970.0426136363636,199.27225300669673L970.0426136363636,218.77731183171272L970.0426136363636,220.24485835433012L970.0426136363636,201.1140977740288L970.0426136363636,194.78979894518855L970.0426136363636,207.0081287026406L970.0426136363636,243.63068336248398L970.0426136363636,159.11351823806768L970.0426136363636,226.56957024335864L970.0426136363636,215.04945302009588L970.0426136363636,192.7445314228535L970.0426136363636,227.48481774330142L970.0426136363636,208.6041369438172L970.0426136363636,199.66234141588214L970.0426136363636,235.02247148752215L970.0426136363636,211.79410690069201L970.0426136363636,181.3505759239197L970.0426136363636,211.4394947290421L970.0426136363636,202.17876040935522L970.0426136363636,202.36523830890658L970.0426136363636,181.0671227574349L970.0426136363636,214.40147423744207L970.0426136363636,207.39930608868602L1018.5447443181819,228.98392581939703L1018.5447443181819,224.82261666655546L1018.5447443181819,230.20552316308024L1018.5447443181819,207.79848182201388L1018.5447443181819,225.3871103525162L1018.5447443181819,196.23578184843066L1018.5447443181819,216.38140314817434L1018.5447443181819,184.301628112793L1018.5447443181819,221.17264786362648L1018.5447443181819,194.27383983135226L1018.5447443181819,182.91483485698703L1018.5447443181819,212.219061344862L1018.5447443181819,219.33885776996613L1018.5447443181819,211.28049471974376L1018.5447443181819,221.62685447931295L1018.5447443181819,200.0069087147713L1018.5447443181819,180.33069276809695L1018.5447443181819,231.13883265852934L1018.5447443181819,215.8940578401089L1018.5447443181819,197.97609829902652L1018.5447443181819,201.5662297010422L1018.5447443181819,209.723811686039L1018.5447443181819,218.74799394607544L1018.5447443181819,199.22231966257098L1018.5447443181819,187.06417465209964L1018.5447443181819,224.77086210250854L1018.5447443181819,198.29317831993106L1018.5447443181819,215.63785725831988L1018.5447443181819,175.6378784179688L1018.5447443181819,190.12053841352466L1018.5447443181819,191.51650348305705L1018.5447443181819,237.34415137767792L1018.5447443181819,226.14165866374972L1018.5447443181819,217.8298174738884L1018.5447443181819,223.09493610262874L1018.5447443181819,214.88950484991076L1018.5447443181819,191.83020392060283L1018.5447443181819,240.22436374425894L1018.5447443181819,192.48168432712558L1018.5447443181819,151.93306767940524L1018.5447443181819,218.36403572559362L1018.5447443181819,189.98909139633182L1018.5447443181819,205.8241855502129L1018.5447443181819,253.83196511864665L1018.5447443181819,205.34195655584338L1018.5447443181819,207.33597645163542" style="fill: none;" fill="none"></path></g></g></g></g></g></g><g transform="translate(61, 378)" clip-path="url(#clip_1)"><clipPath id="clip_1"><rect width="1067" height="22"></rect></clipPath><g><g><line x1="0" y1="0" x2="0" y2="5" style="visibility: inherit;" fill="rgb(0, 0, 0)" stroke="rgb(204, 204, 204)" stroke-width="1px"></line><line x1="97.00426136363636" y1="0" x2="97.00426136363636" y2="5" style="visibility: inherit;" fill="rgb(0, 0, 0)" stroke="rgb(204, 204, 204)" stroke-width="1px"></line><line x1="194.00852272727272" y1="0" x2="194.00852272727272" y2="5" style="visibility: inherit;" fill="rgb(0, 0, 0)" stroke="rgb(204, 204, 204)" stroke-width="1px"></line><line x1="291.01278409090907" y1="0" x2="291.01278409090907" y2="5" style="visibility: inherit;" fill="rgb(0, 0, 0)" stroke="rgb(204, 204, 204)" stroke-width="1px"></line><line x1="388.01704545454544" y1="0" x2="388.01704545454544" y2="5" style="visibility: inherit;" fill="rgb(0, 0, 0)" stroke="rgb(204, 204, 204)" stroke-width="1px"></line><line x1="485.0213068181818" y1="0" x2="485.0213068181818" y2="5" style="visibility: inherit;" fill="rgb(0, 0, 0)" stroke="rgb(204, 204, 204)" stroke-width="1px"></line><line x1="582.0255681818181" y1="0" x2="582.0255681818181" y2="5" style="visibility: inherit;" fill="rgb(0, 0, 0)" stroke="rgb(204, 204, 204)" stroke-width="1px"></line><line x1="679.0298295454545" y1="0" x2="679.0298295454545" y2="5" style="visibility: inherit;" fill="rgb(0, 0, 0)" stroke="rgb(204, 204, 204)" stroke-width="1px"></line><line x1="776.0340909090909" y1="0" x2="776.0340909090909" y2="5" style="visibility: inherit;" fill="rgb(0, 0, 0)" stroke="rgb(204, 204, 204)" stroke-width="1px"></line><line x1="873.0383522727274" y1="0" x2="873.0383522727274" y2="5" style="visibility: inherit;" fill="rgb(0, 0, 0)" stroke="rgb(204, 204, 204)" stroke-width="1px"></line><line x1="970.0426136363636" y1="0" x2="970.0426136363636" y2="5" style="visibility: inherit;" fill="rgb(0, 0, 0)" stroke="rgb(204, 204, 204)" stroke-width="1px"></line><line x1="1067.046875" y1="0" x2="1067.046875" y2="5" style="visibility: inherit;" fill="rgb(0, 0, 0)" stroke="rgb(204, 204, 204)" stroke-width="1px"></line></g><g transform="translate(0, 8)"><text x="0" y="0" dx="0em" dy="0.95em" style="text-anchor: middle; visibility: hidden; font-family: Roboto, sans-serif; font-size: 12px; font-weight: 200;" fill="rgb(50, 49, 63)" stroke="none" stroke-width="1px">-2</text><text x="97.00426136363636" y="0" dx="0em" dy="0.95em" style="text-anchor: middle; visibility: inherit; font-family: Roboto, sans-serif; font-size: 12px; font-weight: 200;" fill="rgb(50, 49, 63)" stroke="none" stroke-width="1px">0</text><text x="194.00852272727272" y="0" dx="0em" dy="0.95em" style="text-anchor: middle; visibility: inherit; font-family: Roboto, sans-serif; font-size: 12px; font-weight: 200;" fill="rgb(50, 49, 63)" stroke="none" stroke-width="1px">2</text><text x="291.01278409090907" y="0" dx="0em" dy="0.95em" style="text-anchor: middle; visibility: inherit; font-family: Roboto, sans-serif; font-size: 12px; font-weight: 200;" fill="rgb(50, 49, 63)" stroke="none" stroke-width="1px">4</text><text x="388.01704545454544" y="0" dx="0em" dy="0.95em" style="text-anchor: middle; visibility: inherit; font-family: Roboto, sans-serif; font-size: 12px; font-weight: 200;" fill="rgb(50, 49, 63)" stroke="none" stroke-width="1px">6</text><text x="485.0213068181818" y="0" dx="0em" dy="0.95em" style="text-anchor: middle; visibility: inherit; font-family: Roboto, sans-serif; font-size: 12px; font-weight: 200;" fill="rgb(50, 49, 63)" stroke="none" stroke-width="1px">8</text><text x="582.0255681818181" y="0" dx="0em" dy="0.95em" style="text-anchor: middle; visibility: inherit; font-family: Roboto, sans-serif; font-size: 12px; font-weight: 200;" fill="rgb(50, 49, 63)" stroke="none" stroke-width="1px">10</text><text x="679.0298295454545" y="0" dx="0em" dy="0.95em" style="text-anchor: middle; visibility: inherit; font-family: Roboto, sans-serif; font-size: 12px; font-weight: 200;" fill="rgb(50, 49, 63)" stroke="none" stroke-width="1px">12</text><text x="776.0340909090909" y="0" dx="0em" dy="0.95em" style="text-anchor: middle; visibility: inherit; font-family: Roboto, sans-serif; font-size: 12px; font-weight: 200;" fill="rgb(50, 49, 63)" stroke="none" stroke-width="1px">14</text><text x="873.0383522727274" y="0" dx="0em" dy="0.95em" style="text-anchor: middle; visibility: inherit; font-family: Roboto, sans-serif; font-size: 12px; font-weight: 200;" fill="rgb(50, 49, 63)" stroke="none" stroke-width="1px">16</text><text x="970.0426136363636" y="0" dx="0em" dy="0.95em" style="text-anchor: middle; visibility: inherit; font-family: Roboto, sans-serif; font-size: 12px; font-weight: 200;" fill="rgb(50, 49, 63)" stroke="none" stroke-width="1px">18</text><text x="1067.046875" y="0" dx="0em" dy="0.95em" style="text-anchor: middle; visibility: hidden; font-family: Roboto, sans-serif; font-size: 12px; font-weight: 200;" fill="rgb(50, 49, 63)" stroke="none" stroke-width="1px">20</text></g><line x1="0" y1="0" x2="1067.046875" y2="0" fill="rgb(0, 0, 0)" stroke="rgb(204, 204, 204)" stroke-width="1px"></line></g></g></g></g></svg>