<svg viewBox="0 0 1115.4000244140625 400" xmlns="http://www.w3.org/2000/svg"><g><g><g><g><g><line x1="51.5625" y1="378" x2="46.5625" y2="378" style="visibility: inherit;" fill="rgb(0, 0, 0)" stroke="rgb(204, 204, 204)" stroke-width="1px"></line><line x1="51.5625" y1="351" x2="46.5625" y2="351" style="visibility: inherit;" fill="rgb(0, 0, 0)" stroke="rgb(204, 204, 204)" stroke-width="1px"></line><line x1="51.5625" y1="324" x2="46.5625" y2="324" style="visibility: inherit;" fill="rgb(0, 0, 0)" stroke="rgb(204, 204, 204)" stroke-width="1px"></line><line x1="51.5625" y1="297" x2="46.5625" y2="297" style="visibility: inherit;" fill="rgb(0, 0, 0)" stroke="rgb(204, 204, 204)" stroke-width="1px"></line><line x1="51.5625" y1="269.99999999999994" x2="46.5625" y2="269.99999999999994" style="visibility: inherit;" fill="rgb(0, 0, 0)" stroke="rgb(204, 204, 204)" stroke-width="1px"></line><line x1="51.5625" y1="243.00000000000003" x2="46.5625" y2="243.00000000000003" style="visibility: inherit;" fill="rgb(0, 0, 0)" stroke="rgb(204, 204, 204)" stroke-width="1px"></line><line x1="51.5625" y1="216" x2="46.5625" y2="216" style="visibility: inherit;" fill="rgb(0, 0, 0)" stroke="rgb(204, 204, 204)" stroke-width="1px"></line><line x1="51.5625" y1="188.99999999999997" x2="46.5625" y2="188.99999999999997" style="visibility: inherit;" fill="rgb(0, 0, 0)" stroke="rgb(204, 204, 204)" stroke-width="1px"></line><line x1="51.5625" y1="162" x2="46.5625" y2="162" style="visibility: inherit;" fill="rgb(0, 0, 0)" stroke="rgb(204, 204, 204)" stroke-width="1px"></line><line x1="51.5625" y1="134.99999999999997" x2="46.5625" y2="134.99999999999997" style="visibility: inherit;" fill="rgb(0, 0, 0)" stroke="rgb(204, 204, 204)" stroke-width="1px"></line><line x1="51.5625" y1="107.99999999999996" x2="46.5625" y2="107.99999999999996" style="visibility: inherit;" fill="rgb(0, 0, 0)" stroke="rgb(204, 204, 204)" stroke-width="1px"></line><line x1="51.5625" y1="81" x2="46.5625" y2="81" style="visibility: inherit;" fill="rgb(0, 0, 0)" stroke="rgb(204, 204, 204)" stroke-width="1px"></line><line x1="51.5625" y1="53.99999999999998" x2="46.5625" y2="53.99999999999998" style="visibility: inherit;" fill="rgb(0, 0, 0)" stroke="rgb(204, 204, 204)" stroke-width="1px"></line><line x1="51.5625" y1="26.999999999999947" x2="46.5625" y2="26.999999999999947" style="visibility: inherit;" fill="rgb(0, 0, 0)" stroke="rgb(204, 204, 204)" stroke-width="1px"></line><line x1="51.5625" y1="0" x2="46.5625" y2="0" style="visibility: inherit;" fill="rgb(0, 0, 0)" stroke="rgb(204, 204, 204)" stroke-width="1px"></line></g><g transform="translate(41.5625, 0)"><text x="0" y="378" dx="0em" dy="0.3em" style="text-anchor: end; visibility: hidden; font-family: Roboto, sans-serif; font-size: 12px; font-weight: 200;" fill="rgb(50, 49, 63)" stroke="none" stroke-width="1px">0.2</text><text x="0" y="351" dx="0em" dy="0.3em" style="text-anchor: end; visibility: inherit; font-family: Roboto, sans-serif; font-size: 12px; font-weight: 200;" fill="rgb(50, 49, 63)" stroke="none" stroke-width="1px">0.22</text><text x="0" y="324" dx="0em" dy="0.3em" style="text-anchor: end; visibility: inherit; font-family: Roboto, sans-serif; font-size: 12px; font-weight: 200;" fill="rgb(50, 49, 63)" stroke="none" stroke-width="1px">0.24</text><text x="0" y="297" dx="0em" dy="0.3em" style="text-anchor: end; visibility: inherit; font-family: Roboto, sans-serif; font-size: 12px; font-weight: 200;" fill="rgb(50, 49, 63)" stroke="none" stroke-width="1px">0.26</text><text x="0" y="269.99999999999994" dx="0em" dy="0.3em" style="text-anchor: end; visibility: inherit; font-family: Roboto, sans-serif; font-size: 12px; font-weight: 200;" fill="rgb(50, 49, 63)" stroke="none" stroke-width="1px">0.28</text><text x="0" y="243.00000000000003" dx="0em" dy="0.3em" style="text-anchor: end; visibility: inherit; font-family: Roboto, sans-serif; font-size: 12px; font-weight: 200;" fill="rgb(50, 49, 63)" stroke="none" stroke-width="1px">0.3</text><text x="0" y="216" dx="0em" dy="0.3em" style="text-anchor: end; visibility: inherit; font-family: Roboto, sans-serif; font-size: 12px; font-weight: 200;" fill="rgb(50, 49, 63)" stroke="none" stroke-width="1px">0.32</text><text x="0" y="188.99999999999997" dx="0em" dy="0.3em" style="text-anchor: end; visibility: inherit; font-family: Roboto, sans-serif; font-size: 12px; font-weight: 200;" fill="rgb(50, 49, 63)" stroke="none" stroke-width="1px">0.34</text><text x="0" y="162" dx="0em" dy="0.3em" style="text-anchor: end; visibility: inherit; font-family: Roboto, sans-serif; font-size: 12px; font-weight: 200;" fill="rgb(50, 49, 63)" stroke="none" stroke-width="1px">0.36</text><text x="0" y="134.99999999999997" dx="0em" dy="0.3em" style="text-anchor: end; visibility: inherit; font-family: Roboto, sans-serif; font-size: 12px; font-weight: 200;" fill="rgb(50, 49, 63)" stroke="none" stroke-width="1px">0.38</text><text x="0" y="107.99999999999996" dx="0em" dy="0.3em" style="text-anchor: end; visibility: inherit; font-family: Roboto, sans-serif; font-size: 12px; font-weight: 200;" fill="rgb(50, 49, 63)" stroke="none" stroke-width="1px">0.4</text><text x="0" y="81" dx="0em" dy="0.3em" style="text-anchor: end; visibility: inherit; font-family: Roboto, sans-serif; font-size: 12px; font-weight: 200;" fill="rgb(50, 49, 63)" stroke="none" stroke-width="1px">0.42</text><text x="0" y="53.99999999999998" dx="0em" dy="0.3em" style="text-anchor: end; visibility: inherit; font-family: Roboto, sans-serif; font-size: 12px; font-weight: 200;" fill="rgb(50, 49, 63)" stroke="none" stroke-width="1px">0.44</text><text x="0" y="26.999999999999947" dx="0em" dy="0.3em" style="text-anchor: end; visibility: inherit; font-family: Roboto, sans-serif; font-size: 12px; font-weight: 200;" fill="rgb(50, 49, 63)" stroke="none" stroke-width="1px">0.46</text><text x="0" y="0" dx="0em" dy="0.3em" style="text-anchor: end; visibility: hidden; font-family: Roboto, sans-serif; font-size: 12px; font-weight: 200;" fill="rgb(50, 49, 63)" stroke="none" stroke-width="1px">0.48</text></g><line x1="51.5625" y1="0" x2="51.5625" y2="378" fill="rgb(0, 0, 0)" stroke="rgb(204, 204, 204)" stroke-width="1px"></line></g></g><g transform="translate(51, 0)" clip-path="url(#clip_0)"><clipPath id="clip_0"><rect width="1063" height="378"></rect></clipPath><g><g><g><line x1="0" y1="0" x2="0" y2="378" fill="rgb(0, 0, 0)" stroke="rgb(60, 60, 60)" stroke-width="1px" opacity="0.25"></line><line x1="81.83365384615385" y1="0" x2="81.83365384615385" y2="378" fill="rgb(0, 0, 0)" stroke="rgb(60, 60, 60)" stroke-width="1px" opacity="0.25"></line><line x1="163.6673076923077" y1="0" x2="163.6673076923077" y2="378" fill="rgb(0, 0, 0)" stroke="rgb(60, 60, 60)" stroke-width="1px" opacity="0.25"></line><line x1="245.50096153846158" y1="0" x2="245.50096153846158" y2="378" fill="rgb(0, 0, 0)" stroke="rgb(60, 60, 60)" stroke-width="1px" opacity="0.25"></line><line x1="327.3346153846154" y1="0" x2="327.3346153846154" y2="378" fill="rgb(0, 0, 0)" stroke="rgb(60, 60, 60)" stroke-width="1px" opacity="0.25"></line><line x1="409.1682692307692" y1="0" x2="409.1682692307692" y2="378" fill="rgb(0, 0, 0)" stroke="rgb(60, 60, 60)" stroke-width="1px" opacity="0.25"></line><line x1="491.0019230769231" y1="0" x2="491.0019230769231" y2="378" fill="rgb(0, 0, 0)" stroke="rgb(60, 60, 60)" stroke-width="1px" opacity="0.25"></line><line x1="572.8355769230769" y1="0" x2="572.8355769230769" y2="378" fill="rgb(0, 0, 0)" stroke="rgb(60, 60, 60)" stroke-width="1px" opacity="0.25"></line><line x1="654.6692307692307" y1="0" x2="654.6692307692307" y2="378" fill="rgb(0, 0, 0)" stroke="rgb(60, 60, 60)" stroke-width="1px" opacity="0.25"></line><line x1="736.5028846153847" y1="0" x2="736.5028846153847" y2="378" fill="rgb(0, 0, 0)" stroke="rgb(60, 60, 60)" stroke-width="1px" opacity="0.25"></line><line x1="818.3365384615385" y1="0" x2="818.3365384615385" y2="378" fill="rgb(0, 0, 0)" stroke="rgb(60, 60, 60)" stroke-width="1px" opacity="0.25"></line><line x1="900.1701923076923" y1="0" x2="900.1701923076923" y2="378" fill="rgb(0, 0, 0)" stroke="rgb(60, 60, 60)" stroke-width="1px" opacity="0.25"></line><line x1="982.0038461538463" y1="0" x2="982.0038461538463" y2="378" fill="rgb(0, 0, 0)" stroke="rgb(60, 60, 60)" stroke-width="1px" opacity="0.25"></line><line x1="1063.8375" y1="0" x2="1063.8375" y2="378" fill="rgb(0, 0, 0)" stroke="rgb(60, 60, 60)" stroke-width="1px" opacity="0.25"></line></g><g><line x1="0" y1="378" x2="1063.8375" y2="378" fill="rgb(0, 0, 0)" stroke="rgb(60, 60, 60)" stroke-width="1px" opacity="0.25"></line><line x1="0" y1="351" x2="1063.8375" y2="351" fill="rgb(0, 0, 0)" stroke="rgb(60, 60, 60)" stroke-width="1px" opacity="0.25"></line><line x1="0" y1="324" x2="1063.8375" y2="324" fill="rgb(0, 0, 0)" stroke="rgb(60, 60, 60)" stroke-width="1px" opacity="0.25"></line><line x1="0" y1="297" x2="1063.8375" y2="297" fill="rgb(0, 0, 0)" stroke="rgb(60, 60, 60)" stroke-width="1px" opacity="0.25"></line><line x1="0" y1="269.99999999999994" x2="1063.8375" y2="269.99999999999994" fill="rgb(0, 0, 0)" stroke="rgb(60, 60, 60)" stroke-width="1px" opacity="0.25"></line><line x1="0" y1="243.00000000000003" x2="1063.8375" y2="243.00000000000003" fill="rgb(0, 0, 0)" stroke="rgb(60, 60, 60)" stroke-width="1px" opacity="0.25"></line><line x1="0" y1="216" x2="1063.8375" y2="216" fill="rgb(0, 0, 0)" stroke="rgb(60, 60, 60)" stroke-width="1px" opacity="0.25"></line><line x1="0" y1="188.99999999999997" x2="1063.8375" y2="188.99999999999997" fill="rgb(0, 0, 0)" stroke="rgb(60, 60, 60)" stroke-width="1px" opacity="0.25"></line><line x1="0" y1="162" x2="1063.8375" y2="162" fill="rgb(0, 0, 0)" stroke="rgb(60, 60, 60)" stroke-width="1px" opacity="0.25"></line><line x1="0" y1="134.99999999999997" x2="1063.8375" y2="134.99999999999997" fill="rgb(0, 0, 0)" stroke="rgb(60, 60, 60)" stroke-width="1px" opacity="0.25"></line><line x1="0" y1="107.99999999999996" x2="1063.8375" y2="107.99999999999996" fill="rgb(0, 0, 0)" stroke="rgb(60, 60, 60)" stroke-width="1px" opacity="0.25"></line><line x1="0" y1="81" x2="1063.8375" y2="81" fill="rgb(0, 0, 0)" stroke="rgb(60, 60, 60)" stroke-width="1px" opacity="0.25"></line><line x1="0" y1="53.99999999999998" x2="1063.8375" y2="53.99999999999998" fill="rgb(0, 0, 0)" stroke="rgb(60, 60, 60)" stroke-width="1px" opacity="0.25"></line><line x1="0" y1="26.999999999999947" x2="1063.8375" y2="26.999999999999947" fill="rgb(0, 0, 0)" stroke="rgb(60, 60, 60)" stroke-width="1px" opacity="0.25"></line><line x1="0" y1="0" x2="1063.8375" y2="0" fill="rgb(0, 0, 0)" stroke="rgb(60, 60, 60)" stroke-width="1px" opacity="0.25"></line></g></g></g><g><g><line x1="0" y1="648" x2="1063.8375" y2="648" fill="rgb(0, 0, 0)" stroke="rgb(153, 153, 153)" stroke-width="1.5px"></line></g></g><g><g><line x1="81.83365384615385" y1="0" x2="81.83365384615385" y2="378" fill="rgb(0, 0, 0)" stroke="rgb(153, 153, 153)" stroke-width="1.5px"></line></g></g><g><g><g><g><g><path stroke="rgb(255, 112, 67)" stroke-width="2px" d="M81.83365384615385,122.95066523551938L82.09665811698719,60.657253145268605L82.14916804487181,94.6887171802017L82.19326729166667,110.52629800431725L82.24532258814104,108.58279412095287L82.91590391826924,122.15657084012156L82.9590939022436,132.48171320942424L83.21641528044873,138.08419611082192L83.33552870993591,149.5968424476267L83.72901219551282,155.14553195117912L83.79879811698717,145.31693716592036L83.88267761217949,150.39128693648297L84.53007274038463,147.81927085782536L84.58121877403846,152.50229672870918L85.62778028044872,157.69573313928495L86.03785781250001,159.50991433151611L86.17538381410256,160.07122306498093L86.35905490384616,163.72482030688488L86.68116125801282,166.70409670560022L86.84073688301284,173.1093739812007L86.91075012019232,174.93058344763628L87.0903295272436,179.34314876487576L87.52018352564104,179.136856012307L87.53064004807693,177.14640163055753L87.75045433493591,176.66681766072998L87.91184848557694,177.6579585659851L88.17371617788463,182.08194293572944L88.45899738782052,183.60880741366833L88.48832111378206,184.8647081774435L88.6876769871795,186.34246653086439L88.78542274038463,187.38027335913253L88.82042935897437,187.99357113640895L89.05774695512822,189.03501440133516L89.71468934294873,190.34348042122951L89.89131364583334,192.2478684944888L90.68532740384616,193.4027419297726L91.19496921474361,194.81622835313692L91.24702451121796,195.13425710305415L91.73302548878206,195.7563065044237L91.76280384615386,197.32169048940088L92.10559592948718,198.55672757871906L92.87710543269232,199.75374220629655L93.0123582772436,201.05189224323877L94.09324445512821,203.0848860551021L94.41216838942309,204.67781028966752L94.50627709134616,206.2577981381265L94.58674685096155,208.24751090875924L95.09911645032054,209.68652589557723L95.6526301923077,211.85944059085142L96.2884322195513,214.79262389569675L96.49619877403846,213.90842051828696L96.6882805448718,215.89741284283636L96.88445399839745,216.6158270081936L103.54457684294873,217.39841226707486L103.63754896634616,218.69332454015196L103.71483630608975,219.14257472271586L104.0003448317308,220.64504096543135L104.15696535256411,221.56122431281986L104.41428673076923,221.9816937017458L104.44770213942307,223.97961023558207L104.62409912660259,225.02953542440375L104.68729289262821,226.50133937701563L104.88323903044873,227.30136110524577L104.9425684294872,227.55958301302528L105.10055284455129,228.54538394869144L105.97980999198717,230.0177408868864L106.00481471955128,230.7055483309272L106.81655910256411,229.88234467633328L106.88748160256412,230.80468458041463L106.94476516025641,231.17314817279384L107.15821460737182,232.3670229530105L107.18640175480769,233.3236813827922L107.62944006410258,233.60917706244723L107.74855349358974,234.97259414091405L107.7835601121795,235.24862258589366L108.14476476762822,235.36298088939293L108.3277539102564,236.0180207449974L108.61008001602565,234.2772845529604L110.07672094551283,234.69160108829854L110.88005464743591,234.260442489706L112.24644935096154,234.52123146853276L112.27281797275643,234.51356267724876L112.33896684294872,235.27679302123377L112.5410505048077,235.34764524229814L113.11684118589744,235.47124767564657L113.29005575320514,236.2450638850339L113.31506048076925,236.09616210908703L113.76650947115387,235.8595437963111L113.91199152243591,236.20880404887345L114.00928264423077,236.99631116621293L114.02383084935897,237.60722442151598L114.70623259615387,237.37811823623323L114.74305774038463,238.36187847603796L115.19723451923078,238.9623450253413L115.64800156250001,239.93553388310593L115.84758475160257,240.09488786454943L116.0612615144231,240.5069330420608L116.0685356169872,241.93699733363172L116.1871944150641,241.97437305126041L116.37859423878206,243.2491639035262L116.55635512019232,243.37476292743494L116.88391705128207,243.52793456972228L116.8948282051282,244.5959073938539L116.92869824519231,244.7099059930105L116.98757301282053,245.2810253807124L117.02212500000003,245.75579452645644L117.05576772435899,246.39897387261087L117.16737973557694,246.80847915961536L117.47721104166666,246.78402558174986L117.62451161858976,247.3760511285795L117.69156975160257,247.63184300132124L123.87955787660258,248.19292939374705L124.30350166666669,248.10352236223548L124.37692463942308,248.98607586965286L124.90020539262821,249.2653004873679L124.92771059294874,249.8058917766682L125.096606161859,249.98046861203835L125.41189304487182,250.21180651354513L125.67603389423078,250.74670968012228L125.92403532852565,251.56042660231196L126.02428155448717,252.02053696640644L126.83943567307693,252.37417368539454L126.94741063301284,252.28841996892317L127.41295319711537,252.58111544488722L127.78984263621797,252.61499537419473L128.77866595352566,253.28698703819717L128.8782302323718,253.722631898228L129.1078190945513,253.93910530273104L129.36445852564103,254.39872836171918L130.27553987179488,254.5475238137123L130.6142402724359,255.60129597422952L131.80355604166667,256.22211608966427L131.88038875,256.308267554524L131.9769979246795,256.7559926473575L132.1720347996795,257.0197655957773L132.25705087339745,256.74727781085977L132.39412224358975,257.4162110160035L132.4466321714744,257.63127015517694L132.50050599358974,258.6430314820902L132.98105139423075,259.13236433086604L133.11948665865384,259.3574434700709L133.500922411859,259.32996360662565L133.62730994391026,259.61301662206586L133.76870031250002,259.1884761542508L134.40609354967953,259.489503486117L134.4826989423077,259.9807244860652L135.38741544871795,260.1136535667325L135.80113003205128,260.5297284515322L136.02389942307695,260.26738022218825L136.22166408653845,259.6299549465368L137.250949599359,260.3829096919965L137.3243725721154,260.73646821149663L137.9842700641026,260.87181125965583L138.75123325320513,261.16401671014285L139.04810756410257,260.7048281172755L139.1360787419872,260.7347677136493L139.6802725400641,261.5640726933803L145.8071127403846,262.5752470598402L146.00942371794875,262.514041502803L146.0389747596154,262.8480543773646L146.17536418269233,263.0792568933665L146.18923044070516,262.9268421565482L146.51406458333338,262.7875412521483L146.86776782051285,262.77718825370516L147.74406986378204,263.4545610874721L148.62560016826924,263.9452096004718L149.16070133814102,264.3607619913615L149.33255201121796,263.99549383826604L149.41506761217948,264.57588117055616L149.5819173397436,264.5375719130184L149.61442348557694,263.9635846285611L151.39953371794874,264.4036436057806L151.42544770833334,264.58352795896957L151.44067786057693,264.3440901435665L151.91190331730772,264.0939477169639L151.9553206169872,264.5368560150156L152.77956736378206,264.62122533901555L152.784795625,265.04750031852325L153.05825641826925,264.893201838184L153.74815958333335,265.0344556711185L153.8145357692308,265.4266210735955L154.6842456570513,265.7897396112966L155.07681987980772,265.7801838138591L156.09042060897437,265.96435257714177L156.2413582371795,266.3465330583043L156.42684785256412,265.9434733687068L158.03669767628205,265.6109920996586L158.83525774839745,265.82048305477207L159.24624454326926,266.1949622525284L159.58244447115388,266.6075320129698L159.62813492788464,266.78182833699617L160.88291762019233,266.98321408729544L161.08591054487178,267.1705413932505L161.13364684294874,267.8874492911035L161.5905514102564,267.81551400192143L162.50458786057692,268.05273591727996L162.6091530849359,268.05500327995406L163.48977412660258,268.1027744890337L163.7825567548077,268.026667378582L164.0760213301282,267.9945117843279L164.29060735576925,268.3005152918845L170.41290124198719,268.72183387307217L170.51814841346155,268.7332709026806L170.58679775641028,268.76019217199575L170.89685637820511,268.9834607828294L171.29556812500002,269.0549625182822L171.73678790865387,268.44093089215437L171.78566078525643,268.32920317756697L171.8056645673077,268.51976284150714L171.8354429246795,268.8350032061091L171.85862912660258,268.87250786030467L172.0975379326923,269.07183775286154L172.49761357371798,269.1735503799553L172.76857389423077,268.93584777782286L173.89628710737182,269.1126626250168L175.130611386218,269.3037801481504L175.83142570512823,269.3706911114328L176.0901109775641,269.3944405246506L176.27650985576926,269.4375521963901L176.3938047596154,269.7126310858755L176.50382556089747,269.8481970856148L176.51019040064105,269.8353696678531L178.87768346955127,269.8858242222407L180.44661646634614,270.3476366304559L180.63346997596153,270.7210661423583L180.84532821314102,270.69704853217445L180.87056025641027,270.5572535390605L180.91261366185898,270.6619530524502L180.94193738782053,270.431653296315L181.90371013621797,270.5732942128413L181.96963169070514,270.60939301979806L182.2417285897436,270.58905549509683L182.2569587419872,270.40892222400583L182.41903483974363,270.4932653941858L182.45313219551286,270.740910473224L182.82297484775643,270.5680318807519L182.8429786298077,270.9210328702494L187.65184237179488,270.9146819908213L187.74663302083334,270.9121660711119L189.11871061698722,270.2618879840876L191.58963233173077,270.4801118990362L191.87082185897438,270.5653379124814L192.59482237980768,270.8913287180946L193.9641721875,271.30576007693463L195.10188729166669,271.67187704853666L195.24009524038462,271.66354477876894L195.37398419070513,271.83357147241816L195.80042845352565,272.1042835462065L196.12912696314103,272.3312349227021L202.5692082051282,272.63068824197774L203.0656657051282,272.78151926572065L203.19591760416668,273.04714866832524L203.68964731570514,273.16696588398634L203.70487746794873,273.26090250729334L204.28225935897436,273.5581408879463L204.52798763621797,273.5460923217895L205.5306772115385,273.504264914155L205.83255246794874,273.4202242378464L205.85392014423078,273.5253217054525L206.92935074519232,273.39231511515493L208.7737903766026,273.4503205397097L209.94105652243593,273.95140788755634L210.17041806891024,273.83139885093675L210.57617660256412,274.34630567700697L211.20084016025643,274.6361744384772L211.4406582291667,274.6052821580917L211.6970703445513,274.9356041374168L212.4778997916667,274.69858377405234L212.76136247596156,274.82564183320295L215.0540686778846,275.03964281886374L215.72942363782053,274.93161351082847L217.50976024038465,275.2315502954636L217.7084341666667,275.3427464692499L217.9455244471154,275.52584053926694L218.21921255608976,275.8376873977141L218.83046448717954,276.02482214216644L219.42398579326922,276.0956532730513L219.7106308974359,276.2406564454449L221.5853035176282,276.4219015389785L222.33089903044876,276.4457408026679L222.49706681089745,276.4743729727906L222.7209727804487,276.5652817859632L222.93010322916666,276.3865683204567L223.65751348557694,276.32144745124964L224.11055368589746,276.4179287126816L225.28486661858977,276.72349591859563L225.33896775641026,276.9117866891632L227.39912999198722,276.8637300395975L227.94036868589748,276.87791312544334L228.02447549679488,277.01528313753647L228.17859554487185,277.25898239586365L228.27770519230768,277.3882420520833L228.3040738141026,277.53464787028304L229.70297466346156,277.8054839397396L230.4272025,277.94038368660244L230.91774979166667,277.7795370866496L231.0050390224359,277.827997122374L231.84065155448724,277.9408432433794L231.88247764423082,277.9230082242993L232.1332068669872,277.71196000456445L237.98544969551284,278.1965324609964L238.14502532051284,278.40451945903607L238.2948263701923,278.5426385540087L238.30710141826924,278.8170565018469L238.75173093749999,279.1518596740893L239.06088029647438,279.4861529762961L239.1563528926282,279.94048958553066L240.3561251842949,279.98946891834004L241.14718383814105,280.1122811251514L241.93005912660257,280.26948242209284L242.48584602564102,280.41866190940465L242.90978981570512,280.70314548588107L243.1166471073718,280.91256518229466L243.35510128205132,280.94982181683076L244.3932521073718,280.99322232087377L244.7492285016026,280.74403618475776L245.7853334855769,281.0869531945719L246.38090063301283,281.1078581109575L249.11255346153845,281.27388646168504L250.27527329326927,281.6288358425921L251.0140493349359,281.78043393285174L251.43208291666667,281.9385087796354L252.09107114583335,282.171496434683L252.95100645833335,282.0831707270485L255.19233931089747,282.35631069324256L256.3352826762821,282.567709554533L256.367106875,282.72216102258545L257.38116223557694,282.53888497159306L259.6213585096154,282.524431803481L259.7263783653846,282.3414456653552L259.93596344551287,282.3302341219974L260.75520924679495,282.44394160596653L261.0761790224359,282.476546951618L262.4227972596154,282.5263883126879L262.9492604326923,282.5706830343507L263.27250336538464,282.8035502623201L263.98013715544874,283.2067833450239L266.21374127403845,283.1230935481294L267.0570825400641,283.06095769349054L272.3076206971154,283.40578512797873L272.3108031169872,283.4705214903696L272.7011041826923,283.45983350508425L272.78475636217945,283.44612853204205L272.89886884615385,283.57092891173676L274.10091429487187,283.36888706032926L275.1311090705128,283.3703410232726L276.28678211538465,283.3164409137835L276.32065215544867,283.14107410358775L283.0226010897436,283.36256870180836L283.57906993589745,283.5323822935552L284.13031052083335,283.884399530046L285.2721173076924,283.78319968350456L288.01718176282054,283.7047623904721L288.2817772435898,283.81922469986716L288.93985620993584,283.96458863099184L289.5949800721154,284.19591001823625L290.1353095032051,284.4258792576357L290.4274101842949,284.35497826870943L292.49621041666666,284.12937619177467L292.9744826602564,284.2416502887091L293.2245299358974,284.4961783297337L293.49662683493597,284.6965190451954L293.61664952724357,284.47107693405474L294.6834421314103,284.5738609394912L295.08920066506414,284.87191831630594L299.56504689903846,284.9422352548157L299.71348405448725,285.1281579729786L300.11424164262826,284.98230314966355L302.41558584134617,284.99637575612735L303.08662180288457,284.7434571003719L304.23001979967955,284.7741086817197L305.81077321314103,284.7764395628151L306.2442642628206,285.26362876433626L307.3840252083333,285.13252240307156L307.42153229967954,285.20527008041114L307.6543035817308,285.45699823305705L308.7899728445513,285.2798215618266L309.0793457371795,285.5616513349728L310.86900228365386,285.66450014904234L311.5945940144231,285.29820738438735L312.52431524839744,285.3858650184907L312.94394004006415,285.41917034284796L313.8086489823718,285.59255024768515L313.82342450320516,285.7603386183142L314.7879250400641,285.55117285989013L314.87703279647434,285.4754221229365L316.2941189022436,285.31862565385L316.63577440705126,285.5757801482005L317.4122848557692,285.59511052065886L320.1296167948718,286.02580182265837L321.02342214743595,285.99313031007625L321.42963531250007,286.064174461714L321.5587506330128,286.3372819316755L323.02220914262824,286.6124920342108L323.1340484695513,286.71274618384496L323.21929185897443,286.5082419060926L323.2454331650641,286.7093851016511L323.46115576923074,286.8644391309298L323.5564010496795,286.99957769938777L330.9818958733975,287.08175831567576L331.2273968349359,287.3970063833061L331.46630564102566,287.2610430312893L332.11688318910257,287.4389058420129L332.1527990705128,287.7404993436704L332.4792244230769,288.12309185475425L332.48058831730776,288.0770958886781L333.75014653044866,288.3190608935626L334.145903173077,288.47309527858846L334.98333423076923,288.43170391403356L335.42296280448727,288.87001240001865L336.6954761217949,288.82263354714L337.05213446314104,289.0737793609911L337.91638877403847,289.4567903751345L338.08323850160264,289.612322804169L338.42421205929486,289.77132605039554L342.11150011217944,289.8265699853218L343.8063660096154,289.67315990204196L344.8977087099359,289.6591064775529L347.153135136218,289.86150979566816L349.1310090865385,290.0423880335602L349.4085615625,289.97590705143585L349.78817879006414,289.92528884106014L350.12619724358973,290.0545875738882L350.2921377083333,290.1720897275529L350.488311161859,290.2541969463799L350.49740379006414,290.24395059684736L352.6655409855769,290.24362389990625L353.34225983974363,290.20738177125145L353.91805052083333,290.3382571509146L356.5262709214744,290.5443589629075L356.82587302083334,290.77087116089785L357.32937730769237,291.1751073535355L357.36915755608976,291.105940509796L357.46917646634614,290.7917608357979L357.58669868589743,291.0818481370028L357.84902100961546,291.03532995325696L358.00655079326924,291.0633505981958L358.76874035256407,291.1510625731677L361.55222116185905,291.62421430130956L362.2341682772436,291.7802422034432L364.4675450801282,291.7990746330474L364.82761315705125,291.7165497205943L367.60836617788465,291.4787064485031L369.12774435096156,291.46752354822223L370.2500019871795,291.6184976628354L370.62848263621794,291.5297310706267L370.66894483173076,291.4369813693929L373.2771652323718,291.4512208325903L374.4162442307693,291.35940035817265L374.4721638942308,291.5670040850744L374.6576535096155,291.7171572613154L375.1256965464744,291.73413131174203L375.37778966346156,291.7301864704109L375.51167861378207,291.5281000843484L376.0517807291667,291.7597584038597L376.90148683493595,291.69791113482614L385.0268867147436,291.65701522601864L385.27488814903853,291.7190526571883L385.62154459935897,291.6676570803352L386.0213929246795,291.80719587782613L386.06799264423086,291.71919695717423L386.4710233894231,291.8399580582988L386.57331545673077,291.9220841611068L387.27185661858977,291.9145976269246L388.5361865705129,292.17237706685324L388.61301927884614,292.2080572437592L389.13607271634623,292.215657464793L390.78001989583333,292.30944326839193L391.3139844871795,292.57828541771323L391.4960643669872,292.9054616518839L392.54944534455126,293.0102171438937L393.12296286858975,293.1026985979437L394.5361846073718,293.15653421636966L398.24711349358984,293.07822863765165L400.6118787740385,293.2502845177073L400.9864950560898,292.97542688362705L401.5568301602564,293.1264409974146L402.9555036939103,293.2601401217273L403.0218798798077,293.402566519576L404.79767016826924,293.42718471608606L405.6175979166667,293.39777264133625L406.07745758814104,293.46865845271225L406.7914562179487,293.5332128340974L407.9003022275641,293.4110451159812L408.30446955128207,293.48147444534146L408.9002640144231,293.64216090626417L409.8213472516026,293.88059001320914L410.2571114583334,294.06899864820184L411.55758460737184,293.9297391493457L412.22020988782054,293.97311492630377L413.1037860336538,294.1028059433961L413.3581523076923,294.03353749718275L413.9937270192308,294.05188300823687L414.8579813301282,294.0125537622294L416.8715438461539,294.1810570832578L418.0156237900641,294.25918392716784L418.12359875,294.39650117484956L418.152013213141,294.508669451825L420.249455224359,294.58697273513536L421.80520391025647,294.5284588796582L422.14299504807695,294.6802885235196L422.3684922275641,294.8776172950593L422.74583629807694,295.07043073177323L423.4787021314103,295.2412876180474L424.00789309294873,295.4277026748497L425.8837022916667,295.37018446639496L426.53950810096154,295.4300403335682L428.01796944711543,295.5665814595936L428.3091608653847,295.4922664057612L436.4081921233975,295.80388199383395L436.59595489583336,295.7561521215109L436.8769171073718,295.80985650972985L437.3538254567308,296.17290346741436L438.6652097596154,296.40615123967837L438.9213945592949,296.46667165529914L440.0743398157051,296.3465719135463L441.3834509615385,296.2393496908609L441.4930171314102,296.369988574899L442.89328187499996,296.56973898525774L445.0468708653847,296.51243385746386L446.0200093990385,296.62751854066494L448.0633502724359,296.81412336346096L448.07448874198724,296.8401343062168L448.22679026442313,296.9337768455999L449.2190233173077,297.01599406495876L449.74253138621793,296.9323642935228L451.01390812500006,297.0958303724731L452.1711723798077,297.0752783732286L453.12726223557695,297.1849740379551L453.2763813381411,297.38855763502687L453.4295921233974,297.4249456212608L453.44300375000006,297.5848100248941L454.21224009615383,297.587022115394L454.3463563621795,297.65295352908595L454.35135730769235,297.5623605285661L454.95692634615386,297.5955787039202L455.2722132291667,297.77097612341583L456.8243248637821,297.8974442108301L458.49714113782056,298.06131159186333L459.3704880769231,298.06224484488433L460.9280552884616,298.187906141937L462.0218984615385,298.2921888457863L462.6604282772436,298.17611323095264L462.6972534214744,298.325100201697L463.951808798077,298.1301829411422L464.03068734775644,298.24481405373103L465.0699747516026,298.3409562429885L465.21000122596155,298.50130015749954L466.4856969631411,298.5154975382039L466.6911903605769,298.5404035690198L467.4495155528847,298.65614331937337L467.57613040064103,298.5928410477781L471.1161178766026,298.4939336676167L471.17658385416667,298.6238510073802L471.1947691105769,298.6706267481203L471.60143690705127,298.55431197492635L473.3015310657052,298.7459663490178L474.43265401442306,298.4641751004481L474.71929911858973,298.36053052680205L479.7066056891026,298.5236863961859L489.12884166666663,298.7022406960143L489.5175515224359,298.89633504523766L490.53183419871795,299.0253211243158L491.30038859775635,299.06298860246807L491.42018397435896,299.3140257881778L491.67136782852566,299.43071627283297L493.28599128205127,299.4597557223999L493.9240664663461,299.4890738713183L494.0636383092949,299.679045099106L495.0449602083333,299.88663923284L498.06598592948717,299.98042568029666L499.88792130608977,299.9764442867573L499.8999690384615,300.0987702639122L501.0256364102564,300.19691350225145L501.10292375,300.3601953953468L502.1458482051282,300.33072448793945L502.1531223076923,300.32358832917544L503.7011422596154,300.36279215648904L503.85298915064095,300.4124602671446L507.02517981570514,300.52683821404923L508.10197431089745,300.66575826629645L508.5222810496795,300.7870655585929L509.6972759294872,300.9038702047018L510.0237012820512,300.97622426419315L511.4348771794872,301.1307673748911L512.1579684375,301.1288438043042L514.6659426121795,301.11553730581306L516.4301397996794,301.20747797282434L518.3650510817308,301.16867464983784L520.2567723798078,301.1560132859382L522.9111378685898,301.3775044825339L524.4784796554487,301.41930634420476L525.0469962339744,301.40485917321166L526.5002255368589,301.54055615037L526.7525459695513,301.6438708732797L526.7898257451923,301.6211914400548L527.6634,301.52365854809415L528.1850895432692,301.47969820378603L529.5121586298077,301.55367591308243L531.0847286778846,301.6669125902793L531.1145070352565,301.6277374353449L531.6873426121795,301.666363862869L532.0071758092948,301.805675157921L540.1414410016026,302.05012764241104L540.5744774198718,302.1865087339734L544.3272323958334,302.2313505793205L544.5397725801283,302.3430545420645L546.4576351842949,302.4496656494928L547.0579759615384,302.5597609770158L547.1575402403846,302.74730750583973L548.5034765304488,302.6346752205683L548.6748725721153,302.7002423993292L548.8274014102565,302.7340283616793L550.5070371554488,302.84179623290737L552.2575954006411,302.6930707244824L552.4571785897436,302.8189797972567L552.539466875,302.8516145433483L556.5177190304488,302.8861174762539L557.2205791907052,303.0622872580596L557.6833939663461,303.08194869169364L558.7067692708333,303.1894648826218L558.7726908253205,303.0600197903417L561.6705114342949,303.0795622362234L562.3710984375001,303.18555937111597L563.142380625,303.0612144680818L563.3424184455129,303.02741521784947L564.4651307131411,302.89683735525773L565.7446908173077,302.97099301159017L566.0686156971154,303.01051626459684L567.4081871474359,303.23675010899666L569.3110469150641,303.3769433345846L569.5813252884615,303.4893456013492L573.8532693349359,303.6960018303856L577.5698811137821,303.70572328264063L578.5866642628206,303.555964459442L581.6279210817308,303.6533144940475L581.8986540865385,303.8326560711234L581.9307056009616,303.6040362336154L582.5967406169872,303.64942370118257L584.86239625,303.75727387994016L586.4076884134615,303.75017579856467L586.4124620432692,303.5820608600449L586.9875707772436,303.6938015037647L594.1089171875,303.8472046587319L594.1118722916667,303.90046183889876L594.4501180608975,303.99665683236725L594.4962631490384,303.94559068659504L594.7679054166667,304.09553967298007L594.9152059935898,304.2816536781244L595.0356833173078,304.4662430538544L595.5416880769232,304.42854754841306L595.974042548077,304.55534255335033L596.823521338141,304.6335950813443L597.1740421554487,304.5106544333388L599.0171178926281,304.80115033381816L601.9358515464744,304.9492181949716L602.2509111137821,305.04281485915624L602.2997839903846,304.91820840588804L602.9783213701924,304.78121202892254L605.8813702403846,304.71785376151485L605.8859165544872,304.8091094965729L605.9231963301281,304.89790823252577L606.335774334936,305.02569618765267L606.8385966746795,305.114816590232L607.2009379086538,305.20904958043576L607.981312724359,305.1865793906274L608.6605320512821,305.29229696931526L609.9562315705128,305.3119001385279L610.351988213141,305.50030852569046L610.7900255769231,305.5884630912323L611.0530298477563,305.6967753521322L613.5296344551283,305.69420000963055L614.6398443589744,305.6040081469607L615.0956123477564,305.54336837165795L615.5691109615384,305.61839451039265L616.9871063301282,305.53243723839034L617.1019007612178,305.5068747550497L618.7835823477565,305.5144328751766L619.5119018669872,305.69344316212306L620.3877492788462,305.74022237687973L621.0997020673077,305.7676765441364L622.5713439423077,305.5354366067202L624.719022724359,305.6162743550401L627.7502776522437,305.77436835514214L628.8688982371796,305.9621129711537L629.1562252884615,306.08995679090856L630.3919134615385,306.1322351224108L631.1731975400642,306.2103640116156L634.6518097756411,305.9800009806147L638.3979725961539,305.79837209162736L640.7020445833334,305.8763691208983L647.7224628205129,306.09049785117037L648.6001287580128,306.07913158452493L649.1629624439103,306.1036273821561L649.2895772916667,306.1486401575737L649.3495886378206,306.108560833092L650.5625452403847,306.1332879885262L650.969213036859,306.3776080646146L652.575653125,306.34413384688594L652.8022868830128,306.3710184443443L654.5958077964743,306.4576106451194L655.5800847996795,306.5303858692027L655.6371410416667,306.6012735705025L656.1906547836538,306.37925690915625L657.9546246554487,306.64860207708284L658.8688884214745,306.7870628700511L659.2198638701923,306.84600463700906L660.2805189503206,306.98092669504547L660.5646635817308,307.08703534108923L660.5989882532052,307.13953277825846L661.3191244070513,307.09664158470486L662.0822232291667,306.97188402877674L662.7773546554488,307.13641325987487L663.8446018910256,307.10016753285976L664.0646434935898,307.3160629668939L664.5106369070513,307.5080992937845L665.1775811858976,307.6541806497416L667.5768984535257,307.652249204006L667.9367392147436,307.676874345706L668.4404708173076,307.80220380114224L668.6934731971154,307.85600465510936L669.8921089102564,307.98707666828557L670.7109000801282,308.0272666086704L670.8732034935897,308.11345524970545L672.3632579407051,308.0177140735352L674.4318308573718,308.0413919956882L675.0389911057692,308.2219148536272L678.176857099359,308.1034625485593L678.5805697916667,308.0886223372257L678.9842824839743,308.11926047541226L679.1374932692307,308.1420110102435L679.5875783653846,308.22427536104465L680.6800576442308,308.3656882642672L681.1080931169872,308.42268379863094L681.1380987900641,308.31391735039836L682.843648525641,308.3020311806696L683.6276603926282,308.2691361605897L683.6876717387821,308.19312816160715L684.0290999278845,308.2985175082715L684.1807195032051,308.4636708557894L685.0763433814102,308.4571722735954L686.2683869391026,308.5017302734192L690.1097950400642,308.63811401263484L690.632621161859,308.67537908779684L690.6767204086539,308.77719521106513L690.8774401762821,308.8700568973614L691.590302227564,308.9532504470183L691.6168981650641,308.8058985185263L692.8409932371795,308.94632047460374L700.6211005608975,308.9605810653406L701.1368798958334,309.01035338099047L703.1190728445514,309.10960524063324L703.3125185096154,309.1788661798036L704.1849561858975,309.11640932059004L704.3840847435898,309.0602334159091L705.1067213701923,308.960486227513L705.3688163782052,308.91432128553333L706.5797271394231,308.9814494684982L707.1027805769231,308.9665164633065L707.6740249439102,309.04710099005473L708.0841024759616,309.12388825719904L708.8742518669872,309.03326020050037L709.274782139423,309.0649842582528L709.4918686378204,309.0676790613244L710.8439424519231,309.23116598137926L710.8591726041668,309.337592503102L711.2990284935897,309.3710732927221L711.3056206490385,309.4515406280127L711.5590776602564,309.466289544688L712.659285673077,309.30723098528784L713.8154133493591,309.31928479912006L713.898610897436,309.44128228183774L715.6430316185897,309.4824364816422L716.3317982051282,309.58054632018155L718.7379349439103,309.64153202005286L719.4585257291668,309.7467619659938L720.221397235577,309.8673603848074L720.7655910336538,309.8169422918041L721.1408892628205,309.87778590183706L722.191315136218,309.8348747353411L723.677050584936,309.86235463089065L724.4460596153847,309.9494446826836L725.5912761378205,309.93039294743L726.1204670993591,310.01137357413256L728.5550183012821,309.9838375087585L733.1633895913461,310.1202636914248L733.1733914823718,310.26305373904705L733.5189113541668,310.39067217373L734.5695645432693,310.4090663814898L737.0561710416666,310.4463384561416L738.9567576522437,310.5896318950628L740.7405039903847,310.7505049177765L740.822792275641,310.83905244691965L741.6202157692309,310.8476610500735L742.688144951923,310.55707183616096L743.0552598157052,310.68355202957935L743.5292130608975,310.7970687627396L744.7283034054486,310.93713802342427L744.7528535016025,310.905813548966L744.8096824278846,310.8786912245186L745.9128455448717,310.80805733823814L747.5017823237179,310.78651181052265L747.9650517307692,310.8125965496515L755.4087318108974,310.9490915042447L755.9790669150641,310.8764060294558L756.7228439022435,311.0898936820149L757.1979337259614,311.1369292737313L758.6736672836539,311.1457294845575L759.9509542307693,311.0388957845812L762.9494756971154,311.02627952175317L764.6868496314103,310.90145317515095L765.8748015064103,310.85419934042517L766.0873416907051,310.84457002190715L766.3489820673077,310.8945504927882L768.2070606410256,310.79918770642774L770.1274237179488,310.87498524338855L770.1958457451923,310.80469213663866L771.5397361939102,310.72704582088556L772.7676956330129,310.7889066913526L772.789290625,310.74859788328035L773.4866952083335,310.8277773116719L777.469948309295,310.90021265200147L777.9636780208333,311.0051677508541L778.067788613782,311.00206156339715L778.8486180608974,310.9692962638792L779.1675419951923,311.05220111151976L780.5662155288461,311.07844718583783L780.8198998557692,310.94016138634845L780.938331338141,311.06139019863093L783.3401490785257,311.0839974424009L783.5633731009615,311.2104465959938L788.8539188221155,311.2288903803788L789.5904217067308,311.4073647190841L791.8749445432692,311.4201376568002L792.3677649919872,311.38686183683456L792.9990207051283,311.4578244831811L796.3466990945512,311.55115866523124L796.8138328685898,311.5217424082406L800.5011209214744,311.59025052589243L801.3510543429487,311.5570148860996L801.5592755288462,311.18879561597396L801.6690690144231,311.18335636334916L804.5757549358974,311.1497334618557L804.6450862259616,311.0704638673336L804.8183007932694,310.935833619763L813.2328462500001,311.108779376214L813.584049014423,311.0778394458236L814.479218261218,311.1800774519662L814.6569791426282,311.20480104262003L817.9469193429488,311.19701230999016L818.282437323718,311.2386586122899L818.7422969951924,311.36411248976646L818.8418612740385,311.5573728836193L819.4917568750002,311.4478161867999L820.1643840464744,311.52519613708205L821.1234290064104,311.68371013280284L822.825114375,311.63336506864414L823.0049210977564,311.5958322469505L824.6518233814103,311.38232608345413L827.3741562660256,311.4918559360446L828.1040669951923,311.59621381203374L829.0012820833334,311.57887266842187L831.044850272436,311.7644643038549L832.3489604727564,311.88028335944153L834.4916383092949,311.9639727721711L836.6904631250001,311.9253735515272L839.1450181089745,311.8628466505154L839.9631273317308,311.9255185799313L841.0660631330129,311.92377369255365L841.2374591746795,311.9905031279106L841.6832252724358,312.0148450302664L841.8493930528847,312.00549498108376L843.7993071714745,312.0784097443357L843.8461342067309,311.97789411775227L844.2839442548078,311.8951529664139L844.3619135416668,311.9178695806952L844.8265468429488,312.04025027713527L845.3759689022438,312.0785145033086L845.6082855528847,312.13698989952945L849.3285343830128,312.2213617585026L850.9036049038461,312.2284454007274L852.2086243669871,312.2270542786915L852.6978077644233,312.2956064296789L852.8760232772437,312.3475461526584L854.3740337740385,312.37802597666587L854.8313929727565,312.4112550663785L855.5294795032052,312.30368892932506L855.6872366025643,312.3210818465364L856.0138892708334,312.5085244348602L856.1320934375001,312.50652627096355L857.1093236538462,312.47524698329204L858.4968587179487,312.4011504465525L858.6182453044873,312.34426565682963L859.6041135176283,312.3409432765342L860.1305766907053,312.42411383090314L860.7991121794872,312.4179241392538L869.0049818189104,312.49822497794463L869.3245877003205,312.41324907707457L869.5853188141026,312.4354481979989L869.972437459936,312.4808815179766L871.4570363301282,312.53763432051926L871.4829503205129,312.5537241922027L872.3228818509616,312.6513293811852L873.3014759615385,312.637227586651L873.4521862740386,312.6129926461645L874.6696891907053,312.5050396959433L875.4714316826924,312.61750648187433L876.3925149198718,312.7386267035118L877.8189209695514,312.7943069352894L878.0285060496795,312.9816066210351L878.7922868189104,312.96585348849595L879.0998449679487,313.014494324974L879.9881947435897,313.0113295604508L880.092759967949,312.87794619078755L880.4125931650642,312.9288831042855L880.4378252083334,312.9789632896359L880.6062661458335,313.111165392873L880.6853720112181,313.10385694543214L881.9019656650642,313.19783005938694L884.8163803205128,313.19806949115946L886.3648549038462,313.16109635816696L886.5853511378207,313.2139594137108L886.7003728846154,313.3998206768345L888.0483550160258,313.2425459885933L890.2389964663462,313.35352409016406L891.3285206410258,313.36666263792574L892.3766733573718,313.3582508896826L892.4857848958334,313.33856441468805L893.3745893028847,313.3403552304743L896.0830559294872,313.2875599193287L896.9157133573719,313.3990729734764L900.0099347355771,313.343216218042L900.7312074679489,313.36237893109916L901.8996101923078,313.1719214597402L902.1582954647437,313.2364629735251L902.1614778846155,313.3249502956711L903.5942487740385,313.4182952608338L903.7238187259616,313.4569354310111L904.9786014182692,313.4330397875998L905.4475537179488,313.4836515308588L906.3990972596155,313.4276934546056L906.5814044551283,313.39045611012335L907.1990212259616,313.3886890319336L908.9823129326924,313.40737796182657L910.8651689182693,313.3008698152315L911.3932233012822,313.2510182650466L911.7471538541668,313.0372396916968L911.8267143509615,313.07394635821544L912.243838669872,313.0424447923631L912.6079984294875,312.9476050462468L913.9075623157053,312.9883667081906L914.1480623317309,313.1199790834614L915.4173932291668,313.0321119611737L915.6067472115385,313.10443281944936L923.7478318750002,313.14512762330855L924.7016485737181,313.25302316113255L925.6638759535257,313.2900774077408L925.6797880528848,313.2514545563521L925.7459369230771,313.31796847141936L925.7607124439104,313.46824400239495L925.8461831490387,313.58708938237544L925.9186968589745,313.71456605264797L928.2316341586541,313.8319855366052L928.9999612419873,313.87578886164823L931.0844462580129,313.8524044382812L931.121953349359,313.83839148228293L931.1462761298079,313.88984839890566L931.2433399358977,313.9200642649783L932.0907728846155,314.0147560934035L934.6796714503205,313.9353405115401L937.6711461298078,313.9991194291228L937.7502519951926,313.9870631016601L938.1862435176284,314.0711048591679L940.0215905208335,313.97981770872707L943.3033473557693,314.02388124865655L946.2436760016026,314.0374939806089L946.3734732692309,314.0162787244772L946.4093891506411,314.04488422781145L949.958923886218,314.0857796210059L950.1941956410257,314.16306304138965L950.8702325480771,314.08239228048984L953.9662724519231,314.17065122740615L954.0656094150642,314.0815762956031L954.1499435416669,314.02027249868325L954.7041392307694,313.82126636647547L955.6231766266027,313.8278343269504L956.2823921714744,313.89699472483926L956.6026800000001,313.8611333230479L960.4529534134617,313.839776358672L961.4872398717949,313.841954651544L964.5064470673077,313.9510923731166L964.6760245833334,313.85827404827813L965.5198204807695,313.7994701254979L966.5911593990386,313.7226143261766L967.8063891586539,313.5803629184721L970.2409403605769,313.3991075934727L970.4468883894233,313.4188473670404L970.7828610016028,313.48934896705066L972.5550142387822,313.4127594946405L972.8359764503207,313.414201938505" style="fill: none;" fill="none"></path></g></g></g></g><g opacity="0.2"><g><g><g><path stroke="rgb(255, 112, 67)" stroke-width="2px" d="M81.83365384615385,122.95066523551938L82.09665811698719,-1.573865532875109L82.14916804487181,162.64958488941193L82.19326729166667,157.94407832622528L82.24532258814104,100.82819420099256L82.91590391826924,189.8221190571785L82.9590939022436,194.21610045433044L83.21641528044873,177.14502024650574L83.33552870993591,241.28452348709104L83.72901219551282,204.83471113443375L83.79879811698717,47.56994354724881L83.88267761217949,205.8753411769867L84.53007274038463,117.15496140718457L84.58121877403846,212.95717763900757L85.62778028044872,229.86088800430298L86.03785781250001,186.50594311952588L86.17538381410256,168.97620517015457L86.35905490384616,225.27994322776792L86.68116125801282,219.82449102401733L86.84073688301284,293.5999106168747L86.91075012019232,210.9747301340103L87.0903295272436,270.9944810271263L87.52018352564104,174.65024399757385L87.53064004807693,131.91130864620206L87.75045433493591,165.29958057403564L87.91184848557694,202.11692261695862L88.17371617788463,295.5655809044838L88.45899738782052,224.26196444034576L88.48832111378206,219.5245932340622L88.6876769871795,228.56059330701828L88.78542274038463,218.03653049468994L88.82042935897437,206.70462656021115L89.05774695512822,221.81695657968524L89.71468934294873,232.79657918214798L89.89131364583334,255.8763172030449L90.68532740384616,233.10392010211947L91.19496921474361,244.7712476849556L91.24702451121796,206.68040621280667L91.73302548878206,218.9388792514801L91.76280384615386,257.1659903526306L92.10559592948718,246.95852208137515L92.87710543269232,247.81432110071182L93.0123582772436,254.41782581806186L94.09324445512821,288.6070590019226L94.41216838942309,273.21184980869293L94.50627709134616,275.7456924319267L94.58674685096155,297.6553301811218L95.09911645032054,275.72163301706314L95.6526301923077,313.64357578754425L96.2884322195513,354.9822773337364L96.49619877403846,170.8074163198471L96.6882805448718,314.7420409619808L96.88445399839745,253.0000101327896L103.54457684294873,257.7747176885605L103.63754896634616,286.72917741537094L103.71483630608975,243.17177939414978L104.0003448317308,302.42858934402466L104.15696535256411,272.29710924625397L104.41428673076923,245.66297489404678L104.44770213942307,338.38777872920036L104.62409912660259,286.1409287452698L104.68729289262821,313.5530512332916L104.88323903044873,275.37156450748444L104.9425684294872,243.31758427619937L105.10055284455129,289.62857830524445L105.97980999198717,322.62906315922737L106.00481471955128,274.61252617836L106.81655910256411,176.5623639822006L106.88748160256412,291.4075266122818L106.94476516025641,255.7271327376366L107.15821460737182,313.03857001662254L107.18640175480769,298.85729509592056L107.62944006410258,253.43203353881836L107.74855349358974,330.90628641843796L107.7835601121795,254.92705661058423L108.14476476762822,243.6218272447586L108.3277539102564,283.93144565820694L108.61008001602565,105.33804702758789L110.07672094551283,265.76393204927444L110.88005464743591,201.52662205696106L112.24644935096154,254.56121671199796L112.27281797275643,233.91719269752502L112.33896684294872,295.3331540822983L112.5410505048077,240.9880052804947L113.11684118589744,245.42455333471298L113.29005575320514,299.26871913671494L113.31506048076925,223.83219408988953L113.76650947115387,216.15410256385803L113.91199152243591,265.61482805013657L114.00928264423077,304.0210168361664L114.02383084935897,290.160339653492L114.70623259615387,217.4603517651558L114.74305774038463,324.7841309309006L115.19723451923078,292.25978511571884L115.64800156250001,327.20165956020355L115.84758475160257,254.5291106700897L116.0612615144231,278.2041381597519L116.0685356169872,374.06857493519783L116.1871944150641,245.46160805225372L116.37859423878206,363.3444729745388L116.55635512019232,255.32081830501556L116.88391705128207,258.23494452238083L116.8948282051282,348.1033164560795L116.92869824519231,255.86143094301224L116.98757301282053,301.6635160446167L117.02212500000003,293.0537458062172L117.05576772435899,311.05292397737503L117.16737973557694,288.34087657928467L117.47721104166666,244.28197252750397L117.62451161858976,308.4820668697357L117.69156975160257,274.26257836818695L123.87955787660258,307.11027789115906L124.30350166666669,238.6353324651718L124.37692463942308,343.2365554869175L124.90020539262821,279.3336431980133L124.92771059294874,308.50137877464294L125.096606161859,269.0908502340317L125.41189304487182,275.74142771959305L125.67603389423078,310.25204318761826L125.92403532852565,342.8047935962677L126.02428155448717,304.0220628976822L126.83943567307693,292.6553975343704L126.94741063301284,242.4446861743927L127.41295319711537,286.43865394592285L127.78984263621797,256.56398195028305L128.77866595352566,332.2061787843704L128.8782302323718,305.26912915706635L129.1078190945513,279.7433774471283L129.36445852564103,309.5915358066559L130.27553987179488,272.5460718870163L130.6142402724359,383.99260076880455L131.80355604166667,332.4072237610817L131.88038875,266.9559996128082L131.9769979246795,312.4836947321892L132.1720347996795,290.08188503980637L132.25705087339745,222.35475289821625L132.39412224358975,342.4306254386902L132.4466321714744,285.15054988861084L132.50050599358974,388.9907631576061L132.98105139423075,322.60013553500175L133.11948665865384,288.74646681547165L133.500922411859,255.71799981594086L133.62730994391026,297.063178896904L133.76870031250002,202.65045422315598L134.40609354967953,299.83934569358826L134.4826989423077,326.2490998506546L135.38741544871795,278.16137033700943L135.80113003205128,317.37918215990067L136.02389942307695,224.1957809329033L136.22166408653845,171.43795001506805L137.250949599359,365.20720678567886L137.3243725721154,310.261900305748L137.9842700641026,279.9465145468712L138.75123325320513,302.59700524806976L139.04810756410257,195.201007604599L139.1360787419872,265.03132688999176L139.6802725400641,381.285091817379L145.8071127403846,409.4156775176525L146.00942371794875,253.5736541748047L146.0389747596154,311.92270401120186L146.17536418269233,297.2455556988716L146.18923044070516,240.2737866640091L146.51406458333338,241.9651072025299L146.86776782051285,261.2208466529846L147.74406986378204,365.85727366805077L148.62560016826924,338.5356153845787L149.16070133814102,327.8867091536522L149.33255201121796,207.84748899936673L149.41506761217948,354.2819994986057L149.5819173397436,258.5840474367142L149.61442348557694,174.2777656316757L151.39953371794874,333.5339527130127L151.42544770833334,292.9935972690582L151.44067786057693,226.32705080509183L151.91190331730772,224.167094707489L151.9553206169872,335.6040883362293L152.77956736378206,278.22952526807785L152.784795625,334.16036251187325L153.05825641826925,239.74733608961108L153.74815958333335,288.17254114151L153.8145357692308,329.99281319975853L154.6842456570513,325.87662148475647L155.07681987980772,264.19097739458084L156.09042060897437,296.7464636564255L156.2413582371795,330.54239782691L156.42684785256412,197.9055191874504L158.03669767628205,209.21090948581696L158.83525774839745,301.53098809719086L159.24624454326926,330.34016597270966L159.58244447115388,337.61882293224335L159.62813492788464,296.9257425069809L160.88291762019233,301.9785012602806L161.08591054487178,299.8774464726448L161.13364684294874,393.6488952040673L161.5905514102564,255.13723450899124L162.50458786057692,310.0572343468666L162.6091530849359,268.4583451151848L163.48977412660258,276.64003479480743L163.7825567548077,254.36302828788757L164.0760213301282,262.19521272182465L164.29060735576925,323.7391154766083L170.41290124198719,345.3966121673584L170.51814841346155,270.8240132331848L170.58679775641028,273.70349872112274L170.89685637820511,310.1622830629349L171.29556812500002,282.3007162213326L171.73678790865387,154.19141310453415L171.78566078525643,247.44980889558792L171.8056645673077,304.2858313322067L171.8354429246795,328.2581012248993L171.85862912660258,275.9725670814514L172.0975379326923,306.96865725517273L172.49761357371798,288.59354066848755L172.76857389423077,223.35921335220334L173.89628710737182,303.157533288002L175.130611386218,306.25669169425964L175.83142570512823,282.36195105314255L176.0901109775641,274.02467983961105L176.27650985576926,277.87736463546753L176.3938047596154,323.7847599685192L176.50382556089747,296.6051246523857L176.51019040064105,267.2933142185211L178.87768346955127,279.9249898195267L180.44661646634614,362.6059535443783L180.63346997596153,345.6211935281754L180.84532821314102,265.860572040081L180.87056025641027,242.29493844509125L180.91261366185898,291.9124524593353L180.94193738782053,223.50517916679382L181.90371013621797,299.54705196619034L181.96963169070514,278.0223648548126L182.2417285897436,266.396557867527L182.2569587419872,233.1323649287224L182.41903483974363,288.0139421224594L182.45313219551286,322.3803821504116L182.82297484775643,234.38236820697784L182.8429786298077,345.0873400568962L187.65184237179488,269.5753376483917L187.74663302083334,270.37959802150726L189.11871061698722,132.09951925277707L191.58963233173077,317.01704370975494L191.87082185897438,288.80701768398285L192.59482237980768,340.92192310094833L193.9641721875,360.6604802906514L195.10188729166669,350.89644151926046L195.24009524038462,269.8539923429489L195.37398419070513,308.89188158512115L195.80042845352565,331.3189979195595L196.12912696314103,322.15095269680023L202.5692082051282,338.5992440879345L203.0656657051282,306.126537501812L203.19591760416668,331.9778959751129L203.68964731570514,299.84192061424255L203.70487746794873,294.24698013067245L204.28225935897436,340.1937435865402L204.52798763621797,270.8356808423996L205.5306772115385,264.06251299381256L205.83255246794874,254.3846334815025L205.85392014423078,297.4115576148033L206.92935074519232,243.060333609581L208.7737903766026,286.7231022119522L209.94105652243593,388.99597334861755L210.17041806891024,246.18620681762695L210.57617660256412,393.35563588142395L211.20084016025643,341.85551288723946L211.4406582291667,267.4177955389023L211.6970703445513,352.04240190982824L212.4778997916667,219.18965238332746L212.76136247596156,304.6791504621506L215.0540686778846,325.48473063111305L215.72942363782053,249.38409733772278L217.50976024038465,346.3913764357567L217.7084341666667,301.8086771965027L217.9455244471154,319.2436057627201L218.21921255608976,350.5351077318192L218.83046448717954,320.99177572131157L219.42398579326922,293.1695367693901L219.7106308974359,311.3036568760872L221.5853035176282,320.38574400544167L222.33089903044876,282.2463612556458L222.49706681089745,283.46285033226013L222.7209727804487,298.8227348327637L222.93010322916666,232.49688255786896L223.65751348557694,260.2795522212982L224.11055368589746,300.2577702999115L225.28486661858977,352.45676296949387L225.33896775641026,323.72012543678284L227.39912999198722,264.88097566366196L227.94036868589748,280.4250474572182L228.02447549679488,311.47386315464973L228.17859554487185,338.5720464885235L228.27770519230768,310.00569570064545L228.3040738141026,314.5880888700485L229.70297466346156,346.55265095829964L230.4272025,312.28293138742447L230.91774979166667,236.71174603700638L231.0050390224359,290.23698377609253L231.84065155448724,306.9207798242569L231.88247764423082,273.32957196235657L232.1332068669872,223.19968897104263L237.98544969551284,403.7171165943146L238.14502532051284,332.4340592622757L238.2948263701923,314.5244400501251L238.30710141826924,350.50911712646484L238.75173093749999,366.86664256453514L239.06088029647438,367.31373327970505L239.1563528926282,399.64109766483307L240.3561251842949,292.9297070503235L241.14718383814105,312.6492540836334L241.93005912660257,322.03264716267586L242.48584602564102,320.1600964665413L242.90978981570512,356.69801938533783L243.1166471073718,337.00868743658066L243.35510128205132,290.9567947983742L244.3932521073718,292.68211233615875L244.7492285016026,213.4498726129532L245.7853334855769,373.94365105032927L246.38090063301283,286.7838140130043L249.11255346153845,326.47352027893066L250.27527329326927,378.51837980747223L251.0140493349359,323.2718076109886L251.43208291666667,325.31717973947525L252.09107114583335,346.2764504849911L252.95100645833335,257.71702337265015L255.19233931089747,357.9041283130646L256.3352826762821,341.1912638247013L256.367106875,325.6649549603462L257.38116223557694,231.44973474740982L259.6213585096154,278.48512637615204L259.7263783653846,231.06965231895447L259.93596344551287,279.18075728416443L260.75520924679495,314.4675906300545L261.0761790224359,291.68264079093933L262.4227972596154,296.63477647304535L262.9492604326923,295.1407189965248L263.27250336538464,349.05358287692076L263.98013715544874,398.21350532770157L266.21374127403845,259.1940622329712L267.0570825400641,265.25043654441833L272.3076206971154,382.4922065734863L272.3108031169872,302.1186332702637L272.7011041826923,280.37342834472656L272.78475636217945,279.4787641167641L272.89886884615385,319.7871353030205L274.10091429487187,224.5945315361023L275.1311090705128,283.79433113336563L276.28678211538465,267.56050246953964L276.32065215544867,231.7543800473213L283.0226010897436,348.42218416929245L283.57906993589745,333.53149849176407L284.13031052083335,387.77871984243393L285.2721173076924,253.843859910965L288.01718176282054,260.44442760944366L288.2817772435898,317.84307020902634L288.93985620993584,327.275929927826L289.5949800721154,353.28053641319275L290.1353095032051,353.26774227619177L290.4274101842949,263.08098542690277L292.49621041666666,216.27930808067322L292.9744826602564,318.0866013765335L293.2245299358974,361.4010314941407L293.49662683493597,345.368448972702L293.61664952724357,216.04040372371676L294.6834421314103,315.84438863396645L295.08920066506414,375.7585878968239L299.56504689903846,306.4327921271324L299.71348405448725,342.0795511007309L300.11424164262826,240.20337867736816L302.41558584134617,289.32654815912247L303.08662180288457,206.74498039484024L304.23001979967955,294.24802619218826L305.81077321314103,285.4984860420227L306.2442642628206,436.51798474788666L307.3840252083333,244.33854031562802L307.42153229967954,307.89088118076324L307.6543035817308,364.12879782915115L308.7899728445513,229.78573250770572L309.0793457371795,374.0277584195137L310.86900228365386,318.0191102921963L311.5945940144231,169.81760072708127L312.52431524839744,313.0814987719059L312.94394004006415,295.9648143053055L313.8086489823718,340.60907024145126L313.82342450320516,339.11694395542145L314.7879250400641,218.8941400051117L314.87703279647434,261.2836103439331L316.2941189022436,235.13742345571518L316.63577440705126,368.0502008199692L317.4122848557692,291.8078463077545L320.1296167948718,424.74080058932304L321.02342214743595,275.44832932949066L321.42963531250007,309.04187071323395L321.5587506330128,374.85249745845795L323.02220914262824,375.9949173331261L323.1340484695513,319.3407687842846L323.21929185897443,219.8139499425888L323.2454331650641,352.44288253784185L323.46115576923074,337.6402470767498L323.5564010496795,331.34438502788544L330.9818958733975,314.10390320420265L331.2273968349359,391.2662889361382L331.46630564102566,242.37222629785538L332.11688318910257,346.2799507677555L332.1527990705128,387.7159762680531L332.4792244230769,415.2043807804585L332.48058831730776,272.7684806585312L333.75014653044866,369.01229578256607L334.145903173077,339.94474071264267L334.98333423076923,274.5729770064354L335.42296280448727,435.9163183271885L336.6954761217949,272.89626109600067L337.05213446314104,373.6627634167671L337.91638877403847,418.71321308612823L338.08323850160264,342.2034289240837L338.42421205929486,343.6411197781563L342.11150011217944,308.57951152324677L343.8063660096154,237.495849609375L344.8977087099359,284.8700444698334L347.153135136218,358.9688177704811L349.1310090865385,351.9192482829094L349.4085615625,267.18967366218567L349.78817879006414,272.542772769928L350.12619724358973,334.5411087870598L350.2921377083333,330.676836848259L350.488311161859,318.61150297522545L350.49740379006414,286.6984795331955L352.6655409855769,290.13036596775055L353.34225983974363,277.6194702386856L353.91805052083333,335.88024857640266L356.5262709214744,362.3978074193001L356.82587302083334,369.88732624053955L357.32937730769237,432.62985455989843L357.36915755608976,266.8574284315109L357.46917646634614,180.4429303407669L357.58669868589743,393.1566629111767L357.84902100961546,274.6365855932236L358.00655079326924,300.9593959450722L358.76874035256407,322.1849295794964L361.55222116185905,459.33795753121376L362.2341682772436,347.18658435344696L364.4675450801282,298.4986971616745L364.82761315705125,262.30529057979584L367.60836617788465,206.5603103041649L369.12774435096156,287.46765661239624L370.2500019871795,345.71529883146286L370.62848263621794,259.66615784168243L370.66894483173076,258.08427143096924L373.2771652323718,296.5808238387108L374.4162442307693,258.22347807884216L374.4721638942308,366.61894726753235L374.6576535096155,346.0955623090267L375.1256965464744,297.8921424150467L375.37778966346156,290.29652881622314L375.51167861378207,217.95622515678406L376.0517807291667,376.24472486972815L376.90148683493595,269.10320180654526L385.0268867147436,276.690567612648L385.27488814903853,314.4618171751499L385.62154459935897,272.79366660118103L386.0213929246795,343.1381653547287L386.06799264423086,259.29223108291626L386.4710233894231,336.41569125652313L386.57331545673077,322.2884695529938L387.27185661858977,289.1417171359062L388.5361865705129,387.8113891482353L388.61301927884614,305.4682027101517L389.13607271634623,295.04496413469315L390.78001989583333,327.281522333622L391.3139844871795,392.9959918856621L391.4960643669872,415.31671169400215L392.54944534455126,332.26938503980637L393.12296286858975,327.8196606338024L394.5361846073718,313.39966240525246L398.24711349358984,263.5851870775223L400.6118787740385,358.16055420041084L400.9864950560898,189.1109983921051L401.5568301602564,350.2861249744892L402.9555036939103,343.94896361231804L403.0218798798077,347.4884133338929L404.79767016826924,302.7910898923874L405.6175979166667,282.1922476887703L406.07745758814104,320.518815100193L406.7914562179487,318.2071398496628L407.9003022275641,246.64084124565127L408.30446955128207,320.48775511980057L408.9002640144231,355.3566466569901L409.8213472516026,385.6001358032227L410.2571114583334,366.66227835416794L411.55758460737184,240.18800961971283L412.22020988782054,310.73888424038887L413.1037860336538,344.31090089678764L413.3581523076923,267.17482763528824L413.9937270192308,301.1765341758728L414.8579813301282,278.71465641260147L416.8715438461539,359.82658821344376L418.0156237900641,324.7434552311897L418.12359875,348.05984455347067L418.152013213141,338.4120594263077L420.249455224359,325.28296145796776L421.80520391025647,271.5546872019768L422.14299504807695,354.38386979699135L422.3684922275641,372.59224015474325L422.74583629807694,371.12344908714294L423.4787021314103,362.737093448639L424.00789309294873,369.1822405457497L425.8837022916667,272.5785802602768L426.53950810096154,319.18402048945427L428.01796944711543,349.8355540931225L428.3091608653847,265.91066229343414L436.4081921233975,420.0318138599396L436.59595489583336,276.69962006807333L436.8769171073718,317.2839704453945L437.3538254567308,441.5575470328331L438.6652097596154,389.95142984390264L438.9213945592949,320.7748990058899L440.0743398157051,248.03636777400968L441.3834509615385,253.04515171051028L441.4930171314102,349.07540935277945L442.89328187499996,377.2767249047756L445.0468708653847,273.3248244524002L446.0200093990385,343.26310935616493L448.0633502724359,372.5425119996071L448.07448874198724,307.4113826751709L448.22679026442313,335.0470404624939L449.2190233173077,330.5277328491211L449.74253138621793,262.79541063308716L451.01390812500006,363.9178555011749L452.1711723798077,288.66185653209686L453.12726223557695,342.15603429079056L453.2763813381411,380.97002613544464L453.4295921233974,312.3854856491089L453.44300375000006,363.4053658246994L454.21224009615383,298.49909949302673L454.3463563621795,324.87612399458885L454.35135730769235,260.10329085588455L454.95692634615386,311.3503273129463L455.2722132291667,370.50090166926384L456.8243248637821,350.412336319685L458.49714113782056,366.20162907242775L459.3704880769231,298.4508599638939L460.9280552884616,350.58763208985334L462.0218984615385,341.8379108905792L462.6604282772436,249.63849145174026L462.6972534214744,360.71131485700613L463.951808798077,216.39819699525833L464.03068734775644,346.3779586851597L465.0699747516026,338.76635241508484L465.21000122596155,366.01468580961233L466.4856969631411,304.50156140327454L466.6911903605769,309.05595231056213L467.4495155528847,347.58925768733025L467.57613040064103,271.79306852817535L471.1161178766026,256.5633784532547L471.17658385416667,353.77540397644043L471.1947691105769,318.55439203977585L471.60143690705127,249.04364454746246L473.3015310657052,380.43564963340765L474.43265401442306,178.19365668296814L474.71929911858973,254.06498122215268L479.7066056891026,368.34639716148376L489.12884166666663,375.21668779850006L489.5175515224359,382.1807618737221L490.53183419871795,354.44578859210014L491.30038859775635,315.2687329351902L491.42018397435896,407.46097075939184L491.67136782852566,349.7673388123512L493.28599128205127,312.0029489994049L493.9240664663461,312.1692727804184L494.0636383092949,381.94986391067505L495.0449602083333,389.9068917632103L498.06598592948717,340.70261228084564L499.88792130608977,298.2454698085785L499.8999690384615,353.35096451640135L501.0256364102564,342.9769511818886L501.10292375,371.62571954727173L502.1458482051282,287.45136219263077L502.1531223076923,297.2009371519089L503.7011422596154,317.53967213630676L503.85298915064095,322.20204877853394L507.02517981570514,350.7689628303051L508.10197431089745,361.76610696315765L508.5222810496795,354.20873495936394L509.6972759294872,352.40789982676506L510.0237012820512,332.9205181002617L511.4348771794872,369.44765853881836L512.1579684375,300.27744430303574L514.6659426121795,295.2184896469116L516.4301397996794,342.00397315621376L518.3650510817308,283.92907190322876L520.2567723798078,295.5237786769867L522.9111378685898,400.027577161789L524.4784796554487,320.06059992313385L525.0469962339744,294.9542384147644L526.5002255368589,362.2038434743881L526.7525459695513,347.88770708441734L526.7898257451923,291.45733523368835L527.6634,257.7602739930153L528.1850895432692,281.73033106327057L529.5121586298077,334.829137802124L531.0847286778846,352.66340035200125L531.1145070352565,283.9635919332504L531.6873426121795,319.1042582988739L532.0071758092948,364.77401661872864L540.1414410016026,412.6757282316685L540.5744774198718,363.9795328974724L544.3272323958334,322.57325980067253L544.5397725801283,353.0769969820976L546.4576351842949,350.9286079108715L547.0579759615384,352.682993888855L547.1575402403846,388.23381695151335L548.5034765304488,251.23401689529416L548.6748725721153,332.65793654322624L548.8274014102565,318.18917575478554L550.5070371554488,352.1978023946285L552.2575954006411,234.49864196777344L552.4571785897436,360.6195430755615L552.539466875,317.8507346212864L556.5177190304488,318.7624778151512L557.2205791907052,384.22090369462967L557.6833939663461,312.15024250745773L558.7067692708333,352.8361614346504L558.7726908253205,243.2178865671158L561.6705114342949,312.12447318434715L562.3710984375001,352.3014831840992L563.142380625,245.3768770694733L563.3424184455129,287.32965695858L564.4651307131411,242.1813200712204L565.7446908173077,337.49116319417953L566.0686156971154,321.43005537986755L567.4081871474359,408.79204380512243L569.3110469150641,368.8623871207237L569.5813252884615,356.05318281054497L573.8532693349359,400.44660526514053L577.5698811137821,308.2621927857399L578.5866642628206,233.28420478105542L581.6279210817308,349.3847216963768L581.8986540865385,388.1755392551422L581.9307056009616,195.96511530876163L582.5967406169872,325.0427495241165L584.86239625,354.6492274403572L586.4076884134615,300.39701718091965L586.4124620432692,224.07544362545013L586.9875707772436,356.59810039401054L594.1089171875,376.5574972629547L594.1118722916667,329.171353161335L594.4501180608975,349.692283898592L594.4962631490384,279.6608190536499L594.7679054166667,375.48305127024656L594.9152059935898,392.98388171195984L595.0356833173078,392.5382595062256L595.5416880769232,286.4234458208084L595.974042548077,365.1845555305481L596.823521338141,342.0921440720558L597.1740421554487,245.59646952152252L599.0171178926281,444.1602084338665L601.9358515464744,376.05842533707624L602.2509111137821,350.04092413187027L602.2997839903846,244.9470664858818L602.9783213701924,238.77606797218323L605.8813702403846,274.1589378118515L605.8859165544872,348.8706629276276L605.9231963301281,347.8189687728882L606.335774334936,366.8581734895706L606.8385966746795,348.28321892023087L607.2009379086538,350.90239602327347L607.981312724359,294.27928733825684L608.6605320512821,356.6631372570992L609.9562315705128,314.8476328253746L610.351988213141,397.2459386587143L610.7900255769231,348.5605459213257L611.0530298477563,358.55039316415787L613.5296344551283,304.43618255853653L614.6398443589744,261.5005474090576L615.0956123477564,275.8598338365555L615.5691109615384,342.38236579298973L616.9871063301282,263.368290245533L617.1019007612178,292.9548527598381L618.7835823477565,309.22955828905106L619.5119018669872,393.77516689896584L620.3877492788462,328.7815745472908L621.0997020673077,319.304277330637L622.5713439423077,190.90929883718488L624.719022724359,345.5560359656811L627.7502776522437,383.96419617533684L628.8688982371796,398.9111881256104L629.1562252884615,369.44761830568314L630.3919134615385,327.1060857474804L631.1731975400642,345.00860381126404L634.6518097756411,191.4676542878151L638.3979725961539,215.4203708767891L640.7020445833334,344.7265695333481L647.7224628205129,412.85494673252106L648.6001287580128,300.4062305688858L649.1629624439103,318.341719686985L649.2895772916667,328.65948709845543L649.3495886378206,286.04493248462677L650.5625452403847,318.52397578954697L650.969213036859,428.9271588921547L652.575653125,289.537007689476L652.8022868830128,319.88291028141975L654.5958077964743,350.02084779739386L655.5800847996795,343.1785996556282L655.6371410416667,342.33408603072166L656.1906547836538,194.3560312986374L657.9546246554487,442.6856036782265L658.8688884214745,376.7872485816479L659.2198638701923,336.6736661195755L660.2805189503206,375.3251563310623L660.5646635817308,360.8881998360157L660.5989882532052,333.7835792005062L661.3191244070513,285.3069763183594L662.0822232291667,243.53106129169467L662.7773546554488,390.88234412670135L663.8446018910256,288.6332105398178L664.0646434935898,417.4190338253975L665.1775811858976,382.2959694564343L667.5768984535257,306.66441428661346L667.9367392147436,320.28337079286575L668.4404708173076,372.02390688657766L668.6934731971154,335.4509811401367L669.8921089102564,375.2788882255554L670.7109000801282,328.680126696825L670.8732034935897,352.4460006058216L672.3632579407051,258.72526574134827L674.4318308573718,320.24345952272415L675.0389911057692,401.3390164375305L678.176857099359,246.9462912082672L678.5805697916667,300.4194270372391L678.9842824839743,323.96735805273056L679.1374932692307,319.92107141017914L679.5875783653846,350.85612791776657L680.6800576442308,381.7180808186531L681.1080931169872,338.0142543017864L681.1380987900641,251.79116535186768L682.843648525641,302.11943793296814L683.6276603926282,291.14303398132324L683.6876717387821,268.5847978591919L684.0290999278845,363.268050134182L684.1807195032051,394.6840736567974L685.0763433814102,305.061405479908L686.2683869391026,331.80628153681755L690.1097950400642,380.03392177820206L690.632621161859,328.20107075572014L690.6767204086539,362.1739100217819L690.8774401762821,357.61475148797035L691.590302227564,352.6624146401883L691.6168981650641,231.31869542598722L692.8409932371795,382.85573306679726L700.6211005608975,316.4732124209404L701.1368798958334,335.25444227457047L703.1190728445514,361.4902283549309L703.3125185096154,345.76428267359734L704.1849561858975,276.095680475235L704.3840847435898,279.3338041305542L705.1067213701923,256.1307113170624L705.3688163782052,284.44200414419174L706.5797271394231,344.59798443317413L707.1027805769231,301.03644239902496L707.6740249439102,351.8786932826042L708.0841024759616,349.97309106588364L708.8742518669872,260.7787247300148L709.274782139423,325.9711291193962L709.4918686378204,310.5050291419029L710.8439424519231,396.50770086050034L710.8591726041668,366.2022728025913L711.2990284935897,327.2757287621498L711.3056206490385,352.52073365449905L711.5590776602564,317.36731338500977L712.659285673077,224.0255545377731L713.8154133493591,315.7877001464367L713.898610897436,374.96496918797493L715.6430316185897,331.6049750447273L716.3317982051282,362.3649972975254L718.7379349439103,342.48079615831375L719.4585257291668,366.4588998556137L720.221397235577,374.9175946712494L720.7655910336538,282.59848165512085L721.1408892628205,342.75245028734207L722.191315136218,286.6296808719635L723.677050584936,324.7353281378746L724.4460596153847,357.125154465437L725.5912761378205,299.60156786441803L726.1204670993591,353.9517055749893L728.5550183012821,295.0301181077957L733.1633895913461,384.26998811960226L733.5189113541668,379.86944872140884L734.5695645432693,320.4317103624344L737.0561710416666,330.77208879590034L738.9567576522437,388.79750329256063L740.7405039903847,398.626015663147L740.822792275641,359.2474724650383L741.6202157692309,315.55782812833786L742.688144951923,151.43089699745178L743.0552598157052,380.0009909570217L743.5292130608975,373.06107687950134L744.7283034054486,387.82832729816437L744.7528535016025,293.6961080431938L744.8096824278846,295.96545803546906L745.9128455448717,271.93822968006134L747.5017823237179,298.9203404188156L747.9650517307692,325.19042524695396L755.4087318108974,386.2458172738552L755.9790669150641,270.74732887744904L756.7228439022435,429.0501515865326L757.1979337259614,337.1469284892082L758.6736672836539,316.01604330539703L759.9509542307693,251.86615991592407L762.9494756971154,304.03280514478683L764.6868496314103,241.65193247795105L765.8748015064103,284.61834597587585L766.0873416907051,305.49399214982986L766.3489820673077,338.68860188126564L768.2070606410256,257.7258746623993L770.1274237179488,353.0929695367813L770.1958457451923,271.6215144395828L771.5397361939102,267.41071450710297L772.7676956330129,345.32634499669075L772.789290625,288.22609144449234L773.4866952083335,355.1040630340576L777.469948309295,351.4371346235275L777.9636780208333,369.78720608353615L778.067788613782,309.26102060079575L778.8486180608974,292.58973705768585L779.1675419951923,357.59364920854574L780.5662155288461,325.8240568935871L780.8198998557692,233.187765955925L780.938331338141,379.2762916088104L783.3401490785257,323.8148543536663L783.5633731009615,382.4730958342552L788.8539188221155,321.6312411725521L789.5904217067308,412.14507329463964L791.8749445432692,318.63522040843964L792.3677649919872,292.57581639289856L792.9990207051283,351.6042630672455L796.3466990945512,364.394517570734L796.8138328685898,294.8542993068695L800.5011209214744,350.43701934814453L801.3510543429487,292.69675719738007L801.5592755288462,102.07618582248688L801.6690690144231,308.0920468568802L804.5757549358974,292.02623176574707L804.6450862259616,265.9506540298462L804.8183007932694,234.24718487262726L813.2328462500001,409.6971284151078L813.584049014423,293.42714953422546L814.479218261218,369.5488851070404L814.6569791426282,325.3303560912609L817.9469193429488,306.74367356300354L818.282437323718,335.0684243738651L818.7422969951924,383.2016173303128L818.8418612740385,422.30470436811447L819.4917568750002,248.61998963356018L820.1643840464744,355.93344900012016L821.1234290064104,402.7220706939697L822.825114375,282.6976161003113L823.0049210977564,290.007976770401L824.6518233814103,188.48891365528104L827.3741562660256,374.5832372009755L828.1040669951923,371.7525746226311L829.0012820833334,301.57536524534225L831.044850272436,418.9042198956013L832.3489604727564,378.79003393650055L834.4916383092949,360.3473860323429L836.6904631250001,289.593736410141L839.1450181089745,275.6615247130394L839.9631273317308,348.23713186383253L841.0660631330129,310.91206777095795L841.2374591746795,350.708975225687L841.6832252724358,326.1489595770836L841.8493930528847,306.572481572628L843.7993071714745,354.47731125354767L843.8461342067309,253.4875150322914L844.2839442548078,263.71328938007355L844.3619135416668,325.15568393468857L844.8265468429488,383.4069672524929L845.3759689022438,334.4083394408226L845.6082855528847,346.28572422266006L849.3285343830128,361.528248667717L850.9036049038461,316.3710604906082L852.2086243669871,311.4129300713539L852.6978077644233,352.44264113903046L852.8760232772437,342.787111133337L854.3740337740385,330.2534836828709L854.8313929727565,331.91277864575386L855.5294795032052,249.13082975149155L855.6872366025643,322.54298436641693L856.0138892708334,422.7465446591378L856.1320934375001,311.330552726984L857.1093236538462,294.0537001490593L858.4968587179487,268.7325339317322L858.6182453044873,278.7960480451584L859.6041135176283,310.38018572330475L860.1305766907053,361.5425917804241L860.7991121794872,308.75991690158844L869.0049818189104,359.9874805212021L869.3245877003205,262.1245633363724L869.5853188141026,325.58191376924515L869.972437459936,339.40527471899986L871.4570363301282,346.19316789507866L871.4829503205129,322.1018682718277L872.3228818509616,370.6123474538326L873.3014759615385,304.257426738739L873.4521862740386,298.20189732313156L874.6696891907053,248.26811063289645L875.4714316826924,379.58580511808395L876.3925149198718,384.9084879755974L877.8189209695514,345.9939937591553L878.0285060496795,424.7356507480145L878.7922868189104,303.56026697158813L879.0998449679487,342.075608253479L879.9881947435897,311.1192281842232L880.092759967949,233.07921695709229L880.4125931650642,343.42311653494835L880.4378252083334,342.98035088181496L880.6062661458335,392.3619579076767L880.6853720112181,308.7197642326355L881.9019656650642,369.60665988922125L884.8163803205128,313.34188762307167L886.3648549038462,290.9379254579544L886.5853511378207,345.0090061426163L886.7003728846154,425.26194038987165L888.0483550160258,218.52302956581113L890.2389964663462,380.23470523953443L891.3285206410258,321.28984290361404L892.3766733573718,308.28222888708115L892.4857848958334,301.4510850906372L893.3745893028847,314.4224289357662L896.0830559294872,281.36593955755234L896.9157133573719,380.8671701252461L900.0099347355771,279.52652084827423L900.7312074679489,324.9713759422302L901.8996101923078,197.71565902233124L902.1582954647437,352.3871998786926L902.1614778846155,367.0358832478523L903.5942487740385,370.11436182260513L903.7238187259616,336.94141763448715L904.9786014182692,298.9005457162857L905.4475537179488,344.28372341394424L906.3990972596155,279.3522309064865L906.5814044551283,290.7003890275955L907.1990212259616,312.31125551462173L908.9823129326924,324.8097795546055L910.8651689182693,248.2772033214569L911.3932233012822,282.7970724105835L911.7471538541668,182.3585103750229L911.8267143509615,335.5262573361397L912.243838669872,293.76172828674316L912.6079984294875,254.8636894226074L913.9075623157053,337.9683080613613L914.1480623317309,393.8267256617546L915.4173932291668,259.11673414707184L915.6067472115385,357.50847566127777L923.7478318750002,338.1468627154827L924.7016485737181,379.582485884428L925.6638759535257,336.0836471915245L925.6797880528848,289.4781466126442L925.7459369230771,354.28441348671913L925.7607124439104,406.0816984176636L928.2316341586541,386.33123221993446L928.9999612419873,340.9383382201195L931.0844462580129,299.3961374759674L931.121953349359,305.17023611068726L931.1462761298079,345.73972034454346L931.2433399358977,332.63401794433594L932.0907728846155,372.6973291039467L934.6796714503205,264.68966710567474L937.6711461298078,353.5726490914822L937.7502519951926,306.5017919540405L938.1862435176284,366.28090846538544L940.0215905208335,257.2344269156456L943.3033473557693,341.4310331940651L946.2436760016026,322.50963109731674L946.3734732692309,300.8045788407326L946.4093891506411,331.86958837509155L949.958923886218,339.58395007252693L950.1941956410257,362.3780931830406L950.8702325480771,263.7238304615021L953.9662724519231,369.29919826984406L954.0656094150642,258.4099988937378L954.1499435416669,275.6826471090317L954.7041392307694,189.29422008991241L955.6231766266027,317.9401527643204L956.2823921714744,357.2253550887108L956.6026800000001,291.38093250989914L960.4529534134617,300.4439290165901L961.4872398717949,315.2090671956539L964.5064470673077,382.4872578978539L964.6760245833334,255.53590464591983L965.5198204807695,276.82824540138245L966.5911593990386,265.3733487725258L967.8063891586539,224.03871077299118L970.2409403605769,199.23904645442963L970.4468883894233,325.85883843898773L970.7828610016028,357.94540750980383L972.5550142387822,265.0896649360657L972.8359764503207,314.3248233497143" style="fill: none;" fill="none"></path></g></g></g></g></g></g><g transform="translate(51, 378)" clip-path="url(#clip_1)"><clipPath id="clip_1"><rect width="1063" height="22"></rect></clipPath><g><g><line x1="0" y1="0" x2="0" y2="5" style="visibility: inherit;" fill="rgb(0, 0, 0)" stroke="rgb(204, 204, 204)" stroke-width="1px"></line><line x1="81.83365384615385" y1="0" x2="81.83365384615385" y2="5" style="visibility: inherit;" fill="rgb(0, 0, 0)" stroke="rgb(204, 204, 204)" stroke-width="1px"></line><line x1="163.6673076923077" y1="0" x2="163.6673076923077" y2="5" style="visibility: inherit;" fill="rgb(0, 0, 0)" stroke="rgb(204, 204, 204)" stroke-width="1px"></line><line x1="245.50096153846158" y1="0" x2="245.50096153846158" y2="5" style="visibility: inherit;" fill="rgb(0, 0, 0)" stroke="rgb(204, 204, 204)" stroke-width="1px"></line><line x1="327.3346153846154" y1="0" x2="327.3346153846154" y2="5" style="visibility: inherit;" fill="rgb(0, 0, 0)" stroke="rgb(204, 204, 204)" stroke-width="1px"></line><line x1="409.1682692307692" y1="0" x2="409.1682692307692" y2="5" style="visibility: inherit;" fill="rgb(0, 0, 0)" stroke="rgb(204, 204, 204)" stroke-width="1px"></line><line x1="491.0019230769231" y1="0" x2="491.0019230769231" y2="5" style="visibility: inherit;" fill="rgb(0, 0, 0)" stroke="rgb(204, 204, 204)" stroke-width="1px"></line><line x1="572.8355769230769" y1="0" x2="572.8355769230769" y2="5" style="visibility: inherit;" fill="rgb(0, 0, 0)" stroke="rgb(204, 204, 204)" stroke-width="1px"></line><line x1="654.6692307692307" y1="0" x2="654.6692307692307" y2="5" style="visibility: inherit;" fill="rgb(0, 0, 0)" stroke="rgb(204, 204, 204)" stroke-width="1px"></line><line x1="736.5028846153847" y1="0" x2="736.5028846153847" y2="5" style="visibility: inherit;" fill="rgb(0, 0, 0)" stroke="rgb(204, 204, 204)" stroke-width="1px"></line><line x1="818.3365384615385" y1="0" x2="818.3365384615385" y2="5" style="visibility: inherit;" fill="rgb(0, 0, 0)" stroke="rgb(204, 204, 204)" stroke-width="1px"></line><line x1="900.1701923076923" y1="0" x2="900.1701923076923" y2="5" style="visibility: inherit;" fill="rgb(0, 0, 0)" stroke="rgb(204, 204, 204)" stroke-width="1px"></line><line x1="982.0038461538463" y1="0" x2="982.0038461538463" y2="5" style="visibility: inherit;" fill="rgb(0, 0, 0)" stroke="rgb(204, 204, 204)" stroke-width="1px"></line><line x1="1063.8375" y1="0" x2="1063.8375" y2="5" style="visibility: inherit;" fill="rgb(0, 0, 0)" stroke="rgb(204, 204, 204)" stroke-width="1px"></line></g><g transform="translate(0, 8)"><text x="0" y="0" dx="0em" dy="0.95em" style="text-anchor: middle; visibility: hidden; font-family: Roboto, sans-serif; font-size: 12px; font-weight: 200;" fill="rgb(50, 49, 63)" stroke="none" stroke-width="1px">-0.1</text><text x="81.83365384615385" y="0" dx="0em" dy="0.95em" style="text-anchor: middle; visibility: inherit; font-family: Roboto, sans-serif; font-size: 12px; font-weight: 200;" fill="rgb(50, 49, 63)" stroke="none" stroke-width="1px">0</text><text x="163.6673076923077" y="0" dx="0em" dy="0.95em" style="text-anchor: middle; visibility: inherit; font-family: Roboto, sans-serif; font-size: 12px; font-weight: 200;" fill="rgb(50, 49, 63)" stroke="none" stroke-width="1px">0.1</text><text x="245.50096153846158" y="0" dx="0em" dy="0.95em" style="text-anchor: middle; visibility: inherit; font-family: Roboto, sans-serif; font-size: 12px; font-weight: 200;" fill="rgb(50, 49, 63)" stroke="none" stroke-width="1px">0.2</text><text x="327.3346153846154" y="0" dx="0em" dy="0.95em" style="text-anchor: middle; visibility: inherit; font-family: Roboto, sans-serif; font-size: 12px; font-weight: 200;" fill="rgb(50, 49, 63)" stroke="none" stroke-width="1px">0.3</text><text x="409.1682692307692" y="0" dx="0em" dy="0.95em" style="text-anchor: middle; visibility: inherit; font-family: Roboto, sans-serif; font-size: 12px; font-weight: 200;" fill="rgb(50, 49, 63)" stroke="none" stroke-width="1px">0.4</text><text x="491.0019230769231" y="0" dx="0em" dy="0.95em" style="text-anchor: middle; visibility: inherit; font-family: Roboto, sans-serif; font-size: 12px; font-weight: 200;" fill="rgb(50, 49, 63)" stroke="none" stroke-width="1px">0.5</text><text x="572.8355769230769" y="0" dx="0em" dy="0.95em" style="text-anchor: middle; visibility: inherit; font-family: Roboto, sans-serif; font-size: 12px; font-weight: 200;" fill="rgb(50, 49, 63)" stroke="none" stroke-width="1px">0.6</text><text x="654.6692307692307" y="0" dx="0em" dy="0.95em" style="text-anchor: middle; visibility: inherit; font-family: Roboto, sans-serif; font-size: 12px; font-weight: 200;" fill="rgb(50, 49, 63)" stroke="none" stroke-width="1px">0.7</text><text x="736.5028846153847" y="0" dx="0em" dy="0.95em" style="text-anchor: middle; visibility: inherit; font-family: Roboto, sans-serif; font-size: 12px; font-weight: 200;" fill="rgb(50, 49, 63)" stroke="none" stroke-width="1px">0.8</text><text x="818.3365384615385" y="0" dx="0em" dy="0.95em" style="text-anchor: middle; visibility: inherit; font-family: Roboto, sans-serif; font-size: 12px; font-weight: 200;" fill="rgb(50, 49, 63)" stroke="none" stroke-width="1px">0.9</text><text x="900.1701923076923" y="0" dx="0em" dy="0.95em" style="text-anchor: middle; visibility: inherit; font-family: Roboto, sans-serif; font-size: 12px; font-weight: 200;" fill="rgb(50, 49, 63)" stroke="none" stroke-width="1px">1</text><text x="982.0038461538463" y="0" dx="0em" dy="0.95em" style="text-anchor: middle; visibility: inherit; font-family: Roboto, sans-serif; font-size: 12px; font-weight: 200;" fill="rgb(50, 49, 63)" stroke="none" stroke-width="1px">1.1</text><text x="1063.8375" y="0" dx="0em" dy="0.95em" style="text-anchor: middle; visibility: hidden; font-family: Roboto, sans-serif; font-size: 12px; font-weight: 200;" fill="rgb(50, 49, 63)" stroke="none" stroke-width="1px">1.2</text></g><line x1="0" y1="0" x2="1063.8375" y2="0" fill="rgb(0, 0, 0)" stroke="rgb(204, 204, 204)" stroke-width="1px"></line></g></g></g></g></svg>